%TF.GenerationSoftware,KiCad,Pcbnew,9.0.3*%
%TF.CreationDate,2025-08-25T22:21:15+02:00*%
%TF.ProjectId,gaia-obc-stencil,67616961-2d6f-4626-932d-7374656e6369,rev?*%
%TF.SameCoordinates,Original*%
%TF.FileFunction,Paste,Top*%
%TF.FilePolarity,Positive*%
%FSLAX46Y46*%
G04 Gerber Fmt 4.6, Leading zero omitted, Abs format (unit mm)*
G04 Created by KiCad (PCBNEW 9.0.3) date 2025-08-25 22:21:15*
%MOMM*%
%LPD*%
G01*
G04 APERTURE LIST*
G04 Aperture macros list*
%AMRoundRect*
0 Rectangle with rounded corners*
0 $1 Rounding radius*
0 $2 $3 $4 $5 $6 $7 $8 $9 X,Y pos of 4 corners*
0 Add a 4 corners polygon primitive as box body*
4,1,4,$2,$3,$4,$5,$6,$7,$8,$9,$2,$3,0*
0 Add four circle primitives for the rounded corners*
1,1,$1+$1,$2,$3*
1,1,$1+$1,$4,$5*
1,1,$1+$1,$6,$7*
1,1,$1+$1,$8,$9*
0 Add four rect primitives between the rounded corners*
20,1,$1+$1,$2,$3,$4,$5,0*
20,1,$1+$1,$4,$5,$6,$7,0*
20,1,$1+$1,$6,$7,$8,$9,0*
20,1,$1+$1,$8,$9,$2,$3,0*%
%AMRotRect*
0 Rectangle, with rotation*
0 The origin of the aperture is its center*
0 $1 length*
0 $2 width*
0 $3 Rotation angle, in degrees counterclockwise*
0 Add horizontal line*
21,1,$1,$2,0,0,$3*%
G04 Aperture macros list end*
%ADD10C,0.010000*%
%ADD11R,2.200000X0.400000*%
%ADD12RoundRect,0.135000X-0.185000X0.135000X-0.185000X-0.135000X0.185000X-0.135000X0.185000X0.135000X0*%
%ADD13RoundRect,0.140000X-0.170000X0.140000X-0.170000X-0.140000X0.170000X-0.140000X0.170000X0.140000X0*%
%ADD14RoundRect,0.075000X0.437500X-0.075000X0.437500X0.075000X-0.437500X0.075000X-0.437500X-0.075000X0*%
%ADD15RoundRect,0.075000X0.075000X-0.437500X0.075000X0.437500X-0.075000X0.437500X-0.075000X-0.437500X0*%
%ADD16RoundRect,0.250000X0.320000X-0.320000X0.320000X0.320000X-0.320000X0.320000X-0.320000X-0.320000X0*%
%ADD17RoundRect,0.140000X0.140000X0.170000X-0.140000X0.170000X-0.140000X-0.170000X0.140000X-0.170000X0*%
%ADD18R,0.470000X0.250000*%
%ADD19R,0.250000X0.470000*%
%ADD20RoundRect,0.200000X-0.275000X0.200000X-0.275000X-0.200000X0.275000X-0.200000X0.275000X0.200000X0*%
%ADD21RoundRect,0.147500X-0.172500X0.147500X-0.172500X-0.147500X0.172500X-0.147500X0.172500X0.147500X0*%
%ADD22RoundRect,0.140000X-0.140000X-0.170000X0.140000X-0.170000X0.140000X0.170000X-0.140000X0.170000X0*%
%ADD23RoundRect,0.140000X0.170000X-0.140000X0.170000X0.140000X-0.170000X0.140000X-0.170000X-0.140000X0*%
%ADD24RoundRect,0.135000X-0.135000X-0.185000X0.135000X-0.185000X0.135000X0.185000X-0.135000X0.185000X0*%
%ADD25RoundRect,0.317500X1.157500X0.317500X-1.157500X0.317500X-1.157500X-0.317500X1.157500X-0.317500X0*%
%ADD26RoundRect,0.250000X0.312500X0.625000X-0.312500X0.625000X-0.312500X-0.625000X0.312500X-0.625000X0*%
%ADD27RoundRect,0.135000X0.135000X0.185000X-0.135000X0.185000X-0.135000X-0.185000X0.135000X-0.185000X0*%
%ADD28RoundRect,0.200000X0.200000X0.275000X-0.200000X0.275000X-0.200000X-0.275000X0.200000X-0.275000X0*%
%ADD29R,0.350000X0.500000*%
%ADD30R,2.580000X1.000000*%
%ADD31RoundRect,0.087500X0.425000X-0.087500X0.425000X0.087500X-0.425000X0.087500X-0.425000X-0.087500X0*%
%ADD32RoundRect,0.087500X0.087500X-0.425000X0.087500X0.425000X-0.087500X0.425000X-0.087500X-0.425000X0*%
%ADD33RoundRect,0.212500X0.212500X-0.212500X0.212500X0.212500X-0.212500X0.212500X-0.212500X-0.212500X0*%
%ADD34RoundRect,0.200000X-0.200000X-0.275000X0.200000X-0.275000X0.200000X0.275000X-0.200000X0.275000X0*%
%ADD35RoundRect,0.135000X0.185000X-0.135000X0.185000X0.135000X-0.185000X0.135000X-0.185000X-0.135000X0*%
%ADD36RoundRect,0.150000X-0.150000X0.512500X-0.150000X-0.512500X0.150000X-0.512500X0.150000X0.512500X0*%
%ADD37RoundRect,0.150000X0.512500X0.150000X-0.512500X0.150000X-0.512500X-0.150000X0.512500X-0.150000X0*%
%ADD38RoundRect,0.150000X-0.512500X-0.150000X0.512500X-0.150000X0.512500X0.150000X-0.512500X0.150000X0*%
%ADD39RoundRect,0.250000X-0.312500X-0.625000X0.312500X-0.625000X0.312500X0.625000X-0.312500X0.625000X0*%
%ADD40RoundRect,0.150000X0.150000X-0.587500X0.150000X0.587500X-0.150000X0.587500X-0.150000X-0.587500X0*%
%ADD41RotRect,1.500000X1.000000X45.000000*%
%ADD42RotRect,1.500000X1.500000X45.000000*%
%ADD43R,0.650000X0.350000*%
%ADD44R,0.600000X1.000000*%
%ADD45RoundRect,0.093750X0.093750X-0.156250X0.093750X0.156250X-0.093750X0.156250X-0.093750X-0.156250X0*%
%ADD46RoundRect,0.075000X0.075000X-0.250000X0.075000X0.250000X-0.075000X0.250000X-0.075000X-0.250000X0*%
%ADD47RoundRect,0.150000X0.150000X-0.512500X0.150000X0.512500X-0.150000X0.512500X-0.150000X-0.512500X0*%
%ADD48R,0.900000X1.300000*%
%ADD49R,0.750000X0.300000*%
%ADD50RoundRect,0.218750X0.218750X0.256250X-0.218750X0.256250X-0.218750X-0.256250X0.218750X-0.256250X0*%
%ADD51R,1.700000X1.300000*%
%ADD52R,0.700000X0.250000*%
%ADD53R,1.250000X0.700000*%
%ADD54R,0.800000X2.000000*%
%ADD55R,2.000000X0.800000*%
%ADD56RoundRect,0.150000X-0.587500X-0.150000X0.587500X-0.150000X0.587500X0.150000X-0.587500X0.150000X0*%
%ADD57RoundRect,0.125000X-0.875000X-0.375000X0.875000X-0.375000X0.875000X0.375000X-0.875000X0.375000X0*%
%ADD58R,0.700000X1.750000*%
%ADD59R,1.450000X1.000000*%
%ADD60R,1.000000X1.550000*%
%ADD61R,0.800000X1.500000*%
%ADD62R,1.300000X1.500000*%
%ADD63R,1.500000X1.500000*%
%ADD64R,0.800000X1.400000*%
%ADD65R,0.600000X1.100000*%
%ADD66R,0.300000X1.100000*%
%ADD67R,2.000000X1.500000*%
%ADD68R,2.000000X1.200000*%
G04 APERTURE END LIST*
D10*
%TO.C,U3*%
X54307142Y-111195000D02*
X53037142Y-111195000D01*
X53037142Y-109925000D01*
X54307142Y-109925000D01*
X54307142Y-111195000D01*
G36*
X54307142Y-111195000D02*
G01*
X53037142Y-111195000D01*
X53037142Y-109925000D01*
X54307142Y-109925000D01*
X54307142Y-111195000D01*
G37*
X54307142Y-109435000D02*
X53037142Y-109435000D01*
X53037142Y-108165000D01*
X54307142Y-108165000D01*
X54307142Y-109435000D01*
G36*
X54307142Y-109435000D02*
G01*
X53037142Y-109435000D01*
X53037142Y-108165000D01*
X54307142Y-108165000D01*
X54307142Y-109435000D01*
G37*
X56067142Y-111195000D02*
X54797142Y-111195000D01*
X54797142Y-109925000D01*
X56067142Y-109925000D01*
X56067142Y-111195000D01*
G36*
X56067142Y-111195000D02*
G01*
X54797142Y-111195000D01*
X54797142Y-109925000D01*
X56067142Y-109925000D01*
X56067142Y-111195000D01*
G37*
X56067142Y-109435000D02*
X54797142Y-109435000D01*
X54797142Y-108165000D01*
X56067142Y-108165000D01*
X56067142Y-109435000D01*
G36*
X56067142Y-109435000D02*
G01*
X54797142Y-109435000D01*
X54797142Y-108165000D01*
X56067142Y-108165000D01*
X56067142Y-109435000D01*
G37*
X108812142Y-107850000D02*
X107542142Y-107850000D01*
X107542142Y-106580000D01*
X108812142Y-106580000D01*
X108812142Y-107850000D01*
G36*
X108812142Y-107850000D02*
G01*
X107542142Y-107850000D01*
X107542142Y-106580000D01*
X108812142Y-106580000D01*
X108812142Y-107850000D01*
G37*
X108812142Y-106090000D02*
X107542142Y-106090000D01*
X107542142Y-104820000D01*
X108812142Y-104820000D01*
X108812142Y-106090000D01*
G36*
X108812142Y-106090000D02*
G01*
X107542142Y-106090000D01*
X107542142Y-104820000D01*
X108812142Y-104820000D01*
X108812142Y-106090000D01*
G37*
X110572142Y-107850000D02*
X109302142Y-107850000D01*
X109302142Y-106580000D01*
X110572142Y-106580000D01*
X110572142Y-107850000D01*
G36*
X110572142Y-107850000D02*
G01*
X109302142Y-107850000D01*
X109302142Y-106580000D01*
X110572142Y-106580000D01*
X110572142Y-107850000D01*
G37*
X110572142Y-106090000D02*
X109302142Y-106090000D01*
X109302142Y-104820000D01*
X110572142Y-104820000D01*
X110572142Y-106090000D01*
G36*
X110572142Y-106090000D02*
G01*
X109302142Y-106090000D01*
X109302142Y-104820000D01*
X110572142Y-104820000D01*
X110572142Y-106090000D01*
G37*
%TD*%
D11*
%TO.C,U18*%
X101644642Y-121664000D03*
X101644642Y-120964000D03*
X101644642Y-120264000D03*
X101644642Y-119564000D03*
X101644642Y-118864000D03*
X101644642Y-118164000D03*
X101644642Y-117464000D03*
X101644642Y-116764000D03*
X101644642Y-116064000D03*
X101644642Y-115364000D03*
X101644642Y-114664000D03*
X101644642Y-113964000D03*
X101644642Y-113264000D03*
%TD*%
D12*
%TO.C,R16*%
X108557142Y-112245000D03*
X108557142Y-111225000D03*
%TD*%
D13*
%TO.C,C34*%
X99957142Y-135565000D03*
X99957142Y-134605000D03*
%TD*%
D14*
%TO.C,U1*%
X60864642Y-136692500D03*
X60864642Y-136042500D03*
X60864642Y-135392500D03*
X60864642Y-134742500D03*
X60864642Y-134092500D03*
X60864642Y-133442500D03*
X60864642Y-132792500D03*
D15*
X61752142Y-131905000D03*
X62402142Y-131905000D03*
X63052142Y-131905000D03*
X63702142Y-131905000D03*
X64352142Y-131905000D03*
X65002142Y-131905000D03*
X65652142Y-131905000D03*
D14*
X66539642Y-132792500D03*
X66539642Y-133442500D03*
X66539642Y-134092500D03*
X66539642Y-134742500D03*
X66539642Y-135392500D03*
X66539642Y-136042500D03*
X66539642Y-136692500D03*
D15*
X65652142Y-137580000D03*
X65002142Y-137580000D03*
X64352142Y-137580000D03*
X63702142Y-137580000D03*
X63052142Y-137580000D03*
X62402142Y-137580000D03*
X61752142Y-137580000D03*
D16*
X62282142Y-133322500D03*
X63702142Y-133322500D03*
X65122142Y-133322500D03*
X62282142Y-134742500D03*
X63702142Y-134742500D03*
X65122142Y-134742500D03*
X62282142Y-136162500D03*
X63702142Y-136162500D03*
X65122142Y-136162500D03*
%TD*%
D17*
%TO.C,C38*%
X106627142Y-123485000D03*
X107587142Y-123485000D03*
%TD*%
D18*
%TO.C,U3*%
X57777142Y-107080000D03*
X57777142Y-107480000D03*
X57777142Y-107880000D03*
X57777142Y-108280000D03*
X57777142Y-108680000D03*
X57777142Y-109080000D03*
X57777142Y-109480000D03*
X57777142Y-109880000D03*
X57777142Y-110280000D03*
X57777142Y-110680000D03*
X57777142Y-111080000D03*
X57777142Y-111480000D03*
X57777142Y-111880000D03*
X57777142Y-112280000D03*
D19*
X57152142Y-112905000D03*
X56752142Y-112905000D03*
X56352142Y-112905000D03*
X55952142Y-112905000D03*
X55552142Y-112905000D03*
X55152142Y-112905000D03*
X54752142Y-112905000D03*
X54352142Y-112905000D03*
X53952142Y-112905000D03*
X53552142Y-112905000D03*
X53152142Y-112905000D03*
X52752142Y-112905000D03*
X52352142Y-112905000D03*
X51952142Y-112905000D03*
D18*
X51327142Y-112280000D03*
X51327142Y-111880000D03*
X51327142Y-111480000D03*
X51327142Y-111080000D03*
X51327142Y-110680000D03*
X51327142Y-110280000D03*
X51327142Y-109880000D03*
X51327142Y-109480000D03*
X51327142Y-109080000D03*
X51327142Y-108680000D03*
X51327142Y-108280000D03*
X51327142Y-107880000D03*
X51327142Y-107480000D03*
X51327142Y-107080000D03*
D19*
X51952142Y-106455000D03*
X52352142Y-106455000D03*
X52752142Y-106455000D03*
X53152142Y-106455000D03*
X53552142Y-106455000D03*
X53952142Y-106455000D03*
X54352142Y-106455000D03*
X54752142Y-106455000D03*
X55152142Y-106455000D03*
X55552142Y-106455000D03*
X55952142Y-106455000D03*
X56352142Y-106455000D03*
X56752142Y-106455000D03*
X57152142Y-106455000D03*
%TD*%
D20*
%TO.C,R60*%
X110657142Y-124360000D03*
X110657142Y-122710000D03*
%TD*%
D17*
%TO.C,C18*%
X89027142Y-126935000D03*
X89987142Y-126935000D03*
%TD*%
%TO.C,C6*%
X108227142Y-100935000D03*
X109187142Y-100935000D03*
%TD*%
%TO.C,C14*%
X89027142Y-113185000D03*
X89987142Y-113185000D03*
%TD*%
D21*
%TO.C,L1*%
X113497142Y-100790000D03*
X113497142Y-99820000D03*
%TD*%
D22*
%TO.C,C26*%
X109437142Y-123485000D03*
X108477142Y-123485000D03*
%TD*%
D23*
%TO.C,C3*%
X95457142Y-131655000D03*
X95457142Y-132615000D03*
%TD*%
D24*
%TO.C,R31*%
X99357142Y-123585000D03*
X98337142Y-123585000D03*
%TD*%
D25*
%TO.C,U16*%
X87757142Y-108960000D03*
X87757142Y-106960000D03*
X87757142Y-104960000D03*
X87757142Y-102960000D03*
X87757142Y-100960000D03*
X87757142Y-98960000D03*
X87757142Y-96960000D03*
X87757142Y-94960000D03*
X102807142Y-94960000D03*
X102807142Y-96960000D03*
X102807142Y-98960000D03*
X102807142Y-100960000D03*
X102807142Y-102960000D03*
X102807142Y-104960000D03*
X102807142Y-106960000D03*
X102807142Y-108960000D03*
%TD*%
D26*
%TO.C,R34*%
X89294642Y-118435000D03*
X92219642Y-118435000D03*
%TD*%
D20*
%TO.C,R51*%
X76882142Y-131635000D03*
X76882142Y-129985000D03*
%TD*%
D17*
%TO.C,C17*%
X89057142Y-123485000D03*
X90017142Y-123485000D03*
%TD*%
D27*
%TO.C,R1*%
X122247142Y-129235000D03*
X123267142Y-129235000D03*
%TD*%
D12*
%TO.C,R23*%
X106557142Y-112245000D03*
X106557142Y-111225000D03*
%TD*%
D17*
%TO.C,C42*%
X115027142Y-137635000D03*
X115987142Y-137635000D03*
%TD*%
D12*
%TO.C,R13*%
X110107142Y-100995000D03*
X110107142Y-99975000D03*
%TD*%
D13*
%TO.C,C11*%
X113357142Y-104965000D03*
X113357142Y-104005000D03*
%TD*%
D28*
%TO.C,R48*%
X85682142Y-133435000D03*
X87332142Y-133435000D03*
%TD*%
D22*
%TO.C,C13*%
X114237142Y-107735000D03*
X113277142Y-107735000D03*
%TD*%
%TO.C,C2*%
X119687142Y-135535000D03*
X118727142Y-135535000D03*
%TD*%
D17*
%TO.C,C9*%
X108227142Y-99935000D03*
X109187142Y-99935000D03*
%TD*%
%TO.C,C16*%
X89027142Y-120035000D03*
X89987142Y-120035000D03*
%TD*%
D27*
%TO.C,R29*%
X97697142Y-117735000D03*
X98717142Y-117735000D03*
%TD*%
D12*
%TO.C,R27*%
X99607142Y-119645000D03*
X99607142Y-118625000D03*
%TD*%
D24*
%TO.C,R59*%
X98667142Y-129585000D03*
X97647142Y-129585000D03*
%TD*%
D12*
%TO.C,R26*%
X99707142Y-112695000D03*
X99707142Y-111675000D03*
%TD*%
D17*
%TO.C,C8*%
X108227142Y-98935000D03*
X109187142Y-98935000D03*
%TD*%
D29*
%TO.C,U17*%
X105049642Y-95862500D03*
X105699642Y-95862500D03*
X106349642Y-95862500D03*
X106999642Y-95862500D03*
X106999642Y-93812500D03*
X106349642Y-93812500D03*
X105699642Y-93812500D03*
X105049642Y-93812500D03*
%TD*%
D17*
%TO.C,C48*%
X101567142Y-124355000D03*
X102527142Y-124355000D03*
%TD*%
D27*
%TO.C,R2*%
X122247142Y-128285000D03*
X123267142Y-128285000D03*
%TD*%
D30*
%TO.C,J3*%
X81447142Y-126281938D03*
X77277142Y-126281938D03*
X81447142Y-124281938D03*
X77277142Y-124281938D03*
X81447142Y-122281938D03*
X77277142Y-122281938D03*
X81447142Y-120281938D03*
X77277142Y-120281938D03*
X81447142Y-118281938D03*
X77277142Y-118281938D03*
X81447142Y-116281938D03*
X77277142Y-116281938D03*
X81447142Y-114281938D03*
X77277142Y-114281938D03*
X81447142Y-112281938D03*
X77277142Y-112281938D03*
X81447142Y-110281938D03*
X77277142Y-110281938D03*
X81447142Y-108281938D03*
X77277142Y-108281938D03*
%TD*%
D31*
%TO.C,U4*%
X40214642Y-118230000D03*
X40214642Y-117580000D03*
X40214642Y-116930000D03*
X40214642Y-116280000D03*
D32*
X41102142Y-115392500D03*
X41752142Y-115392500D03*
X42402142Y-115392500D03*
X43052142Y-115392500D03*
D31*
X43939642Y-116280000D03*
X43939642Y-116930000D03*
X43939642Y-117580000D03*
X43939642Y-118230000D03*
D32*
X43052142Y-119117500D03*
X42402142Y-119117500D03*
X41752142Y-119117500D03*
X41102142Y-119117500D03*
D33*
X41552142Y-116730000D03*
X42602142Y-116730000D03*
X41552142Y-117780000D03*
X42602142Y-117780000D03*
%TD*%
D34*
%TO.C,R54*%
X92832142Y-127235000D03*
X91182142Y-127235000D03*
%TD*%
D26*
%TO.C,R35*%
X89294642Y-121835000D03*
X92219642Y-121835000D03*
%TD*%
D35*
%TO.C,R53*%
X83907142Y-129625000D03*
X83907142Y-130645000D03*
%TD*%
D36*
%TO.C,Q2*%
X80357142Y-132522500D03*
X79407142Y-132522500D03*
X78457142Y-132522500D03*
X78457142Y-130247500D03*
X79407142Y-130247500D03*
X80357142Y-130247500D03*
%TD*%
D14*
%TO.C,U1*%
X115369642Y-133347500D03*
X115369642Y-132697500D03*
X115369642Y-132047500D03*
X115369642Y-131397500D03*
X115369642Y-130747500D03*
X115369642Y-130097500D03*
X115369642Y-129447500D03*
D15*
X116257142Y-128560000D03*
X116907142Y-128560000D03*
X117557142Y-128560000D03*
X118207142Y-128560000D03*
X118857142Y-128560000D03*
X119507142Y-128560000D03*
X120157142Y-128560000D03*
D14*
X121044642Y-129447500D03*
X121044642Y-130097500D03*
X121044642Y-130747500D03*
X121044642Y-131397500D03*
X121044642Y-132047500D03*
X121044642Y-132697500D03*
X121044642Y-133347500D03*
D15*
X120157142Y-134235000D03*
X119507142Y-134235000D03*
X118857142Y-134235000D03*
X118207142Y-134235000D03*
X117557142Y-134235000D03*
X116907142Y-134235000D03*
X116257142Y-134235000D03*
D16*
X116787142Y-129977500D03*
X118207142Y-129977500D03*
X119627142Y-129977500D03*
X116787142Y-131397500D03*
X118207142Y-131397500D03*
X119627142Y-131397500D03*
X116787142Y-132817500D03*
X118207142Y-132817500D03*
X119627142Y-132817500D03*
%TD*%
D12*
%TO.C,R24*%
X93847142Y-112015000D03*
X93847142Y-110995000D03*
%TD*%
D13*
%TO.C,C32*%
X85432142Y-137635000D03*
X85432142Y-136675000D03*
%TD*%
D37*
%TO.C,U8*%
X85219642Y-119772500D03*
X85219642Y-118822500D03*
X85219642Y-117872500D03*
X87494642Y-117872500D03*
X87494642Y-118822500D03*
X87494642Y-119772500D03*
%TD*%
D13*
%TO.C,C5*%
X107997142Y-94685000D03*
X107997142Y-93725000D03*
%TD*%
D26*
%TO.C,R32*%
X89244642Y-111585000D03*
X92169642Y-111585000D03*
%TD*%
D38*
%TO.C,U12*%
X83957142Y-135680001D03*
X83957142Y-136630001D03*
X83957142Y-137580001D03*
X81682142Y-137580001D03*
X81682142Y-136630001D03*
X81682142Y-135680001D03*
%TD*%
D37*
%TO.C,U6*%
X85194642Y-112922500D03*
X85194642Y-111972500D03*
X85194642Y-111022500D03*
X87469642Y-111022500D03*
X87469642Y-111972500D03*
X87469642Y-112922500D03*
%TD*%
D39*
%TO.C,R37*%
X96869642Y-124885000D03*
X93944642Y-124885000D03*
%TD*%
D31*
%TO.C,U4*%
X94719642Y-114885000D03*
X94719642Y-114235000D03*
X94719642Y-113585000D03*
X94719642Y-112935000D03*
D32*
X95607142Y-112047500D03*
X96257142Y-112047500D03*
X96907142Y-112047500D03*
X97557142Y-112047500D03*
D31*
X98444642Y-112935000D03*
X98444642Y-113585000D03*
X98444642Y-114235000D03*
X98444642Y-114885000D03*
D32*
X97557142Y-115772500D03*
X96907142Y-115772500D03*
X96257142Y-115772500D03*
X95607142Y-115772500D03*
D33*
X96057142Y-113385000D03*
X97107142Y-113385000D03*
X96057142Y-114435000D03*
X97107142Y-114435000D03*
%TD*%
D36*
%TO.C,U11*%
X96469642Y-130222500D03*
X95519642Y-130222500D03*
X94569642Y-130222500D03*
X94569642Y-127947500D03*
X95519642Y-127947500D03*
X96469642Y-127947500D03*
%TD*%
D17*
%TO.C,C43*%
X104744642Y-92837500D03*
X105704642Y-92837500D03*
%TD*%
D40*
%TO.C,Q3*%
X98944642Y-126047500D03*
X99894642Y-127922500D03*
X97994642Y-127922500D03*
%TD*%
D37*
%TO.C,U7*%
X85194642Y-116372500D03*
X85194642Y-115422500D03*
X85194642Y-114472500D03*
X87469642Y-114472500D03*
X87469642Y-115422500D03*
X87469642Y-116372500D03*
%TD*%
D12*
%TO.C,R20*%
X112557142Y-112245000D03*
X112557142Y-111225000D03*
%TD*%
D41*
%TO.C,AE1*%
X115140327Y-96168185D03*
D42*
X120973957Y-102001815D03*
%TD*%
D37*
%TO.C,U9*%
X85219642Y-123185000D03*
X85219642Y-122235000D03*
X85219642Y-121285000D03*
X87494642Y-121285000D03*
X87494642Y-122235000D03*
X87494642Y-123185000D03*
%TD*%
D35*
%TO.C,R5*%
X94509642Y-131650000D03*
X94509642Y-132670000D03*
%TD*%
D37*
%TO.C,U10*%
X85219642Y-126585000D03*
X85219642Y-125635000D03*
X85219642Y-124685000D03*
X87494642Y-124685000D03*
X87494642Y-125635000D03*
X87494642Y-126585000D03*
%TD*%
D12*
%TO.C,R17*%
X111557142Y-112245000D03*
X111557142Y-111225000D03*
%TD*%
D43*
%TO.C,U14*%
X88082142Y-129910000D03*
X88082142Y-130560000D03*
X88082142Y-131210000D03*
X88082142Y-131860000D03*
X84982142Y-131860000D03*
X84982142Y-131210000D03*
X84982142Y-130560000D03*
X84982142Y-129910000D03*
D44*
X86919642Y-130285000D03*
X86919642Y-131485000D03*
X86144642Y-130285000D03*
X86144642Y-131485000D03*
%TD*%
D22*
%TO.C,C12*%
X114237142Y-106735000D03*
X113277142Y-106735000D03*
%TD*%
D23*
%TO.C,C33*%
X89207142Y-129455000D03*
X89207142Y-130415000D03*
%TD*%
D43*
%TO.C,U14*%
X33577142Y-133255000D03*
X33577142Y-133905000D03*
X33577142Y-134555000D03*
X33577142Y-135205000D03*
X30477142Y-135205000D03*
X30477142Y-134555000D03*
X30477142Y-133905000D03*
X30477142Y-133255000D03*
D44*
X32414642Y-133630000D03*
X32414642Y-134830000D03*
X31639642Y-133630000D03*
X31639642Y-134830000D03*
%TD*%
D22*
%TO.C,C44*%
X107254642Y-96887500D03*
X106294642Y-96887500D03*
%TD*%
D23*
%TO.C,C1*%
X122307142Y-131105000D03*
X122307142Y-132065000D03*
%TD*%
D17*
%TO.C,C15*%
X89007142Y-116635000D03*
X89967142Y-116635000D03*
%TD*%
%TO.C,C25*%
X108477142Y-124455000D03*
X109437142Y-124455000D03*
%TD*%
D23*
%TO.C,C35*%
X83857142Y-131930000D03*
X83857142Y-132890000D03*
%TD*%
D26*
%TO.C,R33*%
X89257142Y-115035000D03*
X92182142Y-115035000D03*
%TD*%
D45*
%TO.C,U2*%
X92297142Y-131310000D03*
D46*
X92834642Y-131235000D03*
D45*
X93372142Y-131310000D03*
X93372142Y-133010000D03*
D46*
X92834642Y-133085000D03*
D45*
X92297142Y-133010000D03*
%TD*%
D22*
%TO.C,C36*%
X107587142Y-124485000D03*
X106627142Y-124485000D03*
%TD*%
D17*
%TO.C,C40*%
X115027142Y-136685000D03*
X115987142Y-136685000D03*
%TD*%
D27*
%TO.C,R3*%
X122247142Y-130185000D03*
X123267142Y-130185000D03*
%TD*%
D17*
%TO.C,C47*%
X113437142Y-101745000D03*
X114397142Y-101745000D03*
%TD*%
D27*
%TO.C,R28*%
X97797142Y-110785000D03*
X98817142Y-110785000D03*
%TD*%
D13*
%TO.C,C45*%
X85517142Y-109835000D03*
X85517142Y-108875000D03*
%TD*%
D12*
%TO.C,R15*%
X109557142Y-112245000D03*
X109557142Y-111225000D03*
%TD*%
D26*
%TO.C,R36*%
X89294642Y-125285000D03*
X92219642Y-125285000D03*
%TD*%
D12*
%TO.C,R25*%
X93757142Y-119005000D03*
X93757142Y-117985000D03*
%TD*%
%TO.C,R18*%
X107557142Y-112245000D03*
X107557142Y-111225000D03*
%TD*%
D29*
%TO.C,U17*%
X50544642Y-99207500D03*
X51194642Y-99207500D03*
X51844642Y-99207500D03*
X52494642Y-99207500D03*
X52494642Y-97157500D03*
X51844642Y-97157500D03*
X51194642Y-97157500D03*
X50544642Y-97157500D03*
%TD*%
D22*
%TO.C,C46*%
X114417142Y-98885000D03*
X113457142Y-98885000D03*
%TD*%
D18*
%TO.C,U3*%
X112282142Y-103735000D03*
X112282142Y-104135000D03*
X112282142Y-104535000D03*
X112282142Y-104935000D03*
X112282142Y-105335000D03*
X112282142Y-105735000D03*
X112282142Y-106135000D03*
X112282142Y-106535000D03*
X112282142Y-106935000D03*
X112282142Y-107335000D03*
X112282142Y-107735000D03*
X112282142Y-108135000D03*
X112282142Y-108535000D03*
X112282142Y-108935000D03*
D19*
X111657142Y-109560000D03*
X111257142Y-109560000D03*
X110857142Y-109560000D03*
X110457142Y-109560000D03*
X110057142Y-109560000D03*
X109657142Y-109560000D03*
X109257142Y-109560000D03*
X108857142Y-109560000D03*
X108457142Y-109560000D03*
X108057142Y-109560000D03*
X107657142Y-109560000D03*
X107257142Y-109560000D03*
X106857142Y-109560000D03*
X106457142Y-109560000D03*
D18*
X105832142Y-108935000D03*
X105832142Y-108535000D03*
X105832142Y-108135000D03*
X105832142Y-107735000D03*
X105832142Y-107335000D03*
X105832142Y-106935000D03*
X105832142Y-106535000D03*
X105832142Y-106135000D03*
X105832142Y-105735000D03*
X105832142Y-105335000D03*
X105832142Y-104935000D03*
X105832142Y-104535000D03*
X105832142Y-104135000D03*
X105832142Y-103735000D03*
D19*
X106457142Y-103110000D03*
X106857142Y-103110000D03*
X107257142Y-103110000D03*
X107657142Y-103110000D03*
X108057142Y-103110000D03*
X108457142Y-103110000D03*
X108857142Y-103110000D03*
X109257142Y-103110000D03*
X109657142Y-103110000D03*
X110057142Y-103110000D03*
X110457142Y-103110000D03*
X110857142Y-103110000D03*
X111257142Y-103110000D03*
X111657142Y-103110000D03*
%TD*%
D28*
%TO.C,R55*%
X87382142Y-128235000D03*
X89032142Y-128235000D03*
%TD*%
D31*
%TO.C,U5*%
X94619642Y-121822500D03*
X94619642Y-121172500D03*
X94619642Y-120522500D03*
X94619642Y-119872500D03*
D32*
X95507142Y-118985000D03*
X96157142Y-118985000D03*
X96807142Y-118985000D03*
X97457142Y-118985000D03*
D31*
X98344642Y-119872500D03*
X98344642Y-120522500D03*
X98344642Y-121172500D03*
X98344642Y-121822500D03*
D32*
X97457142Y-122710000D03*
X96807142Y-122710000D03*
X96157142Y-122710000D03*
X95507142Y-122710000D03*
D33*
X95957142Y-120322500D03*
X97007142Y-120322500D03*
X95957142Y-121372500D03*
X97007142Y-121372500D03*
%TD*%
D13*
%TO.C,C39*%
X85457142Y-103945000D03*
X85457142Y-102985000D03*
%TD*%
D45*
%TO.C,U2*%
X37792142Y-134655000D03*
D46*
X38329642Y-134580000D03*
D45*
X38867142Y-134655000D03*
X38867142Y-136355000D03*
D46*
X38329642Y-136430000D03*
D45*
X37792142Y-136355000D03*
%TD*%
D12*
%TO.C,R14*%
X110557142Y-112245000D03*
X110557142Y-111225000D03*
%TD*%
D17*
%TO.C,C24*%
X95577142Y-126535000D03*
X96537142Y-126535000D03*
%TD*%
D23*
%TO.C,C37*%
X89167142Y-132405000D03*
X89167142Y-133365000D03*
%TD*%
D47*
%TO.C,U13*%
X97957142Y-130960000D03*
X99857142Y-130960000D03*
X99857142Y-133235000D03*
X98907142Y-133235000D03*
X97957142Y-133235000D03*
%TD*%
D13*
%TO.C,C10*%
X114357142Y-104765000D03*
X114357142Y-103805000D03*
%TD*%
D31*
%TO.C,U5*%
X40114642Y-125167500D03*
X40114642Y-124517500D03*
X40114642Y-123867500D03*
X40114642Y-123217500D03*
D32*
X41002142Y-122330000D03*
X41652142Y-122330000D03*
X42302142Y-122330000D03*
X42952142Y-122330000D03*
D31*
X43839642Y-123217500D03*
X43839642Y-123867500D03*
X43839642Y-124517500D03*
X43839642Y-125167500D03*
D32*
X42952142Y-126055000D03*
X42302142Y-126055000D03*
X41652142Y-126055000D03*
X41002142Y-126055000D03*
D33*
X41452142Y-123667500D03*
X42502142Y-123667500D03*
X41452142Y-124717500D03*
X42502142Y-124717500D03*
%TD*%
D48*
%TO.C,IC1*%
X36877142Y-132680000D03*
D49*
X37877142Y-131930000D03*
X37877142Y-132430000D03*
X37877142Y-132930000D03*
X37877142Y-133430000D03*
X35877142Y-133430000D03*
X35877142Y-132930000D03*
X35877142Y-132430000D03*
X35877142Y-131930000D03*
%TD*%
D13*
%TO.C,C4*%
X96407142Y-132615000D03*
X96407142Y-131655000D03*
%TD*%
D12*
%TO.C,R4*%
X90707142Y-133135000D03*
X90707142Y-132115000D03*
%TD*%
D48*
%TO.C,IC1*%
X91382142Y-129335000D03*
D49*
X92382142Y-128585000D03*
X92382142Y-129085000D03*
X92382142Y-129585000D03*
X92382142Y-130085000D03*
X90382142Y-130085000D03*
X90382142Y-129585000D03*
X90382142Y-129085000D03*
X90382142Y-128585000D03*
%TD*%
D24*
%TO.C,R30*%
X99457142Y-116635000D03*
X98437142Y-116635000D03*
%TD*%
D17*
%TO.C,C27*%
X74910000Y-60290000D03*
X73950000Y-60290000D03*
%TD*%
D24*
%TO.C,R22*%
X35820000Y-55892020D03*
X36840000Y-55892020D03*
%TD*%
%TO.C,R63*%
X50770000Y-83030000D03*
X51790000Y-83030000D03*
%TD*%
%TO.C,R6*%
X35820000Y-72576320D03*
X36840000Y-72576320D03*
%TD*%
D50*
%TO.C,D4*%
X34355000Y-66319707D03*
X32780000Y-66319707D03*
%TD*%
D24*
%TO.C,R10*%
X35820000Y-64234170D03*
X36840000Y-64234170D03*
%TD*%
D50*
%TO.C,D1*%
X34355000Y-72576320D03*
X32780000Y-72576320D03*
%TD*%
D12*
%TO.C,R56*%
X40780000Y-52720000D03*
X40780000Y-53740000D03*
%TD*%
D50*
%TO.C,D12*%
X34355000Y-53806482D03*
X32780000Y-53806482D03*
%TD*%
%TO.C,D5*%
X34355000Y-64234170D03*
X32780000Y-64234170D03*
%TD*%
D17*
%TO.C,C31*%
X74910000Y-75430000D03*
X73950000Y-75430000D03*
%TD*%
%TO.C,C28*%
X74910000Y-64075000D03*
X73950000Y-64075000D03*
%TD*%
D51*
%TO.C,SW1*%
X67580000Y-45939000D03*
X67580000Y-41621000D03*
%TD*%
D23*
%TO.C,C23*%
X73960000Y-73530000D03*
X73960000Y-72570000D03*
%TD*%
D51*
%TO.C,SW2*%
X67580000Y-51871000D03*
X67580000Y-56189000D03*
%TD*%
D24*
%TO.C,R58*%
X35820000Y-53806482D03*
X36840000Y-53806482D03*
%TD*%
D52*
%TO.C,SW3*%
X62280000Y-82230000D03*
X62280000Y-78980000D03*
D53*
X64155000Y-81605000D03*
X60405000Y-81605000D03*
X64155000Y-79605000D03*
X60405000Y-79605000D03*
%TD*%
D12*
%TO.C,R38*%
X72930000Y-57920000D03*
X72930000Y-58940000D03*
%TD*%
D23*
%TO.C,C21*%
X73960000Y-65960000D03*
X73960000Y-65000000D03*
%TD*%
D50*
%TO.C,D6*%
X34355000Y-62148632D03*
X32780000Y-62148632D03*
%TD*%
D24*
%TO.C,R61*%
X61770000Y-83030000D03*
X62790000Y-83030000D03*
%TD*%
%TO.C,R49*%
X35820000Y-74661857D03*
X36840000Y-74661857D03*
%TD*%
D50*
%TO.C,D9*%
X34355000Y-55892020D03*
X32780000Y-55892020D03*
%TD*%
D24*
%TO.C,R64*%
X56270000Y-88530000D03*
X57290000Y-88530000D03*
%TD*%
D52*
%TO.C,SW4*%
X56780000Y-76730000D03*
X56780000Y-73480000D03*
D53*
X58655000Y-76105000D03*
X54905000Y-76105000D03*
X58655000Y-74105000D03*
X54905000Y-74105000D03*
%TD*%
D35*
%TO.C,R19*%
X60980000Y-42290000D03*
X60980000Y-41270000D03*
%TD*%
D52*
%TO.C,SW7*%
X56780000Y-82230000D03*
X56780000Y-78980000D03*
D53*
X58655000Y-81605000D03*
X54905000Y-81605000D03*
X58655000Y-79605000D03*
X54905000Y-79605000D03*
%TD*%
D23*
%TO.C,C19*%
X73960000Y-58390000D03*
X73960000Y-57430000D03*
%TD*%
D24*
%TO.C,R8*%
X35820000Y-68405245D03*
X36840000Y-68405245D03*
%TD*%
D52*
%TO.C,SW5*%
X51280000Y-82230000D03*
X51280000Y-78980000D03*
D53*
X53155000Y-81605000D03*
X49405000Y-81605000D03*
X53155000Y-79605000D03*
X49405000Y-79605000D03*
%TD*%
D27*
%TO.C,R47*%
X74940000Y-74465000D03*
X73920000Y-74465000D03*
%TD*%
D50*
%TO.C,D2*%
X34305000Y-70490782D03*
X32730000Y-70490782D03*
%TD*%
D12*
%TO.C,R40*%
X72930000Y-65510000D03*
X72930000Y-66530000D03*
%TD*%
D54*
%TO.C,BZ1*%
X120790000Y-52520000D03*
X124290000Y-52520000D03*
X124290000Y-48520000D03*
%TD*%
D55*
%TO.C,SW8*%
X71780000Y-81980000D03*
X71780000Y-79980000D03*
X71780000Y-77980000D03*
X77780000Y-77980000D03*
X77780000Y-79980000D03*
X77780000Y-81980000D03*
%TD*%
D27*
%TO.C,R50*%
X36840000Y-76747395D03*
X35820000Y-76747395D03*
%TD*%
D50*
%TO.C,D7*%
X34355000Y-60063095D03*
X32780000Y-60063095D03*
%TD*%
%TO.C,D8*%
X34355000Y-57977557D03*
X32780000Y-57977557D03*
%TD*%
D12*
%TO.C,R41*%
X72930000Y-69305000D03*
X72930000Y-70325000D03*
%TD*%
%TO.C,R39*%
X72930000Y-61715000D03*
X72930000Y-62735000D03*
%TD*%
D27*
%TO.C,R43*%
X74940000Y-59325000D03*
X73920000Y-59325000D03*
%TD*%
D50*
%TO.C,D3*%
X34305000Y-68405245D03*
X32730000Y-68405245D03*
%TD*%
D27*
%TO.C,R46*%
X74940000Y-70680000D03*
X73920000Y-70680000D03*
%TD*%
D24*
%TO.C,R7*%
X35820000Y-70490782D03*
X36840000Y-70490782D03*
%TD*%
%TO.C,R65*%
X56345000Y-82980000D03*
X57365000Y-82980000D03*
%TD*%
D27*
%TO.C,R45*%
X74940000Y-66895000D03*
X73920000Y-66895000D03*
%TD*%
D50*
%TO.C,D11*%
X34317500Y-76747395D03*
X32742500Y-76747395D03*
%TD*%
D24*
%TO.C,R62*%
X56270000Y-77540000D03*
X57290000Y-77540000D03*
%TD*%
D35*
%TO.C,R57*%
X39830000Y-53740000D03*
X39830000Y-52720000D03*
%TD*%
D56*
%TO.C,Q1*%
X62592500Y-41327500D03*
X62592500Y-43227500D03*
X64467500Y-42277500D03*
%TD*%
D17*
%TO.C,C7*%
X64910000Y-51530000D03*
X63950000Y-51530000D03*
%TD*%
D24*
%TO.C,R11*%
X35820000Y-62148632D03*
X36840000Y-62148632D03*
%TD*%
D23*
%TO.C,C20*%
X73960000Y-62175000D03*
X73960000Y-61215000D03*
%TD*%
%TO.C,C22*%
X73960000Y-69745000D03*
X73960000Y-68785000D03*
%TD*%
D24*
%TO.C,R12*%
X35820000Y-60063095D03*
X36840000Y-60063095D03*
%TD*%
D17*
%TO.C,C29*%
X74910000Y-67860000D03*
X73950000Y-67860000D03*
%TD*%
%TO.C,C30*%
X74910000Y-71645000D03*
X73950000Y-71645000D03*
%TD*%
D12*
%TO.C,R42*%
X72930000Y-73100000D03*
X72930000Y-74120000D03*
%TD*%
D24*
%TO.C,R21*%
X35820000Y-57977557D03*
X36840000Y-57977557D03*
%TD*%
D23*
%TO.C,C41*%
X41380000Y-43910000D03*
X41380000Y-42950000D03*
%TD*%
D54*
%TO.C,BZ1*%
X61360000Y-49670000D03*
X64860000Y-49670000D03*
X64860000Y-45670000D03*
%TD*%
D52*
%TO.C,SW6*%
X56855000Y-87730000D03*
X56855000Y-84480000D03*
D53*
X58730000Y-87105000D03*
X54980000Y-87105000D03*
X58730000Y-85105000D03*
X54980000Y-85105000D03*
%TD*%
D57*
%TO.C,U15*%
X102610000Y-45180000D03*
X102610000Y-46680000D03*
X102610000Y-48180000D03*
X102610000Y-49680000D03*
X102610000Y-51180000D03*
X102610000Y-52680000D03*
X102610000Y-54180000D03*
X102610000Y-55680000D03*
X102610000Y-57180000D03*
X102610000Y-58680000D03*
X118610000Y-58680000D03*
X118610000Y-57180000D03*
X118610000Y-55680000D03*
X118610000Y-54180000D03*
X118610000Y-52680000D03*
X118610000Y-51180000D03*
X118610000Y-49680000D03*
X118610000Y-48180000D03*
X118610000Y-46680000D03*
X118610000Y-45180000D03*
%TD*%
D27*
%TO.C,R44*%
X74940000Y-63110000D03*
X73920000Y-63110000D03*
%TD*%
D57*
%TO.C,U15*%
X43180000Y-42330000D03*
X43180000Y-43830000D03*
X43180000Y-45330000D03*
X43180000Y-46830000D03*
X43180000Y-48330000D03*
X43180000Y-49830000D03*
X43180000Y-51330000D03*
X43180000Y-52830000D03*
X43180000Y-54330000D03*
X43180000Y-55830000D03*
X59180000Y-55830000D03*
X59180000Y-54330000D03*
X59180000Y-52830000D03*
X59180000Y-51330000D03*
X59180000Y-49830000D03*
X59180000Y-48330000D03*
X59180000Y-46830000D03*
X59180000Y-45330000D03*
X59180000Y-43830000D03*
X59180000Y-42330000D03*
%TD*%
D24*
%TO.C,R9*%
X35820000Y-66319707D03*
X36840000Y-66319707D03*
%TD*%
D50*
%TO.C,D10*%
X34305000Y-74661857D03*
X32730000Y-74661857D03*
%TD*%
D58*
%TO.C,J5*%
X110782142Y-137135000D03*
X109682142Y-137135000D03*
X108582142Y-137135000D03*
X107482142Y-137135000D03*
X106382142Y-137135000D03*
X105282142Y-137135000D03*
X104182142Y-137135000D03*
X103082142Y-137135000D03*
D59*
X101957142Y-127910000D03*
D60*
X113182142Y-126335000D03*
D61*
X101632142Y-129410000D03*
D62*
X101882142Y-137010000D03*
D63*
X113232142Y-137010000D03*
D64*
X113582142Y-128760000D03*
%TD*%
D65*
%TO.C,J1*%
X89157142Y-134480500D03*
X89957142Y-134480500D03*
D66*
X91107142Y-134480500D03*
X92107142Y-134480500D03*
X92607142Y-134480500D03*
X93607142Y-134480500D03*
D65*
X95557142Y-134480500D03*
X94757142Y-134480500D03*
D66*
X94107142Y-134480500D03*
X93107142Y-134480500D03*
X91607142Y-134480500D03*
X90607142Y-134480500D03*
D67*
X87032142Y-139230500D03*
D68*
X87032142Y-135030500D03*
D67*
X97682142Y-139230500D03*
D68*
X97682142Y-135030500D03*
%TD*%
D30*
%TO.C,J2*%
X117667142Y-108281938D03*
X121837142Y-108281938D03*
X117667142Y-110281938D03*
X121837142Y-110281938D03*
X117667142Y-112281938D03*
X121837142Y-112281938D03*
X117667142Y-114281938D03*
X121837142Y-114281938D03*
X117667142Y-116281938D03*
X121837142Y-116281938D03*
X117667142Y-118281938D03*
X121837142Y-118281938D03*
X117667142Y-120281938D03*
X121837142Y-120281938D03*
X117667142Y-122281938D03*
X121837142Y-122281938D03*
X117667142Y-124281938D03*
X121837142Y-124281938D03*
X117667142Y-126281938D03*
X121837142Y-126281938D03*
%TD*%
M02*
