%TF.GenerationSoftware,KiCad,Pcbnew,9.0.3*%
%TF.CreationDate,2025-08-25T22:10:40+02:00*%
%TF.ProjectId,gaia-obc-stencil,67616961-2d6f-4626-932d-7374656e6369,rev?*%
%TF.SameCoordinates,Original*%
%TF.FileFunction,Paste,Top*%
%TF.FilePolarity,Positive*%
%FSLAX46Y46*%
G04 Gerber Fmt 4.6, Leading zero omitted, Abs format (unit mm)*
G04 Created by KiCad (PCBNEW 9.0.3) date 2025-08-25 22:10:40*
%MOMM*%
%LPD*%
G01*
G04 APERTURE LIST*
G04 Aperture macros list*
%AMRoundRect*
0 Rectangle with rounded corners*
0 $1 Rounding radius*
0 $2 $3 $4 $5 $6 $7 $8 $9 X,Y pos of 4 corners*
0 Add a 4 corners polygon primitive as box body*
4,1,4,$2,$3,$4,$5,$6,$7,$8,$9,$2,$3,0*
0 Add four circle primitives for the rounded corners*
1,1,$1+$1,$2,$3*
1,1,$1+$1,$4,$5*
1,1,$1+$1,$6,$7*
1,1,$1+$1,$8,$9*
0 Add four rect primitives between the rounded corners*
20,1,$1+$1,$2,$3,$4,$5,0*
20,1,$1+$1,$4,$5,$6,$7,0*
20,1,$1+$1,$6,$7,$8,$9,0*
20,1,$1+$1,$8,$9,$2,$3,0*%
G04 Aperture macros list end*
%ADD10R,0.800000X2.000000*%
%ADD11RoundRect,0.125000X-0.875000X-0.375000X0.875000X-0.375000X0.875000X0.375000X-0.875000X0.375000X0*%
%ADD12RoundRect,0.140000X0.170000X-0.140000X0.170000X0.140000X-0.170000X0.140000X-0.170000X-0.140000X0*%
%ADD13RoundRect,0.135000X0.135000X0.185000X-0.135000X0.185000X-0.135000X-0.185000X0.135000X-0.185000X0*%
%ADD14RoundRect,0.140000X0.140000X0.170000X-0.140000X0.170000X-0.140000X-0.170000X0.140000X-0.170000X0*%
%ADD15R,0.700000X0.250000*%
%ADD16R,1.250000X0.700000*%
%ADD17RoundRect,0.135000X-0.185000X0.135000X-0.185000X-0.135000X0.185000X-0.135000X0.185000X0.135000X0*%
%ADD18RoundRect,0.135000X-0.135000X-0.185000X0.135000X-0.185000X0.135000X0.185000X-0.135000X0.185000X0*%
%ADD19RoundRect,0.135000X0.185000X-0.135000X0.185000X0.135000X-0.185000X0.135000X-0.185000X-0.135000X0*%
%ADD20RoundRect,0.150000X-0.587500X-0.150000X0.587500X-0.150000X0.587500X0.150000X-0.587500X0.150000X0*%
%ADD21R,2.000000X0.800000*%
%ADD22R,1.700000X1.300000*%
%ADD23RoundRect,0.218750X0.218750X0.256250X-0.218750X0.256250X-0.218750X-0.256250X0.218750X-0.256250X0*%
G04 APERTURE END LIST*
D10*
%TO.C,BZ1*%
X120790000Y-52520000D03*
X124290000Y-52520000D03*
X124290000Y-48520000D03*
%TD*%
D11*
%TO.C,U15*%
X102610000Y-45180000D03*
X102610000Y-46680000D03*
X102610000Y-48180000D03*
X102610000Y-49680000D03*
X102610000Y-51180000D03*
X102610000Y-52680000D03*
X102610000Y-54180000D03*
X102610000Y-55680000D03*
X102610000Y-57180000D03*
X102610000Y-58680000D03*
X118610000Y-58680000D03*
X118610000Y-57180000D03*
X118610000Y-55680000D03*
X118610000Y-54180000D03*
X118610000Y-52680000D03*
X118610000Y-51180000D03*
X118610000Y-49680000D03*
X118610000Y-48180000D03*
X118610000Y-46680000D03*
X118610000Y-45180000D03*
%TD*%
D12*
%TO.C,C19*%
X73960000Y-58390000D03*
X73960000Y-57430000D03*
%TD*%
D13*
%TO.C,R45*%
X74940000Y-66895000D03*
X73920000Y-66895000D03*
%TD*%
D14*
%TO.C,C7*%
X64910000Y-51530000D03*
X63950000Y-51530000D03*
%TD*%
D13*
%TO.C,R43*%
X74940000Y-59325000D03*
X73920000Y-59325000D03*
%TD*%
D11*
%TO.C,U15*%
X43180000Y-42330000D03*
X43180000Y-43830000D03*
X43180000Y-45330000D03*
X43180000Y-46830000D03*
X43180000Y-48330000D03*
X43180000Y-49830000D03*
X43180000Y-51330000D03*
X43180000Y-52830000D03*
X43180000Y-54330000D03*
X43180000Y-55830000D03*
X59180000Y-55830000D03*
X59180000Y-54330000D03*
X59180000Y-52830000D03*
X59180000Y-51330000D03*
X59180000Y-49830000D03*
X59180000Y-48330000D03*
X59180000Y-46830000D03*
X59180000Y-45330000D03*
X59180000Y-43830000D03*
X59180000Y-42330000D03*
%TD*%
D15*
%TO.C,SW3*%
X62280000Y-82230000D03*
X62280000Y-78980000D03*
D16*
X64155000Y-81605000D03*
X60405000Y-81605000D03*
X64155000Y-79605000D03*
X60405000Y-79605000D03*
%TD*%
D17*
%TO.C,R56*%
X40780000Y-52720000D03*
X40780000Y-53740000D03*
%TD*%
D12*
%TO.C,C20*%
X73960000Y-62175000D03*
X73960000Y-61215000D03*
%TD*%
D18*
%TO.C,R63*%
X50770000Y-83030000D03*
X51790000Y-83030000D03*
%TD*%
D19*
%TO.C,R57*%
X39830000Y-53740000D03*
X39830000Y-52720000D03*
%TD*%
D13*
%TO.C,R46*%
X74940000Y-70680000D03*
X73920000Y-70680000D03*
%TD*%
D18*
%TO.C,R65*%
X56345000Y-82980000D03*
X57365000Y-82980000D03*
%TD*%
D12*
%TO.C,C22*%
X73960000Y-69745000D03*
X73960000Y-68785000D03*
%TD*%
D17*
%TO.C,R42*%
X72930000Y-73100000D03*
X72930000Y-74120000D03*
%TD*%
D20*
%TO.C,Q1*%
X62592500Y-41327500D03*
X62592500Y-43227500D03*
X64467500Y-42277500D03*
%TD*%
D17*
%TO.C,R41*%
X72930000Y-69305000D03*
X72930000Y-70325000D03*
%TD*%
D14*
%TO.C,C31*%
X74910000Y-75430000D03*
X73950000Y-75430000D03*
%TD*%
%TO.C,C27*%
X74910000Y-60290000D03*
X73950000Y-60290000D03*
%TD*%
D15*
%TO.C,SW5*%
X51280000Y-82230000D03*
X51280000Y-78980000D03*
D16*
X53155000Y-81605000D03*
X49405000Y-81605000D03*
X53155000Y-79605000D03*
X49405000Y-79605000D03*
%TD*%
D12*
%TO.C,C41*%
X41380000Y-43910000D03*
X41380000Y-42950000D03*
%TD*%
D17*
%TO.C,R40*%
X72930000Y-65510000D03*
X72930000Y-66530000D03*
%TD*%
D18*
%TO.C,R61*%
X61770000Y-83030000D03*
X62790000Y-83030000D03*
%TD*%
D14*
%TO.C,C30*%
X74910000Y-71645000D03*
X73950000Y-71645000D03*
%TD*%
D21*
%TO.C,SW8*%
X71780000Y-81980000D03*
X71780000Y-79980000D03*
X71780000Y-77980000D03*
X77780000Y-77980000D03*
X77780000Y-79980000D03*
X77780000Y-81980000D03*
%TD*%
D12*
%TO.C,C21*%
X73960000Y-65960000D03*
X73960000Y-65000000D03*
%TD*%
%TO.C,C23*%
X73960000Y-73530000D03*
X73960000Y-72570000D03*
%TD*%
D18*
%TO.C,R62*%
X56270000Y-77540000D03*
X57290000Y-77540000D03*
%TD*%
D10*
%TO.C,BZ1*%
X61360000Y-49670000D03*
X64860000Y-49670000D03*
X64860000Y-45670000D03*
%TD*%
D14*
%TO.C,C28*%
X74910000Y-64075000D03*
X73950000Y-64075000D03*
%TD*%
D19*
%TO.C,R19*%
X60980000Y-42290000D03*
X60980000Y-41270000D03*
%TD*%
D13*
%TO.C,R47*%
X74940000Y-74465000D03*
X73920000Y-74465000D03*
%TD*%
D17*
%TO.C,R39*%
X72930000Y-61715000D03*
X72930000Y-62735000D03*
%TD*%
%TO.C,R38*%
X72930000Y-57920000D03*
X72930000Y-58940000D03*
%TD*%
D15*
%TO.C,SW7*%
X56780000Y-82230000D03*
X56780000Y-78980000D03*
D16*
X58655000Y-81605000D03*
X54905000Y-81605000D03*
X58655000Y-79605000D03*
X54905000Y-79605000D03*
%TD*%
D22*
%TO.C,SW1*%
X67580000Y-45939000D03*
X67580000Y-41621000D03*
%TD*%
D13*
%TO.C,R44*%
X74940000Y-63110000D03*
X73920000Y-63110000D03*
%TD*%
D15*
%TO.C,SW6*%
X56855000Y-87730000D03*
X56855000Y-84480000D03*
D16*
X58730000Y-87105000D03*
X54980000Y-87105000D03*
X58730000Y-85105000D03*
X54980000Y-85105000D03*
%TD*%
D14*
%TO.C,C29*%
X74910000Y-67860000D03*
X73950000Y-67860000D03*
%TD*%
D15*
%TO.C,SW4*%
X56780000Y-76730000D03*
X56780000Y-73480000D03*
D16*
X58655000Y-76105000D03*
X54905000Y-76105000D03*
X58655000Y-74105000D03*
X54905000Y-74105000D03*
%TD*%
D22*
%TO.C,SW2*%
X67580000Y-51871000D03*
X67580000Y-56189000D03*
%TD*%
D18*
%TO.C,R64*%
X56270000Y-88530000D03*
X57290000Y-88530000D03*
%TD*%
D23*
%TO.C,D1*%
X34355000Y-72576320D03*
X32780000Y-72576320D03*
%TD*%
%TO.C,D5*%
X34355000Y-64234170D03*
X32780000Y-64234170D03*
%TD*%
%TO.C,D2*%
X34305000Y-70490782D03*
X32730000Y-70490782D03*
%TD*%
%TO.C,D10*%
X34305000Y-74661857D03*
X32730000Y-74661857D03*
%TD*%
%TO.C,D3*%
X34305000Y-68405245D03*
X32730000Y-68405245D03*
%TD*%
D18*
%TO.C,R6*%
X35820000Y-72576320D03*
X36840000Y-72576320D03*
%TD*%
%TO.C,R10*%
X35820000Y-64234170D03*
X36840000Y-64234170D03*
%TD*%
%TO.C,R49*%
X35820000Y-74661857D03*
X36840000Y-74661857D03*
%TD*%
D23*
%TO.C,D7*%
X34355000Y-60063095D03*
X32780000Y-60063095D03*
%TD*%
%TO.C,D9*%
X34355000Y-55892020D03*
X32780000Y-55892020D03*
%TD*%
%TO.C,D6*%
X34355000Y-62148632D03*
X32780000Y-62148632D03*
%TD*%
D13*
%TO.C,R50*%
X36840000Y-76747395D03*
X35820000Y-76747395D03*
%TD*%
D18*
%TO.C,R12*%
X35820000Y-60063095D03*
X36840000Y-60063095D03*
%TD*%
D23*
%TO.C,D11*%
X34317500Y-76747395D03*
X32742500Y-76747395D03*
%TD*%
D18*
%TO.C,R58*%
X35820000Y-53806482D03*
X36840000Y-53806482D03*
%TD*%
%TO.C,R8*%
X35820000Y-68405245D03*
X36840000Y-68405245D03*
%TD*%
%TO.C,R7*%
X35820000Y-70490782D03*
X36840000Y-70490782D03*
%TD*%
D23*
%TO.C,D12*%
X34355000Y-53806482D03*
X32780000Y-53806482D03*
%TD*%
%TO.C,D8*%
X34355000Y-57977557D03*
X32780000Y-57977557D03*
%TD*%
D18*
%TO.C,R21*%
X35820000Y-57977557D03*
X36840000Y-57977557D03*
%TD*%
%TO.C,R9*%
X35820000Y-66319707D03*
X36840000Y-66319707D03*
%TD*%
D23*
%TO.C,D4*%
X34355000Y-66319707D03*
X32780000Y-66319707D03*
%TD*%
D18*
%TO.C,R11*%
X35820000Y-62148632D03*
X36840000Y-62148632D03*
%TD*%
%TO.C,R22*%
X35820000Y-55892020D03*
X36840000Y-55892020D03*
%TD*%
M02*
