%TF.GenerationSoftware,KiCad,Pcbnew,9.0.6*%
%TF.CreationDate,2025-12-28T22:53:18+01:00*%
%TF.ProjectId,gaia_obc,67616961-5f6f-4626-932e-6b696361645f,10*%
%TF.SameCoordinates,Original*%
%TF.FileFunction,Copper,L4,Inr*%
%TF.FilePolarity,Positive*%
%FSLAX46Y46*%
G04 Gerber Fmt 4.6, Leading zero omitted, Abs format (unit mm)*
G04 Created by KiCad (PCBNEW 9.0.6) date 2025-12-28 22:53:18*
%MOMM*%
%LPD*%
G01*
G04 APERTURE LIST*
%TA.AperFunction,ViaPad*%
%ADD10C,0.600000*%
%TD*%
%TA.AperFunction,ViaPad*%
%ADD11C,0.520000*%
%TD*%
%TA.AperFunction,ViaPad*%
%ADD12C,0.530000*%
%TD*%
%TA.AperFunction,ViaPad*%
%ADD13C,0.800000*%
%TD*%
%TA.AperFunction,ViaPad*%
%ADD14C,0.550000*%
%TD*%
%TA.AperFunction,ViaPad*%
%ADD15C,0.700000*%
%TD*%
%TA.AperFunction,ViaPad*%
%ADD16C,1.000000*%
%TD*%
%TA.AperFunction,ViaPad*%
%ADD17C,0.500000*%
%TD*%
%TA.AperFunction,Conductor*%
%ADD18C,0.250000*%
%TD*%
%TA.AperFunction,Conductor*%
%ADD19C,0.300000*%
%TD*%
%TA.AperFunction,Conductor*%
%ADD20C,0.400000*%
%TD*%
%TA.AperFunction,Conductor*%
%ADD21C,0.600000*%
%TD*%
%TA.AperFunction,Conductor*%
%ADD22C,0.200000*%
%TD*%
%TA.AperFunction,Conductor*%
%ADD23C,0.500000*%
%TD*%
G04 APERTURE END LIST*
D10*
%TO.N,/LORA_DIO0*%
X151077703Y-92199999D03*
X177600000Y-88400000D03*
%TO.N,GND*%
X146890000Y-95696938D03*
D11*
%TO.N,*%
X158750000Y-93050000D03*
D10*
%TO.N,VBUS*%
X170610000Y-119350000D03*
%TO.N,GND*%
X185150000Y-100750000D03*
D12*
X164490000Y-123950000D03*
D10*
X145581250Y-114825000D03*
X146375000Y-113275000D03*
X168750000Y-104900000D03*
X167450000Y-104250000D03*
X150050000Y-97550000D03*
X167450000Y-103600000D03*
X169037500Y-111362500D03*
X183390000Y-80300000D03*
X145556250Y-116375000D03*
D13*
X167900000Y-79250000D03*
X146890000Y-97696938D03*
D10*
X145606250Y-113275000D03*
X153500000Y-82550000D03*
X154100000Y-91250000D03*
X183390000Y-81053333D03*
D14*
X165600000Y-78520000D03*
D10*
X188450000Y-87150000D03*
X154100000Y-90050000D03*
X181762500Y-121093619D03*
D14*
X169980000Y-91250000D03*
D10*
X160400000Y-98400000D03*
X186500000Y-85900000D03*
D14*
X174540554Y-106900000D03*
D10*
X185600000Y-105700000D03*
D14*
X180130000Y-123300000D03*
D10*
X146890000Y-107696938D03*
X175400000Y-118125000D03*
X148400000Y-122550000D03*
X168000000Y-98000000D03*
X169950000Y-100000000D03*
X147093750Y-116375000D03*
D14*
X163070000Y-124520000D03*
D13*
X146890000Y-99696938D03*
D10*
X154100000Y-89450000D03*
D14*
X173910000Y-94960000D03*
D10*
X167350000Y-98000000D03*
X159275000Y-120550000D03*
D14*
X172100000Y-122950000D03*
D10*
X168750000Y-103600000D03*
D14*
X159280000Y-124260000D03*
D10*
X182700000Y-88700000D03*
D14*
X161200000Y-112720000D03*
X142250000Y-115480000D03*
D10*
X154100000Y-90650000D03*
X153300000Y-80751097D03*
X160450000Y-107200000D03*
X168000000Y-96700000D03*
X155500000Y-90050000D03*
D14*
X174750000Y-121600000D03*
D10*
X156050000Y-97400000D03*
X180800000Y-80470000D03*
X170812500Y-78647500D03*
D14*
X171920000Y-91690000D03*
D10*
X155500000Y-80000000D03*
X147887500Y-114825000D03*
D14*
X184700000Y-111950000D03*
X177150000Y-121050000D03*
X174570235Y-96600055D03*
D10*
X156900000Y-88850000D03*
D13*
X166950000Y-89750000D03*
D14*
X174530000Y-83670000D03*
D10*
X144837500Y-113275000D03*
D13*
X142175000Y-99688241D03*
D14*
X155450000Y-110590000D03*
X180857707Y-111375000D03*
D10*
X168650000Y-97350000D03*
D14*
X172170000Y-86950000D03*
X156560000Y-77140000D03*
D13*
X143600000Y-107700000D03*
D10*
X144837500Y-114050000D03*
X147912500Y-113275000D03*
X146375000Y-114050000D03*
X181078000Y-78030000D03*
D14*
X171530000Y-83820000D03*
D10*
X182950000Y-116250000D03*
X168650000Y-98000000D03*
X185250000Y-82950000D03*
X147118750Y-114825000D03*
D14*
X152240000Y-99590000D03*
D10*
X147881016Y-106646940D03*
X178960000Y-77430000D03*
D14*
X168980271Y-109957334D03*
D10*
X157124000Y-83350000D03*
D14*
X164530000Y-80680000D03*
D10*
X181350000Y-81110000D03*
X183900000Y-102800000D03*
X177096252Y-105650000D03*
X149437103Y-85187103D03*
X167250000Y-118450000D03*
X147862500Y-116375000D03*
X156200000Y-90050000D03*
X144812500Y-114825000D03*
X177900000Y-122650000D03*
X168650000Y-96700000D03*
D14*
X156970000Y-106900000D03*
D10*
X183390000Y-81806667D03*
D14*
X157400000Y-112700000D03*
D13*
X167900000Y-89750000D03*
D10*
X177200047Y-122641601D03*
X154800000Y-88850000D03*
X184800000Y-105700000D03*
X154800000Y-88250000D03*
X147887500Y-115600000D03*
X145153907Y-94256114D03*
D14*
X175800000Y-81315000D03*
D10*
X154800000Y-91250000D03*
D14*
X159812500Y-76252500D03*
X148570000Y-121050000D03*
D10*
X180300000Y-89400000D03*
X156900000Y-91250000D03*
D13*
X166900000Y-79250000D03*
D10*
X187300000Y-88800000D03*
X179700000Y-79340000D03*
X182812000Y-79680000D03*
X163500000Y-118400000D03*
X144787500Y-116375000D03*
X181350000Y-81820000D03*
X156900000Y-90050000D03*
D14*
X184450000Y-106750000D03*
D10*
X189350000Y-109000000D03*
D14*
X173790000Y-101790000D03*
X157302500Y-80302500D03*
D10*
X156050000Y-124750000D03*
X152050000Y-122200000D03*
D12*
X170047500Y-115065000D03*
D14*
X169610000Y-82030000D03*
D10*
X156200000Y-91250000D03*
X156900000Y-88250000D03*
X168100000Y-104900000D03*
X158150000Y-100250000D03*
X149600000Y-124000000D03*
X146290000Y-89250000D03*
D14*
X144870000Y-118950000D03*
X173872731Y-98572731D03*
D10*
X184541007Y-96624276D03*
X149750000Y-104250000D03*
X156900000Y-89450000D03*
X177096252Y-98836509D03*
X177096252Y-95387473D03*
D15*
X180650000Y-114350000D03*
D13*
X162400000Y-92200000D03*
D14*
X174589805Y-100044436D03*
D10*
X179100000Y-88350000D03*
X144812500Y-115600000D03*
X146350000Y-114825000D03*
X146350000Y-115600000D03*
D14*
X169920000Y-79920000D03*
D10*
X145581250Y-115600000D03*
X168000000Y-97350000D03*
X155500000Y-91250000D03*
X181350000Y-82560000D03*
D14*
X151320000Y-123620000D03*
D10*
X143750000Y-90450000D03*
D11*
X173852794Y-115530176D03*
D10*
X156200000Y-88850000D03*
X165654017Y-116293309D03*
X156900000Y-90650000D03*
X177096252Y-109050000D03*
X154100000Y-88850000D03*
X156200000Y-88250000D03*
D14*
X174570825Y-103451686D03*
D11*
X151200000Y-88380000D03*
D13*
X171450000Y-113150000D03*
D14*
X174570739Y-110350000D03*
D10*
X180250000Y-79880000D03*
X147118750Y-115600000D03*
X154800000Y-90650000D03*
X177096252Y-102237500D03*
X166550047Y-118450000D03*
X145606250Y-114050000D03*
X164661500Y-110976000D03*
X184950000Y-108850000D03*
X168100000Y-103600000D03*
X155250000Y-116712500D03*
X187450000Y-94646940D03*
X167450000Y-104900000D03*
X184800000Y-103700000D03*
X147912500Y-114050000D03*
X154100000Y-88250000D03*
X171722500Y-115872500D03*
X169700000Y-124000000D03*
X146000000Y-92746936D03*
X156200000Y-90650000D03*
X177700000Y-119525000D03*
D14*
X171020000Y-81430000D03*
D13*
X162446367Y-78377995D03*
D10*
X182234000Y-79120000D03*
D14*
X175870000Y-115450000D03*
X172470000Y-88770000D03*
X148570000Y-120100000D03*
D10*
X183800000Y-85195000D03*
X154800000Y-90050000D03*
X178960000Y-79340000D03*
X180500000Y-77560000D03*
D14*
X154770000Y-123490000D03*
D10*
X168750000Y-104250000D03*
X185600000Y-103700000D03*
X179700000Y-77440000D03*
X164600000Y-83060000D03*
X180600000Y-119095002D03*
X155500000Y-88850000D03*
X181656000Y-78530000D03*
X147143750Y-113275000D03*
X180850000Y-85195000D03*
X155500000Y-89450000D03*
X189200000Y-100350000D03*
X183390000Y-82560000D03*
X146325000Y-116375000D03*
X155300000Y-102950000D03*
D14*
X167760000Y-93160000D03*
D10*
X155500000Y-88250000D03*
X155500000Y-90650000D03*
X154100000Y-112850000D03*
X167350000Y-97350000D03*
X167350000Y-96700000D03*
D14*
X169460000Y-89020000D03*
D15*
X151325000Y-120425000D03*
D14*
X173770000Y-105320000D03*
X169960000Y-121760000D03*
D13*
X161096367Y-78377995D03*
D14*
X183130000Y-110850000D03*
D10*
X147143750Y-114050000D03*
X168100000Y-104250000D03*
X156200000Y-89450000D03*
X154800000Y-89450000D03*
D15*
X179900000Y-114350000D03*
D12*
%TO.N,/SD_CS*%
X158070000Y-90370000D03*
D10*
X164526000Y-93350000D03*
X152863302Y-111438168D03*
X154880000Y-120610000D03*
X163375000Y-89400000D03*
D12*
%TO.N,+3.3V*%
X165740000Y-94200000D03*
D10*
X185350000Y-94600000D03*
D14*
X173130000Y-86950000D03*
D12*
X179400000Y-93250000D03*
D13*
X155150000Y-78700000D03*
D10*
X168120000Y-120540000D03*
D14*
X145830000Y-118950000D03*
D10*
X161800000Y-109980000D03*
X167449000Y-100250000D03*
X168087500Y-113637500D03*
X163120000Y-115840000D03*
X166010000Y-106050000D03*
D14*
X158852500Y-76252500D03*
D12*
X165839292Y-101151344D03*
X164848609Y-95089274D03*
D10*
X163000000Y-106910000D03*
X157027880Y-120597120D03*
D14*
X166758760Y-109466240D03*
D11*
X153000000Y-95660000D03*
D12*
X170800000Y-101400000D03*
D14*
X149530000Y-120100000D03*
D11*
X154450000Y-83390000D03*
D10*
X155410000Y-104530000D03*
D12*
X164955058Y-102036762D03*
D14*
X141290000Y-113600000D03*
X179109545Y-86401345D03*
D10*
X152000000Y-98400000D03*
X149770000Y-86650000D03*
D14*
X158262500Y-80302500D03*
D12*
X170710000Y-94410000D03*
D14*
X149530000Y-121050000D03*
D10*
X143550000Y-96700000D03*
D12*
X158070000Y-89630000D03*
D10*
X185150000Y-102300000D03*
D14*
X142250000Y-114520000D03*
D10*
%TO.N,+BATT*%
X177150000Y-116700000D03*
X178225000Y-115424000D03*
D13*
%TO.N,VCC*%
X172400000Y-95000000D03*
X172400000Y-98500000D03*
D10*
X168400000Y-100650000D03*
X168550000Y-94200000D03*
X187450000Y-90450000D03*
D13*
X172400000Y-101850000D03*
X170508130Y-108395630D03*
D10*
X172350000Y-96624000D03*
D13*
X172400000Y-105200000D03*
D10*
X175000000Y-114300000D03*
%TO.N,/USB_D+*%
X171105693Y-115445824D03*
D12*
X158077877Y-91776196D03*
D10*
%TO.N,/USB_D-*%
X173519073Y-114827601D03*
D12*
X158075284Y-91063678D03*
D10*
%TO.N,/LORA_RESET*%
X155845126Y-92290449D03*
D13*
X161750000Y-82400000D03*
D10*
%TO.N,/VOUT_A1*%
X179362500Y-96337500D03*
D13*
X183110000Y-91696938D03*
D10*
%TO.N,I2C_1_SDA*%
X165162500Y-103937500D03*
X164475000Y-96990000D03*
X155900000Y-109650000D03*
D11*
X154000000Y-94640000D03*
X171750000Y-110150000D03*
D10*
X186266911Y-100646938D03*
X157398903Y-81301097D03*
X142310000Y-116250000D03*
X144400000Y-91100000D03*
X153950000Y-96721000D03*
X158430000Y-103830000D03*
D16*
%TO.N,PRI_HI*%
X187280000Y-107696938D03*
D10*
%TO.N,/VOUT_A2*%
X179362500Y-99787500D03*
D13*
X184000000Y-93650000D03*
D10*
%TO.N,/VOUT_A3*%
X179337500Y-103187500D03*
%TO.N,I2C_1_SCL*%
X145050000Y-90450000D03*
X156800000Y-100500000D03*
D11*
X172540000Y-112360000D03*
D10*
X165181447Y-104687263D03*
X143630000Y-117480000D03*
X186700000Y-96746936D03*
X157550000Y-76500000D03*
X155000000Y-96721000D03*
X157940000Y-104680000D03*
X164475000Y-97740003D03*
X158825672Y-81150000D03*
D11*
X155000000Y-94640000D03*
D10*
%TO.N,/VOUT_B1*%
X179337500Y-106600000D03*
%TO.N,/VOUT_B2*%
X179337500Y-110000000D03*
%TO.N,Net-(D4-A)*%
X147015735Y-119885735D03*
X140970000Y-114790000D03*
X141000000Y-106456621D03*
%TO.N,Net-(D5-A)*%
X149998000Y-114154050D03*
%TO.N,Net-(D6-A)*%
X148170000Y-104740000D03*
X141000000Y-100713241D03*
%TO.N,Net-(D7-A)*%
X140500000Y-96130000D03*
%TO.N,Net-(D8-A)*%
X147050000Y-89690000D03*
%TO.N,Net-(D9-A)*%
X140979998Y-92098172D03*
%TO.N,Net-(U3-GPIO18)*%
X159555471Y-89325000D03*
D11*
X169200000Y-77710000D03*
D10*
%TO.N,/GPS_RX*%
X155250000Y-85200000D03*
X147268155Y-87356052D03*
D14*
%TO.N,/GPS_TX*%
X153100000Y-87290000D03*
D12*
X149000000Y-86650000D03*
D10*
%TO.N,/SCREEN_RESET*%
X155834866Y-87299998D03*
X159911091Y-95621000D03*
%TO.N,/SCREEN_MOSI*%
X158988825Y-82970666D03*
X157125000Y-84375000D03*
%TO.N,/SCREEN_DC*%
X159975000Y-101600000D03*
X163906293Y-90601000D03*
X156655783Y-87263148D03*
%TO.N,/SCREEN_CLK*%
X156650000Y-85350000D03*
X160600000Y-102629000D03*
X162124508Y-95128000D03*
X160240065Y-81375001D03*
%TO.N,/SCREEN_CS*%
X161412139Y-100614091D03*
X162976001Y-95980907D03*
X165752000Y-80402000D03*
X155922452Y-85532133D03*
%TO.N,Net-(D10-K)*%
X173700000Y-124687500D03*
X178000000Y-113600000D03*
%TO.N,Net-(D11-K)*%
X175850000Y-124687500D03*
X178089359Y-114344660D03*
D17*
%TO.N,/EXP0_USART_RXD*%
X152950000Y-92200000D03*
D10*
X141050000Y-102650000D03*
%TO.N,I2C_2_SCL*%
X146890000Y-93696938D03*
X159912244Y-87674584D03*
X161948368Y-93460000D03*
D11*
X152000000Y-94640000D03*
D10*
%TO.N,I2C_2_SDA*%
X146890000Y-91696938D03*
D11*
X153000000Y-94640000D03*
D10*
X157800000Y-87250000D03*
%TO.N,SPI_0_SCLK*%
X155113172Y-118250000D03*
D11*
X158000000Y-94640000D03*
D14*
X158101594Y-88672353D03*
D13*
X161464504Y-86374584D03*
D11*
%TO.N,SPI_0_MOSI*%
X157000000Y-94640000D03*
D10*
X158999475Y-93714729D03*
X153565134Y-118250000D03*
X159810491Y-91186999D03*
%TO.N,SPI_0_MISO*%
X159500000Y-94350000D03*
X163800000Y-94050000D03*
X160375000Y-120550000D03*
D13*
X161750000Y-90450000D03*
D11*
X156000000Y-94640000D03*
D10*
X158132267Y-87948000D03*
%TO.N,/EN_B1*%
X177062500Y-104700000D03*
X148119195Y-110862063D03*
%TO.N,/EN_A1*%
X177087500Y-94437500D03*
X145650000Y-110900000D03*
%TO.N,/EN_A2*%
X177087500Y-97887500D03*
X146391562Y-110787797D03*
%TO.N,/EN_A3*%
X177062500Y-101287500D03*
X147180302Y-110880302D03*
%TO.N,/EN_B2*%
X177062500Y-108100000D03*
X148925956Y-110975956D03*
%TO.N,Net-(D3-A)*%
X146010000Y-119840000D03*
X140950000Y-109300000D03*
%TO.N,+3V0*%
X161200000Y-98800000D03*
X185400000Y-92496938D03*
X172200000Y-93174000D03*
D14*
X157930000Y-106890000D03*
D10*
X158825000Y-102629000D03*
X167558736Y-112657321D03*
D11*
%TO.N,Net-(U3-CHIP_PU)*%
X154450000Y-84410000D03*
D14*
X156560000Y-78100000D03*
D13*
X175800000Y-77041000D03*
D10*
%TO.N,Net-(U10-VIN)*%
X177096252Y-110000000D03*
X183099291Y-108746936D03*
%TO.N,/PB1*%
X151607802Y-113843668D03*
%TO.N,/PB3*%
X157625000Y-117025000D03*
%TO.N,/PB5*%
X163125000Y-117025000D03*
%TO.N,/PB2*%
X152264134Y-112880000D03*
%TO.N,/PB4*%
X150850000Y-116800000D03*
%TO.N,Net-(U3-GPIO0)*%
X174600000Y-91650000D03*
X154308451Y-85233451D03*
%TO.N,Net-(U10-QOD)*%
X179337500Y-109050000D03*
%TO.N,Net-(U10-CT)*%
X179337500Y-108100000D03*
%TO.N,Net-(D2-A)*%
X140951000Y-110600000D03*
%TO.N,Net-(IC1-LXBB2-PadB2)*%
X174750000Y-113102000D03*
%TO.N,VBACKUP*%
X145086091Y-87486091D03*
%TO.N,+1V8*%
X185400000Y-90400000D03*
X179475000Y-122050000D03*
D11*
%TO.N,1v8_I2C_1_SDA*%
X178250000Y-111691000D03*
D17*
X168450000Y-108250000D03*
D10*
%TO.N,VCCQ*%
X177249000Y-114250000D03*
D11*
X177150000Y-111200000D03*
D10*
X187450000Y-92646940D03*
%TO.N,Net-(IC1-LXBB1-PadB4)*%
X174751415Y-111651001D03*
D11*
%TO.N,1v8_I2C_1_SCL*%
X178200000Y-110950000D03*
X172650000Y-110350000D03*
X168440000Y-109200000D03*
D10*
%TO.N,Net-(U4-IN+1)*%
X183000000Y-92700000D03*
X177096252Y-96337500D03*
%TO.N,Net-(U4-IN+2)*%
X177096252Y-99787500D03*
X183090000Y-96700000D03*
%TO.N,Net-(U4-IN+3)*%
X184000000Y-100746936D03*
X177096252Y-103187500D03*
%TO.N,Net-(U5-IN+1)*%
X177096252Y-106600000D03*
X183050000Y-104746936D03*
X171400000Y-103600000D03*
X169100000Y-101300000D03*
%TO.N,Net-(U6-CT)*%
X179362500Y-94437500D03*
%TO.N,Net-(U7-CT)*%
X179362500Y-97887500D03*
%TO.N,Net-(U8-CT)*%
X179337500Y-101287500D03*
%TO.N,Net-(U9-CT)*%
X179337500Y-104700000D03*
D17*
%TO.N,Net-(Q3-D)*%
X165559324Y-109378000D03*
X153900000Y-106125000D03*
D10*
%TO.N,Net-(U4-PV)*%
X167650000Y-94250000D03*
D12*
X165100000Y-100050000D03*
%TO.N,Net-(U4-VPU)*%
X166120000Y-100050000D03*
D10*
X170800000Y-98300000D03*
D12*
%TO.N,Net-(U5-PV)*%
X165200000Y-107000000D03*
D10*
X167750000Y-101525569D03*
%TO.N,Net-(U5-VPU)*%
X169950000Y-106050000D03*
D12*
X166220000Y-107000000D03*
D10*
%TO.N,Net-(U6-QOD)*%
X179362500Y-95387500D03*
%TO.N,Net-(U7-QOD)*%
X179362500Y-98837500D03*
%TO.N,Net-(U8-QOD)*%
X179337500Y-102237500D03*
%TO.N,Net-(U9-QOD)*%
X179337500Y-105650000D03*
%TO.N,Net-(U12-CS)*%
X186050000Y-119600000D03*
X184016111Y-119597150D03*
%TD*%
D18*
%TO.N,/SD_CS*%
X163375000Y-89400000D02*
X163415000Y-89360000D01*
D19*
X152915134Y-118645134D02*
X154880000Y-120610000D01*
X163335000Y-89360000D02*
X161777925Y-89360000D01*
X161777925Y-89360000D02*
X160767925Y-90370000D01*
X160767925Y-90370000D02*
X158070000Y-90370000D01*
X163375000Y-89400000D02*
X163335000Y-89360000D01*
X152915134Y-111490000D02*
X152915134Y-118645134D01*
D20*
X152863302Y-111438168D02*
X152915134Y-111490000D01*
D18*
X163440000Y-89360000D02*
X163430000Y-89370000D01*
X163415000Y-89360000D02*
X163440000Y-89360000D01*
D21*
%TO.N,VCC*%
X172400000Y-95000000D02*
X173300000Y-94100000D01*
X176850000Y-92400000D02*
X180637925Y-92400000D01*
X173300000Y-94100000D02*
X175150000Y-94100000D01*
X183587925Y-89450000D02*
X186450000Y-89450000D01*
X186450000Y-89450000D02*
X187450000Y-90450000D01*
X180637925Y-92400000D02*
X183587925Y-89450000D01*
X175150000Y-94100000D02*
X176850000Y-92400000D01*
D18*
%TO.N,/LORA_RESET*%
X161992991Y-91176000D02*
X164188588Y-91176000D01*
X155845126Y-92290449D02*
X155845126Y-92307772D01*
X160851795Y-92317196D02*
X161992991Y-91176000D01*
X164526000Y-90838588D02*
X164526000Y-85176000D01*
X155845126Y-92307772D02*
X155854550Y-92317196D01*
X164526000Y-85176000D02*
X161750000Y-82400000D01*
X164188588Y-91176000D02*
X164526000Y-90838588D01*
X155854550Y-92317196D02*
X160851795Y-92317196D01*
D22*
%TO.N,I2C_1_SDA*%
X169945654Y-111350000D02*
X169307154Y-110711500D01*
X153918308Y-97708308D02*
X154360000Y-98150000D01*
X159020596Y-98150000D02*
X160180596Y-96990000D01*
X172350000Y-111350000D02*
X172650000Y-111350000D01*
X171750000Y-110150000D02*
X171750000Y-110200000D01*
X171800000Y-110250000D02*
X171800000Y-110800000D01*
X165761500Y-110711500D02*
X164379000Y-109329000D01*
X171750000Y-110200000D02*
X171800000Y-110250000D01*
X156221000Y-109329000D02*
X155900000Y-109650000D01*
X186266911Y-106709257D02*
X180775168Y-112201000D01*
X160180596Y-96990000D02*
X164475000Y-96990000D01*
X164379000Y-109329000D02*
X156221000Y-109329000D01*
X154360000Y-98150000D02*
X159020596Y-98150000D01*
X165055000Y-103830000D02*
X158430000Y-103830000D01*
X172650000Y-111350000D02*
X169945654Y-111350000D01*
X180775168Y-112201000D02*
X173501000Y-112201000D01*
X171800000Y-110800000D02*
X172350000Y-111350000D01*
X153918308Y-96752692D02*
X153918308Y-97708308D01*
X153950000Y-96721000D02*
X153918308Y-96752692D01*
X186266911Y-100646938D02*
X186266911Y-106709257D01*
X173501000Y-112201000D02*
X172650000Y-111350000D01*
X169307154Y-110711500D02*
X165761500Y-110711500D01*
%TO.N,I2C_1_SCL*%
X172540000Y-112360000D02*
X172982429Y-112360000D01*
X182171877Y-112552000D02*
X185501000Y-109222877D01*
X185501000Y-107976232D02*
X186817911Y-106659321D01*
X186817911Y-96864847D02*
X186700000Y-96746936D01*
X164991609Y-104687263D02*
X164984346Y-104680000D01*
X159165984Y-98501000D02*
X157999000Y-98501000D01*
X186817911Y-106659321D02*
X186817911Y-96864847D01*
X185501000Y-109222877D02*
X185501000Y-107976232D01*
X172982429Y-112360000D02*
X173174429Y-112552000D01*
X164984346Y-104680000D02*
X157940000Y-104680000D01*
X157999000Y-98501000D02*
X156800000Y-99700000D01*
X173174429Y-112552000D02*
X182171877Y-112552000D01*
X164475000Y-97740003D02*
X159926981Y-97740003D01*
X159926981Y-97740003D02*
X159165984Y-98501000D01*
X156800000Y-99700000D02*
X156800000Y-100500000D01*
X165181447Y-104687263D02*
X164991609Y-104687263D01*
D20*
%TO.N,Net-(D6-A)*%
X148170000Y-104740000D02*
X144143241Y-100713241D01*
X144143241Y-100713241D02*
X141000000Y-100713241D01*
D19*
%TO.N,/SCREEN_RESET*%
X154060051Y-87299998D02*
X153500000Y-87860049D01*
X153500000Y-92350000D02*
X155150000Y-94000000D01*
X155834866Y-87299998D02*
X154060051Y-87299998D01*
X153500000Y-87860049D02*
X153500000Y-92350000D01*
X155150000Y-94000000D02*
X158290091Y-94000000D01*
X158290091Y-94000000D02*
X159911091Y-95621000D01*
D22*
%TO.N,/SCREEN_DC*%
X160851000Y-85699000D02*
X159999000Y-86551000D01*
X163950000Y-87250000D02*
X162399000Y-85699000D01*
X159999000Y-86551000D02*
X157367931Y-86551000D01*
X163950000Y-90513173D02*
X163950000Y-87250000D01*
X157367931Y-86551000D02*
X156655783Y-87263148D01*
X163906293Y-90601000D02*
X163906293Y-90556880D01*
X162399000Y-85699000D02*
X160851000Y-85699000D01*
X163906293Y-90556880D02*
X163950000Y-90513173D01*
D20*
%TO.N,Net-(D10-K)*%
X174463794Y-118683864D02*
X173700000Y-119447658D01*
X176700000Y-113600000D02*
X174463794Y-115836206D01*
X174463794Y-115836206D02*
X174463794Y-118683864D01*
X173700000Y-119447658D02*
X173700000Y-124687500D01*
X178000000Y-113600000D02*
X176700000Y-113600000D01*
%TO.N,Net-(D11-K)*%
X178089359Y-114344660D02*
X177955340Y-114344660D01*
X176400000Y-116400000D02*
X176400000Y-119700000D01*
X176900000Y-115534019D02*
X176900000Y-115900000D01*
X175850000Y-120250000D02*
X175850000Y-124687500D01*
X176900000Y-115900000D02*
X176400000Y-116400000D01*
X175850000Y-120250000D02*
X176400000Y-119700000D01*
X178089359Y-114344660D02*
X176900000Y-115534019D01*
X178089359Y-114344660D02*
X178034019Y-114400000D01*
X178034019Y-114400000D02*
X177950000Y-114400000D01*
D22*
%TO.N,/EXP0_USART_RXD*%
X140409000Y-102009000D02*
X141025000Y-102625000D01*
X146383294Y-91145938D02*
X140409000Y-97120232D01*
X151895938Y-91145938D02*
X146383294Y-91145938D01*
X140409000Y-97120232D02*
X140409000Y-102009000D01*
X152950000Y-92200000D02*
X151895938Y-91145938D01*
%TO.N,I2C_2_SCL*%
X161940000Y-93468368D02*
X161940000Y-94460000D01*
X160229000Y-96171000D02*
X152788336Y-96171000D01*
X146890000Y-93696938D02*
X151321616Y-93696938D01*
X161948368Y-93460000D02*
X161940000Y-93468368D01*
X161940000Y-94460000D02*
X160229000Y-96171000D01*
X151321616Y-93696938D02*
X152000000Y-94375322D01*
X152788336Y-96171000D02*
X152000000Y-95382664D01*
X152000000Y-95382664D02*
X152000000Y-94640000D01*
X152000000Y-94375322D02*
X152000000Y-94640000D01*
%TO.N,I2C_2_SDA*%
X148096938Y-91696938D02*
X146890000Y-91696938D01*
X151160000Y-92800000D02*
X149200000Y-92800000D01*
X153000000Y-94640000D02*
X151160000Y-92800000D01*
X149200000Y-92800000D02*
X148096938Y-91696938D01*
D18*
%TO.N,SPI_0_SCLK*%
X160427647Y-88672353D02*
X158101594Y-88672353D01*
X161464504Y-86374584D02*
X160750000Y-87089088D01*
X160750000Y-87089088D02*
X160750000Y-88350000D01*
X160750000Y-88350000D02*
X160427647Y-88672353D01*
D19*
%TO.N,/EN_B1*%
X148677013Y-110374956D02*
X149101278Y-110374956D01*
X175860655Y-105901845D02*
X177062500Y-104700000D01*
X170198943Y-106651000D02*
X170948098Y-105901845D01*
X148324956Y-110862063D02*
X148324956Y-110727013D01*
X149992067Y-109484168D02*
X153839319Y-109484168D01*
X168586810Y-106651000D02*
X170198943Y-106651000D01*
X148119195Y-110862063D02*
X148324956Y-110862063D01*
X153839319Y-109484168D02*
X155072487Y-108251000D01*
X148324956Y-110727013D02*
X148677013Y-110374956D01*
X170948098Y-105901845D02*
X175860655Y-105901845D01*
X166986810Y-108251000D02*
X168586810Y-106651000D01*
X149101278Y-110374956D02*
X149992067Y-109484168D01*
X155072487Y-108251000D02*
X166986810Y-108251000D01*
%TO.N,/EN_A1*%
X161120555Y-103229000D02*
X165748555Y-98601000D01*
X153278889Y-108131168D02*
X158181057Y-103229000D01*
X145650000Y-110900000D02*
X145650000Y-110679416D01*
X158181057Y-103229000D02*
X161120555Y-103229000D01*
X147429416Y-108900000D02*
X148662804Y-108900000D01*
X175824000Y-95701000D02*
X177087500Y-94437500D01*
X145650000Y-110679416D02*
X147429416Y-108900000D01*
X148662804Y-108900000D02*
X149431637Y-108131168D01*
X165748555Y-98601000D02*
X169523057Y-98601000D01*
X169523057Y-98601000D02*
X172423057Y-95701000D01*
X149431637Y-108131168D02*
X153278889Y-108131168D01*
X172423057Y-95701000D02*
X175824000Y-95701000D01*
%TO.N,/EN_A2*%
X148751614Y-109449000D02*
X149618447Y-108582168D01*
X166849000Y-103351057D02*
X168234057Y-101966000D01*
X166849000Y-103869653D02*
X166849000Y-103351057D01*
X147972794Y-109450000D02*
X147973794Y-109449000D01*
X168234057Y-101966000D02*
X171292636Y-101966000D01*
X153465699Y-108582168D02*
X156297867Y-105750000D01*
X146391562Y-110787797D02*
X147729359Y-109450000D01*
X175371136Y-97887500D02*
X177087500Y-97887500D01*
X147973794Y-109449000D02*
X148751614Y-109449000D01*
X156297867Y-105750000D02*
X164968653Y-105750000D01*
X164968653Y-105750000D02*
X166849000Y-103869653D01*
X147729359Y-109450000D02*
X147972794Y-109450000D01*
X171292636Y-101966000D02*
X175371136Y-97887500D01*
X149618447Y-108582168D02*
X153465699Y-108582168D01*
%TO.N,/EN_A3*%
X169690364Y-104909636D02*
X171699000Y-104909636D01*
X148938424Y-109900000D02*
X149805257Y-109033168D01*
X153652509Y-109033168D02*
X154885677Y-107800000D01*
X171699000Y-104909636D02*
X175321136Y-101287500D01*
X166800000Y-107800000D02*
X169690364Y-104909636D01*
X149805257Y-109033168D02*
X153652509Y-109033168D01*
X175321136Y-101287500D02*
X177062500Y-101287500D01*
X154885677Y-107800000D02*
X166800000Y-107800000D01*
X148160604Y-109900000D02*
X148938424Y-109900000D01*
X147180302Y-110880302D02*
X148160604Y-109900000D01*
%TO.N,/EN_B2*%
X168180990Y-107694630D02*
X167173620Y-108702000D01*
X154026129Y-109935168D02*
X150178877Y-109935168D01*
X149032022Y-111082022D02*
X148925956Y-110975956D01*
X171594630Y-107694630D02*
X168180990Y-107694630D01*
X175761500Y-109401000D02*
X173301000Y-109401000D01*
X177062500Y-108100000D02*
X175761500Y-109401000D01*
X167173620Y-108702000D02*
X155259297Y-108702000D01*
X173301000Y-109401000D02*
X171594630Y-107694630D01*
X155259297Y-108702000D02*
X154026129Y-109935168D01*
X150178877Y-109935168D02*
X149032022Y-111082022D01*
D20*
%TO.N,Net-(D3-A)*%
X146010000Y-119840000D02*
X144874702Y-119840000D01*
X144874702Y-119840000D02*
X142979000Y-117944298D01*
X142979000Y-111329000D02*
X140950000Y-109300000D01*
X142979000Y-117944298D02*
X142979000Y-111329000D01*
D21*
%TO.N,+3V0*%
X168757423Y-95350000D02*
X167250000Y-95350000D01*
X172200000Y-93174000D02*
X172174000Y-93200000D01*
X167250000Y-95350000D02*
X166400000Y-96200000D01*
X170907423Y-93200000D02*
X168757423Y-95350000D01*
X164699000Y-98800000D02*
X161200000Y-98800000D01*
X172174000Y-93200000D02*
X170907423Y-93200000D01*
X166400000Y-96200000D02*
X166400000Y-97099000D01*
X166400000Y-97099000D02*
X164699000Y-98800000D01*
D20*
%TO.N,Net-(U3-CHIP_PU)*%
X175741000Y-77100000D02*
X159619702Y-77100000D01*
X156560000Y-79110000D02*
X156560000Y-78100000D01*
X157084851Y-79634851D02*
X156474000Y-80245702D01*
X159619702Y-77100000D02*
X157084851Y-79634851D01*
X157084851Y-79634851D02*
X156560000Y-79110000D01*
X156474000Y-83846000D02*
X155920000Y-84400000D01*
X155920000Y-84400000D02*
X154460000Y-84400000D01*
X175800000Y-77041000D02*
X175741000Y-77100000D01*
X156474000Y-80245702D02*
X156474000Y-83846000D01*
X154460000Y-84400000D02*
X154450000Y-84410000D01*
D23*
%TO.N,Net-(U10-VIN)*%
X178200000Y-110000000D02*
X177062500Y-110000000D01*
X183099291Y-109097645D02*
X181496936Y-110700000D01*
X178900000Y-110700000D02*
X178200000Y-110000000D01*
X181496936Y-110700000D02*
X178900000Y-110700000D01*
X183099291Y-108746936D02*
X183099291Y-109097645D01*
D19*
%TO.N,Net-(U3-GPIO0)*%
X155269722Y-86150000D02*
X154353173Y-85233451D01*
X160600000Y-84800000D02*
X159250000Y-86150000D01*
X159250000Y-86150000D02*
X155269722Y-86150000D01*
X174300000Y-91650000D02*
X164350000Y-81700000D01*
X154353173Y-85233451D02*
X154308451Y-85233451D01*
X164350000Y-81700000D02*
X161458636Y-81700000D01*
X161458636Y-81700000D02*
X160600000Y-82558636D01*
X174600000Y-91650000D02*
X174300000Y-91650000D01*
X160600000Y-82558636D02*
X160600000Y-84800000D01*
D21*
%TO.N,+1V8*%
X187350000Y-91450000D02*
X188231000Y-92331000D01*
X186400000Y-91450000D02*
X187350000Y-91450000D01*
X185400000Y-90450000D02*
X186400000Y-91450000D01*
X188231000Y-109445720D02*
X179475000Y-118201720D01*
X185400000Y-90400000D02*
X185400000Y-90450000D01*
X188231000Y-92331000D02*
X188231000Y-109445720D01*
X179475000Y-118201720D02*
X179475000Y-122050000D01*
D22*
%TO.N,1v8_I2C_1_SDA*%
X173922664Y-110900000D02*
X172572664Y-109550000D01*
X172572664Y-109550000D02*
X169750000Y-109550000D01*
X177940336Y-111691000D02*
X177661000Y-111411664D01*
X175179648Y-110900000D02*
X173922664Y-110900000D01*
X177661000Y-111411664D02*
X177661000Y-110988336D01*
X178250000Y-111691000D02*
X177940336Y-111691000D01*
X175390648Y-110689000D02*
X175179648Y-110900000D01*
X177661000Y-110988336D02*
X177361664Y-110689000D01*
X177361664Y-110689000D02*
X175390648Y-110689000D01*
X169750000Y-109550000D02*
X168450000Y-108250000D01*
D23*
%TO.N,Net-(U4-IN+1)*%
X177788500Y-97038500D02*
X179652864Y-97038500D01*
X177087500Y-96337500D02*
X177788500Y-97038500D01*
X179652864Y-97038500D02*
X183000000Y-93691364D01*
X183000000Y-93691364D02*
X183000000Y-92700000D01*
%TO.N,Net-(U4-IN+2)*%
X183090000Y-96700000D02*
X183100000Y-96710000D01*
X183100000Y-96710000D02*
X183100000Y-97500000D01*
X180111500Y-100488500D02*
X177788500Y-100488500D01*
X183100000Y-97500000D02*
X180111500Y-100488500D01*
X177788500Y-100488500D02*
X177087500Y-99787500D01*
%TO.N,Net-(U4-IN+3)*%
X177751000Y-103888500D02*
X177050000Y-103187500D01*
X184000000Y-100750000D02*
X180861500Y-103888500D01*
X184000000Y-100746936D02*
X184000000Y-100750000D01*
X180861500Y-103888500D02*
X177751000Y-103888500D01*
%TO.N,Net-(U5-IN+1)*%
X183050000Y-104746936D02*
X183050000Y-104900000D01*
X183050000Y-104900000D02*
X180649000Y-107301000D01*
X180649000Y-107301000D02*
X177763500Y-107301000D01*
X177763500Y-107301000D02*
X177062500Y-106600000D01*
D18*
%TO.N,SPI_0_MISO*%
X159500000Y-94300000D02*
X159500000Y-94350000D01*
X162634000Y-92884000D02*
X160916000Y-92884000D01*
X160916000Y-92884000D02*
X159500000Y-94300000D01*
X163800000Y-94050000D02*
X162634000Y-92884000D01*
%TD*%
M02*
