%TF.GenerationSoftware,KiCad,Pcbnew,9.0.6*%
%TF.CreationDate,2025-12-12T18:48:04+01:00*%
%TF.ProjectId,gaia_obc,67616961-5f6f-4626-932e-6b696361645f,10*%
%TF.SameCoordinates,Original*%
%TF.FileFunction,Soldermask,Top*%
%TF.FilePolarity,Negative*%
%FSLAX46Y46*%
G04 Gerber Fmt 4.6, Leading zero omitted, Abs format (unit mm)*
G04 Created by KiCad (PCBNEW 9.0.6) date 2025-12-12 18:48:04*
%MOMM*%
%LPD*%
G01*
G04 APERTURE LIST*
G04 Aperture macros list*
%AMRoundRect*
0 Rectangle with rounded corners*
0 $1 Rounding radius*
0 $2 $3 $4 $5 $6 $7 $8 $9 X,Y pos of 4 corners*
0 Add a 4 corners polygon primitive as box body*
4,1,4,$2,$3,$4,$5,$6,$7,$8,$9,$2,$3,0*
0 Add four circle primitives for the rounded corners*
1,1,$1+$1,$2,$3*
1,1,$1+$1,$4,$5*
1,1,$1+$1,$6,$7*
1,1,$1+$1,$8,$9*
0 Add four rect primitives between the rounded corners*
20,1,$1+$1,$2,$3,$4,$5,0*
20,1,$1+$1,$4,$5,$6,$7,0*
20,1,$1+$1,$6,$7,$8,$9,0*
20,1,$1+$1,$8,$9,$2,$3,0*%
G04 Aperture macros list end*
%ADD10R,1.000000X1.000000*%
%ADD11R,0.800000X2.000000*%
%ADD12R,1.250000X0.700000*%
%ADD13R,0.700000X0.250000*%
%ADD14RoundRect,0.150500X-0.951500X-0.451500X0.951500X-0.451500X0.951500X0.451500X-0.951500X0.451500X0*%
%ADD15C,1.210000*%
%ADD16RoundRect,0.135000X0.185000X-0.135000X0.185000X0.135000X-0.185000X0.135000X-0.185000X-0.135000X0*%
%ADD17RoundRect,0.150000X-0.587500X-0.150000X0.587500X-0.150000X0.587500X0.150000X-0.587500X0.150000X0*%
%ADD18RoundRect,0.140000X-0.170000X0.140000X-0.170000X-0.140000X0.170000X-0.140000X0.170000X0.140000X0*%
%ADD19RoundRect,0.135000X-0.135000X-0.185000X0.135000X-0.185000X0.135000X0.185000X-0.135000X0.185000X0*%
%ADD20RoundRect,0.218750X0.218750X0.256250X-0.218750X0.256250X-0.218750X-0.256250X0.218750X-0.256250X0*%
%ADD21RoundRect,0.140000X0.140000X0.170000X-0.140000X0.170000X-0.140000X-0.170000X0.140000X-0.170000X0*%
%ADD22RoundRect,0.243750X0.456250X-0.243750X0.456250X0.243750X-0.456250X0.243750X-0.456250X-0.243750X0*%
%ADD23RoundRect,0.225000X0.250000X-0.225000X0.250000X0.225000X-0.250000X0.225000X-0.250000X-0.225000X0*%
%ADD24R,1.700000X1.300000*%
%ADD25RoundRect,0.200000X-0.650000X0.200000X-0.650000X-0.200000X0.650000X-0.200000X0.650000X0.200000X0*%
%ADD26R,2.000000X0.800000*%
%ADD27RoundRect,0.135000X-0.185000X0.135000X-0.185000X-0.135000X0.185000X-0.135000X0.185000X0.135000X0*%
%ADD28RoundRect,0.135000X0.135000X0.185000X-0.135000X0.185000X-0.135000X-0.185000X0.135000X-0.185000X0*%
%ADD29RoundRect,0.200000X-0.275000X0.200000X-0.275000X-0.200000X0.275000X-0.200000X0.275000X0.200000X0*%
%ADD30RoundRect,0.140000X0.170000X-0.140000X0.170000X0.140000X-0.170000X0.140000X-0.170000X-0.140000X0*%
%ADD31RoundRect,0.075000X-0.075000X0.650000X-0.075000X-0.650000X0.075000X-0.650000X0.075000X0.650000X0*%
%ADD32RoundRect,0.150000X0.512500X0.150000X-0.512500X0.150000X-0.512500X-0.150000X0.512500X-0.150000X0*%
%ADD33RoundRect,0.200000X0.275000X-0.200000X0.275000X0.200000X-0.275000X0.200000X-0.275000X-0.200000X0*%
%ADD34RoundRect,0.140000X-0.140000X-0.170000X0.140000X-0.170000X0.140000X0.170000X-0.140000X0.170000X0*%
%ADD35RoundRect,0.250000X-1.425000X0.362500X-1.425000X-0.362500X1.425000X-0.362500X1.425000X0.362500X0*%
G04 APERTURE END LIST*
D10*
%TO.C,TP6*%
X187450000Y-94450000D03*
%TD*%
%TO.C,TP5*%
X187450000Y-92450000D03*
%TD*%
%TO.C,TP4*%
X187450000Y-90450000D03*
%TD*%
%TO.C,TP3*%
X185400000Y-94450000D03*
%TD*%
%TO.C,TP2*%
X185400000Y-92450000D03*
%TD*%
%TO.C,TP1*%
X185400000Y-90450000D03*
%TD*%
D11*
%TO.C,BZ1*%
X173080000Y-81090000D03*
X173080000Y-85090000D03*
X169580000Y-85090000D03*
%TD*%
D12*
%TO.C,SW3*%
X168625000Y-115025000D03*
X172375000Y-115025000D03*
X168625000Y-117025000D03*
X172375000Y-117025000D03*
D13*
X170500000Y-114400000D03*
X170500000Y-117650000D03*
%TD*%
D12*
%TO.C,SW4*%
X163125000Y-109525000D03*
X166875000Y-109525000D03*
X163125000Y-111525000D03*
X166875000Y-111525000D03*
D13*
X165000000Y-108900000D03*
X165000000Y-112150000D03*
%TD*%
D12*
%TO.C,SW5*%
X157625000Y-115025000D03*
X161375000Y-115025000D03*
X157625000Y-117025000D03*
X161375000Y-117025000D03*
D13*
X159500000Y-114400000D03*
X159500000Y-117650000D03*
%TD*%
D12*
%TO.C,SW6*%
X163200000Y-120525000D03*
X166950000Y-120525000D03*
X163200000Y-122525000D03*
X166950000Y-122525000D03*
D13*
X165075000Y-119900000D03*
X165075000Y-123150000D03*
%TD*%
D12*
%TO.C,SW7*%
X163125000Y-115025000D03*
X166875000Y-115025000D03*
X163125000Y-117025000D03*
X166875000Y-117025000D03*
D13*
X165000000Y-114400000D03*
X165000000Y-117650000D03*
%TD*%
D14*
%TO.C,U15*%
X167400000Y-77750000D03*
X167400000Y-79250000D03*
X167400000Y-80750000D03*
X167400000Y-82250000D03*
X167400000Y-83750000D03*
X167400000Y-85250000D03*
X167400000Y-86750000D03*
X167400000Y-88250000D03*
X167400000Y-89750000D03*
X167400000Y-91250000D03*
X151400000Y-91250000D03*
X151400000Y-89750000D03*
X151400000Y-88250000D03*
X151400000Y-86750000D03*
X151400000Y-85250000D03*
X151400000Y-83750000D03*
X151400000Y-82250000D03*
X151400000Y-80750000D03*
X151400000Y-79250000D03*
X151400000Y-77750000D03*
D15*
X159400000Y-84050000D03*
%TD*%
D16*
%TO.C,R19*%
X169200000Y-76690000D03*
X169200000Y-77710000D03*
%TD*%
D17*
%TO.C,Q5*%
X173112500Y-108450000D03*
X173112500Y-110350000D03*
X174987500Y-109400000D03*
%TD*%
D18*
%TO.C,C52*%
X183200000Y-120170000D03*
X183200000Y-121130000D03*
%TD*%
D19*
%TO.C,R21*%
X143790000Y-94969862D03*
X144810000Y-94969862D03*
%TD*%
%TO.C,R64*%
X164490000Y-123950000D03*
X165510000Y-123950000D03*
%TD*%
D20*
%TO.C,D12*%
X142575000Y-89226482D03*
X141000000Y-89226482D03*
%TD*%
D21*
%TO.C,C29*%
X183130000Y-103280000D03*
X182170000Y-103280000D03*
%TD*%
D22*
%TO.C,D11*%
X175850000Y-124837500D03*
X175850000Y-122962500D03*
%TD*%
D19*
%TO.C,R7*%
X143790000Y-112200000D03*
X144810000Y-112200000D03*
%TD*%
D23*
%TO.C,C49*%
X185150000Y-102300000D03*
X185150000Y-100750000D03*
%TD*%
D24*
%TO.C,SW1*%
X175800000Y-81359000D03*
X175800000Y-77041000D03*
%TD*%
D19*
%TO.C,R58*%
X143790000Y-89226482D03*
X144810000Y-89226482D03*
%TD*%
D20*
%TO.C,D8*%
X142575000Y-94969862D03*
X141000000Y-94969862D03*
%TD*%
D24*
%TO.C,SW2*%
X175800000Y-87291000D03*
X175800000Y-91609000D03*
%TD*%
D25*
%TO.C,L2*%
X174800000Y-111750000D03*
X174800000Y-113050000D03*
%TD*%
D26*
%TO.C,SW8*%
X180000000Y-117400000D03*
X180000000Y-115400000D03*
X180000000Y-113400000D03*
X186000000Y-113400000D03*
X186000000Y-115400000D03*
X186000000Y-117400000D03*
%TD*%
D27*
%TO.C,R39*%
X181150000Y-97135000D03*
X181150000Y-98155000D03*
%TD*%
D28*
%TO.C,R44*%
X169460000Y-108250000D03*
X168440000Y-108250000D03*
%TD*%
D29*
%TO.C,R50*%
X175850000Y-119900000D03*
X175850000Y-121550000D03*
%TD*%
D21*
%TO.C,C28*%
X183130000Y-99495000D03*
X182170000Y-99495000D03*
%TD*%
D19*
%TO.C,R9*%
X143790000Y-106456621D03*
X144810000Y-106456621D03*
%TD*%
%TO.C,R62*%
X164490000Y-112960000D03*
X165510000Y-112960000D03*
%TD*%
%TO.C,R22*%
X143790000Y-92098172D03*
X144810000Y-92098172D03*
%TD*%
D27*
%TO.C,R38*%
X181150000Y-93340000D03*
X181150000Y-94360000D03*
%TD*%
D23*
%TO.C,C37*%
X177700000Y-119525000D03*
X177700000Y-117975000D03*
%TD*%
D17*
%TO.C,Q4*%
X170262500Y-110600000D03*
X170262500Y-112500000D03*
X172137500Y-111550000D03*
%TD*%
D30*
%TO.C,C23*%
X182180000Y-108950000D03*
X182180000Y-107990000D03*
%TD*%
D19*
%TO.C,R12*%
X143790000Y-97841551D03*
X144810000Y-97841551D03*
%TD*%
D30*
%TO.C,C21*%
X182180000Y-101380000D03*
X182180000Y-100420000D03*
%TD*%
D27*
%TO.C,R40*%
X181150000Y-100930000D03*
X181150000Y-101950000D03*
%TD*%
D30*
%TO.C,C41*%
X149600000Y-79330000D03*
X149600000Y-78370000D03*
%TD*%
D23*
%TO.C,C4*%
X172200000Y-121000000D03*
X172200000Y-119450000D03*
%TD*%
D19*
%TO.C,R61*%
X169990000Y-118450000D03*
X171010000Y-118450000D03*
%TD*%
D20*
%TO.C,D6*%
X142575000Y-100713241D03*
X141000000Y-100713241D03*
%TD*%
%TO.C,D9*%
X142575000Y-92098172D03*
X141000000Y-92098172D03*
%TD*%
D21*
%TO.C,C30*%
X183130000Y-107065000D03*
X182170000Y-107065000D03*
%TD*%
D31*
%TO.C,U19*%
X188637500Y-98000000D03*
X188137500Y-98000000D03*
X187637500Y-98000000D03*
X187137500Y-98000000D03*
X186637500Y-98000000D03*
X186637500Y-102400000D03*
X187137500Y-102400000D03*
X187637500Y-102400000D03*
X188137500Y-102400000D03*
X188637500Y-102400000D03*
%TD*%
D27*
%TO.C,R42*%
X181150000Y-108520000D03*
X181150000Y-109540000D03*
%TD*%
D20*
%TO.C,D7*%
X142575000Y-97841551D03*
X141000000Y-97841551D03*
%TD*%
D28*
%TO.C,R43*%
X169460000Y-109200000D03*
X168440000Y-109200000D03*
%TD*%
D19*
%TO.C,R8*%
X143790000Y-109328310D03*
X144810000Y-109328310D03*
%TD*%
D21*
%TO.C,C27*%
X183130000Y-95710000D03*
X182170000Y-95710000D03*
%TD*%
D32*
%TO.C,U20*%
X181750000Y-122050000D03*
X181750000Y-121100000D03*
X181750000Y-120150000D03*
X179475000Y-120150000D03*
X179475000Y-122050000D03*
%TD*%
D30*
%TO.C,C22*%
X182180000Y-105165000D03*
X182180000Y-104205000D03*
%TD*%
D20*
%TO.C,D3*%
X142525000Y-109328310D03*
X140950000Y-109328310D03*
%TD*%
D27*
%TO.C,R41*%
X181150000Y-104725000D03*
X181150000Y-105745000D03*
%TD*%
D17*
%TO.C,Q1*%
X170812500Y-76747500D03*
X170812500Y-78647500D03*
X172687500Y-77697500D03*
%TD*%
D33*
%TO.C,R49*%
X173700000Y-121550000D03*
X173700000Y-119900000D03*
%TD*%
D21*
%TO.C,C31*%
X183130000Y-110850000D03*
X182170000Y-110850000D03*
%TD*%
D19*
%TO.C,R65*%
X164565000Y-118400000D03*
X165585000Y-118400000D03*
%TD*%
%TO.C,R63*%
X158990000Y-118450000D03*
X160010000Y-118450000D03*
%TD*%
%TO.C,R11*%
X143790000Y-100713241D03*
X144810000Y-100713241D03*
%TD*%
D22*
%TO.C,D10*%
X173700000Y-124837500D03*
X173700000Y-122962500D03*
%TD*%
D34*
%TO.C,C53*%
X179170000Y-123300000D03*
X180130000Y-123300000D03*
%TD*%
D30*
%TO.C,C20*%
X182180000Y-97595000D03*
X182180000Y-96635000D03*
%TD*%
D20*
%TO.C,D2*%
X142487500Y-112200000D03*
X140912500Y-112200000D03*
%TD*%
%TO.C,D5*%
X142575000Y-103584931D03*
X141000000Y-103584931D03*
%TD*%
D27*
%TO.C,R56*%
X149000000Y-86640000D03*
X149000000Y-87660000D03*
%TD*%
D35*
%TO.C,R6*%
X187650000Y-104600000D03*
X187650000Y-110525000D03*
%TD*%
D20*
%TO.C,D4*%
X142575000Y-106456621D03*
X141000000Y-106456621D03*
%TD*%
D16*
%TO.C,R57*%
X148050000Y-87660000D03*
X148050000Y-86640000D03*
%TD*%
D21*
%TO.C,C7*%
X173130000Y-86950000D03*
X172170000Y-86950000D03*
%TD*%
D19*
%TO.C,R10*%
X143790000Y-103584931D03*
X144810000Y-103584931D03*
%TD*%
D30*
%TO.C,C19*%
X182180000Y-93810000D03*
X182180000Y-92850000D03*
%TD*%
M02*
