%TF.GenerationSoftware,KiCad,Pcbnew,9.0.6*%
%TF.CreationDate,2025-12-28T22:53:18+01:00*%
%TF.ProjectId,gaia_obc,67616961-5f6f-4626-932e-6b696361645f,10*%
%TF.SameCoordinates,Original*%
%TF.FileFunction,Soldermask,Bot*%
%TF.FilePolarity,Negative*%
%FSLAX46Y46*%
G04 Gerber Fmt 4.6, Leading zero omitted, Abs format (unit mm)*
G04 Created by KiCad (PCBNEW 9.0.6) date 2025-12-28 22:53:18*
%MOMM*%
%LPD*%
G01*
G04 APERTURE LIST*
G04 Aperture macros list*
%AMRoundRect*
0 Rectangle with rounded corners*
0 $1 Rounding radius*
0 $2 $3 $4 $5 $6 $7 $8 $9 X,Y pos of 4 corners*
0 Add a 4 corners polygon primitive as box body*
4,1,4,$2,$3,$4,$5,$6,$7,$8,$9,$2,$3,0*
0 Add four circle primitives for the rounded corners*
1,1,$1+$1,$2,$3*
1,1,$1+$1,$4,$5*
1,1,$1+$1,$6,$7*
1,1,$1+$1,$8,$9*
0 Add four rect primitives between the rounded corners*
20,1,$1+$1,$2,$3,$4,$5,0*
20,1,$1+$1,$4,$5,$6,$7,0*
20,1,$1+$1,$6,$7,$8,$9,0*
20,1,$1+$1,$8,$9,$2,$3,0*%
%AMRotRect*
0 Rectangle, with rotation*
0 The origin of the aperture is its center*
0 $1 length*
0 $2 width*
0 $3 Rotation angle, in degrees counterclockwise*
0 Add horizontal line*
21,1,$1,$2,0,0,$3*%
G04 Aperture macros list end*
%ADD10C,0.010000*%
%ADD11R,2.200000X0.400000*%
%ADD12C,1.210000*%
%ADD13RoundRect,0.250000X-0.312500X-0.625000X0.312500X-0.625000X0.312500X0.625000X-0.312500X0.625000X0*%
%ADD14RoundRect,0.135000X0.185000X-0.135000X0.185000X0.135000X-0.185000X0.135000X-0.185000X-0.135000X0*%
%ADD15RoundRect,0.140000X-0.170000X0.140000X-0.170000X-0.140000X0.170000X-0.140000X0.170000X0.140000X0*%
%ADD16RoundRect,0.150000X0.512500X0.150000X-0.512500X0.150000X-0.512500X-0.150000X0.512500X-0.150000X0*%
%ADD17RoundRect,0.150000X0.150000X-0.512500X0.150000X0.512500X-0.150000X0.512500X-0.150000X-0.512500X0*%
%ADD18RoundRect,0.135000X-0.185000X0.135000X-0.185000X-0.135000X0.185000X-0.135000X0.185000X0.135000X0*%
%ADD19RoundRect,0.140000X-0.140000X-0.170000X0.140000X-0.170000X0.140000X0.170000X-0.140000X0.170000X0*%
%ADD20RotRect,1.500000X1.500000X135.000000*%
%ADD21RotRect,1.500000X1.000000X135.000000*%
%ADD22RoundRect,0.150000X-0.150000X0.512500X-0.150000X-0.512500X0.150000X-0.512500X0.150000X0.512500X0*%
%ADD23R,0.350000X0.500000*%
%ADD24RoundRect,0.250000X-0.250000X0.275000X-0.250000X-0.275000X0.250000X-0.275000X0.250000X0.275000X0*%
%ADD25RoundRect,0.250000X-0.275000X0.850000X-0.275000X-0.850000X0.275000X-0.850000X0.275000X0.850000X0*%
%ADD26RoundRect,0.135000X-0.135000X-0.185000X0.135000X-0.185000X0.135000X0.185000X-0.135000X0.185000X0*%
%ADD27RoundRect,0.147500X-0.172500X0.147500X-0.172500X-0.147500X0.172500X-0.147500X0.172500X0.147500X0*%
%ADD28RoundRect,0.200000X-0.275000X0.200000X-0.275000X-0.200000X0.275000X-0.200000X0.275000X0.200000X0*%
%ADD29RoundRect,0.150000X-0.512500X-0.150000X0.512500X-0.150000X0.512500X0.150000X-0.512500X0.150000X0*%
%ADD30RoundRect,0.135000X0.135000X0.185000X-0.135000X0.185000X-0.135000X-0.185000X0.135000X-0.185000X0*%
%ADD31RoundRect,0.140000X0.140000X0.170000X-0.140000X0.170000X-0.140000X-0.170000X0.140000X-0.170000X0*%
%ADD32RoundRect,0.087500X0.087500X-0.425000X0.087500X0.425000X-0.087500X0.425000X-0.087500X-0.425000X0*%
%ADD33RoundRect,0.087500X0.425000X-0.087500X0.425000X0.087500X-0.425000X0.087500X-0.425000X-0.087500X0*%
%ADD34R,2.100000X2.100000*%
%ADD35RoundRect,0.225000X0.225000X0.250000X-0.225000X0.250000X-0.225000X-0.250000X0.225000X-0.250000X0*%
%ADD36R,2.580000X1.000000*%
%ADD37R,0.600000X1.100000*%
%ADD38R,0.300000X1.100000*%
%ADD39R,2.000000X1.500000*%
%ADD40R,2.000000X1.200000*%
%ADD41RoundRect,0.250000X0.312500X0.625000X-0.312500X0.625000X-0.312500X-0.625000X0.312500X-0.625000X0*%
%ADD42RoundRect,0.200000X-0.200000X-0.275000X0.200000X-0.275000X0.200000X0.275000X-0.200000X0.275000X0*%
%ADD43R,0.700000X1.750000*%
%ADD44R,1.450000X1.000000*%
%ADD45R,1.000000X1.550000*%
%ADD46R,0.800000X1.500000*%
%ADD47R,1.300000X1.500000*%
%ADD48R,1.500000X1.500000*%
%ADD49R,0.800000X1.400000*%
%ADD50RoundRect,0.140000X0.170000X-0.140000X0.170000X0.140000X-0.170000X0.140000X-0.170000X-0.140000X0*%
%ADD51RoundRect,0.150000X0.150000X-0.587500X0.150000X0.587500X-0.150000X0.587500X-0.150000X-0.587500X0*%
%ADD52RoundRect,0.102000X-2.000000X2.000000X-2.000000X-2.000000X2.000000X-2.000000X2.000000X2.000000X0*%
%ADD53R,0.650000X0.350000*%
%ADD54R,1.550000X2.400000*%
%ADD55C,0.216000*%
%ADD56RoundRect,0.317500X-1.157500X-0.317500X1.157500X-0.317500X1.157500X0.317500X-1.157500X0.317500X0*%
%ADD57RoundRect,0.075000X0.075000X-0.437500X0.075000X0.437500X-0.075000X0.437500X-0.075000X-0.437500X0*%
%ADD58RoundRect,0.075000X0.437500X-0.075000X0.437500X0.075000X-0.437500X0.075000X-0.437500X-0.075000X0*%
%ADD59R,4.250000X4.250000*%
%ADD60RoundRect,0.250000X0.250000X0.475000X-0.250000X0.475000X-0.250000X-0.475000X0.250000X-0.475000X0*%
%ADD61RoundRect,0.093750X0.093750X-0.156250X0.093750X0.156250X-0.093750X0.156250X-0.093750X-0.156250X0*%
%ADD62RoundRect,0.075000X0.075000X-0.250000X0.075000X0.250000X-0.075000X0.250000X-0.075000X-0.250000X0*%
G04 APERTURE END LIST*
%TO.C,J6*%
G36*
X181385000Y-84205000D02*
G01*
X183265000Y-84205000D01*
X183265000Y-86295000D01*
X181385000Y-86295000D01*
X181385000Y-84205000D01*
G37*
D10*
%TO.C,U3*%
X152560000Y-87325000D02*
X151990000Y-87325000D01*
X151990000Y-86975000D01*
X152560000Y-86975000D01*
X152560000Y-87325000D01*
G36*
X152560000Y-87325000D02*
G01*
X151990000Y-87325000D01*
X151990000Y-86975000D01*
X152560000Y-86975000D01*
X152560000Y-87325000D01*
G37*
X152560000Y-87725000D02*
X151990000Y-87725000D01*
X151990000Y-87375000D01*
X152560000Y-87375000D01*
X152560000Y-87725000D01*
G36*
X152560000Y-87725000D02*
G01*
X151990000Y-87725000D01*
X151990000Y-87375000D01*
X152560000Y-87375000D01*
X152560000Y-87725000D01*
G37*
X152560000Y-88125000D02*
X151990000Y-88125000D01*
X151990000Y-87775000D01*
X152560000Y-87775000D01*
X152560000Y-88125000D01*
G36*
X152560000Y-88125000D02*
G01*
X151990000Y-88125000D01*
X151990000Y-87775000D01*
X152560000Y-87775000D01*
X152560000Y-88125000D01*
G37*
X152560000Y-88525000D02*
X151990000Y-88525000D01*
X151990000Y-88175000D01*
X152560000Y-88175000D01*
X152560000Y-88525000D01*
G36*
X152560000Y-88525000D02*
G01*
X151990000Y-88525000D01*
X151990000Y-88175000D01*
X152560000Y-88175000D01*
X152560000Y-88525000D01*
G37*
X152560000Y-88925000D02*
X151990000Y-88925000D01*
X151990000Y-88575000D01*
X152560000Y-88575000D01*
X152560000Y-88925000D01*
G36*
X152560000Y-88925000D02*
G01*
X151990000Y-88925000D01*
X151990000Y-88575000D01*
X152560000Y-88575000D01*
X152560000Y-88925000D01*
G37*
X152560000Y-89325000D02*
X151990000Y-89325000D01*
X151990000Y-88975000D01*
X152560000Y-88975000D01*
X152560000Y-89325000D01*
G36*
X152560000Y-89325000D02*
G01*
X151990000Y-89325000D01*
X151990000Y-88975000D01*
X152560000Y-88975000D01*
X152560000Y-89325000D01*
G37*
X152560000Y-89725000D02*
X151990000Y-89725000D01*
X151990000Y-89375000D01*
X152560000Y-89375000D01*
X152560000Y-89725000D01*
G36*
X152560000Y-89725000D02*
G01*
X151990000Y-89725000D01*
X151990000Y-89375000D01*
X152560000Y-89375000D01*
X152560000Y-89725000D01*
G37*
X152560000Y-90125000D02*
X151990000Y-90125000D01*
X151990000Y-89775000D01*
X152560000Y-89775000D01*
X152560000Y-90125000D01*
G36*
X152560000Y-90125000D02*
G01*
X151990000Y-90125000D01*
X151990000Y-89775000D01*
X152560000Y-89775000D01*
X152560000Y-90125000D01*
G37*
X152560000Y-90525000D02*
X151990000Y-90525000D01*
X151990000Y-90175000D01*
X152560000Y-90175000D01*
X152560000Y-90525000D01*
G36*
X152560000Y-90525000D02*
G01*
X151990000Y-90525000D01*
X151990000Y-90175000D01*
X152560000Y-90175000D01*
X152560000Y-90525000D01*
G37*
X152560000Y-90925000D02*
X151990000Y-90925000D01*
X151990000Y-90575000D01*
X152560000Y-90575000D01*
X152560000Y-90925000D01*
G36*
X152560000Y-90925000D02*
G01*
X151990000Y-90925000D01*
X151990000Y-90575000D01*
X152560000Y-90575000D01*
X152560000Y-90925000D01*
G37*
X152560000Y-91325000D02*
X151990000Y-91325000D01*
X151990000Y-90975000D01*
X152560000Y-90975000D01*
X152560000Y-91325000D01*
G36*
X152560000Y-91325000D02*
G01*
X151990000Y-91325000D01*
X151990000Y-90975000D01*
X152560000Y-90975000D01*
X152560000Y-91325000D01*
G37*
X152560000Y-91725000D02*
X151990000Y-91725000D01*
X151990000Y-91375000D01*
X152560000Y-91375000D01*
X152560000Y-91725000D01*
G36*
X152560000Y-91725000D02*
G01*
X151990000Y-91725000D01*
X151990000Y-91375000D01*
X152560000Y-91375000D01*
X152560000Y-91725000D01*
G37*
X152560000Y-92125000D02*
X151990000Y-92125000D01*
X151990000Y-91775000D01*
X152560000Y-91775000D01*
X152560000Y-92125000D01*
G36*
X152560000Y-92125000D02*
G01*
X151990000Y-92125000D01*
X151990000Y-91775000D01*
X152560000Y-91775000D01*
X152560000Y-92125000D01*
G37*
X152560000Y-92525000D02*
X151990000Y-92525000D01*
X151990000Y-92175000D01*
X152560000Y-92175000D01*
X152560000Y-92525000D01*
G36*
X152560000Y-92525000D02*
G01*
X151990000Y-92525000D01*
X151990000Y-92175000D01*
X152560000Y-92175000D01*
X152560000Y-92525000D01*
G37*
X153075000Y-86810000D02*
X152725000Y-86810000D01*
X152725000Y-86240000D01*
X153075000Y-86240000D01*
X153075000Y-86810000D01*
G36*
X153075000Y-86810000D02*
G01*
X152725000Y-86810000D01*
X152725000Y-86240000D01*
X153075000Y-86240000D01*
X153075000Y-86810000D01*
G37*
X153075000Y-93260000D02*
X152725000Y-93260000D01*
X152725000Y-92690000D01*
X153075000Y-92690000D01*
X153075000Y-93260000D01*
G36*
X153075000Y-93260000D02*
G01*
X152725000Y-93260000D01*
X152725000Y-92690000D01*
X153075000Y-92690000D01*
X153075000Y-93260000D01*
G37*
X153475000Y-86810000D02*
X153125000Y-86810000D01*
X153125000Y-86240000D01*
X153475000Y-86240000D01*
X153475000Y-86810000D01*
G36*
X153475000Y-86810000D02*
G01*
X153125000Y-86810000D01*
X153125000Y-86240000D01*
X153475000Y-86240000D01*
X153475000Y-86810000D01*
G37*
X153475000Y-93260000D02*
X153125000Y-93260000D01*
X153125000Y-92690000D01*
X153475000Y-92690000D01*
X153475000Y-93260000D01*
G36*
X153475000Y-93260000D02*
G01*
X153125000Y-93260000D01*
X153125000Y-92690000D01*
X153475000Y-92690000D01*
X153475000Y-93260000D01*
G37*
X153875000Y-86810000D02*
X153525000Y-86810000D01*
X153525000Y-86240000D01*
X153875000Y-86240000D01*
X153875000Y-86810000D01*
G36*
X153875000Y-86810000D02*
G01*
X153525000Y-86810000D01*
X153525000Y-86240000D01*
X153875000Y-86240000D01*
X153875000Y-86810000D01*
G37*
X153875000Y-93260000D02*
X153525000Y-93260000D01*
X153525000Y-92690000D01*
X153875000Y-92690000D01*
X153875000Y-93260000D01*
G36*
X153875000Y-93260000D02*
G01*
X153525000Y-93260000D01*
X153525000Y-92690000D01*
X153875000Y-92690000D01*
X153875000Y-93260000D01*
G37*
X154275000Y-86810000D02*
X153925000Y-86810000D01*
X153925000Y-86240000D01*
X154275000Y-86240000D01*
X154275000Y-86810000D01*
G36*
X154275000Y-86810000D02*
G01*
X153925000Y-86810000D01*
X153925000Y-86240000D01*
X154275000Y-86240000D01*
X154275000Y-86810000D01*
G37*
X154275000Y-93260000D02*
X153925000Y-93260000D01*
X153925000Y-92690000D01*
X154275000Y-92690000D01*
X154275000Y-93260000D01*
G36*
X154275000Y-93260000D02*
G01*
X153925000Y-93260000D01*
X153925000Y-92690000D01*
X154275000Y-92690000D01*
X154275000Y-93260000D01*
G37*
X154675000Y-86810000D02*
X154325000Y-86810000D01*
X154325000Y-86240000D01*
X154675000Y-86240000D01*
X154675000Y-86810000D01*
G36*
X154675000Y-86810000D02*
G01*
X154325000Y-86810000D01*
X154325000Y-86240000D01*
X154675000Y-86240000D01*
X154675000Y-86810000D01*
G37*
X154675000Y-93260000D02*
X154325000Y-93260000D01*
X154325000Y-92690000D01*
X154675000Y-92690000D01*
X154675000Y-93260000D01*
G36*
X154675000Y-93260000D02*
G01*
X154325000Y-93260000D01*
X154325000Y-92690000D01*
X154675000Y-92690000D01*
X154675000Y-93260000D01*
G37*
X155075000Y-86810000D02*
X154725000Y-86810000D01*
X154725000Y-86240000D01*
X155075000Y-86240000D01*
X155075000Y-86810000D01*
G36*
X155075000Y-86810000D02*
G01*
X154725000Y-86810000D01*
X154725000Y-86240000D01*
X155075000Y-86240000D01*
X155075000Y-86810000D01*
G37*
X155075000Y-93260000D02*
X154725000Y-93260000D01*
X154725000Y-92690000D01*
X155075000Y-92690000D01*
X155075000Y-93260000D01*
G36*
X155075000Y-93260000D02*
G01*
X154725000Y-93260000D01*
X154725000Y-92690000D01*
X155075000Y-92690000D01*
X155075000Y-93260000D01*
G37*
X155475000Y-86810000D02*
X155125000Y-86810000D01*
X155125000Y-86240000D01*
X155475000Y-86240000D01*
X155475000Y-86810000D01*
G36*
X155475000Y-86810000D02*
G01*
X155125000Y-86810000D01*
X155125000Y-86240000D01*
X155475000Y-86240000D01*
X155475000Y-86810000D01*
G37*
X155475000Y-93260000D02*
X155125000Y-93260000D01*
X155125000Y-92690000D01*
X155475000Y-92690000D01*
X155475000Y-93260000D01*
G36*
X155475000Y-93260000D02*
G01*
X155125000Y-93260000D01*
X155125000Y-92690000D01*
X155475000Y-92690000D01*
X155475000Y-93260000D01*
G37*
X155875000Y-86810000D02*
X155525000Y-86810000D01*
X155525000Y-86240000D01*
X155875000Y-86240000D01*
X155875000Y-86810000D01*
G36*
X155875000Y-86810000D02*
G01*
X155525000Y-86810000D01*
X155525000Y-86240000D01*
X155875000Y-86240000D01*
X155875000Y-86810000D01*
G37*
X155875000Y-93260000D02*
X155525000Y-93260000D01*
X155525000Y-92690000D01*
X155875000Y-92690000D01*
X155875000Y-93260000D01*
G36*
X155875000Y-93260000D02*
G01*
X155525000Y-93260000D01*
X155525000Y-92690000D01*
X155875000Y-92690000D01*
X155875000Y-93260000D01*
G37*
X156275000Y-86810000D02*
X155925000Y-86810000D01*
X155925000Y-86240000D01*
X156275000Y-86240000D01*
X156275000Y-86810000D01*
G36*
X156275000Y-86810000D02*
G01*
X155925000Y-86810000D01*
X155925000Y-86240000D01*
X156275000Y-86240000D01*
X156275000Y-86810000D01*
G37*
X156275000Y-93260000D02*
X155925000Y-93260000D01*
X155925000Y-92690000D01*
X156275000Y-92690000D01*
X156275000Y-93260000D01*
G36*
X156275000Y-93260000D02*
G01*
X155925000Y-93260000D01*
X155925000Y-92690000D01*
X156275000Y-92690000D01*
X156275000Y-93260000D01*
G37*
X156675000Y-86810000D02*
X156325000Y-86810000D01*
X156325000Y-86240000D01*
X156675000Y-86240000D01*
X156675000Y-86810000D01*
G36*
X156675000Y-86810000D02*
G01*
X156325000Y-86810000D01*
X156325000Y-86240000D01*
X156675000Y-86240000D01*
X156675000Y-86810000D01*
G37*
X156675000Y-93260000D02*
X156325000Y-93260000D01*
X156325000Y-92690000D01*
X156675000Y-92690000D01*
X156675000Y-93260000D01*
G36*
X156675000Y-93260000D02*
G01*
X156325000Y-93260000D01*
X156325000Y-92690000D01*
X156675000Y-92690000D01*
X156675000Y-93260000D01*
G37*
X157075000Y-86810000D02*
X156725000Y-86810000D01*
X156725000Y-86240000D01*
X157075000Y-86240000D01*
X157075000Y-86810000D01*
G36*
X157075000Y-86810000D02*
G01*
X156725000Y-86810000D01*
X156725000Y-86240000D01*
X157075000Y-86240000D01*
X157075000Y-86810000D01*
G37*
X157075000Y-93260000D02*
X156725000Y-93260000D01*
X156725000Y-92690000D01*
X157075000Y-92690000D01*
X157075000Y-93260000D01*
G36*
X157075000Y-93260000D02*
G01*
X156725000Y-93260000D01*
X156725000Y-92690000D01*
X157075000Y-92690000D01*
X157075000Y-93260000D01*
G37*
X157475000Y-86810000D02*
X157125000Y-86810000D01*
X157125000Y-86240000D01*
X157475000Y-86240000D01*
X157475000Y-86810000D01*
G36*
X157475000Y-86810000D02*
G01*
X157125000Y-86810000D01*
X157125000Y-86240000D01*
X157475000Y-86240000D01*
X157475000Y-86810000D01*
G37*
X157475000Y-93260000D02*
X157125000Y-93260000D01*
X157125000Y-92690000D01*
X157475000Y-92690000D01*
X157475000Y-93260000D01*
G36*
X157475000Y-93260000D02*
G01*
X157125000Y-93260000D01*
X157125000Y-92690000D01*
X157475000Y-92690000D01*
X157475000Y-93260000D01*
G37*
X157875000Y-86810000D02*
X157525000Y-86810000D01*
X157525000Y-86240000D01*
X157875000Y-86240000D01*
X157875000Y-86810000D01*
G36*
X157875000Y-86810000D02*
G01*
X157525000Y-86810000D01*
X157525000Y-86240000D01*
X157875000Y-86240000D01*
X157875000Y-86810000D01*
G37*
X157875000Y-93260000D02*
X157525000Y-93260000D01*
X157525000Y-92690000D01*
X157875000Y-92690000D01*
X157875000Y-93260000D01*
G36*
X157875000Y-93260000D02*
G01*
X157525000Y-93260000D01*
X157525000Y-92690000D01*
X157875000Y-92690000D01*
X157875000Y-93260000D01*
G37*
X158275000Y-86810000D02*
X157925000Y-86810000D01*
X157925000Y-86240000D01*
X158275000Y-86240000D01*
X158275000Y-86810000D01*
G36*
X158275000Y-86810000D02*
G01*
X157925000Y-86810000D01*
X157925000Y-86240000D01*
X158275000Y-86240000D01*
X158275000Y-86810000D01*
G37*
X158275000Y-93260000D02*
X157925000Y-93260000D01*
X157925000Y-92690000D01*
X158275000Y-92690000D01*
X158275000Y-93260000D01*
G36*
X158275000Y-93260000D02*
G01*
X157925000Y-93260000D01*
X157925000Y-92690000D01*
X158275000Y-92690000D01*
X158275000Y-93260000D01*
G37*
X159010000Y-87325000D02*
X158440000Y-87325000D01*
X158440000Y-86975000D01*
X159010000Y-86975000D01*
X159010000Y-87325000D01*
G36*
X159010000Y-87325000D02*
G01*
X158440000Y-87325000D01*
X158440000Y-86975000D01*
X159010000Y-86975000D01*
X159010000Y-87325000D01*
G37*
X159010000Y-87725000D02*
X158440000Y-87725000D01*
X158440000Y-87375000D01*
X159010000Y-87375000D01*
X159010000Y-87725000D01*
G36*
X159010000Y-87725000D02*
G01*
X158440000Y-87725000D01*
X158440000Y-87375000D01*
X159010000Y-87375000D01*
X159010000Y-87725000D01*
G37*
X159010000Y-88125000D02*
X158440000Y-88125000D01*
X158440000Y-87775000D01*
X159010000Y-87775000D01*
X159010000Y-88125000D01*
G36*
X159010000Y-88125000D02*
G01*
X158440000Y-88125000D01*
X158440000Y-87775000D01*
X159010000Y-87775000D01*
X159010000Y-88125000D01*
G37*
X159010000Y-88525000D02*
X158440000Y-88525000D01*
X158440000Y-88175000D01*
X159010000Y-88175000D01*
X159010000Y-88525000D01*
G36*
X159010000Y-88525000D02*
G01*
X158440000Y-88525000D01*
X158440000Y-88175000D01*
X159010000Y-88175000D01*
X159010000Y-88525000D01*
G37*
X159010000Y-88925000D02*
X158440000Y-88925000D01*
X158440000Y-88575000D01*
X159010000Y-88575000D01*
X159010000Y-88925000D01*
G36*
X159010000Y-88925000D02*
G01*
X158440000Y-88925000D01*
X158440000Y-88575000D01*
X159010000Y-88575000D01*
X159010000Y-88925000D01*
G37*
X159010000Y-89325000D02*
X158440000Y-89325000D01*
X158440000Y-88975000D01*
X159010000Y-88975000D01*
X159010000Y-89325000D01*
G36*
X159010000Y-89325000D02*
G01*
X158440000Y-89325000D01*
X158440000Y-88975000D01*
X159010000Y-88975000D01*
X159010000Y-89325000D01*
G37*
X159010000Y-89725000D02*
X158440000Y-89725000D01*
X158440000Y-89375000D01*
X159010000Y-89375000D01*
X159010000Y-89725000D01*
G36*
X159010000Y-89725000D02*
G01*
X158440000Y-89725000D01*
X158440000Y-89375000D01*
X159010000Y-89375000D01*
X159010000Y-89725000D01*
G37*
X159010000Y-90125000D02*
X158440000Y-90125000D01*
X158440000Y-89775000D01*
X159010000Y-89775000D01*
X159010000Y-90125000D01*
G36*
X159010000Y-90125000D02*
G01*
X158440000Y-90125000D01*
X158440000Y-89775000D01*
X159010000Y-89775000D01*
X159010000Y-90125000D01*
G37*
X159010000Y-90525000D02*
X158440000Y-90525000D01*
X158440000Y-90175000D01*
X159010000Y-90175000D01*
X159010000Y-90525000D01*
G36*
X159010000Y-90525000D02*
G01*
X158440000Y-90525000D01*
X158440000Y-90175000D01*
X159010000Y-90175000D01*
X159010000Y-90525000D01*
G37*
X159010000Y-90925000D02*
X158440000Y-90925000D01*
X158440000Y-90575000D01*
X159010000Y-90575000D01*
X159010000Y-90925000D01*
G36*
X159010000Y-90925000D02*
G01*
X158440000Y-90925000D01*
X158440000Y-90575000D01*
X159010000Y-90575000D01*
X159010000Y-90925000D01*
G37*
X159010000Y-91325000D02*
X158440000Y-91325000D01*
X158440000Y-90975000D01*
X159010000Y-90975000D01*
X159010000Y-91325000D01*
G36*
X159010000Y-91325000D02*
G01*
X158440000Y-91325000D01*
X158440000Y-90975000D01*
X159010000Y-90975000D01*
X159010000Y-91325000D01*
G37*
X159010000Y-91725000D02*
X158440000Y-91725000D01*
X158440000Y-91375000D01*
X159010000Y-91375000D01*
X159010000Y-91725000D01*
G36*
X159010000Y-91725000D02*
G01*
X158440000Y-91725000D01*
X158440000Y-91375000D01*
X159010000Y-91375000D01*
X159010000Y-91725000D01*
G37*
X159010000Y-92125000D02*
X158440000Y-92125000D01*
X158440000Y-91775000D01*
X159010000Y-91775000D01*
X159010000Y-92125000D01*
G36*
X159010000Y-92125000D02*
G01*
X158440000Y-92125000D01*
X158440000Y-91775000D01*
X159010000Y-91775000D01*
X159010000Y-92125000D01*
G37*
X159010000Y-92525000D02*
X158440000Y-92525000D01*
X158440000Y-92175000D01*
X159010000Y-92175000D01*
X159010000Y-92525000D01*
G36*
X159010000Y-92525000D02*
G01*
X158440000Y-92525000D01*
X158440000Y-92175000D01*
X159010000Y-92175000D01*
X159010000Y-92525000D01*
G37*
%TD*%
D11*
%TO.C,U18*%
X162912500Y-105079000D03*
X162912500Y-104379000D03*
X162912500Y-103679000D03*
X162912500Y-102979000D03*
X162912500Y-102279000D03*
X162912500Y-101579000D03*
X162912500Y-100879000D03*
X162912500Y-100179000D03*
X162912500Y-99479000D03*
X162912500Y-98779000D03*
X162912500Y-98079000D03*
X162912500Y-97379000D03*
X162912500Y-96679000D03*
%TD*%
D12*
%TO.C,U15*%
X159400000Y-84050000D03*
%TD*%
D13*
%TO.C,R34*%
X172337500Y-101850000D03*
X175262500Y-101850000D03*
%TD*%
D14*
%TO.C,R5*%
X170047500Y-116085000D03*
X170047500Y-115065000D03*
%TD*%
D15*
%TO.C,C5*%
X156560000Y-77140000D03*
X156560000Y-78100000D03*
%TD*%
D16*
%TO.C,U12*%
X182875000Y-119095001D03*
X182875000Y-120045001D03*
X182875000Y-120995001D03*
X180600000Y-120995001D03*
X180600000Y-120045001D03*
X180600000Y-119095001D03*
%TD*%
D17*
%TO.C,U13*%
X166600000Y-116650000D03*
X165650000Y-116650000D03*
X164700000Y-116650000D03*
X164700000Y-114375000D03*
X166600000Y-114375000D03*
%TD*%
D18*
%TO.C,R26*%
X164850000Y-95090000D03*
X164850000Y-96110000D03*
%TD*%
%TO.C,R4*%
X173850000Y-115530000D03*
X173850000Y-116550000D03*
%TD*%
D19*
%TO.C,C25*%
X155120000Y-107870000D03*
X156080000Y-107870000D03*
%TD*%
%TO.C,C38*%
X156970000Y-106900000D03*
X157930000Y-106900000D03*
%TD*%
D18*
%TO.C,R17*%
X153000000Y-94640000D03*
X153000000Y-95660000D03*
%TD*%
D15*
%TO.C,C39*%
X179100000Y-86400000D03*
X179100000Y-87360000D03*
%TD*%
D18*
%TO.C,R20*%
X152000000Y-94640000D03*
X152000000Y-95660000D03*
%TD*%
D19*
%TO.C,C47*%
X150160000Y-85160000D03*
X151120000Y-85160000D03*
%TD*%
D20*
%TO.C,AE1*%
X143583185Y-85416815D03*
D21*
X149416815Y-79583185D03*
%TD*%
D22*
%TO.C,U11*%
X168087500Y-111362500D03*
X169037500Y-111362500D03*
X169987500Y-111362500D03*
X169987500Y-113637500D03*
X168087500Y-113637500D03*
%TD*%
D23*
%TO.C,U17*%
X159507500Y-77227500D03*
X158857500Y-77227500D03*
X158207500Y-77227500D03*
X157557500Y-77227500D03*
X157557500Y-79277500D03*
X158207500Y-79277500D03*
X158857500Y-79277500D03*
X159507500Y-79277500D03*
%TD*%
D13*
%TO.C,R32*%
X172387500Y-95000000D03*
X175312500Y-95000000D03*
%TD*%
D18*
%TO.C,R24*%
X170710000Y-94410000D03*
X170710000Y-95430000D03*
%TD*%
D24*
%TO.C,J6*%
X182325000Y-83670000D03*
D25*
X183800000Y-85195000D03*
X180850000Y-85195000D03*
%TD*%
D26*
%TO.C,R29*%
X165840000Y-101150000D03*
X166860000Y-101150000D03*
%TD*%
D18*
%TO.C,R13*%
X154450000Y-83390000D03*
X154450000Y-84410000D03*
%TD*%
D27*
%TO.C,L1*%
X151060000Y-83235000D03*
X151060000Y-84205000D03*
%TD*%
D28*
%TO.C,R51*%
X188050000Y-113325000D03*
X188050000Y-114975000D03*
%TD*%
D29*
%TO.C,U10*%
X177062500Y-110000000D03*
X177062500Y-109050000D03*
X177062500Y-108100000D03*
X179337500Y-108100000D03*
X179337500Y-109050000D03*
X179337500Y-110000000D03*
%TD*%
D18*
%TO.C,R18*%
X157000000Y-94640000D03*
X157000000Y-95660000D03*
%TD*%
D29*
%TO.C,U9*%
X177062500Y-106600000D03*
X177062500Y-105650000D03*
X177062500Y-104700000D03*
X179337500Y-104700000D03*
X179337500Y-105650000D03*
X179337500Y-106600000D03*
%TD*%
D18*
%TO.C,R14*%
X154000000Y-94640000D03*
X154000000Y-95660000D03*
%TD*%
D15*
%TO.C,C32*%
X179125000Y-120090000D03*
X179125000Y-121050000D03*
%TD*%
D18*
%TO.C,R23*%
X158000000Y-94640000D03*
X158000000Y-95660000D03*
%TD*%
D30*
%TO.C,R59*%
X166910000Y-113000000D03*
X165890000Y-113000000D03*
%TD*%
D31*
%TO.C,C50*%
X176830000Y-115450000D03*
X175870000Y-115450000D03*
%TD*%
D32*
%TO.C,U4*%
X168950000Y-99187500D03*
X168300000Y-99187500D03*
X167650000Y-99187500D03*
X167000000Y-99187500D03*
D33*
X166112500Y-98300000D03*
X166112500Y-97650000D03*
X166112500Y-97000000D03*
X166112500Y-96350000D03*
D32*
X167000000Y-95462500D03*
X167650000Y-95462500D03*
X168300000Y-95462500D03*
X168950000Y-95462500D03*
D33*
X169837500Y-96350000D03*
X169837500Y-97000000D03*
X169837500Y-97650000D03*
X169837500Y-98300000D03*
D34*
X167975000Y-97325000D03*
%TD*%
D35*
%TO.C,C33*%
X173375000Y-111050000D03*
X171825000Y-111050000D03*
%TD*%
D31*
%TO.C,C46*%
X151100000Y-82300000D03*
X150140000Y-82300000D03*
%TD*%
D32*
%TO.C,U5*%
X169050000Y-106125000D03*
X168400000Y-106125000D03*
X167750000Y-106125000D03*
X167100000Y-106125000D03*
D33*
X166212500Y-105237500D03*
X166212500Y-104587500D03*
X166212500Y-103937500D03*
X166212500Y-103287500D03*
D32*
X167100000Y-102400000D03*
X167750000Y-102400000D03*
X168400000Y-102400000D03*
X169050000Y-102400000D03*
D33*
X169937500Y-103287500D03*
X169937500Y-103937500D03*
X169937500Y-104587500D03*
X169937500Y-105237500D03*
D34*
X168075000Y-104262500D03*
%TD*%
D31*
%TO.C,C12*%
X151280000Y-90150000D03*
X150320000Y-90150000D03*
%TD*%
D28*
%TO.C,R60*%
X153900000Y-106125000D03*
X153900000Y-107775000D03*
%TD*%
D31*
%TO.C,C36*%
X157930000Y-107900000D03*
X156970000Y-107900000D03*
%TD*%
D19*
%TO.C,C43*%
X158852500Y-76252500D03*
X159812500Y-76252500D03*
%TD*%
D26*
%TO.C,R28*%
X165740000Y-94200000D03*
X166760000Y-94200000D03*
%TD*%
D31*
%TO.C,C26*%
X156080000Y-106900000D03*
X155120000Y-106900000D03*
%TD*%
D36*
%TO.C,J2*%
X146890000Y-91696938D03*
X142720000Y-91696938D03*
X146890000Y-93696938D03*
X142720000Y-93696938D03*
X146890000Y-95696938D03*
X142720000Y-95696938D03*
X146890000Y-97696938D03*
X142720000Y-97696938D03*
X146890000Y-99696938D03*
X142720000Y-99696938D03*
X146890000Y-101696938D03*
X142720000Y-101696938D03*
X146890000Y-103696938D03*
X142720000Y-103696938D03*
X146890000Y-105696938D03*
X142720000Y-105696938D03*
X146890000Y-107696938D03*
X142720000Y-107696938D03*
X146890000Y-109696938D03*
X142720000Y-109696938D03*
%TD*%
D31*
%TO.C,C2*%
X145830000Y-118950000D03*
X144870000Y-118950000D03*
%TD*%
D37*
%TO.C,J1*%
X175400000Y-117895500D03*
X174600000Y-117895500D03*
D38*
X173450000Y-117895500D03*
X172450000Y-117895500D03*
X171950000Y-117895500D03*
X170950000Y-117895500D03*
D37*
X169000000Y-117895500D03*
X169800000Y-117895500D03*
D38*
X170450000Y-117895500D03*
X171450000Y-117895500D03*
X172950000Y-117895500D03*
X173950000Y-117895500D03*
D39*
X177525000Y-122645500D03*
D40*
X177525000Y-118445500D03*
D39*
X166875000Y-122645500D03*
D40*
X166875000Y-118445500D03*
%TD*%
D35*
%TO.C,C35*%
X184700000Y-111950000D03*
X183150000Y-111950000D03*
%TD*%
D41*
%TO.C,R37*%
X170412500Y-108300000D03*
X167487500Y-108300000D03*
%TD*%
D31*
%TO.C,C44*%
X158262500Y-80302500D03*
X157302500Y-80302500D03*
%TD*%
D19*
%TO.C,C17*%
X174540000Y-106900000D03*
X175500000Y-106900000D03*
%TD*%
D15*
%TO.C,C45*%
X179040000Y-92290000D03*
X179040000Y-93250000D03*
%TD*%
%TO.C,C11*%
X151200000Y-87420000D03*
X151200000Y-88380000D03*
%TD*%
D22*
%TO.C,Q2*%
X184650000Y-113662500D03*
X185600000Y-113662500D03*
X186550000Y-113662500D03*
X186550000Y-115937500D03*
X185600000Y-115937500D03*
X184650000Y-115937500D03*
%TD*%
D13*
%TO.C,R36*%
X172337500Y-108700000D03*
X175262500Y-108700000D03*
%TD*%
D42*
%TO.C,R48*%
X177225000Y-116850000D03*
X178875000Y-116850000D03*
%TD*%
D43*
%TO.C,J5*%
X153775000Y-120550000D03*
X154875000Y-120550000D03*
X155975000Y-120550000D03*
X157075000Y-120550000D03*
X158175000Y-120550000D03*
X159275000Y-120550000D03*
X160375000Y-120550000D03*
X161475000Y-120550000D03*
D44*
X162600000Y-111325000D03*
D45*
X151375000Y-109750000D03*
D46*
X162925000Y-112825000D03*
D47*
X162675000Y-120425000D03*
D48*
X151325000Y-120425000D03*
D49*
X150975000Y-112175000D03*
%TD*%
D19*
%TO.C,C16*%
X174570000Y-103450000D03*
X175530000Y-103450000D03*
%TD*%
%TO.C,C48*%
X162030000Y-107770000D03*
X162990000Y-107770000D03*
%TD*%
%TO.C,C40*%
X148570000Y-120100000D03*
X149530000Y-120100000D03*
%TD*%
D50*
%TO.C,C3*%
X169100000Y-116030000D03*
X169100000Y-115070000D03*
%TD*%
%TO.C,C1*%
X142250000Y-115480000D03*
X142250000Y-114520000D03*
%TD*%
D51*
%TO.C,Q3*%
X166562500Y-111337500D03*
X164662500Y-111337500D03*
X165612500Y-109462500D03*
%TD*%
D52*
%TO.C,U3*%
X155500000Y-89750000D03*
%TD*%
D19*
%TO.C,C9*%
X155370000Y-83350000D03*
X156330000Y-83350000D03*
%TD*%
D13*
%TO.C,R35*%
X172337500Y-105250000D03*
X175262500Y-105250000D03*
%TD*%
D19*
%TO.C,C6*%
X155370000Y-84350000D03*
X156330000Y-84350000D03*
%TD*%
%TO.C,C14*%
X174570000Y-96600000D03*
X175530000Y-96600000D03*
%TD*%
D53*
%TO.C,U14*%
X181850000Y-112925000D03*
X181850000Y-113575000D03*
X181850000Y-114225000D03*
X181850000Y-114875000D03*
X178750000Y-114875000D03*
X178750000Y-114225000D03*
X178750000Y-113575000D03*
X178750000Y-112925000D03*
D54*
X180300000Y-113900000D03*
%TD*%
D18*
%TO.C,R53*%
X182950000Y-114080000D03*
X182950000Y-115100000D03*
%TD*%
D29*
%TO.C,U6*%
X177087500Y-96337500D03*
X177087500Y-95387500D03*
X177087500Y-94437500D03*
X179362500Y-94437500D03*
X179362500Y-95387500D03*
X179362500Y-96337500D03*
%TD*%
D55*
%TO.C,IC1*%
X176850000Y-113700000D03*
X176850000Y-113300000D03*
X176850000Y-112900000D03*
X176850000Y-112500000D03*
X176850000Y-112100000D03*
X176450000Y-113700000D03*
X176450000Y-113300000D03*
X176450000Y-112900000D03*
X176450000Y-112500000D03*
X176450000Y-112100000D03*
X176050000Y-113700000D03*
X176050000Y-113300000D03*
X176050000Y-112900000D03*
X176050000Y-112500000D03*
X176050000Y-112100000D03*
X175650000Y-113700000D03*
X175650000Y-113300000D03*
X175650000Y-112900000D03*
X175650000Y-112500000D03*
X175650000Y-112100000D03*
%TD*%
D18*
%TO.C,R27*%
X164950000Y-102040000D03*
X164950000Y-103060000D03*
%TD*%
D30*
%TO.C,R31*%
X166220000Y-107000000D03*
X165200000Y-107000000D03*
%TD*%
D19*
%TO.C,C18*%
X174570000Y-110350000D03*
X175530000Y-110350000D03*
%TD*%
D18*
%TO.C,R16*%
X156000000Y-94640000D03*
X156000000Y-95660000D03*
%TD*%
D19*
%TO.C,C24*%
X168020000Y-109950000D03*
X168980000Y-109950000D03*
%TD*%
D56*
%TO.C,U16*%
X161750000Y-92375000D03*
X161750000Y-90375000D03*
X161750000Y-88375000D03*
X161750000Y-86375000D03*
X161750000Y-84375000D03*
X161750000Y-82375000D03*
X161750000Y-80375000D03*
X161750000Y-78375000D03*
X176800000Y-78375000D03*
X176800000Y-80375000D03*
X176800000Y-82375000D03*
X176800000Y-84375000D03*
X176800000Y-86375000D03*
X176800000Y-88375000D03*
X176800000Y-90375000D03*
X176800000Y-92375000D03*
%TD*%
D13*
%TO.C,R33*%
X172375000Y-98450000D03*
X175300000Y-98450000D03*
%TD*%
D57*
%TO.C,U1*%
X148300000Y-117650000D03*
X147650000Y-117650000D03*
X147000000Y-117650000D03*
X146350000Y-117650000D03*
X145700000Y-117650000D03*
X145050000Y-117650000D03*
X144400000Y-117650000D03*
D58*
X143512500Y-116762500D03*
X143512500Y-116112500D03*
X143512500Y-115462500D03*
X143512500Y-114812500D03*
X143512500Y-114162500D03*
X143512500Y-113512500D03*
X143512500Y-112862500D03*
D57*
X144400000Y-111975000D03*
X145050000Y-111975000D03*
X145700000Y-111975000D03*
X146350000Y-111975000D03*
X147000000Y-111975000D03*
X147650000Y-111975000D03*
X148300000Y-111975000D03*
D58*
X149187500Y-112862500D03*
X149187500Y-113512500D03*
X149187500Y-114162500D03*
X149187500Y-114812500D03*
X149187500Y-115462500D03*
X149187500Y-116112500D03*
X149187500Y-116762500D03*
D59*
X146350000Y-114812500D03*
%TD*%
D26*
%TO.C,R2*%
X141290000Y-111700000D03*
X142310000Y-111700000D03*
%TD*%
%TO.C,R3*%
X141290000Y-113600000D03*
X142310000Y-113600000D03*
%TD*%
D31*
%TO.C,C13*%
X151280000Y-91150000D03*
X150320000Y-91150000D03*
%TD*%
D15*
%TO.C,C34*%
X164600000Y-118020000D03*
X164600000Y-118980000D03*
%TD*%
D29*
%TO.C,U8*%
X177062500Y-103187500D03*
X177062500Y-102237500D03*
X177062500Y-101287500D03*
X179337500Y-101287500D03*
X179337500Y-102237500D03*
X179337500Y-103187500D03*
%TD*%
D60*
%TO.C,C51*%
X173450000Y-112850000D03*
X171550000Y-112850000D03*
%TD*%
D29*
%TO.C,U7*%
X177087500Y-99787500D03*
X177087500Y-98837500D03*
X177087500Y-97887500D03*
X179362500Y-97887500D03*
X179362500Y-98837500D03*
X179362500Y-99787500D03*
%TD*%
D19*
%TO.C,C42*%
X148570000Y-121050000D03*
X149530000Y-121050000D03*
%TD*%
D18*
%TO.C,R15*%
X155000000Y-94640000D03*
X155000000Y-95660000D03*
%TD*%
D61*
%TO.C,U2*%
X172260000Y-116425000D03*
D62*
X171722500Y-116500000D03*
D61*
X171185000Y-116425000D03*
X171185000Y-114725000D03*
D62*
X171722500Y-114650000D03*
D61*
X172260000Y-114725000D03*
%TD*%
D15*
%TO.C,C10*%
X150200000Y-87220000D03*
X150200000Y-88180000D03*
%TD*%
D18*
%TO.C,R25*%
X170800000Y-101400000D03*
X170800000Y-102420000D03*
%TD*%
D30*
%TO.C,R30*%
X166120000Y-100050000D03*
X165100000Y-100050000D03*
%TD*%
D19*
%TO.C,C15*%
X174590000Y-100050000D03*
X175550000Y-100050000D03*
%TD*%
D26*
%TO.C,R1*%
X141290000Y-112650000D03*
X142310000Y-112650000D03*
%TD*%
D36*
%TO.C,J3*%
X187280000Y-91696938D03*
X183110000Y-91696938D03*
X187280000Y-93696938D03*
X183110000Y-93696938D03*
X187280000Y-95696938D03*
X183110000Y-95696938D03*
X187280000Y-97696938D03*
X183110000Y-97696938D03*
X187280000Y-99696938D03*
X183110000Y-99696938D03*
X187280000Y-101696938D03*
X183110000Y-101696938D03*
X187280000Y-103696938D03*
X183110000Y-103696938D03*
X187280000Y-105696938D03*
X183110000Y-105696938D03*
X187280000Y-107696938D03*
X183110000Y-107696938D03*
X187280000Y-109696938D03*
X183110000Y-109696938D03*
%TD*%
D19*
%TO.C,C8*%
X155370000Y-82350000D03*
X156330000Y-82350000D03*
%TD*%
M02*
