%TF.GenerationSoftware,KiCad,Pcbnew,9.0.3*%
%TF.CreationDate,2025-08-25T21:57:46+02:00*%
%TF.ProjectId,gaia_obc,67616961-5f6f-4626-932e-6b696361645f,10*%
%TF.SameCoordinates,Original*%
%TF.FileFunction,Copper,L4,Inr*%
%TF.FilePolarity,Positive*%
%FSLAX46Y46*%
G04 Gerber Fmt 4.6, Leading zero omitted, Abs format (unit mm)*
G04 Created by KiCad (PCBNEW 9.0.3) date 2025-08-25 21:57:46*
%MOMM*%
%LPD*%
G01*
G04 APERTURE LIST*
%TA.AperFunction,ComponentPad*%
%ADD10C,2.000000*%
%TD*%
%TA.AperFunction,ComponentPad*%
%ADD11C,2.200000*%
%TD*%
%TA.AperFunction,ViaPad*%
%ADD12C,0.520000*%
%TD*%
%TA.AperFunction,ViaPad*%
%ADD13C,0.600000*%
%TD*%
%TA.AperFunction,ViaPad*%
%ADD14C,0.530000*%
%TD*%
%TA.AperFunction,ViaPad*%
%ADD15C,0.800000*%
%TD*%
%TA.AperFunction,ViaPad*%
%ADD16C,0.550000*%
%TD*%
%TA.AperFunction,ViaPad*%
%ADD17C,0.700000*%
%TD*%
%TA.AperFunction,ViaPad*%
%ADD18C,0.570000*%
%TD*%
%TA.AperFunction,ViaPad*%
%ADD19C,0.900000*%
%TD*%
%TA.AperFunction,ViaPad*%
%ADD20C,0.500000*%
%TD*%
%TA.AperFunction,Conductor*%
%ADD21C,0.400000*%
%TD*%
%TA.AperFunction,Conductor*%
%ADD22C,0.250000*%
%TD*%
%TA.AperFunction,Conductor*%
%ADD23C,0.300000*%
%TD*%
%TA.AperFunction,Conductor*%
%ADD24C,0.500000*%
%TD*%
G04 APERTURE END LIST*
D10*
%TO.N,Net-(J6-In)*%
%TO.C,J6*%
X182340000Y-86690000D03*
D11*
%TO.N,GND*%
X179790000Y-84140000D03*
X179790000Y-89240000D03*
X184890000Y-84140000D03*
X184890000Y-89240000D03*
%TD*%
D12*
%TO.N,*%
X158750000Y-93050000D03*
D13*
%TO.N,VBUS*%
X145007584Y-109111001D03*
X170610000Y-119350000D03*
%TO.N,GND*%
X173400000Y-110650000D03*
D14*
X164490000Y-123950000D03*
D13*
X168750000Y-104900000D03*
X167450000Y-104250000D03*
X184200001Y-113662500D03*
X167450000Y-103600000D03*
X169037500Y-111362500D03*
X178375000Y-114375000D03*
X183390000Y-80300000D03*
D15*
X167900000Y-79250000D03*
X146890000Y-97696938D03*
D13*
X143700000Y-82560000D03*
X154100000Y-91250000D03*
X183390000Y-81053333D03*
D16*
X165600000Y-78520000D03*
D13*
X154100000Y-90050000D03*
D16*
X169980000Y-91250000D03*
D13*
X178375000Y-113575000D03*
D16*
X180700000Y-116305000D03*
X174540554Y-106900000D03*
D13*
X185600000Y-105700000D03*
X181000000Y-122930000D03*
X145910000Y-106680000D03*
X175400000Y-117895500D03*
X168000000Y-98000000D03*
D16*
X163070000Y-124520000D03*
D15*
X146890000Y-99696938D03*
D13*
X154100000Y-89450000D03*
D16*
X173910000Y-94960000D03*
D13*
X167350000Y-98000000D03*
X159275000Y-120550000D03*
D16*
X172320000Y-122960000D03*
D13*
X168750000Y-103600000D03*
D16*
X159280000Y-124260000D03*
X161200000Y-112720000D03*
D13*
X183080000Y-100670000D03*
D16*
X142250000Y-115480000D03*
D13*
X154100000Y-90650000D03*
X153120000Y-80250000D03*
X168000000Y-96700000D03*
X155500000Y-90050000D03*
D16*
X175340000Y-121060000D03*
D13*
X150018252Y-85900001D03*
X180800000Y-80470000D03*
X170812500Y-78647500D03*
D16*
X171920000Y-91690000D03*
D13*
X154200000Y-78640000D03*
D16*
X184010000Y-112060000D03*
X179124412Y-121048501D03*
X174570235Y-96600055D03*
D13*
X156900000Y-88850000D03*
X149400000Y-82300000D03*
D15*
X166950000Y-89750000D03*
D16*
X174530000Y-83670000D03*
D17*
X162950000Y-112850000D03*
D16*
X155450000Y-110590000D03*
D13*
X177200047Y-118441601D03*
D16*
X179460000Y-111930000D03*
D13*
X168650000Y-97350000D03*
D16*
X153790000Y-113020000D03*
X172170000Y-86950000D03*
X156560000Y-77140000D03*
D13*
X147390000Y-78810000D03*
D15*
X144580000Y-106860000D03*
D13*
X181078000Y-78030000D03*
D16*
X171530000Y-83820000D03*
D13*
X168650000Y-98000000D03*
D18*
X174550000Y-114150000D03*
D13*
X154600000Y-110360000D03*
X163730000Y-118370000D03*
D15*
X173175000Y-112750000D03*
D16*
X152240000Y-99590000D03*
D13*
X144240000Y-87410000D03*
X147810000Y-106710000D03*
X178960000Y-77430000D03*
D16*
X168980271Y-109957334D03*
D13*
X157124000Y-83350000D03*
D16*
X164530000Y-80680000D03*
D13*
X181350000Y-81110000D03*
X183900000Y-102800000D03*
X177096252Y-105650000D03*
X167250000Y-118450000D03*
X156200000Y-90050000D03*
X177900000Y-122650000D03*
X168650000Y-96700000D03*
D16*
X156970000Y-106900000D03*
D13*
X183390000Y-81806667D03*
X161200000Y-105050000D03*
D16*
X158220000Y-112550000D03*
D15*
X167900000Y-89750000D03*
D13*
X177200047Y-122641601D03*
X154800000Y-88850000D03*
X184800000Y-105700000D03*
X154800000Y-88250000D03*
X145060000Y-94470000D03*
D16*
X175800000Y-81315000D03*
D13*
X154800000Y-91250000D03*
D16*
X159812500Y-76252500D03*
X148570000Y-121050000D03*
D13*
X156900000Y-91250000D03*
D15*
X166900000Y-79250000D03*
D13*
X179700000Y-79340000D03*
X182812000Y-79680000D03*
X181350000Y-81820000D03*
X156900000Y-90050000D03*
D16*
X183790000Y-106720000D03*
D13*
X189180000Y-108590000D03*
D16*
X173790000Y-101790000D03*
X157302500Y-80302500D03*
D14*
X170047500Y-115065000D03*
D16*
X169610000Y-82030000D03*
D13*
X161280351Y-101584857D03*
X156200000Y-91250000D03*
X156900000Y-88250000D03*
X168100000Y-104900000D03*
X184150000Y-98650000D03*
X146290000Y-89250000D03*
D16*
X144870000Y-118950000D03*
X173810000Y-98290000D03*
D13*
X184130000Y-96710000D03*
X156900000Y-89450000D03*
X147160000Y-84830000D03*
X177096252Y-98836509D03*
X177096252Y-95387473D03*
X178375000Y-115125000D03*
D15*
X161750000Y-92375000D03*
D16*
X174589805Y-100044436D03*
D13*
X177625000Y-114350000D03*
D16*
X169920000Y-79920000D03*
D13*
X168000000Y-97350000D03*
X155500000Y-91250000D03*
X181350000Y-82560000D03*
D16*
X151320000Y-123620000D03*
D13*
X143410000Y-90500000D03*
D12*
X173852794Y-115530176D03*
D13*
X156200000Y-88850000D03*
X165654017Y-116293309D03*
X156900000Y-90650000D03*
X177096252Y-109050000D03*
X154100000Y-88850000D03*
X156200000Y-88250000D03*
D16*
X174570825Y-103451686D03*
D12*
X151200000Y-88380000D03*
D16*
X174570739Y-110350000D03*
D13*
X180250000Y-79880000D03*
X154800000Y-90650000D03*
X177096252Y-102237500D03*
X166550047Y-118450000D03*
X164661500Y-110976000D03*
X168100000Y-103600000D03*
X189180000Y-93150000D03*
X141710000Y-87100000D03*
X185350000Y-110496938D03*
X167450000Y-104900000D03*
X184800000Y-103700000D03*
D16*
X182660000Y-114200000D03*
D13*
X177900000Y-118450000D03*
X154100000Y-88250000D03*
X171722500Y-115872500D03*
X156200000Y-90650000D03*
D16*
X171020000Y-81430000D03*
D15*
X162446367Y-78377995D03*
D13*
X182234000Y-79120000D03*
D16*
X172470000Y-88770000D03*
D13*
X184080000Y-94730000D03*
X177650000Y-113575000D03*
D16*
X148570000Y-120100000D03*
D13*
X154800000Y-90050000D03*
X178960000Y-79340000D03*
X180500000Y-77560000D03*
D16*
X154770000Y-123490000D03*
D13*
X168750000Y-104250000D03*
X185600000Y-103700000D03*
X179700000Y-77440000D03*
X164600000Y-83060000D03*
X180600000Y-119095002D03*
X155500000Y-88850000D03*
X181656000Y-78530000D03*
X155500000Y-89450000D03*
X189200000Y-101010000D03*
X183390000Y-82560000D03*
D16*
X175390000Y-116780000D03*
X167760000Y-93160000D03*
D13*
X155500000Y-88250000D03*
X155500000Y-90650000D03*
X167350000Y-97350000D03*
X169000000Y-117895500D03*
X167350000Y-96700000D03*
D16*
X169460000Y-89020000D03*
D17*
X151325000Y-120425000D03*
D16*
X173770000Y-105320000D03*
X169960000Y-121760000D03*
D15*
X161096367Y-78377995D03*
D16*
X183130000Y-110850000D03*
D13*
X168100000Y-104250000D03*
X156200000Y-89450000D03*
X154800000Y-89450000D03*
X177650000Y-115075000D03*
X158270000Y-118440000D03*
D14*
%TO.N,/SD_CS*%
X158070000Y-90370000D03*
D13*
X152863302Y-111438168D03*
X154880000Y-120610000D03*
X163375000Y-89360000D03*
D14*
%TO.N,+3.3V*%
X165740000Y-94200000D03*
D16*
X173130000Y-86950000D03*
D15*
X151850000Y-77750000D03*
D13*
X168120000Y-120540000D03*
D16*
X145830000Y-118950000D03*
D13*
X161800000Y-109980000D03*
D15*
X150950000Y-77750000D03*
D13*
X167449000Y-100250000D03*
X169037500Y-113637500D03*
X163120000Y-115840000D03*
X166010000Y-106050000D03*
D16*
X158852500Y-76252500D03*
D14*
X165839292Y-101151344D03*
X164848609Y-95089274D03*
D13*
X163000000Y-106910000D03*
X157090000Y-121860000D03*
X166875000Y-109525000D03*
D12*
X153000000Y-95660000D03*
D14*
X170800000Y-101400000D03*
D16*
X149530000Y-120100000D03*
D12*
X154450000Y-83390000D03*
D13*
X155410000Y-104530000D03*
D14*
X164955058Y-102036762D03*
D16*
X141290000Y-113600000D03*
X179109545Y-86401345D03*
D13*
X150870000Y-95360000D03*
X149300000Y-87300000D03*
D16*
X158262500Y-80302500D03*
D14*
X170710000Y-94410000D03*
D16*
X149530000Y-121050000D03*
D14*
X158070000Y-89630000D03*
D13*
X179743403Y-91595938D03*
D16*
X142250000Y-114520000D03*
%TO.N,+BATT*%
X175390000Y-115820000D03*
D13*
X177250000Y-116850000D03*
D19*
X187280000Y-107696938D03*
D16*
X175350000Y-112870000D03*
D15*
%TO.N,VCC*%
X172400000Y-95000000D03*
X172400000Y-98500000D03*
D13*
X168400000Y-100650000D03*
X168550000Y-94200000D03*
D15*
X172400000Y-101850000D03*
X172400000Y-108700000D03*
X170650000Y-108350000D03*
D13*
X172350000Y-96624000D03*
D15*
X172400000Y-105200000D03*
D13*
%TO.N,/USB_D+*%
X170994824Y-115690861D03*
D14*
X158077877Y-91776196D03*
D13*
%TO.N,/USB_D-*%
X172940000Y-115920000D03*
D14*
X158075284Y-91063678D03*
D13*
%TO.N,/LORA_RESET*%
X154820000Y-92289997D03*
D15*
X161750000Y-82400000D03*
D13*
%TO.N,/VOUT_A1*%
X179362500Y-96337500D03*
D15*
X183110000Y-91696938D03*
D13*
%TO.N,Net-(U8-CT)*%
X179337500Y-101287500D03*
%TO.N,Net-(U8-QOD)*%
X179337500Y-102237500D03*
%TO.N,I2C_1_SDA*%
X153645025Y-99045025D03*
X154634975Y-100034975D03*
X165162500Y-103937500D03*
X164475000Y-96990000D03*
X154060000Y-109350000D03*
D12*
X154000000Y-94640000D03*
D13*
X142310000Y-116250000D03*
X172620000Y-111350000D03*
X144300000Y-92450000D03*
X153650000Y-97440000D03*
X158430000Y-103830000D03*
X157398903Y-81301097D03*
%TO.N,Net-(IC1-QSTRT)*%
X171700000Y-110650000D03*
X171150000Y-113000000D03*
%TO.N,/VOUT_A2*%
X179362500Y-99787500D03*
D15*
X184000000Y-93650000D03*
D13*
%TO.N,/VOUT_A3*%
X179337500Y-103187500D03*
%TO.N,I2C_1_SCL*%
X145050000Y-90450000D03*
X158814791Y-81304615D03*
X156800000Y-100500000D03*
X165181447Y-104687263D03*
X143630000Y-117480000D03*
X171080000Y-112110000D03*
X157550000Y-76500000D03*
X154543413Y-97533413D03*
X157940000Y-104680000D03*
X164475000Y-97740003D03*
D12*
X155000000Y-94640000D03*
D13*
%TO.N,Net-(IC1-~{ALRT})*%
X175525000Y-111650000D03*
X171200000Y-113800000D03*
%TO.N,/VOUT_B1*%
X179337500Y-106600000D03*
%TO.N,/VOUT_B2*%
X179337500Y-110000000D03*
%TO.N,Net-(D4-A)*%
X147015735Y-119885735D03*
X140960000Y-101710000D03*
X140970000Y-114790000D03*
%TO.N,Net-(D5-A)*%
X149998000Y-114154050D03*
%TO.N,Net-(D6-A)*%
X148170000Y-104740000D03*
X140979998Y-97568632D03*
%TO.N,Net-(D7-A)*%
X140870000Y-95480000D03*
%TO.N,Net-(D8-A)*%
X147050000Y-89690000D03*
%TO.N,Net-(D9-A)*%
X140880000Y-91330000D03*
%TO.N,Net-(U3-GPIO18)*%
X159555471Y-89325000D03*
%TO.N,/GPS_RX*%
X155250000Y-85200000D03*
D14*
X148050000Y-88140000D03*
D16*
%TO.N,/GPS_TX*%
X153100000Y-87290000D03*
D14*
X149000000Y-88140000D03*
D13*
%TO.N,/SCREEN_RESET*%
X155834866Y-87299998D03*
X158950000Y-94655204D03*
%TO.N,/SCREEN_MOSI*%
X158988825Y-82970666D03*
X157125000Y-84187500D03*
%TO.N,/SCREEN_DC*%
X160299997Y-98632195D03*
X156496610Y-85755593D03*
X163950000Y-90600000D03*
X158675000Y-84949110D03*
%TO.N,/SCREEN_CLK*%
X161050000Y-98632195D03*
X156900000Y-87150000D03*
X162124508Y-95128000D03*
X160240065Y-81375001D03*
%TO.N,/SCREEN_CS*%
X160900000Y-100850000D03*
X163150000Y-95128000D03*
X163865409Y-78515409D03*
X155746921Y-85777256D03*
%TO.N,Net-(D11-A)*%
X141681666Y-110986724D03*
X175677138Y-115101741D03*
%TO.N,/EXP2_USART_RXD*%
X153710000Y-92220000D03*
X151210000Y-92201000D03*
X146970000Y-103670000D03*
X141860000Y-90036020D03*
%TO.N,/EXP1_SPI_CS*%
X147910000Y-94646940D03*
X148212414Y-92748106D03*
D12*
%TO.N,I2C_2_SCL*%
X148596938Y-93696938D03*
D13*
X159600000Y-87550000D03*
X161940000Y-93460000D03*
D12*
X152000000Y-94640000D03*
D13*
%TO.N,I2C_2_SDA*%
X159600000Y-86700000D03*
X146890000Y-91696938D03*
D12*
X153000000Y-94640000D03*
D13*
%TO.N,SPI_0_SCLK*%
X143571531Y-100548469D03*
X157150000Y-118600000D03*
D12*
X158000000Y-94640000D03*
D16*
X158101594Y-88672353D03*
D15*
X161750000Y-86350000D03*
D13*
%TO.N,SPI_0_MOSI*%
X145650000Y-98746936D03*
X149100000Y-105800000D03*
D12*
X157000000Y-94640000D03*
D13*
X158999475Y-93714729D03*
X154250000Y-118300000D03*
X159810491Y-91186999D03*
X149700000Y-103700000D03*
%TO.N,SPI_0_MISO*%
X144550000Y-96500000D03*
X160375000Y-120550000D03*
D15*
X161750000Y-90450000D03*
D12*
X156000000Y-94640000D03*
D13*
X158132267Y-87948000D03*
%TO.N,/EN_B1*%
X177062500Y-104700000D03*
X148119195Y-110862063D03*
%TO.N,/EN_A1*%
X177087500Y-94437500D03*
X145650000Y-110900000D03*
%TO.N,/EN_A2*%
X177087500Y-97887500D03*
X146391562Y-110787797D03*
%TO.N,/EN_A3*%
X177062500Y-101287500D03*
X147180302Y-110880302D03*
%TO.N,/EN_B2*%
X148925956Y-110975956D03*
X177062500Y-108100000D03*
%TO.N,Net-(D3-A)*%
X146010000Y-119840000D03*
X140960000Y-103780000D03*
D16*
%TO.N,+3V0*%
X157930000Y-106890000D03*
D13*
X167558736Y-112657321D03*
D12*
%TO.N,Net-(U3-CHIP_PU)*%
X154450000Y-84410000D03*
D16*
X156560000Y-78100000D03*
D15*
X175800000Y-77041000D03*
D13*
%TO.N,Net-(U4-IN+1)*%
X183000000Y-92700000D03*
X177096252Y-96337500D03*
%TO.N,Net-(U4-IN+2)*%
X177096252Y-99787500D03*
X183090000Y-96700000D03*
%TO.N,Net-(U4-IN+3)*%
X184100000Y-100690000D03*
X177096252Y-103187500D03*
%TO.N,Net-(U5-IN+1)*%
X177096252Y-106600000D03*
X183200000Y-104746936D03*
X171400000Y-103600000D03*
X169100000Y-101300000D03*
%TO.N,Net-(U10-VIN)*%
X177096252Y-110000000D03*
X183450000Y-108746936D03*
D20*
%TO.N,Net-(Q3-D)*%
X165630000Y-109540000D03*
X153900000Y-106125000D03*
D13*
%TO.N,/PB1*%
X151550000Y-113900000D03*
D16*
%TO.N,Net-(D10-A)*%
X175225000Y-114535000D03*
D13*
X140951000Y-110081857D03*
%TO.N,/PB3*%
X157625000Y-117025000D03*
%TO.N,/PB5*%
X163125000Y-117025000D03*
%TO.N,/PB2*%
X152264134Y-112880000D03*
%TO.N,/PB4*%
X150850000Y-116800000D03*
%TO.N,Net-(U3-GPIO0)*%
X174300000Y-91650000D03*
X154308451Y-85167963D03*
D14*
%TO.N,Net-(U4-VPU)*%
X166120000Y-100050000D03*
D13*
X170800000Y-98300000D03*
%TO.N,Net-(U4-PV)*%
X167650000Y-94250000D03*
D14*
X165100000Y-100050000D03*
D13*
%TO.N,Net-(U5-VPU)*%
X169950000Y-106050000D03*
D14*
X166220000Y-107000000D03*
%TO.N,Net-(U5-PV)*%
X165200000Y-107000000D03*
D13*
X167750000Y-101525569D03*
%TO.N,Net-(U6-CT)*%
X179362500Y-94437500D03*
%TO.N,Net-(U6-QOD)*%
X179362500Y-95387500D03*
%TO.N,Net-(U7-CT)*%
X179362500Y-97887500D03*
%TO.N,Net-(U7-QOD)*%
X179362500Y-98837500D03*
%TO.N,Net-(U9-CT)*%
X179337500Y-104700000D03*
%TO.N,Net-(U9-QOD)*%
X179337500Y-105650000D03*
%TO.N,Net-(U10-QOD)*%
X179337500Y-109050000D03*
%TO.N,Net-(U10-CT)*%
X179337500Y-108100000D03*
%TO.N,Net-(U12-CS)*%
X186050000Y-119600000D03*
X184016111Y-119597150D03*
%TO.N,Net-(D2-A)*%
X140950000Y-105900000D03*
%TD*%
D21*
%TO.N,/SD_CS*%
X152915134Y-118645134D02*
X154880000Y-120610000D01*
X160767925Y-90370000D02*
X161777925Y-89360000D01*
X158070000Y-90370000D02*
X160767925Y-90370000D01*
D22*
X163440000Y-89360000D02*
X163375000Y-89360000D01*
D21*
X152915134Y-111490000D02*
X152915134Y-118645134D01*
X152863302Y-111438168D02*
X152915134Y-111490000D01*
X161777925Y-89360000D02*
X163375000Y-89360000D01*
D22*
X163430000Y-89370000D02*
X163440000Y-89360000D01*
D23*
%TO.N,/LORA_RESET*%
X160960636Y-91650000D02*
X163980000Y-91650000D01*
X163980000Y-91650000D02*
X165140000Y-90490000D01*
X154872199Y-92342196D02*
X160268440Y-92342196D01*
X165140000Y-90490000D02*
X165140000Y-85790000D01*
X165140000Y-85790000D02*
X161750000Y-82400000D01*
X154820000Y-92289997D02*
X154872199Y-92342196D01*
X160268440Y-92342196D02*
X160960636Y-91650000D01*
D21*
%TO.N,I2C_1_SDA*%
X172620000Y-111350000D02*
X169945654Y-111350000D01*
X160180596Y-96990000D02*
X164475000Y-96990000D01*
X154081000Y-109329000D02*
X154060000Y-109350000D01*
X169945654Y-111350000D02*
X169307154Y-110711500D01*
X165055000Y-103830000D02*
X158430000Y-103830000D01*
X165761500Y-110711500D02*
X164379000Y-109329000D01*
X165162500Y-103937500D02*
X165055000Y-103830000D01*
X154634975Y-100034975D02*
X154634975Y-99894967D01*
X156577942Y-97952000D02*
X159218596Y-97952000D01*
X159218596Y-97952000D02*
X160180596Y-96990000D01*
X164379000Y-109329000D02*
X154081000Y-109329000D01*
X169307154Y-110711500D02*
X165761500Y-110711500D01*
X154634975Y-99894967D02*
X156577942Y-97952000D01*
%TO.N,I2C_1_SCL*%
X160649346Y-104680000D02*
X160930346Y-104399000D01*
X165180000Y-104687263D02*
X165180000Y-104685816D01*
X157449828Y-100500000D02*
X156800000Y-100500000D01*
X160930346Y-104399000D02*
X164703346Y-104399000D01*
X164991609Y-104687263D02*
X165180000Y-104687263D01*
X164703346Y-104399000D02*
X164991609Y-104687263D01*
X160209825Y-97740003D02*
X157449828Y-100500000D01*
X165180000Y-104685816D02*
X165181447Y-104687263D01*
X157940000Y-104680000D02*
X160649346Y-104680000D01*
X164475000Y-97740003D02*
X160209825Y-97740003D01*
D24*
%TO.N,Net-(D6-A)*%
X140958630Y-97590000D02*
X140979998Y-97568632D01*
X146410000Y-104740000D02*
X140980000Y-99310000D01*
X148170000Y-104740000D02*
X146410000Y-104740000D01*
X140980000Y-97590000D02*
X140958630Y-97590000D01*
X140980000Y-99310000D02*
X140980000Y-97590000D01*
%TO.N,/SCREEN_RESET*%
X152900000Y-93010000D02*
X152900000Y-88460049D01*
X152900000Y-88460049D02*
X153660715Y-87699334D01*
X153660715Y-87689285D02*
X154050000Y-87300000D01*
X153660715Y-87699334D02*
X153660715Y-87689285D01*
X155834864Y-87300000D02*
X155834866Y-87299998D01*
X158273796Y-93979000D02*
X153869000Y-93979000D01*
X153869000Y-93979000D02*
X152900000Y-93010000D01*
X158950000Y-94655204D02*
X158273796Y-93979000D01*
X154050000Y-87300000D02*
X155834864Y-87300000D01*
D23*
%TO.N,Net-(D11-A)*%
X141681666Y-110988334D02*
X141681666Y-110986724D01*
X175576879Y-115202000D02*
X174974344Y-115202000D01*
X166841000Y-116521000D02*
X165522000Y-115202000D01*
X141680000Y-110990000D02*
X141681666Y-110988334D01*
X150552497Y-110837168D02*
X149361709Y-112027956D01*
X165522000Y-115202000D02*
X157477077Y-115202000D01*
X142717956Y-112027956D02*
X141680000Y-110990000D01*
X175677138Y-115101741D02*
X175576879Y-115202000D01*
X153112245Y-110837168D02*
X150552497Y-110837168D01*
X174974344Y-115202000D02*
X173655344Y-116521000D01*
X173655344Y-116521000D02*
X166841000Y-116521000D01*
X157477077Y-115202000D02*
X153112245Y-110837168D01*
X149361709Y-112027956D02*
X142717956Y-112027956D01*
D24*
%TO.N,I2C_2_SCL*%
X158700000Y-96700000D02*
X153050000Y-96700000D01*
X153050000Y-96700000D02*
X152000000Y-95650000D01*
X152000000Y-95650000D02*
X152000000Y-94640000D01*
X161940000Y-93460000D02*
X158700000Y-96700000D01*
%TO.N,/EN_B1*%
X166891364Y-107750000D02*
X170241363Y-104400001D01*
X148119195Y-110792767D02*
X151161962Y-107750000D01*
X176762501Y-104400001D02*
X177062500Y-104700000D01*
X148119195Y-110862063D02*
X148119195Y-110792767D01*
X170241363Y-104400001D02*
X176762501Y-104400001D01*
X151161962Y-107750000D02*
X166891364Y-107750000D01*
%TO.N,/EN_A1*%
X160492654Y-95828000D02*
X175664361Y-95828000D01*
X151839000Y-101841000D02*
X156329000Y-97351000D01*
X158969654Y-97351000D02*
X160492654Y-95828000D01*
X151839000Y-105465810D02*
X151839000Y-101841000D01*
X150425690Y-105730000D02*
X151574810Y-105730000D01*
X145650000Y-110900000D02*
X145650000Y-110500000D01*
X151574810Y-105730000D02*
X151839000Y-105465810D01*
X156329000Y-97351000D02*
X158969654Y-97351000D01*
X175664361Y-95828000D02*
X177054861Y-94437500D01*
X145650000Y-110500000D02*
X150422845Y-105727155D01*
X177054861Y-94437500D02*
X177087500Y-94437500D01*
X150422845Y-105727155D02*
X150425690Y-105730000D01*
%TO.N,/EN_A2*%
X157090364Y-101201000D02*
X157190364Y-101101000D01*
X176710500Y-97887500D02*
X177087500Y-97887500D01*
X157698770Y-101101000D02*
X159467575Y-99332195D01*
X146391562Y-110787797D02*
X146391562Y-110788702D01*
X150689654Y-106381000D02*
X151889000Y-106381000D01*
X146386330Y-110793934D02*
X146351000Y-110793934D01*
X146351000Y-110719654D02*
X150689654Y-106381000D01*
X157190364Y-101101000D02*
X157698770Y-101101000D01*
X146351000Y-110793934D02*
X146351000Y-110719654D01*
X159467575Y-99332195D02*
X175265805Y-99332195D01*
X175265805Y-99332195D02*
X176710500Y-97887500D01*
X157069000Y-101201000D02*
X157090364Y-101201000D01*
X146391562Y-110788702D02*
X146386330Y-110793934D01*
X151889000Y-106381000D02*
X157069000Y-101201000D01*
%TO.N,/EN_A3*%
X158242892Y-102702762D02*
X153913654Y-107032000D01*
X147145654Y-110845654D02*
X147180302Y-110880302D01*
X153913654Y-107032000D02*
X150959308Y-107032000D01*
X150959308Y-107032000D02*
X147145654Y-110845654D01*
X177062500Y-101287500D02*
X176506772Y-101287500D01*
X175091510Y-102702762D02*
X158242892Y-102702762D01*
X176506772Y-101287500D02*
X175091510Y-102702762D01*
%TO.N,/EN_B2*%
X148925956Y-110975956D02*
X148891308Y-110941308D01*
X148891308Y-110941308D02*
X151431616Y-108401000D01*
X167161017Y-108401000D02*
X168081009Y-107481009D01*
X151431616Y-108401000D02*
X167161017Y-108401000D01*
X176861500Y-107899000D02*
X177062500Y-108100000D01*
X171388364Y-107899000D02*
X176861500Y-107899000D01*
X170970373Y-107481009D02*
X171388364Y-107899000D01*
X168081009Y-107481009D02*
X170970373Y-107481009D01*
D23*
%TO.N,Net-(D3-A)*%
X140351000Y-115259730D02*
X140351000Y-107348943D01*
X146010000Y-119840000D02*
X144931270Y-119840000D01*
X141551000Y-106148943D02*
X141551000Y-104371000D01*
X140351000Y-107348943D02*
X141551000Y-106148943D01*
X144931270Y-119840000D02*
X140351000Y-115259730D01*
X141551000Y-104371000D02*
X140960000Y-103780000D01*
D21*
%TO.N,Net-(U3-CHIP_PU)*%
X175741000Y-77100000D02*
X159619702Y-77100000D01*
X156560000Y-79110000D02*
X156560000Y-78100000D01*
X157084851Y-79634851D02*
X156474000Y-80245702D01*
X159619702Y-77100000D02*
X157084851Y-79634851D01*
X157084851Y-79634851D02*
X156560000Y-79110000D01*
X156474000Y-83846000D02*
X155920000Y-84400000D01*
X155920000Y-84400000D02*
X154460000Y-84400000D01*
X175800000Y-77041000D02*
X175741000Y-77100000D01*
X156474000Y-80245702D02*
X156474000Y-83846000D01*
X154460000Y-84400000D02*
X154450000Y-84410000D01*
D24*
%TO.N,Net-(U4-IN+1)*%
X177788500Y-97038500D02*
X179652864Y-97038500D01*
X177087500Y-96337500D02*
X177788500Y-97038500D01*
X179652864Y-97038500D02*
X183000000Y-93691364D01*
X183000000Y-93691364D02*
X183000000Y-92700000D01*
%TO.N,Net-(U4-IN+2)*%
X183090000Y-96700000D02*
X183100000Y-96710000D01*
X183100000Y-96710000D02*
X183100000Y-97500000D01*
X180111500Y-100488500D02*
X177788500Y-100488500D01*
X183100000Y-97500000D02*
X180111500Y-100488500D01*
X177788500Y-100488500D02*
X177087500Y-99787500D01*
%TO.N,Net-(U4-IN+3)*%
X180861500Y-103888500D02*
X177751000Y-103888500D01*
X177751000Y-103888500D02*
X177050000Y-103187500D01*
X184100000Y-100690000D02*
X184060000Y-100690000D01*
X184060000Y-100690000D02*
X180861500Y-103888500D01*
%TO.N,Net-(U5-IN+1)*%
X177062500Y-106600000D02*
X177763500Y-107301000D01*
X177763500Y-107301000D02*
X180649000Y-107301000D01*
X180649000Y-107301000D02*
X183200000Y-104750000D01*
X183200000Y-104750000D02*
X183200000Y-104746936D01*
%TO.N,Net-(U10-VIN)*%
X181495936Y-110701000D02*
X177763500Y-110701000D01*
X183450000Y-108746936D02*
X181495936Y-110701000D01*
X177763500Y-110701000D02*
X177062500Y-110000000D01*
D23*
%TO.N,Net-(D10-A)*%
X144166956Y-111576956D02*
X142700000Y-110110000D01*
X174993730Y-114535000D02*
X174792730Y-114736000D01*
X157459943Y-114430000D02*
X153068943Y-110039000D01*
X174307270Y-114736000D02*
X174001270Y-114430000D01*
X175225000Y-114535000D02*
X174993730Y-114535000D01*
X153068943Y-110039000D02*
X150712855Y-110039000D01*
X150712855Y-110039000D02*
X149174899Y-111576956D01*
X140979143Y-110110000D02*
X140951000Y-110081857D01*
X174792730Y-114736000D02*
X174307270Y-114736000D01*
X174001270Y-114430000D02*
X157459943Y-114430000D01*
X142700000Y-110110000D02*
X140979143Y-110110000D01*
X149174899Y-111576956D02*
X144166956Y-111576956D01*
D24*
%TO.N,Net-(U3-GPIO0)*%
X164249000Y-81599000D02*
X174300000Y-91650000D01*
X157870000Y-82660042D02*
X158454041Y-82076001D01*
X154828256Y-86478256D02*
X156580380Y-86478256D01*
X154308451Y-85233451D02*
X154600000Y-85525000D01*
X154308451Y-85167963D02*
X154308451Y-85233451D01*
X156801000Y-86449000D02*
X157870000Y-85380000D01*
X157870000Y-85380000D02*
X157870000Y-82660042D01*
X158454041Y-82076001D02*
X160530429Y-82076001D01*
X154600000Y-86250000D02*
X154828256Y-86478256D01*
X154600000Y-85525000D02*
X154600000Y-86250000D01*
X156609636Y-86449000D02*
X156801000Y-86449000D01*
X161007430Y-81599000D02*
X164249000Y-81599000D01*
X156580380Y-86478256D02*
X156609636Y-86449000D01*
X160530429Y-82076001D02*
X161007430Y-81599000D01*
%TD*%
M02*
