%TF.GenerationSoftware,KiCad,Pcbnew,9.0.3*%
%TF.CreationDate,2025-08-25T21:57:46+02:00*%
%TF.ProjectId,gaia_obc,67616961-5f6f-4626-932e-6b696361645f,10*%
%TF.SameCoordinates,Original*%
%TF.FileFunction,Copper,L8,Bot*%
%TF.FilePolarity,Positive*%
%FSLAX46Y46*%
G04 Gerber Fmt 4.6, Leading zero omitted, Abs format (unit mm)*
G04 Created by KiCad (PCBNEW 9.0.3) date 2025-08-25 21:57:46*
%MOMM*%
%LPD*%
G01*
G04 APERTURE LIST*
G04 Aperture macros list*
%AMRoundRect*
0 Rectangle with rounded corners*
0 $1 Rounding radius*
0 $2 $3 $4 $5 $6 $7 $8 $9 X,Y pos of 4 corners*
0 Add a 4 corners polygon primitive as box body*
4,1,4,$2,$3,$4,$5,$6,$7,$8,$9,$2,$3,0*
0 Add four circle primitives for the rounded corners*
1,1,$1+$1,$2,$3*
1,1,$1+$1,$4,$5*
1,1,$1+$1,$6,$7*
1,1,$1+$1,$8,$9*
0 Add four rect primitives between the rounded corners*
20,1,$1+$1,$2,$3,$4,$5,0*
20,1,$1+$1,$4,$5,$6,$7,0*
20,1,$1+$1,$6,$7,$8,$9,0*
20,1,$1+$1,$8,$9,$2,$3,0*%
%AMRotRect*
0 Rectangle, with rotation*
0 The origin of the aperture is its center*
0 $1 length*
0 $2 width*
0 $3 Rotation angle, in degrees counterclockwise*
0 Add horizontal line*
21,1,$1,$2,0,0,$3*%
G04 Aperture macros list end*
%TA.AperFunction,ComponentPad*%
%ADD10C,2.000000*%
%TD*%
%TA.AperFunction,ComponentPad*%
%ADD11C,2.200000*%
%TD*%
%TA.AperFunction,SMDPad,CuDef*%
%ADD12R,2.200000X0.400000*%
%TD*%
%TA.AperFunction,SMDPad,CuDef*%
%ADD13RoundRect,0.250000X-0.312500X-0.625000X0.312500X-0.625000X0.312500X0.625000X-0.312500X0.625000X0*%
%TD*%
%TA.AperFunction,SMDPad,CuDef*%
%ADD14RoundRect,0.135000X0.185000X-0.135000X0.185000X0.135000X-0.185000X0.135000X-0.185000X-0.135000X0*%
%TD*%
%TA.AperFunction,SMDPad,CuDef*%
%ADD15RoundRect,0.140000X-0.170000X0.140000X-0.170000X-0.140000X0.170000X-0.140000X0.170000X0.140000X0*%
%TD*%
%TA.AperFunction,SMDPad,CuDef*%
%ADD16RoundRect,0.150000X0.150000X-0.512500X0.150000X0.512500X-0.150000X0.512500X-0.150000X-0.512500X0*%
%TD*%
%TA.AperFunction,SMDPad,CuDef*%
%ADD17RoundRect,0.135000X-0.185000X0.135000X-0.185000X-0.135000X0.185000X-0.135000X0.185000X0.135000X0*%
%TD*%
%TA.AperFunction,SMDPad,CuDef*%
%ADD18RoundRect,0.140000X-0.140000X-0.170000X0.140000X-0.170000X0.140000X0.170000X-0.140000X0.170000X0*%
%TD*%
%TA.AperFunction,SMDPad,CuDef*%
%ADD19RotRect,1.500000X1.500000X135.000000*%
%TD*%
%TA.AperFunction,SMDPad,CuDef*%
%ADD20RotRect,1.500000X1.000000X135.000000*%
%TD*%
%TA.AperFunction,SMDPad,CuDef*%
%ADD21R,0.750000X0.300000*%
%TD*%
%TA.AperFunction,SMDPad,CuDef*%
%ADD22R,0.900000X1.300000*%
%TD*%
%TA.AperFunction,SMDPad,CuDef*%
%ADD23RoundRect,0.150000X-0.150000X0.512500X-0.150000X-0.512500X0.150000X-0.512500X0.150000X0.512500X0*%
%TD*%
%TA.AperFunction,SMDPad,CuDef*%
%ADD24R,0.350000X0.500000*%
%TD*%
%TA.AperFunction,SMDPad,CuDef*%
%ADD25RoundRect,0.150000X0.512500X0.150000X-0.512500X0.150000X-0.512500X-0.150000X0.512500X-0.150000X0*%
%TD*%
%TA.AperFunction,SMDPad,CuDef*%
%ADD26RoundRect,0.135000X-0.135000X-0.185000X0.135000X-0.185000X0.135000X0.185000X-0.135000X0.185000X0*%
%TD*%
%TA.AperFunction,SMDPad,CuDef*%
%ADD27RoundRect,0.147500X-0.172500X0.147500X-0.172500X-0.147500X0.172500X-0.147500X0.172500X0.147500X0*%
%TD*%
%TA.AperFunction,SMDPad,CuDef*%
%ADD28RoundRect,0.150000X-0.512500X-0.150000X0.512500X-0.150000X0.512500X0.150000X-0.512500X0.150000X0*%
%TD*%
%TA.AperFunction,SMDPad,CuDef*%
%ADD29RoundRect,0.135000X0.135000X0.185000X-0.135000X0.185000X-0.135000X-0.185000X0.135000X-0.185000X0*%
%TD*%
%TA.AperFunction,SMDPad,CuDef*%
%ADD30RoundRect,0.087500X0.087500X-0.425000X0.087500X0.425000X-0.087500X0.425000X-0.087500X-0.425000X0*%
%TD*%
%TA.AperFunction,SMDPad,CuDef*%
%ADD31RoundRect,0.087500X0.425000X-0.087500X0.425000X0.087500X-0.425000X0.087500X-0.425000X-0.087500X0*%
%TD*%
%TA.AperFunction,HeatsinkPad*%
%ADD32R,2.100000X2.100000*%
%TD*%
%TA.AperFunction,SMDPad,CuDef*%
%ADD33RoundRect,0.140000X0.140000X0.170000X-0.140000X0.170000X-0.140000X-0.170000X0.140000X-0.170000X0*%
%TD*%
%TA.AperFunction,SMDPad,CuDef*%
%ADD34RoundRect,0.200000X-0.275000X0.200000X-0.275000X-0.200000X0.275000X-0.200000X0.275000X0.200000X0*%
%TD*%
%TA.AperFunction,SMDPad,CuDef*%
%ADD35R,2.580000X1.000000*%
%TD*%
%TA.AperFunction,SMDPad,CuDef*%
%ADD36R,0.600000X1.100000*%
%TD*%
%TA.AperFunction,SMDPad,CuDef*%
%ADD37R,0.300000X1.100000*%
%TD*%
%TA.AperFunction,SMDPad,CuDef*%
%ADD38R,2.000000X1.500000*%
%TD*%
%TA.AperFunction,SMDPad,CuDef*%
%ADD39R,2.000000X1.200000*%
%TD*%
%TA.AperFunction,SMDPad,CuDef*%
%ADD40RoundRect,0.140000X0.170000X-0.140000X0.170000X0.140000X-0.170000X0.140000X-0.170000X-0.140000X0*%
%TD*%
%TA.AperFunction,SMDPad,CuDef*%
%ADD41RoundRect,0.250000X0.312500X0.625000X-0.312500X0.625000X-0.312500X-0.625000X0.312500X-0.625000X0*%
%TD*%
%TA.AperFunction,SMDPad,CuDef*%
%ADD42R,0.700000X1.750000*%
%TD*%
%TA.AperFunction,SMDPad,CuDef*%
%ADD43R,1.450000X1.000000*%
%TD*%
%TA.AperFunction,SMDPad,CuDef*%
%ADD44R,1.000000X1.550000*%
%TD*%
%TA.AperFunction,SMDPad,CuDef*%
%ADD45R,0.800000X1.500000*%
%TD*%
%TA.AperFunction,SMDPad,CuDef*%
%ADD46R,1.300000X1.500000*%
%TD*%
%TA.AperFunction,SMDPad,CuDef*%
%ADD47R,1.500000X1.500000*%
%TD*%
%TA.AperFunction,SMDPad,CuDef*%
%ADD48R,0.800000X1.400000*%
%TD*%
%TA.AperFunction,SMDPad,CuDef*%
%ADD49R,0.650000X0.350000*%
%TD*%
%TA.AperFunction,SMDPad,CuDef*%
%ADD50R,1.550000X2.400000*%
%TD*%
%TA.AperFunction,SMDPad,CuDef*%
%ADD51RoundRect,0.200000X-0.200000X-0.275000X0.200000X-0.275000X0.200000X0.275000X-0.200000X0.275000X0*%
%TD*%
%TA.AperFunction,SMDPad,CuDef*%
%ADD52RoundRect,0.150000X0.150000X-0.587500X0.150000X0.587500X-0.150000X0.587500X-0.150000X-0.587500X0*%
%TD*%
%TA.AperFunction,SMDPad,CuDef*%
%ADD53R,0.250000X0.470000*%
%TD*%
%TA.AperFunction,SMDPad,CuDef*%
%ADD54R,0.470000X0.250000*%
%TD*%
%TA.AperFunction,SMDPad,CuDef*%
%ADD55R,4.000000X4.000000*%
%TD*%
%TA.AperFunction,SMDPad,CuDef*%
%ADD56RoundRect,0.317500X-1.157500X-0.317500X1.157500X-0.317500X1.157500X0.317500X-1.157500X0.317500X0*%
%TD*%
%TA.AperFunction,SMDPad,CuDef*%
%ADD57RoundRect,0.075000X0.075000X-0.437500X0.075000X0.437500X-0.075000X0.437500X-0.075000X-0.437500X0*%
%TD*%
%TA.AperFunction,SMDPad,CuDef*%
%ADD58RoundRect,0.075000X0.437500X-0.075000X0.437500X0.075000X-0.437500X0.075000X-0.437500X-0.075000X0*%
%TD*%
%TA.AperFunction,HeatsinkPad*%
%ADD59R,4.250000X4.250000*%
%TD*%
%TA.AperFunction,SMDPad,CuDef*%
%ADD60RoundRect,0.200000X0.200000X0.275000X-0.200000X0.275000X-0.200000X-0.275000X0.200000X-0.275000X0*%
%TD*%
%TA.AperFunction,SMDPad,CuDef*%
%ADD61RoundRect,0.093750X0.093750X-0.156250X0.093750X0.156250X-0.093750X0.156250X-0.093750X-0.156250X0*%
%TD*%
%TA.AperFunction,SMDPad,CuDef*%
%ADD62RoundRect,0.075000X0.075000X-0.250000X0.075000X0.250000X-0.075000X0.250000X-0.075000X-0.250000X0*%
%TD*%
%TA.AperFunction,ViaPad*%
%ADD63C,0.520000*%
%TD*%
%TA.AperFunction,ViaPad*%
%ADD64C,0.600000*%
%TD*%
%TA.AperFunction,ViaPad*%
%ADD65C,0.530000*%
%TD*%
%TA.AperFunction,ViaPad*%
%ADD66C,0.800000*%
%TD*%
%TA.AperFunction,ViaPad*%
%ADD67C,0.550000*%
%TD*%
%TA.AperFunction,ViaPad*%
%ADD68C,0.700000*%
%TD*%
%TA.AperFunction,ViaPad*%
%ADD69C,0.570000*%
%TD*%
%TA.AperFunction,ViaPad*%
%ADD70C,0.900000*%
%TD*%
%TA.AperFunction,ViaPad*%
%ADD71C,0.500000*%
%TD*%
%TA.AperFunction,Conductor*%
%ADD72C,0.300000*%
%TD*%
%TA.AperFunction,Conductor*%
%ADD73C,0.350000*%
%TD*%
%TA.AperFunction,Conductor*%
%ADD74C,0.400000*%
%TD*%
%TA.AperFunction,Conductor*%
%ADD75C,0.200000*%
%TD*%
%TA.AperFunction,Conductor*%
%ADD76C,0.500000*%
%TD*%
%TA.AperFunction,Conductor*%
%ADD77C,1.000000*%
%TD*%
%TA.AperFunction,Conductor*%
%ADD78C,0.700000*%
%TD*%
%TA.AperFunction,Conductor*%
%ADD79C,0.250000*%
%TD*%
%TA.AperFunction,Conductor*%
%ADD80C,0.230000*%
%TD*%
%TA.AperFunction,Conductor*%
%ADD81C,0.600000*%
%TD*%
%TA.AperFunction,Conductor*%
%ADD82C,0.118400*%
%TD*%
%TA.AperFunction,Conductor*%
%ADD83C,0.118600*%
%TD*%
G04 APERTURE END LIST*
D10*
%TO.P,J6,1,In*%
%TO.N,Net-(J6-In)*%
X182340000Y-86690000D03*
D11*
%TO.P,J6,2,Ext*%
%TO.N,GND*%
X179790000Y-84140000D03*
X179790000Y-89240000D03*
X184890000Y-84140000D03*
X184890000Y-89240000D03*
%TD*%
D12*
%TO.P,U18,1,NC*%
%TO.N,unconnected-(U18-NC-Pad1)*%
X162912500Y-96679000D03*
%TO.P,U18,2,NC*%
%TO.N,unconnected-(U18-NC-Pad2)*%
X162912500Y-97379000D03*
%TO.P,U18,3,SDA*%
%TO.N,/SCREEN_MOSI*%
X162912500Y-98079000D03*
%TO.P,U18,4,SCL*%
%TO.N,/SCREEN_CLK*%
X162912500Y-98779000D03*
%TO.P,U18,5,RS*%
%TO.N,/SCREEN_DC*%
X162912500Y-99479000D03*
%TO.P,U18,6,RES*%
%TO.N,/SCREEN_RESET*%
X162912500Y-100179000D03*
%TO.P,U18,7,CS*%
%TO.N,/SCREEN_CS*%
X162912500Y-100879000D03*
%TO.P,U18,8,GND*%
%TO.N,GND*%
X162912500Y-101579000D03*
%TO.P,U18,9,NC*%
%TO.N,unconnected-(U18-NC-Pad9)*%
X162912500Y-102279000D03*
%TO.P,U18,10,VCC*%
%TO.N,+3V0*%
X162912500Y-102979000D03*
%TO.P,U18,11,LEDK*%
%TO.N,Net-(U18-LEDK)*%
X162912500Y-103679000D03*
%TO.P,U18,12,LEDA*%
%TO.N,+3V0*%
X162912500Y-104379000D03*
%TO.P,U18,13,GND*%
%TO.N,GND*%
X162912500Y-105079000D03*
%TD*%
D13*
%TO.P,R34,1*%
%TO.N,VCC*%
X172337500Y-101850000D03*
%TO.P,R34,2*%
%TO.N,Net-(U4-IN+3)*%
X175262500Y-101850000D03*
%TD*%
D14*
%TO.P,R5,1*%
%TO.N,Net-(J1-CC2)*%
X170047500Y-116085000D03*
%TO.P,R5,2*%
%TO.N,GND*%
X170047500Y-115065000D03*
%TD*%
D15*
%TO.P,C5,1*%
%TO.N,GND*%
X156560000Y-77140000D03*
%TO.P,C5,2*%
%TO.N,Net-(U3-CHIP_PU)*%
X156560000Y-78100000D03*
%TD*%
D16*
%TO.P,U13,1,VIN*%
%TO.N,/Power Supply Unit/OBC_BATT*%
X166600000Y-116650000D03*
%TO.P,U13,2,GND*%
%TO.N,GND*%
X165650000Y-116650000D03*
%TO.P,U13,3,EN*%
%TO.N,/Power Supply Unit/OBC_BATT*%
X164700000Y-116650000D03*
%TO.P,U13,4,NC*%
%TO.N,unconnected-(U13-NC-Pad4)*%
X164700000Y-114375000D03*
%TO.P,U13,5,VOUT*%
%TO.N,+3V0*%
X166600000Y-114375000D03*
%TD*%
D17*
%TO.P,R26,1*%
%TO.N,+3.3V*%
X164850000Y-95090000D03*
%TO.P,R26,2*%
%TO.N,Net-(U4-WARNING)*%
X164850000Y-96110000D03*
%TD*%
%TO.P,R4,1*%
%TO.N,GND*%
X173850000Y-115530000D03*
%TO.P,R4,2*%
%TO.N,Net-(J1-CC1)*%
X173850000Y-116550000D03*
%TD*%
D18*
%TO.P,C25,1*%
%TO.N,+3.3V*%
X155120000Y-107870000D03*
%TO.P,C25,2*%
%TO.N,GND*%
X156080000Y-107870000D03*
%TD*%
%TO.P,C38,1*%
%TO.N,GND*%
X156970000Y-106900000D03*
%TO.P,C38,2*%
%TO.N,+3V0*%
X157930000Y-106900000D03*
%TD*%
D17*
%TO.P,R17,1*%
%TO.N,I2C_2_SDA*%
X153000000Y-94640000D03*
%TO.P,R17,2*%
%TO.N,+3.3V*%
X153000000Y-95660000D03*
%TD*%
D15*
%TO.P,C39,1*%
%TO.N,+3.3V*%
X179100000Y-86400000D03*
%TO.P,C39,2*%
%TO.N,GND*%
X179100000Y-87360000D03*
%TD*%
D17*
%TO.P,R20,1*%
%TO.N,I2C_2_SCL*%
X152000000Y-94640000D03*
%TO.P,R20,2*%
%TO.N,+3.3V*%
X152000000Y-95660000D03*
%TD*%
D18*
%TO.P,C47,1*%
%TO.N,GND*%
X150160000Y-85160000D03*
%TO.P,C47,2*%
%TO.N,Net-(U3-LNA_IN)*%
X151120000Y-85160000D03*
%TD*%
D19*
%TO.P,AE1,*%
%TO.N,*%
X143583185Y-85416815D03*
D20*
%TO.P,AE1,1,A*%
%TO.N,Net-(AE1-A)*%
X149416815Y-79583185D03*
%TD*%
D21*
%TO.P,IC1,1,CTG*%
%TO.N,GND*%
X174175000Y-112000000D03*
%TO.P,IC1,2,CELL*%
%TO.N,+BATT*%
X174175000Y-112500000D03*
%TO.P,IC1,3,VDD*%
X174175000Y-113000000D03*
%TO.P,IC1,4,GND*%
%TO.N,GND*%
X174175000Y-113500000D03*
%TO.P,IC1,5,~{ALRT}*%
%TO.N,Net-(IC1-~{ALRT})*%
X172175000Y-113500000D03*
%TO.P,IC1,6,QSTRT*%
%TO.N,Net-(IC1-QSTRT)*%
X172175000Y-113000000D03*
%TO.P,IC1,7,SCL*%
%TO.N,I2C_1_SCL*%
X172175000Y-112500000D03*
%TO.P,IC1,8,SDA*%
%TO.N,I2C_1_SDA*%
X172175000Y-112000000D03*
D22*
%TO.P,IC1,9,EP*%
%TO.N,GND*%
X173175000Y-112750000D03*
%TD*%
D23*
%TO.P,U11,1,VIN*%
%TO.N,/Power Supply Unit/OBC_BATT*%
X168087500Y-111362500D03*
%TO.P,U11,2,GND*%
%TO.N,GND*%
X169037500Y-111362500D03*
%TO.P,U11,3,EN*%
%TO.N,/Power Supply Unit/OBC_BATT*%
X169987500Y-111362500D03*
%TO.P,U11,4,NC*%
%TO.N,unconnected-(U11-NC-Pad4)*%
X169987500Y-113637500D03*
%TO.P,U11,5,VOUT*%
%TO.N,+3.3V*%
X169037500Y-113637500D03*
%TO.P,U11,6*%
%TO.N,N/C*%
X168087500Y-113637500D03*
%TD*%
D24*
%TO.P,U17,1,GND*%
%TO.N,GND*%
X159507500Y-77227500D03*
%TO.P,U17,2,CSB*%
%TO.N,+3.3V*%
X158857500Y-77227500D03*
%TO.P,U17,3,SDI*%
%TO.N,I2C_1_SDA*%
X158207500Y-77227500D03*
%TO.P,U17,4,SCK*%
%TO.N,I2C_1_SCL*%
X157557500Y-77227500D03*
%TO.P,U17,5,SDO*%
%TO.N,GND*%
X157557500Y-79277500D03*
%TO.P,U17,6,VDDIO*%
%TO.N,+3.3V*%
X158207500Y-79277500D03*
%TO.P,U17,7,GND*%
%TO.N,GND*%
X158857500Y-79277500D03*
%TO.P,U17,8,VDD*%
%TO.N,+3.3V*%
X159507500Y-79277500D03*
%TD*%
D23*
%TO.P,Q2,1*%
%TO.N,GND*%
X184200000Y-113662500D03*
%TO.P,Q2,2*%
%TO.N,unconnected-(Q2-Pad2)_1*%
X185150000Y-113662500D03*
%TO.P,Q2,3*%
%TO.N,-BATT*%
X186100000Y-113662500D03*
%TO.P,Q2,4*%
%TO.N,Net-(U12-OC)*%
X186100000Y-115937500D03*
%TO.P,Q2,5*%
%TO.N,unconnected-(Q2-Pad2)*%
X185150000Y-115937500D03*
%TO.P,Q2,6*%
%TO.N,Net-(U12-OD)*%
X184200000Y-115937500D03*
%TD*%
D13*
%TO.P,R32,1*%
%TO.N,VCC*%
X172387500Y-95000000D03*
%TO.P,R32,2*%
%TO.N,Net-(U4-IN+1)*%
X175312500Y-95000000D03*
%TD*%
D17*
%TO.P,R24,1*%
%TO.N,+3.3V*%
X170710000Y-94410000D03*
%TO.P,R24,2*%
%TO.N,Net-(U4-TC)*%
X170710000Y-95430000D03*
%TD*%
D25*
%TO.P,U12,1,OD*%
%TO.N,Net-(U12-OD)*%
X182875000Y-119095001D03*
%TO.P,U12,2,CS*%
%TO.N,Net-(U12-CS)*%
X182875000Y-120045001D03*
%TO.P,U12,3,OC*%
%TO.N,Net-(U12-OC)*%
X182875000Y-120995001D03*
%TO.P,U12,4,TD*%
%TO.N,unconnected-(U12-TD-Pad4)*%
X180600000Y-120995001D03*
%TO.P,U12,5,VCC*%
%TO.N,Net-(U12-VCC)*%
X180600000Y-120045001D03*
%TO.P,U12,6,GND*%
%TO.N,GND*%
X180600000Y-119095001D03*
%TD*%
D26*
%TO.P,R29,1*%
%TO.N,+3.3V*%
X165840000Y-101150000D03*
%TO.P,R29,2*%
%TO.N,Net-(U5-CRITICAL)*%
X166860000Y-101150000D03*
%TD*%
D14*
%TO.P,R53,1*%
%TO.N,Net-(U14-PROG)*%
X180650000Y-114060000D03*
%TO.P,R53,2*%
%TO.N,GND*%
X180650000Y-113040000D03*
%TD*%
D17*
%TO.P,R13,1*%
%TO.N,+3.3V*%
X154450000Y-83390000D03*
%TO.P,R13,2*%
%TO.N,Net-(U3-CHIP_PU)*%
X154450000Y-84410000D03*
%TD*%
D27*
%TO.P,L1,1*%
%TO.N,Net-(AE1-A)*%
X151060000Y-83235000D03*
%TO.P,L1,2*%
%TO.N,Net-(U3-LNA_IN)*%
X151060000Y-84205000D03*
%TD*%
D28*
%TO.P,U10,1,VIN*%
%TO.N,Net-(U10-VIN)*%
X177062500Y-110000000D03*
%TO.P,U10,2,GND*%
%TO.N,GND*%
X177062500Y-109050000D03*
%TO.P,U10,3,ON*%
%TO.N,/EN_B2*%
X177062500Y-108100000D03*
%TO.P,U10,4,CT*%
%TO.N,Net-(U10-CT)*%
X179337500Y-108100000D03*
%TO.P,U10,5,QOD*%
%TO.N,Net-(U10-QOD)*%
X179337500Y-109050000D03*
%TO.P,U10,6,VOUT*%
%TO.N,/VOUT_B2*%
X179337500Y-110000000D03*
%TD*%
D17*
%TO.P,R18,1*%
%TO.N,SPI_0_MOSI*%
X157000000Y-94640000D03*
%TO.P,R18,2*%
%TO.N,+3.3V*%
X157000000Y-95660000D03*
%TD*%
D28*
%TO.P,U9,1,VIN*%
%TO.N,Net-(U5-IN+1)*%
X177062500Y-106600000D03*
%TO.P,U9,2,GND*%
%TO.N,GND*%
X177062500Y-105650000D03*
%TO.P,U9,3,ON*%
%TO.N,/EN_B1*%
X177062500Y-104700000D03*
%TO.P,U9,4,CT*%
%TO.N,Net-(U9-CT)*%
X179337500Y-104700000D03*
%TO.P,U9,5,QOD*%
%TO.N,Net-(U9-QOD)*%
X179337500Y-105650000D03*
%TO.P,U9,6,VOUT*%
%TO.N,/VOUT_B1*%
X179337500Y-106600000D03*
%TD*%
D17*
%TO.P,R14,1*%
%TO.N,I2C_1_SDA*%
X154000000Y-94640000D03*
%TO.P,R14,2*%
%TO.N,+3.3V*%
X154000000Y-95660000D03*
%TD*%
%TO.P,R23,1*%
%TO.N,SPI_0_SCLK*%
X158000000Y-94640000D03*
%TO.P,R23,2*%
%TO.N,+3.3V*%
X158000000Y-95660000D03*
%TD*%
D29*
%TO.P,R59,1*%
%TO.N,+3V0*%
X166910000Y-113000000D03*
%TO.P,R59,2*%
%TO.N,Net-(Q3-G)*%
X165890000Y-113000000D03*
%TD*%
D30*
%TO.P,U4,1,IN-3*%
%TO.N,VCC*%
X168950000Y-99187500D03*
%TO.P,U4,2,IN+3*%
%TO.N,Net-(U4-IN+3)*%
X168300000Y-99187500D03*
%TO.P,U4,3,GND*%
%TO.N,GND*%
X167650000Y-99187500D03*
%TO.P,U4,4,VS*%
%TO.N,+3.3V*%
X167000000Y-99187500D03*
D31*
%TO.P,U4,5,A0*%
%TO.N,GND*%
X166112500Y-98300000D03*
%TO.P,U4,6,SCL*%
%TO.N,I2C_1_SCL*%
X166112500Y-97650000D03*
%TO.P,U4,7,SDA*%
%TO.N,I2C_1_SDA*%
X166112500Y-97000000D03*
%TO.P,U4,8,WARNING*%
%TO.N,Net-(U4-WARNING)*%
X166112500Y-96350000D03*
D30*
%TO.P,U4,9,CRITICAL*%
%TO.N,Net-(U4-CRITICAL)*%
X167000000Y-95462500D03*
%TO.P,U4,10,PV*%
%TO.N,Net-(U4-PV)*%
X167650000Y-95462500D03*
%TO.P,U4,11,IN-1*%
%TO.N,VCC*%
X168300000Y-95462500D03*
%TO.P,U4,12,IN+1*%
%TO.N,Net-(U4-IN+1)*%
X168950000Y-95462500D03*
D31*
%TO.P,U4,13,TC*%
%TO.N,Net-(U4-TC)*%
X169837500Y-96350000D03*
%TO.P,U4,14,IN-2*%
%TO.N,VCC*%
X169837500Y-97000000D03*
%TO.P,U4,15,IN+2*%
%TO.N,Net-(U4-IN+2)*%
X169837500Y-97650000D03*
%TO.P,U4,16,VPU*%
%TO.N,Net-(U4-VPU)*%
X169837500Y-98300000D03*
D32*
%TO.P,U4,17,EP*%
%TO.N,GND*%
X167975000Y-97325000D03*
%TD*%
D33*
%TO.P,C46,1*%
%TO.N,Net-(AE1-A)*%
X151100000Y-82300000D03*
%TO.P,C46,2*%
%TO.N,GND*%
X150140000Y-82300000D03*
%TD*%
D30*
%TO.P,U5,1,IN-3*%
%TO.N,VCC*%
X169050000Y-106125000D03*
%TO.P,U5,2,IN+3*%
%TO.N,/Power Supply Unit/OBC_BATT*%
X168400000Y-106125000D03*
%TO.P,U5,3,GND*%
%TO.N,GND*%
X167750000Y-106125000D03*
%TO.P,U5,4,VS*%
%TO.N,+3.3V*%
X167100000Y-106125000D03*
D31*
%TO.P,U5,5,A0*%
X166212500Y-105237500D03*
%TO.P,U5,6,SCL*%
%TO.N,I2C_1_SCL*%
X166212500Y-104587500D03*
%TO.P,U5,7,SDA*%
%TO.N,I2C_1_SDA*%
X166212500Y-103937500D03*
%TO.P,U5,8,WARNING*%
%TO.N,Net-(U5-WARNING)*%
X166212500Y-103287500D03*
D30*
%TO.P,U5,9,CRITICAL*%
%TO.N,Net-(U5-CRITICAL)*%
X167100000Y-102400000D03*
%TO.P,U5,10,PV*%
%TO.N,Net-(U5-PV)*%
X167750000Y-102400000D03*
%TO.P,U5,11,IN-1*%
%TO.N,VCC*%
X168400000Y-102400000D03*
%TO.P,U5,12,IN+1*%
%TO.N,Net-(U5-IN+1)*%
X169050000Y-102400000D03*
D31*
%TO.P,U5,13,TC*%
%TO.N,Net-(U5-TC)*%
X169937500Y-103287500D03*
%TO.P,U5,14,IN-2*%
%TO.N,VCC*%
X169937500Y-103937500D03*
%TO.P,U5,15,IN+2*%
%TO.N,Net-(U10-VIN)*%
X169937500Y-104587500D03*
%TO.P,U5,16,VPU*%
%TO.N,Net-(U5-VPU)*%
X169937500Y-105237500D03*
D32*
%TO.P,U5,17,EP*%
%TO.N,GND*%
X168075000Y-104262500D03*
%TD*%
D33*
%TO.P,C12,1*%
%TO.N,+3.3V*%
X151280000Y-90150000D03*
%TO.P,C12,2*%
%TO.N,GND*%
X150320000Y-90150000D03*
%TD*%
D34*
%TO.P,R60,1*%
%TO.N,Net-(Q3-D)*%
X153900000Y-106125000D03*
%TO.P,R60,2*%
%TO.N,Net-(U18-LEDK)*%
X153900000Y-107775000D03*
%TD*%
D33*
%TO.P,C36,1*%
%TO.N,+3V0*%
X157930000Y-107900000D03*
%TO.P,C36,2*%
%TO.N,GND*%
X156970000Y-107900000D03*
%TD*%
D18*
%TO.P,C43,1*%
%TO.N,+3.3V*%
X158852500Y-76252500D03*
%TO.P,C43,2*%
%TO.N,GND*%
X159812500Y-76252500D03*
%TD*%
D26*
%TO.P,R28,1*%
%TO.N,+3.3V*%
X165740000Y-94200000D03*
%TO.P,R28,2*%
%TO.N,Net-(U4-CRITICAL)*%
X166760000Y-94200000D03*
%TD*%
D33*
%TO.P,C26,1*%
%TO.N,GND*%
X156080000Y-106900000D03*
%TO.P,C26,2*%
%TO.N,+3.3V*%
X155120000Y-106900000D03*
%TD*%
D35*
%TO.P,J2,1,Pin_1*%
%TO.N,I2C_2_SDA*%
X146890000Y-91696938D03*
%TO.P,J2,2,Pin_2*%
%TO.N,I2C_1_SDA*%
X142720000Y-91696938D03*
%TO.P,J2,3,Pin_3*%
%TO.N,I2C_2_SCL*%
X146890000Y-93696938D03*
%TO.P,J2,4,Pin_4*%
%TO.N,I2C_1_SCL*%
X142720000Y-93696938D03*
%TO.P,J2,5,Pin_5*%
%TO.N,/EXP1_SPI_CS*%
X146890000Y-95696938D03*
%TO.P,J2,6,Pin_6*%
%TO.N,SPI_0_MISO*%
X142720000Y-95696938D03*
%TO.P,J2,7,Pin_7*%
%TO.N,GND*%
X146890000Y-97696938D03*
%TO.P,J2,8,Pin_8*%
%TO.N,SPI_0_MOSI*%
X142720000Y-97696938D03*
%TO.P,J2,9,Pin_9*%
%TO.N,GND*%
X146890000Y-99696938D03*
%TO.P,J2,10,Pin_10*%
%TO.N,SPI_0_SCLK*%
X142720000Y-99696938D03*
%TO.P,J2,11,Pin_11*%
%TO.N,/EXP2_USART_TXD*%
X146890000Y-101696938D03*
%TO.P,J2,12,Pin_12*%
%TO.N,/EXP0_USART_TXD*%
X142720000Y-101696938D03*
%TO.P,J2,13,Pin_13*%
%TO.N,/EXP2_USART_RXD*%
X146890000Y-103696938D03*
%TO.P,J2,14,Pin_14*%
%TO.N,/EXP0_USART_RXD*%
X142720000Y-103696938D03*
%TO.P,J2,15,Pin_15*%
%TO.N,unconnected-(J2-Pin_15-Pad15)*%
X146890000Y-105696938D03*
%TO.P,J2,16,Pin_16*%
%TO.N,unconnected-(J2-Pin_16-Pad16)*%
X142720000Y-105696938D03*
%TO.P,J2,17,Pin_17*%
%TO.N,GND*%
X146890000Y-107696938D03*
%TO.P,J2,18,Pin_18*%
X142720000Y-107696938D03*
%TO.P,J2,19,Pin_19*%
X146890000Y-109696938D03*
%TO.P,J2,20,Pin_20*%
X142720000Y-109696938D03*
%TD*%
D33*
%TO.P,C2,1*%
%TO.N,+3.3V*%
X145830000Y-118950000D03*
%TO.P,C2,2*%
%TO.N,GND*%
X144870000Y-118950000D03*
%TD*%
D36*
%TO.P,J1,A1B12,GND*%
%TO.N,GND*%
X175400000Y-117895500D03*
%TO.P,J1,A4B9,VBUS*%
%TO.N,VBUS*%
X174600000Y-117895500D03*
D37*
%TO.P,J1,A5,CC1*%
%TO.N,Net-(J1-CC1)*%
X173450000Y-117895500D03*
%TO.P,J1,A6,D+*%
%TO.N,Net-(J1-D+-PadA6)*%
X172450000Y-117895500D03*
%TO.P,J1,A7,D-*%
%TO.N,Net-(J1-D--PadA7)*%
X171950000Y-117895500D03*
%TO.P,J1,A8,SBU1*%
%TO.N,unconnected-(J1-SBU1-PadA8)*%
X170950000Y-117895500D03*
D36*
%TO.P,J1,B1A12,GND*%
%TO.N,GND*%
X169000000Y-117895500D03*
%TO.P,J1,B4A9,VBUS*%
%TO.N,VBUS*%
X169800000Y-117895500D03*
D37*
%TO.P,J1,B5,CC2*%
%TO.N,Net-(J1-CC2)*%
X170450000Y-117895500D03*
%TO.P,J1,B6,D+*%
%TO.N,Net-(J1-D+-PadA6)*%
X171450000Y-117895500D03*
%TO.P,J1,B7,D-*%
%TO.N,Net-(J1-D--PadA7)*%
X172950000Y-117895500D03*
%TO.P,J1,B8,SBU2*%
%TO.N,unconnected-(J1-SBU2-PadB8)*%
X173950000Y-117895500D03*
D38*
%TO.P,J1,S1,SHIELD*%
%TO.N,GND*%
X177525000Y-122645500D03*
D39*
X177525000Y-118445500D03*
D38*
X166875000Y-122645500D03*
D39*
X166875000Y-118445500D03*
%TD*%
D40*
%TO.P,C33,1*%
%TO.N,GND*%
X175350000Y-113830000D03*
%TO.P,C33,2*%
%TO.N,+BATT*%
X175350000Y-112870000D03*
%TD*%
D41*
%TO.P,R37,1*%
%TO.N,VCC*%
X170612500Y-108300000D03*
%TO.P,R37,2*%
%TO.N,/Power Supply Unit/OBC_BATT*%
X167687500Y-108300000D03*
%TD*%
D33*
%TO.P,C44,1*%
%TO.N,+3.3V*%
X158262500Y-80302500D03*
%TO.P,C44,2*%
%TO.N,GND*%
X157302500Y-80302500D03*
%TD*%
D18*
%TO.P,C17,1*%
%TO.N,GND*%
X174540000Y-106900000D03*
%TO.P,C17,2*%
%TO.N,Net-(U5-IN+1)*%
X175500000Y-106900000D03*
%TD*%
D15*
%TO.P,C45,1*%
%TO.N,GND*%
X179040000Y-92290000D03*
%TO.P,C45,2*%
%TO.N,+3.3V*%
X179040000Y-93250000D03*
%TD*%
%TO.P,C11,1*%
%TO.N,+3.3V*%
X151200000Y-87420000D03*
%TO.P,C11,2*%
%TO.N,GND*%
X151200000Y-88380000D03*
%TD*%
D40*
%TO.P,C35,1*%
%TO.N,GND*%
X180700000Y-116305000D03*
%TO.P,C35,2*%
%TO.N,VBUS*%
X180700000Y-115345000D03*
%TD*%
D13*
%TO.P,R36,1*%
%TO.N,VCC*%
X172337500Y-108700000D03*
%TO.P,R36,2*%
%TO.N,Net-(U10-VIN)*%
X175262500Y-108700000D03*
%TD*%
D42*
%TO.P,J5,1,DAT2*%
%TO.N,unconnected-(J5-DAT2-Pad1)*%
X153775000Y-120550000D03*
%TO.P,J5,2,DAT3/CD*%
%TO.N,/SD_CS*%
X154875000Y-120550000D03*
%TO.P,J5,3,CMD*%
%TO.N,SPI_0_MOSI*%
X155975000Y-120550000D03*
%TO.P,J5,4,VDD*%
%TO.N,+3.3V*%
X157075000Y-120550000D03*
%TO.P,J5,5,CLK*%
%TO.N,SPI_0_SCLK*%
X158175000Y-120550000D03*
%TO.P,J5,6,VSS*%
%TO.N,GND*%
X159275000Y-120550000D03*
%TO.P,J5,7,DAT0*%
%TO.N,SPI_0_MISO*%
X160375000Y-120550000D03*
%TO.P,J5,8,DAT1*%
%TO.N,unconnected-(J5-DAT1-Pad8)*%
X161475000Y-120550000D03*
D43*
%TO.P,J5,9,DET_B*%
%TO.N,unconnected-(J5-DET_B-Pad9)*%
X162600000Y-111325000D03*
D44*
%TO.P,J5,10,DET_A*%
%TO.N,unconnected-(J5-DET_A-Pad10)*%
X151375000Y-109750000D03*
D45*
%TO.P,J5,11,SHIELD*%
%TO.N,GND*%
X162925000Y-112825000D03*
D46*
X162675000Y-120425000D03*
D47*
X151325000Y-120425000D03*
D48*
X150975000Y-112175000D03*
%TD*%
D18*
%TO.P,C16,1*%
%TO.N,GND*%
X174570000Y-103450000D03*
%TO.P,C16,2*%
%TO.N,Net-(U4-IN+3)*%
X175530000Y-103450000D03*
%TD*%
D49*
%TO.P,U14,1,TEMP*%
%TO.N,GND*%
X179575000Y-113325000D03*
%TO.P,U14,2,PROG*%
%TO.N,Net-(U14-PROG)*%
X179575000Y-113975000D03*
%TO.P,U14,3,GND*%
%TO.N,GND*%
X179575000Y-114625000D03*
%TO.P,U14,4,V_{CC}*%
%TO.N,VBUS*%
X179575000Y-115275000D03*
%TO.P,U14,5,BAT*%
%TO.N,+BATT*%
X176475000Y-115275000D03*
%TO.P,U14,6,~{STDBY}*%
%TO.N,Net-(D11-A)*%
X176475000Y-114625000D03*
%TO.P,U14,7,~{CHRG}*%
%TO.N,Net-(D10-A)*%
X176475000Y-113975000D03*
%TO.P,U14,8,CE*%
%TO.N,VBUS*%
X176475000Y-113325000D03*
D50*
%TO.P,U14,9,EPAD*%
%TO.N,GND*%
X178025000Y-114300000D03*
%TD*%
D51*
%TO.P,R48,1*%
%TO.N,+BATT*%
X177225000Y-116850000D03*
%TO.P,R48,2*%
%TO.N,Net-(U12-VCC)*%
X178875000Y-116850000D03*
%TD*%
D18*
%TO.P,C48,1*%
%TO.N,GND*%
X162030000Y-107770000D03*
%TO.P,C48,2*%
%TO.N,+3.3V*%
X162990000Y-107770000D03*
%TD*%
%TO.P,C40,1*%
%TO.N,GND*%
X148570000Y-120100000D03*
%TO.P,C40,2*%
%TO.N,+3.3V*%
X149530000Y-120100000D03*
%TD*%
D40*
%TO.P,C3,1*%
%TO.N,VBUS*%
X169100000Y-116030000D03*
%TO.P,C3,2*%
%TO.N,GND*%
X169100000Y-115070000D03*
%TD*%
%TO.P,C1,1*%
%TO.N,GND*%
X142250000Y-115480000D03*
%TO.P,C1,2*%
%TO.N,+3.3V*%
X142250000Y-114520000D03*
%TD*%
D52*
%TO.P,Q3,1,G*%
%TO.N,Net-(Q3-G)*%
X166562500Y-111337500D03*
%TO.P,Q3,2,S*%
%TO.N,GND*%
X164662500Y-111337500D03*
%TO.P,Q3,3,D*%
%TO.N,Net-(Q3-D)*%
X165612500Y-109462500D03*
%TD*%
D53*
%TO.P,U3,1,LNA_IN*%
%TO.N,Net-(U3-LNA_IN)*%
X152900000Y-86525000D03*
%TO.P,U3,2,VDD3P3*%
%TO.N,+3.3V*%
X153300000Y-86525000D03*
%TO.P,U3,3,VDD3P3*%
X153700000Y-86525000D03*
%TO.P,U3,4,CHIP_PU*%
%TO.N,Net-(U3-CHIP_PU)*%
X154100000Y-86525000D03*
%TO.P,U3,5,GPIO0*%
%TO.N,Net-(U3-GPIO0)*%
X154500000Y-86525000D03*
%TO.P,U3,6,GPIO1*%
%TO.N,/GPS_RX*%
X154900000Y-86525000D03*
%TO.P,U3,7,GPIO2*%
%TO.N,/GPS_TX*%
X155300000Y-86525000D03*
%TO.P,U3,8,GPIO3*%
%TO.N,/SCREEN_CS*%
X155700000Y-86525000D03*
%TO.P,U3,9,GPIO4*%
%TO.N,/SCREEN_RESET*%
X156100000Y-86525000D03*
%TO.P,U3,10,GPIO5*%
%TO.N,/SCREEN_DC*%
X156500000Y-86525000D03*
%TO.P,U3,11,GPIO6*%
%TO.N,/SCREEN_CLK*%
X156900000Y-86525000D03*
%TO.P,U3,12,GPIO7*%
%TO.N,/SCREEN_MOSI*%
X157300000Y-86525000D03*
%TO.P,U3,13,GPIO8*%
%TO.N,I2C_1_SDA*%
X157700000Y-86525000D03*
%TO.P,U3,14,GPIO9*%
%TO.N,I2C_1_SCL*%
X158100000Y-86525000D03*
D54*
%TO.P,U3,15,GPIO10*%
%TO.N,I2C_2_SDA*%
X158725000Y-87150000D03*
%TO.P,U3,16,GPIO11*%
%TO.N,I2C_2_SCL*%
X158725000Y-87550000D03*
%TO.P,U3,17,GPIO12*%
%TO.N,SPI_0_MISO*%
X158725000Y-87950000D03*
%TO.P,U3,18,GPIO13*%
%TO.N,SPI_0_MOSI*%
X158725000Y-88350000D03*
%TO.P,U3,19,GPIO14*%
%TO.N,SPI_0_SCLK*%
X158725000Y-88750000D03*
%TO.P,U3,20,VDD3P3_RTC*%
%TO.N,+3.3V*%
X158725000Y-89150000D03*
%TO.P,U3,21,XTAL_32K_P*%
%TO.N,unconnected-(U3-XTAL_32K_P-Pad21)*%
X158725000Y-89550000D03*
%TO.P,U3,22,XTAL_32K_N*%
%TO.N,unconnected-(U3-XTAL_32K_N-Pad22)*%
X158725000Y-89950000D03*
%TO.P,U3,23,GPIO17*%
%TO.N,/SD_CS*%
X158725000Y-90350000D03*
%TO.P,U3,24,GPIO18*%
%TO.N,Net-(U3-GPIO18)*%
X158725000Y-90750000D03*
%TO.P,U3,25,GPIO19*%
%TO.N,/USB_D-*%
X158725000Y-91150000D03*
%TO.P,U3,26,GPIO20*%
%TO.N,/USB_D+*%
X158725000Y-91550000D03*
%TO.P,U3,27,GPIO21*%
%TO.N,/LORA_CS*%
X158725000Y-91950000D03*
%TO.P,U3,28,SPICS1*%
%TO.N,unconnected-(U3-SPICS1-Pad28)*%
X158725000Y-92350000D03*
D53*
%TO.P,U3,29,VDD_SPI*%
%TO.N,unconnected-(U3-VDD_SPI-Pad29)*%
X158100000Y-92975000D03*
%TO.P,U3,30,NC*%
%TO.N,unconnected-(U3-NC-Pad30)*%
X157700000Y-92975000D03*
%TO.P,U3,31,NC*%
%TO.N,unconnected-(U3-NC-Pad31)*%
X157300000Y-92975000D03*
%TO.P,U3,32,NC*%
%TO.N,unconnected-(U3-NC-Pad32)*%
X156900000Y-92975000D03*
%TO.P,U3,33,NC*%
%TO.N,unconnected-(U3-NC-Pad33)*%
X156500000Y-92975000D03*
%TO.P,U3,34,NC*%
%TO.N,unconnected-(U3-NC-Pad34)*%
X156100000Y-92975000D03*
%TO.P,U3,35,NC*%
%TO.N,unconnected-(U3-NC-Pad35)*%
X155700000Y-92975000D03*
%TO.P,U3,36,SPICLK_N*%
%TO.N,unconnected-(U3-SPICLK_N-Pad36)*%
X155300000Y-92975000D03*
%TO.P,U3,37,SPICLK_P*%
%TO.N,unconnected-(U3-SPICLK_P-Pad37)*%
X154900000Y-92975000D03*
%TO.P,U3,38,GPIO33*%
%TO.N,/LORA_RESET*%
X154500000Y-92975000D03*
%TO.P,U3,39,GPIO34*%
%TO.N,/EXP2_USART_RXD*%
X154100000Y-92975000D03*
%TO.P,U3,40,GPIO35*%
%TO.N,/EXP2_USART_TXD*%
X153700000Y-92975000D03*
%TO.P,U3,41,GPIO36*%
%TO.N,/EXP0_USART_RXD*%
X153300000Y-92975000D03*
%TO.P,U3,42,GPIO37*%
%TO.N,/EXP0_USART_TXD*%
X152900000Y-92975000D03*
D54*
%TO.P,U3,43,GPIO38*%
%TO.N,/EXP1_SPI_CS*%
X152275000Y-92350000D03*
%TO.P,U3,44,MTCK*%
%TO.N,unconnected-(U3-MTCK-Pad44)*%
X152275000Y-91950000D03*
%TO.P,U3,45,MTDO*%
%TO.N,unconnected-(U3-MTDO-Pad45)*%
X152275000Y-91550000D03*
%TO.P,U3,46,VDD3P3_CPU*%
%TO.N,+3.3V*%
X152275000Y-91150000D03*
%TO.P,U3,47,MTDI*%
%TO.N,unconnected-(U3-MTDI-Pad47)*%
X152275000Y-90750000D03*
%TO.P,U3,48,MTMS*%
%TO.N,unconnected-(U3-MTMS-Pad48)*%
X152275000Y-90350000D03*
%TO.P,U3,49,U0TXD*%
%TO.N,unconnected-(U3-U0TXD-Pad49)*%
X152275000Y-89950000D03*
%TO.P,U3,50,U0RXD*%
%TO.N,unconnected-(U3-U0RXD-Pad50)*%
X152275000Y-89550000D03*
%TO.P,U3,51,GPIO45*%
%TO.N,Net-(D8-A)*%
X152275000Y-89150000D03*
%TO.P,U3,52,GPIO46*%
%TO.N,Net-(D9-A)*%
X152275000Y-88750000D03*
%TO.P,U3,53,NC*%
%TO.N,unconnected-(U3-NC-Pad53)*%
X152275000Y-88350000D03*
%TO.P,U3,54,NC*%
%TO.N,unconnected-(U3-NC-Pad54)*%
X152275000Y-87950000D03*
%TO.P,U3,55,VDDA*%
%TO.N,+3.3V*%
X152275000Y-87550000D03*
%TO.P,U3,56,VDDA*%
X152275000Y-87150000D03*
D55*
%TO.P,U3,57,GND*%
%TO.N,GND*%
X155500000Y-89750000D03*
%TD*%
D18*
%TO.P,C9,1*%
%TO.N,+3.3V*%
X155370000Y-83350000D03*
%TO.P,C9,2*%
%TO.N,GND*%
X156330000Y-83350000D03*
%TD*%
D13*
%TO.P,R35,1*%
%TO.N,VCC*%
X172337500Y-105250000D03*
%TO.P,R35,2*%
%TO.N,Net-(U5-IN+1)*%
X175262500Y-105250000D03*
%TD*%
D18*
%TO.P,C6,1*%
%TO.N,Net-(U3-CHIP_PU)*%
X155370000Y-84350000D03*
%TO.P,C6,2*%
%TO.N,GND*%
X156330000Y-84350000D03*
%TD*%
%TO.P,C14,1*%
%TO.N,GND*%
X174570000Y-96600000D03*
%TO.P,C14,2*%
%TO.N,Net-(U4-IN+1)*%
X175530000Y-96600000D03*
%TD*%
D40*
%TO.P,C37,1*%
%TO.N,GND*%
X175390000Y-116780000D03*
%TO.P,C37,2*%
%TO.N,+BATT*%
X175390000Y-115820000D03*
%TD*%
D28*
%TO.P,U6,1,VIN*%
%TO.N,Net-(U4-IN+1)*%
X177087500Y-96337500D03*
%TO.P,U6,2,GND*%
%TO.N,GND*%
X177087500Y-95387500D03*
%TO.P,U6,3,ON*%
%TO.N,/EN_A1*%
X177087500Y-94437500D03*
%TO.P,U6,4,CT*%
%TO.N,Net-(U6-CT)*%
X179362500Y-94437500D03*
%TO.P,U6,5,QOD*%
%TO.N,Net-(U6-QOD)*%
X179362500Y-95387500D03*
%TO.P,U6,6,VOUT*%
%TO.N,/VOUT_A1*%
X179362500Y-96337500D03*
%TD*%
D17*
%TO.P,R27,1*%
%TO.N,+3.3V*%
X164950000Y-102040000D03*
%TO.P,R27,2*%
%TO.N,Net-(U5-WARNING)*%
X164950000Y-103060000D03*
%TD*%
D29*
%TO.P,R31,1*%
%TO.N,Net-(U5-VPU)*%
X166220000Y-107000000D03*
%TO.P,R31,2*%
%TO.N,Net-(U5-PV)*%
X165200000Y-107000000D03*
%TD*%
D34*
%TO.P,R51,1*%
%TO.N,-BATT*%
X187675000Y-113400000D03*
%TO.P,R51,2*%
%TO.N,Net-(U12-CS)*%
X187675000Y-115050000D03*
%TD*%
D18*
%TO.P,C18,1*%
%TO.N,GND*%
X174570000Y-110350000D03*
%TO.P,C18,2*%
%TO.N,Net-(U10-VIN)*%
X175530000Y-110350000D03*
%TD*%
D17*
%TO.P,R16,1*%
%TO.N,SPI_0_MISO*%
X156000000Y-94640000D03*
%TO.P,R16,2*%
%TO.N,+3.3V*%
X156000000Y-95660000D03*
%TD*%
D51*
%TO.P,R55,1*%
%TO.N,Net-(IC1-~{ALRT})*%
X175525000Y-111650000D03*
%TO.P,R55,2*%
%TO.N,+BATT*%
X177175000Y-111650000D03*
%TD*%
D18*
%TO.P,C24,1*%
%TO.N,/Power Supply Unit/OBC_BATT*%
X168020000Y-109950000D03*
%TO.P,C24,2*%
%TO.N,GND*%
X168980000Y-109950000D03*
%TD*%
D56*
%TO.P,U16,1,GND*%
%TO.N,GND*%
X161750000Y-92375000D03*
%TO.P,U16,2,MISO*%
%TO.N,SPI_0_MISO*%
X161750000Y-90375000D03*
%TO.P,U16,3,MOSI*%
%TO.N,SPI_0_MOSI*%
X161750000Y-88375000D03*
%TO.P,U16,4,SCK*%
%TO.N,SPI_0_SCLK*%
X161750000Y-86375000D03*
%TO.P,U16,5,NSS*%
%TO.N,/LORA_CS*%
X161750000Y-84375000D03*
%TO.P,U16,6,RESET*%
%TO.N,/LORA_RESET*%
X161750000Y-82375000D03*
%TO.P,U16,7,DIO5*%
%TO.N,unconnected-(U16-DIO5-Pad7)*%
X161750000Y-80375000D03*
%TO.P,U16,8,GND*%
%TO.N,GND*%
X161750000Y-78375000D03*
%TO.P,U16,9,ANT*%
%TO.N,Net-(J6-In)*%
X176800000Y-78375000D03*
%TO.P,U16,10,GND*%
%TO.N,GND*%
X176800000Y-80375000D03*
%TO.P,U16,11,DIO3*%
%TO.N,unconnected-(U16-DIO3-Pad11)*%
X176800000Y-82375000D03*
%TO.P,U16,12,DIO4*%
%TO.N,unconnected-(U16-DIO4-Pad12)*%
X176800000Y-84375000D03*
%TO.P,U16,13,3.3V*%
%TO.N,+3.3V*%
X176800000Y-86375000D03*
%TO.P,U16,14,DIO0*%
%TO.N,unconnected-(U16-DIO0-Pad14)*%
X176800000Y-88375000D03*
%TO.P,U16,15,DIO1*%
%TO.N,unconnected-(U16-DIO1-Pad15)*%
X176800000Y-90375000D03*
%TO.P,U16,16,DIO2*%
%TO.N,unconnected-(U16-DIO2-Pad16)*%
X176800000Y-92375000D03*
%TD*%
D13*
%TO.P,R33,1*%
%TO.N,VCC*%
X172375000Y-98450000D03*
%TO.P,R33,2*%
%TO.N,Net-(U4-IN+2)*%
X175300000Y-98450000D03*
%TD*%
D57*
%TO.P,U1,1,GPB4*%
%TO.N,/PB5*%
X148300000Y-117650000D03*
%TO.P,U1,2,GPB5*%
%TO.N,Net-(D2-A)*%
X147650000Y-117650000D03*
%TO.P,U1,3,GPB6*%
%TO.N,Net-(D4-A)*%
X147000000Y-117650000D03*
%TO.P,U1,4,GPB7*%
%TO.N,Net-(D3-A)*%
X146350000Y-117650000D03*
%TO.P,U1,5,VDD*%
%TO.N,+3.3V*%
X145700000Y-117650000D03*
%TO.P,U1,6,VSS*%
%TO.N,GND*%
X145050000Y-117650000D03*
%TO.P,U1,7,NC*%
%TO.N,unconnected-(U1-NC-Pad7)*%
X144400000Y-117650000D03*
D58*
%TO.P,U1,8,SCK*%
%TO.N,I2C_1_SCL*%
X143512500Y-116762500D03*
%TO.P,U1,9,SDA*%
%TO.N,I2C_1_SDA*%
X143512500Y-116112500D03*
%TO.P,U1,10,NC*%
%TO.N,unconnected-(U1-NC-Pad10)*%
X143512500Y-115462500D03*
%TO.P,U1,11,A0*%
%TO.N,GND*%
X143512500Y-114812500D03*
%TO.P,U1,12,A1*%
X143512500Y-114162500D03*
%TO.P,U1,13,A2*%
X143512500Y-113512500D03*
%TO.P,U1,14,~{RESET}*%
%TO.N,Net-(U1-~{RESET})*%
X143512500Y-112862500D03*
D57*
%TO.P,U1,15,INTB*%
%TO.N,Net-(U1-INTB)*%
X144400000Y-111975000D03*
%TO.P,U1,16,INTA*%
%TO.N,Net-(U1-INTA)*%
X145050000Y-111975000D03*
%TO.P,U1,17,GPA0*%
%TO.N,/EN_A1*%
X145700000Y-111975000D03*
%TO.P,U1,18,GPA1*%
%TO.N,/EN_A2*%
X146350000Y-111975000D03*
%TO.P,U1,19,GPA2*%
%TO.N,/EN_A3*%
X147000000Y-111975000D03*
%TO.P,U1,20,GPA3*%
%TO.N,/EN_B1*%
X147650000Y-111975000D03*
%TO.P,U1,21,GPA4*%
%TO.N,/EN_B2*%
X148300000Y-111975000D03*
D58*
%TO.P,U1,22,GPA5*%
%TO.N,Net-(D7-A)*%
X149187500Y-112862500D03*
%TO.P,U1,23,GPA6*%
%TO.N,Net-(D6-A)*%
X149187500Y-113512500D03*
%TO.P,U1,24,GPA7*%
%TO.N,Net-(D5-A)*%
X149187500Y-114162500D03*
%TO.P,U1,25,GPB0*%
%TO.N,/PB1*%
X149187500Y-114812500D03*
%TO.P,U1,26,GPB1*%
%TO.N,/PB2*%
X149187500Y-115462500D03*
%TO.P,U1,27,GPB2*%
%TO.N,/PB3*%
X149187500Y-116112500D03*
%TO.P,U1,28,GPB3*%
%TO.N,/PB4*%
X149187500Y-116762500D03*
D59*
%TO.P,U1,29,EP*%
%TO.N,GND*%
X146350000Y-114812500D03*
%TD*%
D26*
%TO.P,R2,1*%
%TO.N,+3.3V*%
X141290000Y-111700000D03*
%TO.P,R2,2*%
%TO.N,Net-(U1-INTA)*%
X142310000Y-111700000D03*
%TD*%
D60*
%TO.P,R54,1*%
%TO.N,GND*%
X173375000Y-110650000D03*
%TO.P,R54,2*%
%TO.N,Net-(IC1-QSTRT)*%
X171725000Y-110650000D03*
%TD*%
D15*
%TO.P,C32,1*%
%TO.N,Net-(U12-VCC)*%
X179125000Y-120090000D03*
%TO.P,C32,2*%
%TO.N,GND*%
X179125000Y-121050000D03*
%TD*%
D26*
%TO.P,R3,1*%
%TO.N,+3.3V*%
X141290000Y-113600000D03*
%TO.P,R3,2*%
%TO.N,Net-(U1-~{RESET})*%
X142310000Y-113600000D03*
%TD*%
D33*
%TO.P,C13,1*%
%TO.N,+3.3V*%
X151280000Y-91150000D03*
%TO.P,C13,2*%
%TO.N,GND*%
X150320000Y-91150000D03*
%TD*%
D15*
%TO.P,C34,1*%
%TO.N,/Power Supply Unit/OBC_BATT*%
X164600000Y-118020000D03*
%TO.P,C34,2*%
%TO.N,GND*%
X164600000Y-118980000D03*
%TD*%
D28*
%TO.P,U8,1,VIN*%
%TO.N,Net-(U4-IN+3)*%
X177062500Y-103187500D03*
%TO.P,U8,2,GND*%
%TO.N,GND*%
X177062500Y-102237500D03*
%TO.P,U8,3,ON*%
%TO.N,/EN_A3*%
X177062500Y-101287500D03*
%TO.P,U8,4,CT*%
%TO.N,Net-(U8-CT)*%
X179337500Y-101287500D03*
%TO.P,U8,5,QOD*%
%TO.N,Net-(U8-QOD)*%
X179337500Y-102237500D03*
%TO.P,U8,6,VOUT*%
%TO.N,/VOUT_A3*%
X179337500Y-103187500D03*
%TD*%
%TO.P,U7,1,VIN*%
%TO.N,Net-(U4-IN+2)*%
X177087500Y-99787500D03*
%TO.P,U7,2,GND*%
%TO.N,GND*%
X177087500Y-98837500D03*
%TO.P,U7,3,ON*%
%TO.N,/EN_A2*%
X177087500Y-97887500D03*
%TO.P,U7,4,CT*%
%TO.N,Net-(U7-CT)*%
X179362500Y-97887500D03*
%TO.P,U7,5,QOD*%
%TO.N,Net-(U7-QOD)*%
X179362500Y-98837500D03*
%TO.P,U7,6,VOUT*%
%TO.N,/VOUT_A2*%
X179362500Y-99787500D03*
%TD*%
D18*
%TO.P,C42,1*%
%TO.N,GND*%
X148570000Y-121050000D03*
%TO.P,C42,2*%
%TO.N,+3.3V*%
X149530000Y-121050000D03*
%TD*%
D17*
%TO.P,R15,1*%
%TO.N,I2C_1_SCL*%
X155000000Y-94640000D03*
%TO.P,R15,2*%
%TO.N,+3.3V*%
X155000000Y-95660000D03*
%TD*%
D61*
%TO.P,U2,1,I/O1*%
%TO.N,Net-(J1-D--PadA7)*%
X172260000Y-116425000D03*
D62*
%TO.P,U2,2,GND*%
%TO.N,GND*%
X171722500Y-116500000D03*
D61*
%TO.P,U2,3,I/O2*%
%TO.N,Net-(J1-D+-PadA6)*%
X171185000Y-116425000D03*
%TO.P,U2,4,I/O2*%
%TO.N,/USB_D+*%
X171185000Y-114725000D03*
D62*
%TO.P,U2,5,VBUS*%
%TO.N,VBUS*%
X171722500Y-114650000D03*
D61*
%TO.P,U2,6,I/O1*%
%TO.N,/USB_D-*%
X172260000Y-114725000D03*
%TD*%
D15*
%TO.P,C10,1*%
%TO.N,+3.3V*%
X150200000Y-87220000D03*
%TO.P,C10,2*%
%TO.N,GND*%
X150200000Y-88180000D03*
%TD*%
D17*
%TO.P,R25,1*%
%TO.N,+3.3V*%
X170800000Y-101400000D03*
%TO.P,R25,2*%
%TO.N,Net-(U5-TC)*%
X170800000Y-102420000D03*
%TD*%
D29*
%TO.P,R30,1*%
%TO.N,Net-(U4-VPU)*%
X166120000Y-100050000D03*
%TO.P,R30,2*%
%TO.N,Net-(U4-PV)*%
X165100000Y-100050000D03*
%TD*%
D18*
%TO.P,C15,1*%
%TO.N,GND*%
X174590000Y-100050000D03*
%TO.P,C15,2*%
%TO.N,Net-(U4-IN+2)*%
X175550000Y-100050000D03*
%TD*%
D26*
%TO.P,R1,1*%
%TO.N,+3.3V*%
X141290000Y-112650000D03*
%TO.P,R1,2*%
%TO.N,Net-(U1-INTB)*%
X142310000Y-112650000D03*
%TD*%
D35*
%TO.P,J3,1,Pin_1*%
%TO.N,/VOUT_A1*%
X187280000Y-91696938D03*
%TO.P,J3,2,Pin_2*%
X183110000Y-91696938D03*
%TO.P,J3,3,Pin_3*%
%TO.N,/VOUT_A2*%
X187280000Y-93696938D03*
%TO.P,J3,4,Pin_4*%
X183110000Y-93696938D03*
%TO.P,J3,5,Pin_5*%
%TO.N,/VOUT_A3*%
X187280000Y-95696938D03*
%TO.P,J3,6,Pin_6*%
X183110000Y-95696938D03*
%TO.P,J3,7,Pin_7*%
%TO.N,/VOUT_B1*%
X187280000Y-97696938D03*
%TO.P,J3,8,Pin_8*%
X183110000Y-97696938D03*
%TO.P,J3,9,Pin_9*%
%TO.N,/VOUT_B2*%
X187280000Y-99696938D03*
%TO.P,J3,10,Pin_10*%
X183110000Y-99696938D03*
%TO.P,J3,11,Pin_11*%
%TO.N,unconnected-(J3-Pin_11-Pad11)*%
X187280000Y-101696938D03*
%TO.P,J3,12,Pin_12*%
%TO.N,unconnected-(J3-Pin_12-Pad12)*%
X183110000Y-101696938D03*
%TO.P,J3,13,Pin_13*%
%TO.N,GND*%
X187280000Y-103696938D03*
%TO.P,J3,14,Pin_14*%
X183110000Y-103696938D03*
%TO.P,J3,15,Pin_15*%
X187280000Y-105696938D03*
%TO.P,J3,16,Pin_16*%
X183110000Y-105696938D03*
%TO.P,J3,17,Pin_17*%
%TO.N,+BATT*%
X187280000Y-107696938D03*
%TO.P,J3,18,Pin_18*%
X183110000Y-107696938D03*
%TO.P,J3,19,Pin_19*%
%TO.N,-BATT*%
X187280000Y-109696938D03*
%TO.P,J3,20,Pin_20*%
X183110000Y-109696938D03*
%TD*%
D15*
%TO.P,C4,1*%
%TO.N,GND*%
X168150000Y-115070000D03*
%TO.P,C4,2*%
%TO.N,VBUS*%
X168150000Y-116030000D03*
%TD*%
D18*
%TO.P,C8,1*%
%TO.N,+3.3V*%
X155370000Y-82350000D03*
%TO.P,C8,2*%
%TO.N,GND*%
X156330000Y-82350000D03*
%TD*%
D63*
%TO.N,*%
X158750000Y-93050000D03*
D64*
%TO.N,VBUS*%
X145007584Y-109111001D03*
X170610000Y-119350000D03*
%TO.N,GND*%
X173400000Y-110650000D03*
D65*
X164490000Y-123950000D03*
D64*
X168750000Y-104900000D03*
X167450000Y-104250000D03*
X184200001Y-113662500D03*
X167450000Y-103600000D03*
X169037500Y-111362500D03*
X178375000Y-114375000D03*
X183390000Y-80300000D03*
D66*
X167900000Y-79250000D03*
X146890000Y-97696938D03*
D64*
X143700000Y-82560000D03*
X154100000Y-91250000D03*
X183390000Y-81053333D03*
D67*
X165600000Y-78520000D03*
D64*
X154100000Y-90050000D03*
D67*
X169980000Y-91250000D03*
D64*
X178375000Y-113575000D03*
D67*
X180700000Y-116305000D03*
X174540554Y-106900000D03*
D64*
X185600000Y-105700000D03*
X181000000Y-122930000D03*
X145910000Y-106680000D03*
X175400000Y-117895500D03*
X168000000Y-98000000D03*
D67*
X163070000Y-124520000D03*
D66*
X146890000Y-99696938D03*
D64*
X154100000Y-89450000D03*
D67*
X173910000Y-94960000D03*
D64*
X167350000Y-98000000D03*
X159275000Y-120550000D03*
D67*
X172320000Y-122960000D03*
D64*
X168750000Y-103600000D03*
D67*
X159280000Y-124260000D03*
X161200000Y-112720000D03*
D64*
X183080000Y-100670000D03*
D67*
X142250000Y-115480000D03*
D64*
X154100000Y-90650000D03*
X153120000Y-80250000D03*
X168000000Y-96700000D03*
X155500000Y-90050000D03*
D67*
X175340000Y-121060000D03*
D64*
X150018252Y-85900001D03*
X180800000Y-80470000D03*
X170812500Y-78647500D03*
D67*
X171920000Y-91690000D03*
D64*
X154200000Y-78640000D03*
D67*
X184010000Y-112060000D03*
X179124412Y-121048501D03*
X174570235Y-96600055D03*
D64*
X156900000Y-88850000D03*
X149400000Y-82300000D03*
D66*
X166950000Y-89750000D03*
D67*
X174530000Y-83670000D03*
D68*
X162950000Y-112850000D03*
D67*
X155450000Y-110590000D03*
D64*
X177200047Y-118441601D03*
D67*
X179460000Y-111930000D03*
D64*
X168650000Y-97350000D03*
D67*
X153790000Y-113020000D03*
X172170000Y-86950000D03*
X156560000Y-77140000D03*
D64*
X147390000Y-78810000D03*
D66*
X144580000Y-106860000D03*
D64*
X181078000Y-78030000D03*
D67*
X171530000Y-83820000D03*
D64*
X168650000Y-98000000D03*
D69*
X174550000Y-114150000D03*
D64*
X154600000Y-110360000D03*
X163730000Y-118370000D03*
D66*
X173175000Y-112750000D03*
D67*
X152240000Y-99590000D03*
D64*
X144240000Y-87410000D03*
X147810000Y-106710000D03*
X178960000Y-77430000D03*
D67*
X168980271Y-109957334D03*
D64*
X157124000Y-83350000D03*
D67*
X164530000Y-80680000D03*
D64*
X181350000Y-81110000D03*
X183900000Y-102800000D03*
X177096252Y-105650000D03*
X167250000Y-118450000D03*
X156200000Y-90050000D03*
X177900000Y-122650000D03*
X168650000Y-96700000D03*
D67*
X156970000Y-106900000D03*
D64*
X183390000Y-81806667D03*
X161200000Y-105050000D03*
D67*
X158220000Y-112550000D03*
D66*
X167900000Y-89750000D03*
D64*
X177200047Y-122641601D03*
X154800000Y-88850000D03*
X184800000Y-105700000D03*
X154800000Y-88250000D03*
X145060000Y-94470000D03*
D67*
X175800000Y-81315000D03*
D64*
X154800000Y-91250000D03*
D67*
X159812500Y-76252500D03*
X148570000Y-121050000D03*
D64*
X156900000Y-91250000D03*
D66*
X166900000Y-79250000D03*
D64*
X179700000Y-79340000D03*
X182812000Y-79680000D03*
X181350000Y-81820000D03*
X156900000Y-90050000D03*
D67*
X183790000Y-106720000D03*
D64*
X189180000Y-108590000D03*
D67*
X173790000Y-101790000D03*
X157302500Y-80302500D03*
D65*
X170047500Y-115065000D03*
D67*
X169610000Y-82030000D03*
D64*
X161280351Y-101584857D03*
X156200000Y-91250000D03*
X156900000Y-88250000D03*
X168100000Y-104900000D03*
X184150000Y-98650000D03*
X146290000Y-89250000D03*
D67*
X144870000Y-118950000D03*
X173810000Y-98290000D03*
D64*
X184130000Y-96710000D03*
X156900000Y-89450000D03*
X147160000Y-84830000D03*
X177096252Y-98836509D03*
X177096252Y-95387473D03*
X178375000Y-115125000D03*
D66*
X161750000Y-92375000D03*
D67*
X174589805Y-100044436D03*
D64*
X177625000Y-114350000D03*
D67*
X169920000Y-79920000D03*
D64*
X168000000Y-97350000D03*
X155500000Y-91250000D03*
X181350000Y-82560000D03*
D67*
X151320000Y-123620000D03*
D64*
X143410000Y-90500000D03*
D63*
X173852794Y-115530176D03*
D64*
X156200000Y-88850000D03*
X165654017Y-116293309D03*
X156900000Y-90650000D03*
X177096252Y-109050000D03*
X154100000Y-88850000D03*
X156200000Y-88250000D03*
D67*
X174570825Y-103451686D03*
D63*
X151200000Y-88380000D03*
D67*
X174570739Y-110350000D03*
D64*
X180250000Y-79880000D03*
X154800000Y-90650000D03*
X177096252Y-102237500D03*
X166550047Y-118450000D03*
X164661500Y-110976000D03*
X168100000Y-103600000D03*
X189180000Y-93150000D03*
X141710000Y-87100000D03*
X185350000Y-110496938D03*
X167450000Y-104900000D03*
X184800000Y-103700000D03*
D67*
X182660000Y-114200000D03*
D64*
X177900000Y-118450000D03*
X154100000Y-88250000D03*
X171722500Y-115872500D03*
X156200000Y-90650000D03*
D67*
X171020000Y-81430000D03*
D66*
X162446367Y-78377995D03*
D64*
X182234000Y-79120000D03*
D67*
X172470000Y-88770000D03*
D64*
X184080000Y-94730000D03*
X177650000Y-113575000D03*
D67*
X148570000Y-120100000D03*
D64*
X154800000Y-90050000D03*
X178960000Y-79340000D03*
X180500000Y-77560000D03*
D67*
X154770000Y-123490000D03*
D64*
X168750000Y-104250000D03*
X185600000Y-103700000D03*
X179700000Y-77440000D03*
X164600000Y-83060000D03*
X180600000Y-119095002D03*
X155500000Y-88850000D03*
X181656000Y-78530000D03*
X155500000Y-89450000D03*
X189200000Y-101010000D03*
X183390000Y-82560000D03*
D67*
X175390000Y-116780000D03*
X167760000Y-93160000D03*
D64*
X155500000Y-88250000D03*
X155500000Y-90650000D03*
X167350000Y-97350000D03*
X169000000Y-117895500D03*
X167350000Y-96700000D03*
D67*
X169460000Y-89020000D03*
D68*
X151325000Y-120425000D03*
D67*
X173770000Y-105320000D03*
X169960000Y-121760000D03*
D66*
X161096367Y-78377995D03*
D67*
X183130000Y-110850000D03*
D64*
X168100000Y-104250000D03*
X156200000Y-89450000D03*
X154800000Y-89450000D03*
X177650000Y-115075000D03*
X158270000Y-118440000D03*
D65*
%TO.N,/SD_CS*%
X158070000Y-90370000D03*
D64*
X152863302Y-111438168D03*
X154880000Y-120610000D03*
X163375000Y-89360000D03*
D65*
%TO.N,+3.3V*%
X165740000Y-94200000D03*
D67*
X173130000Y-86950000D03*
D66*
X151850000Y-77750000D03*
D64*
X168120000Y-120540000D03*
D67*
X145830000Y-118950000D03*
D64*
X161800000Y-109980000D03*
D66*
X150950000Y-77750000D03*
D64*
X167449000Y-100250000D03*
X169037500Y-113637500D03*
X163120000Y-115840000D03*
X166010000Y-106050000D03*
D67*
X158852500Y-76252500D03*
D65*
X165839292Y-101151344D03*
X164848609Y-95089274D03*
D64*
X163000000Y-106910000D03*
X157090000Y-121860000D03*
X166875000Y-109525000D03*
D63*
X153000000Y-95660000D03*
D65*
X170800000Y-101400000D03*
D67*
X149530000Y-120100000D03*
D63*
X154450000Y-83390000D03*
D64*
X155410000Y-104530000D03*
D65*
X164955058Y-102036762D03*
D67*
X141290000Y-113600000D03*
X179109545Y-86401345D03*
D64*
X150870000Y-95360000D03*
X149300000Y-87300000D03*
D67*
X158262500Y-80302500D03*
D65*
X170710000Y-94410000D03*
D67*
X149530000Y-121050000D03*
D65*
X158070000Y-89630000D03*
D64*
X179743403Y-91595938D03*
D67*
X142250000Y-114520000D03*
%TO.N,+BATT*%
X175390000Y-115820000D03*
D64*
X177250000Y-116850000D03*
D70*
X187280000Y-107696938D03*
D67*
X175350000Y-112870000D03*
D66*
%TO.N,VCC*%
X172400000Y-95000000D03*
X172400000Y-98500000D03*
D64*
X168400000Y-100650000D03*
X168550000Y-94200000D03*
D66*
X172400000Y-101850000D03*
X172400000Y-108700000D03*
X170650000Y-108350000D03*
D64*
X172350000Y-96624000D03*
D66*
X172400000Y-105200000D03*
D64*
%TO.N,/USB_D+*%
X170994824Y-115690861D03*
D65*
X158077877Y-91776196D03*
D64*
%TO.N,/USB_D-*%
X172940000Y-115920000D03*
D65*
X158075284Y-91063678D03*
D64*
%TO.N,/LORA_RESET*%
X154820000Y-92289997D03*
D66*
X161750000Y-82400000D03*
D64*
%TO.N,/VOUT_A1*%
X179362500Y-96337500D03*
D66*
X183110000Y-91696938D03*
D64*
%TO.N,Net-(U8-CT)*%
X179337500Y-101287500D03*
%TO.N,Net-(U8-QOD)*%
X179337500Y-102237500D03*
%TO.N,I2C_1_SDA*%
X153645025Y-99045025D03*
X154634975Y-100034975D03*
X165162500Y-103937500D03*
X164475000Y-96990000D03*
X154060000Y-109350000D03*
D63*
X154000000Y-94640000D03*
D64*
X142310000Y-116250000D03*
X172620000Y-111350000D03*
X144300000Y-92450000D03*
X153650000Y-97440000D03*
X158430000Y-103830000D03*
X157398903Y-81301097D03*
%TO.N,Net-(IC1-QSTRT)*%
X171700000Y-110650000D03*
X171150000Y-113000000D03*
%TO.N,/VOUT_A2*%
X179362500Y-99787500D03*
D66*
X184000000Y-93650000D03*
D64*
%TO.N,/VOUT_A3*%
X179337500Y-103187500D03*
%TO.N,I2C_1_SCL*%
X145050000Y-90450000D03*
X158814791Y-81304615D03*
X156800000Y-100500000D03*
X165181447Y-104687263D03*
X143630000Y-117480000D03*
X171080000Y-112110000D03*
X157550000Y-76500000D03*
X154543413Y-97533413D03*
X157940000Y-104680000D03*
X164475000Y-97740003D03*
D63*
X155000000Y-94640000D03*
D64*
%TO.N,Net-(IC1-~{ALRT})*%
X175525000Y-111650000D03*
X171200000Y-113800000D03*
%TO.N,/VOUT_B1*%
X179337500Y-106600000D03*
%TO.N,/VOUT_B2*%
X179337500Y-110000000D03*
%TO.N,Net-(D4-A)*%
X147015735Y-119885735D03*
X140960000Y-101710000D03*
X140970000Y-114790000D03*
%TO.N,Net-(D5-A)*%
X149998000Y-114154050D03*
%TO.N,Net-(D6-A)*%
X148170000Y-104740000D03*
X140979998Y-97568632D03*
%TO.N,Net-(D7-A)*%
X140870000Y-95480000D03*
%TO.N,Net-(D8-A)*%
X147050000Y-89690000D03*
%TO.N,Net-(D9-A)*%
X140880000Y-91330000D03*
%TO.N,Net-(U3-GPIO18)*%
X159555471Y-89325000D03*
%TO.N,/GPS_RX*%
X155250000Y-85200000D03*
D65*
X148050000Y-88140000D03*
D67*
%TO.N,/GPS_TX*%
X153100000Y-87290000D03*
D65*
X149000000Y-88140000D03*
D64*
%TO.N,/SCREEN_RESET*%
X155834866Y-87299998D03*
X158950000Y-94655204D03*
%TO.N,/SCREEN_MOSI*%
X158988825Y-82970666D03*
X157125000Y-84187500D03*
%TO.N,/SCREEN_DC*%
X160299997Y-98632195D03*
X156496610Y-85755593D03*
X163950000Y-90600000D03*
X158675000Y-84949110D03*
%TO.N,/SCREEN_CLK*%
X161050000Y-98632195D03*
X156900000Y-87150000D03*
X162124508Y-95128000D03*
X160240065Y-81375001D03*
%TO.N,/SCREEN_CS*%
X160900000Y-100850000D03*
X163150000Y-95128000D03*
X163865409Y-78515409D03*
X155746921Y-85777256D03*
%TO.N,Net-(D11-A)*%
X141681666Y-110986724D03*
X175677138Y-115101741D03*
%TO.N,/EXP2_USART_RXD*%
X153710000Y-92220000D03*
X151210000Y-92201000D03*
X146970000Y-103670000D03*
X141860000Y-90036020D03*
%TO.N,/EXP1_SPI_CS*%
X147910000Y-94646940D03*
X148212414Y-92748106D03*
D63*
%TO.N,I2C_2_SCL*%
X148596938Y-93696938D03*
D64*
X159600000Y-87550000D03*
X161940000Y-93460000D03*
D63*
X152000000Y-94640000D03*
D64*
%TO.N,I2C_2_SDA*%
X159600000Y-86700000D03*
X146890000Y-91696938D03*
D63*
X153000000Y-94640000D03*
D64*
%TO.N,SPI_0_SCLK*%
X143571531Y-100548469D03*
X157150000Y-118600000D03*
D63*
X158000000Y-94640000D03*
D67*
X158101594Y-88672353D03*
D66*
X161750000Y-86350000D03*
D64*
%TO.N,SPI_0_MOSI*%
X145650000Y-98746936D03*
X149100000Y-105800000D03*
D63*
X157000000Y-94640000D03*
D64*
X158999475Y-93714729D03*
X154250000Y-118300000D03*
X159810491Y-91186999D03*
X149700000Y-103700000D03*
%TO.N,SPI_0_MISO*%
X144550000Y-96500000D03*
X160375000Y-120550000D03*
D66*
X161750000Y-90450000D03*
D63*
X156000000Y-94640000D03*
D64*
X158132267Y-87948000D03*
%TO.N,/EN_B1*%
X177062500Y-104700000D03*
X148119195Y-110862063D03*
%TO.N,/EN_A1*%
X177087500Y-94437500D03*
X145650000Y-110900000D03*
%TO.N,/EN_A2*%
X177087500Y-97887500D03*
X146391562Y-110787797D03*
%TO.N,/EN_A3*%
X177062500Y-101287500D03*
X147180302Y-110880302D03*
%TO.N,/EN_B2*%
X148925956Y-110975956D03*
X177062500Y-108100000D03*
%TO.N,Net-(D3-A)*%
X146010000Y-119840000D03*
X140960000Y-103780000D03*
D67*
%TO.N,+3V0*%
X157930000Y-106890000D03*
D64*
X167558736Y-112657321D03*
D63*
%TO.N,Net-(U3-CHIP_PU)*%
X154450000Y-84410000D03*
D67*
X156560000Y-78100000D03*
D66*
X175800000Y-77041000D03*
D64*
%TO.N,Net-(U4-IN+1)*%
X183000000Y-92700000D03*
X177096252Y-96337500D03*
%TO.N,Net-(U4-IN+2)*%
X177096252Y-99787500D03*
X183090000Y-96700000D03*
%TO.N,Net-(U4-IN+3)*%
X184100000Y-100690000D03*
X177096252Y-103187500D03*
%TO.N,Net-(U5-IN+1)*%
X177096252Y-106600000D03*
X183200000Y-104746936D03*
X171400000Y-103600000D03*
X169100000Y-101300000D03*
%TO.N,Net-(U10-VIN)*%
X177096252Y-110000000D03*
X183450000Y-108746936D03*
D71*
%TO.N,Net-(Q3-D)*%
X165630000Y-109540000D03*
X153900000Y-106125000D03*
D64*
%TO.N,/PB1*%
X151550000Y-113900000D03*
D67*
%TO.N,Net-(D10-A)*%
X175225000Y-114535000D03*
D64*
X140951000Y-110081857D03*
%TO.N,/PB3*%
X157625000Y-117025000D03*
%TO.N,/PB5*%
X163125000Y-117025000D03*
%TO.N,/PB2*%
X152264134Y-112880000D03*
%TO.N,/PB4*%
X150850000Y-116800000D03*
%TO.N,Net-(U3-GPIO0)*%
X174300000Y-91650000D03*
X154308451Y-85167963D03*
D65*
%TO.N,Net-(U4-VPU)*%
X166120000Y-100050000D03*
D64*
X170800000Y-98300000D03*
%TO.N,Net-(U4-PV)*%
X167650000Y-94250000D03*
D65*
X165100000Y-100050000D03*
D64*
%TO.N,Net-(U5-VPU)*%
X169950000Y-106050000D03*
D65*
X166220000Y-107000000D03*
%TO.N,Net-(U5-PV)*%
X165200000Y-107000000D03*
D64*
X167750000Y-101525569D03*
%TO.N,Net-(U6-CT)*%
X179362500Y-94437500D03*
%TO.N,Net-(U6-QOD)*%
X179362500Y-95387500D03*
%TO.N,Net-(U7-CT)*%
X179362500Y-97887500D03*
%TO.N,Net-(U7-QOD)*%
X179362500Y-98837500D03*
%TO.N,Net-(U9-CT)*%
X179337500Y-104700000D03*
%TO.N,Net-(U9-QOD)*%
X179337500Y-105650000D03*
%TO.N,Net-(U10-QOD)*%
X179337500Y-109050000D03*
%TO.N,Net-(U10-CT)*%
X179337500Y-108100000D03*
%TO.N,Net-(U12-CS)*%
X186050000Y-119600000D03*
X184016111Y-119597150D03*
%TO.N,Net-(D2-A)*%
X140950000Y-105900000D03*
%TD*%
D72*
%TO.N,VBUS*%
X171950000Y-113950000D02*
X173490000Y-113950000D01*
D73*
X180270306Y-112444000D02*
X181029694Y-112444000D01*
D74*
X169800000Y-118547658D02*
X169800000Y-117895500D01*
D72*
X169100000Y-116543500D02*
X169100000Y-116030000D01*
D73*
X181296000Y-114749000D02*
X180700000Y-115345000D01*
D72*
X174600000Y-115060000D02*
X174600000Y-117895500D01*
D73*
X174366994Y-119414980D02*
X174366994Y-118709954D01*
D72*
X173490000Y-113950000D02*
X174600000Y-115060000D01*
D74*
X170602342Y-119350000D02*
X169800000Y-118547658D01*
D73*
X179575000Y-115275000D02*
X180630000Y-115275000D01*
X177014000Y-115826000D02*
X176056000Y-116784000D01*
X179024000Y-115826000D02*
X179575000Y-115275000D01*
X176475000Y-113325000D02*
X177089694Y-112710306D01*
X176056000Y-119171986D02*
X175389480Y-119838506D01*
D72*
X169800000Y-117895500D02*
X169800000Y-117243500D01*
D73*
X181029694Y-112444000D02*
X181296000Y-112710306D01*
X181296000Y-112710306D02*
X181296000Y-114749000D01*
D74*
X173726948Y-119350000D02*
X170610000Y-119350000D01*
D73*
X176056000Y-116784000D02*
X176056000Y-119171986D01*
X174366994Y-118709954D02*
X174600000Y-118476948D01*
X180630000Y-115275000D02*
X180700000Y-115345000D01*
X177089694Y-112710306D02*
X180004000Y-112710306D01*
X177014000Y-115826000D02*
X179024000Y-115826000D01*
X175389480Y-119838506D02*
X174790520Y-119838506D01*
D74*
X170610000Y-119350000D02*
X170602342Y-119350000D01*
D73*
X180004000Y-112710306D02*
X180270306Y-112444000D01*
X174790520Y-119838506D02*
X174366994Y-119414980D01*
X174600000Y-118476948D02*
X174600000Y-117895500D01*
D72*
X171722500Y-114650000D02*
X171722500Y-114177500D01*
X171722500Y-114177500D02*
X171950000Y-113950000D01*
X169100000Y-116030000D02*
X168150000Y-116030000D01*
D74*
X174600000Y-118476948D02*
X173726948Y-119350000D01*
D72*
X169800000Y-117243500D02*
X169100000Y-116543500D01*
D75*
%TO.N,Net-(J1-D+-PadA6)*%
X172399000Y-117094500D02*
X171528888Y-117094500D01*
X171185000Y-116750612D02*
X171185000Y-116425000D01*
X172450000Y-117895500D02*
X172450000Y-117145500D01*
X171450000Y-117895500D02*
X171450000Y-117173388D01*
X171528888Y-117094500D02*
X171185000Y-116750612D01*
X171450000Y-117173388D02*
X171528888Y-117094500D01*
X172450000Y-117145500D02*
X172399000Y-117094500D01*
D76*
%TO.N,GND*%
X175350000Y-113830000D02*
X174870000Y-113830000D01*
D74*
X164490000Y-123950000D02*
X165570500Y-123950000D01*
D73*
X157557500Y-80047500D02*
X157302500Y-80302500D01*
X177900000Y-113325000D02*
X177650000Y-113575000D01*
D74*
X162912500Y-101579000D02*
X161286208Y-101579000D01*
D76*
X179100000Y-88530000D02*
X179800000Y-89230000D01*
D74*
X161229000Y-105079000D02*
X161200000Y-105050000D01*
D73*
X157557500Y-79277500D02*
X157557500Y-80047500D01*
X179575000Y-113325000D02*
X177900000Y-113325000D01*
D72*
X173650000Y-112000000D02*
X174175000Y-112000000D01*
X156080000Y-106900000D02*
X156080000Y-107870000D01*
D76*
X168155000Y-115065000D02*
X168150000Y-115070000D01*
X146890000Y-107696938D02*
X146890000Y-107630000D01*
D74*
X150018252Y-85900001D02*
X150018252Y-85301748D01*
X150400000Y-88380000D02*
X151200000Y-88380000D01*
D73*
X167750000Y-106125000D02*
X167750000Y-104587500D01*
D72*
X171722500Y-115872500D02*
X171722500Y-116500000D01*
X173175000Y-112475000D02*
X173650000Y-112000000D01*
X150179000Y-90291000D02*
X150320000Y-90150000D01*
D74*
X176740000Y-80375000D02*
X176800000Y-80375000D01*
D72*
X173175000Y-112750000D02*
X173175000Y-112475000D01*
D76*
X170047500Y-115065000D02*
X168155000Y-115065000D01*
X142834062Y-109811000D02*
X146775938Y-109811000D01*
D72*
X146290000Y-89779943D02*
X146801057Y-90291000D01*
X174540000Y-113500000D02*
X174870000Y-113830000D01*
D73*
X157706500Y-78701500D02*
X157557500Y-78850500D01*
D74*
X150320000Y-91150000D02*
X150320000Y-90150000D01*
D73*
X167000000Y-98300000D02*
X167975000Y-97325000D01*
D76*
X168980271Y-109957334D02*
X168980271Y-111305271D01*
D73*
X179575000Y-114625000D02*
X178350000Y-114625000D01*
D77*
X142720000Y-107696938D02*
X142720000Y-109696938D01*
D76*
X162030000Y-105880000D02*
X161200000Y-105050000D01*
D72*
X174175000Y-113500000D02*
X173500000Y-113500000D01*
D76*
X169095000Y-115065000D02*
X169550000Y-115065000D01*
D73*
X179575000Y-113325000D02*
X180365000Y-113325000D01*
D76*
X146890000Y-107630000D02*
X147810000Y-106710000D01*
D74*
X162912500Y-105079000D02*
X161229000Y-105079000D01*
D72*
X174175000Y-113500000D02*
X174540000Y-113500000D01*
D73*
X159507500Y-76557500D02*
X159812500Y-76252500D01*
X158857500Y-78850500D02*
X158708500Y-78701500D01*
D72*
X156970000Y-107900000D02*
X156970000Y-106900000D01*
D73*
X158708500Y-78701500D02*
X157706500Y-78701500D01*
D74*
X164340000Y-118980000D02*
X164600000Y-118980000D01*
D73*
X167650000Y-99187500D02*
X167650000Y-97650000D01*
D76*
X146775938Y-109811000D02*
X146890000Y-109696938D01*
D72*
X173175000Y-113175000D02*
X173175000Y-112750000D01*
D74*
X150018252Y-85301748D02*
X150160000Y-85160000D01*
D72*
X156080000Y-106900000D02*
X156970000Y-106900000D01*
D73*
X158857500Y-79277500D02*
X158857500Y-78850500D01*
D76*
X143813062Y-107696938D02*
X142720000Y-107696938D01*
D74*
X150200000Y-88180000D02*
X150400000Y-88380000D01*
D76*
X179040000Y-89990000D02*
X179800000Y-89230000D01*
D72*
X156080000Y-107870000D02*
X156940000Y-107870000D01*
X145050000Y-117650000D02*
X145050000Y-118770000D01*
D76*
X168980271Y-111305271D02*
X169037500Y-111362500D01*
D73*
X166112501Y-98300000D02*
X167000000Y-98300000D01*
D74*
X175800000Y-81315000D02*
X176740000Y-80375000D01*
D72*
X143512501Y-114812500D02*
X143512500Y-113512500D01*
D73*
X159507500Y-77227500D02*
X159507500Y-76557500D01*
D72*
X145050000Y-116112500D02*
X146350000Y-114812500D01*
D73*
X167750000Y-104587500D02*
X168075000Y-104262500D01*
D72*
X173500000Y-113500000D02*
X173175000Y-113175000D01*
D74*
X161286208Y-101579000D02*
X161280351Y-101584857D01*
D76*
X146890000Y-107660000D02*
X145910000Y-106680000D01*
X152790000Y-110360000D02*
X154600000Y-110360000D01*
X179040000Y-92290000D02*
X179040000Y-89990000D01*
X144580000Y-106930000D02*
X143813062Y-107696938D01*
D78*
X183110000Y-105696938D02*
X187280000Y-105696938D01*
D76*
X179100000Y-87360000D02*
X179100000Y-88530000D01*
X174870000Y-113830000D02*
X174550000Y-114150000D01*
D74*
X156330000Y-83350000D02*
X156330000Y-82350000D01*
D76*
X162030000Y-107770000D02*
X162030000Y-105880000D01*
D74*
X150140000Y-82300000D02*
X149400000Y-82300000D01*
D73*
X178350000Y-114625000D02*
X178025000Y-114300000D01*
D72*
X156940000Y-107870000D02*
X156970000Y-107900000D01*
D74*
X156330000Y-83350000D02*
X157124000Y-83350000D01*
X163730000Y-118370000D02*
X164340000Y-118980000D01*
D72*
X143512501Y-114812500D02*
X146350000Y-114812500D01*
D76*
X142720000Y-109696938D02*
X142834062Y-109811000D01*
D74*
X156330000Y-84350000D02*
X156330000Y-83350000D01*
X162675000Y-120425000D02*
X162675000Y-119425000D01*
D73*
X180365000Y-113325000D02*
X180650000Y-113040000D01*
D72*
X146801057Y-90291000D02*
X150179000Y-90291000D01*
X143512500Y-113512500D02*
X145050000Y-113512500D01*
X145050000Y-117650000D02*
X145050000Y-116112500D01*
X145050000Y-113512500D02*
X146350000Y-114812500D01*
D74*
X162675000Y-119425000D02*
X163730000Y-118370000D01*
X165570500Y-123950000D02*
X166875000Y-122645500D01*
D76*
X144580000Y-106860000D02*
X144580000Y-106930000D01*
D72*
X145050000Y-118770000D02*
X144870000Y-118950000D01*
X145700000Y-114162500D02*
X146350000Y-114812500D01*
D76*
X146890000Y-107696938D02*
X146890000Y-107660000D01*
D72*
X143512500Y-114162500D02*
X145700000Y-114162500D01*
D78*
X183110000Y-103696938D02*
X187280000Y-103696938D01*
D76*
X150975000Y-112175000D02*
X152790000Y-110360000D01*
D72*
X146290000Y-89250000D02*
X146290000Y-89779943D01*
D73*
X167650000Y-97650000D02*
X167975000Y-97325000D01*
X157557500Y-78850500D02*
X157557500Y-79277500D01*
D72*
%TO.N,Net-(J1-CC2)*%
X170450000Y-116487500D02*
X170047500Y-116085000D01*
X170450000Y-117895500D02*
X170450000Y-116487500D01*
%TO.N,Net-(J1-CC1)*%
X173450000Y-117895500D02*
X173450000Y-116950000D01*
X173450000Y-116950000D02*
X173850000Y-116550000D01*
D75*
%TO.N,Net-(J1-D--PadA7)*%
X172950000Y-117115000D02*
X172260000Y-116425000D01*
X172950000Y-118600000D02*
X172950000Y-117895500D01*
X172204500Y-118900000D02*
X172650000Y-118900000D01*
X172950000Y-117895500D02*
X172950000Y-117115000D01*
X171950000Y-117895500D02*
X171950000Y-118645500D01*
X172650000Y-118900000D02*
X172950000Y-118600000D01*
X171950000Y-118645500D02*
X172204500Y-118900000D01*
D79*
%TO.N,/SD_CS*%
X158070000Y-90370000D02*
X158090000Y-90350000D01*
X158090000Y-90350000D02*
X158724999Y-90350000D01*
D74*
%TO.N,+3.3V*%
X141290000Y-111700000D02*
X141290000Y-112650000D01*
D76*
X152000000Y-95660000D02*
X158000000Y-95660000D01*
D73*
X158207500Y-79277500D02*
X158207500Y-80247500D01*
D76*
X152000000Y-95660000D02*
X151170000Y-95660000D01*
D74*
X155330000Y-83390000D02*
X155370000Y-83350000D01*
D72*
X155120000Y-106900000D02*
X155120000Y-107870000D01*
D76*
X162990000Y-107770000D02*
X162990000Y-106920000D01*
D74*
X150200000Y-87220000D02*
X151000000Y-87220000D01*
X154450000Y-83390000D02*
X155330000Y-83390000D01*
D72*
X155120000Y-106900000D02*
X155120000Y-104820000D01*
D75*
X152737000Y-91150000D02*
X152840000Y-91047000D01*
X152275000Y-91150000D02*
X152737000Y-91150000D01*
D79*
X152275001Y-87550000D02*
X152275001Y-87150001D01*
D80*
X158050000Y-89610000D02*
X158050000Y-89467824D01*
D75*
X152840000Y-87778420D02*
X152611580Y-87550000D01*
D76*
X176825000Y-86400000D02*
X176800000Y-86375000D01*
D74*
X151280000Y-91150000D02*
X151280000Y-90150000D01*
D75*
X152840000Y-91047000D02*
X152840000Y-87778420D01*
D76*
X176800000Y-86375000D02*
X173705000Y-86375000D01*
X179751000Y-92657970D02*
X179751000Y-91922030D01*
D73*
X158857500Y-77227500D02*
X158857500Y-76257500D01*
D72*
X145700000Y-118820000D02*
X145830000Y-118950000D01*
X166212501Y-105847499D02*
X166010000Y-106050000D01*
X167000000Y-99801000D02*
X167449000Y-100250000D01*
D74*
X157075000Y-121845000D02*
X157090000Y-121860000D01*
D73*
X158262500Y-80302500D02*
X159082500Y-80302500D01*
D76*
X179743403Y-92665567D02*
X179751000Y-92657970D01*
D79*
X154110000Y-83390000D02*
X154450000Y-83390000D01*
D75*
X152611580Y-87550000D02*
X152275001Y-87550000D01*
D72*
X166010000Y-106050000D02*
X167025001Y-106050000D01*
D76*
X179349999Y-93250000D02*
X179743403Y-92856596D01*
D74*
X155370000Y-83350000D02*
X155370000Y-82350000D01*
D79*
X153500000Y-86525000D02*
X153700000Y-86525000D01*
D72*
X167000000Y-99187499D02*
X167000000Y-99801000D01*
D74*
X141290000Y-113600000D02*
X141290000Y-112650000D01*
D76*
X179751000Y-91922030D02*
X179743403Y-91914433D01*
X162990000Y-106920000D02*
X163000000Y-106910000D01*
D73*
X158207500Y-80247500D02*
X158262500Y-80302500D01*
D76*
X179743403Y-91914433D02*
X179743403Y-91570000D01*
D74*
X149380000Y-87220000D02*
X149300000Y-87300000D01*
X151000000Y-87220000D02*
X151200000Y-87420000D01*
D72*
X145700000Y-117650000D02*
X145700000Y-118820000D01*
D74*
X150200000Y-87220000D02*
X149380000Y-87220000D01*
D76*
X173705000Y-86375000D02*
X173130000Y-86950000D01*
X179743403Y-92856596D02*
X179743403Y-92665567D01*
D74*
X157075000Y-120550000D02*
X157075000Y-121845000D01*
D76*
X179743403Y-91570000D02*
X179769341Y-91570000D01*
D79*
X153300000Y-86525001D02*
X153500000Y-86525000D01*
X151200000Y-87428000D02*
X151321000Y-87549000D01*
X152275000Y-91150000D02*
X151280000Y-91150000D01*
D74*
X141290000Y-113600000D02*
X141290000Y-111700000D01*
D73*
X159082500Y-80302500D02*
X159507500Y-79877500D01*
D79*
X153300000Y-86325000D02*
X153300000Y-84200000D01*
D76*
X179769341Y-91570000D02*
X179743403Y-91595938D01*
D72*
X166212501Y-105237500D02*
X166212501Y-105847499D01*
D79*
X153300000Y-84200000D02*
X154110000Y-83390000D01*
X151321000Y-87549000D02*
X152275001Y-87549000D01*
X152275001Y-87150001D02*
X152275000Y-87150000D01*
D72*
X155120000Y-104820000D02*
X155410000Y-104530000D01*
D76*
X179100000Y-86400000D02*
X176825000Y-86400000D01*
D80*
X158050000Y-89467824D02*
X158367824Y-89150000D01*
D72*
X167025001Y-106050000D02*
X167100000Y-106124999D01*
D73*
X158857500Y-76257500D02*
X158852500Y-76252500D01*
D76*
X151170000Y-95660000D02*
X150870000Y-95360000D01*
D80*
X158367824Y-89150000D02*
X158724999Y-89150000D01*
X158070000Y-89630000D02*
X158050000Y-89610000D01*
D79*
X151200000Y-87420000D02*
X151200000Y-87428000D01*
D76*
X179040000Y-93250000D02*
X179349999Y-93250000D01*
D73*
X159507500Y-79877500D02*
X159507500Y-79277500D01*
D72*
%TO.N,+BATT*%
X175350000Y-112870000D02*
X175220000Y-113000000D01*
X175220000Y-113000000D02*
X174175000Y-113000000D01*
D74*
X175930000Y-115820000D02*
X176475000Y-115275000D01*
D78*
X183110000Y-107696938D02*
X187280000Y-107696938D01*
D74*
X175390000Y-115820000D02*
X175930000Y-115820000D01*
D72*
X175955000Y-112870000D02*
X177175000Y-111650000D01*
X175350000Y-112870000D02*
X175955000Y-112870000D01*
X174175000Y-112500000D02*
X174175000Y-113000000D01*
D73*
%TO.N,VCC*%
X168300000Y-95462500D02*
X168300000Y-94450000D01*
X172350000Y-98450000D02*
X172400000Y-98500000D01*
X169050000Y-106124999D02*
X169050000Y-107700000D01*
X168950000Y-99187499D02*
X170812501Y-99187499D01*
X172164702Y-105250000D02*
X172337500Y-105250000D01*
X169937500Y-103937500D02*
X170852202Y-103937500D01*
X171241479Y-96650000D02*
X172350000Y-96650000D01*
X170852202Y-103937500D02*
X172164702Y-105250000D01*
X169837500Y-97000000D02*
X170891479Y-97000000D01*
X172350000Y-96650000D02*
X172350000Y-96624000D01*
X168400000Y-100650000D02*
X168400000Y-102400000D01*
X171550000Y-98450000D02*
X172350000Y-98450000D01*
X168300000Y-94450000D02*
X168550000Y-94200000D01*
X169650000Y-108300000D02*
X170612500Y-108300000D01*
X170812501Y-99187499D02*
X171550000Y-98450000D01*
X170891479Y-97000000D02*
X171241479Y-96650000D01*
X169050000Y-107700000D02*
X169650000Y-108300000D01*
D81*
%TO.N,-BATT*%
X187350000Y-112200000D02*
X187675000Y-112525000D01*
X186099999Y-112200000D02*
X187350000Y-112200000D01*
X187675000Y-112525000D02*
X187675000Y-113400000D01*
D78*
X183110000Y-109696938D02*
X187280000Y-109696938D01*
D81*
X186099999Y-110876939D02*
X187280000Y-109696938D01*
X186099999Y-112200000D02*
X186099999Y-110876939D01*
X186099999Y-113662500D02*
X186099999Y-112200000D01*
D79*
%TO.N,/USB_D+*%
X158077877Y-91776196D02*
X158124257Y-91729816D01*
D73*
X171185000Y-114725000D02*
X171185000Y-115500685D01*
D79*
X158130184Y-91729816D02*
X158310000Y-91550000D01*
X158124257Y-91729816D02*
X158130184Y-91729816D01*
X158310000Y-91550000D02*
X158725000Y-91550000D01*
D73*
X171185000Y-115500685D02*
X170994824Y-115690861D01*
D75*
%TO.N,/USB_D-*%
X158070000Y-91130000D02*
X158090000Y-91150000D01*
D72*
X172260000Y-115240000D02*
X172940000Y-115920000D01*
D75*
X158075284Y-91063678D02*
X158070000Y-91068962D01*
D72*
X172260000Y-114725000D02*
X172260000Y-115240000D01*
D79*
X158725000Y-91150000D02*
X158090000Y-91150000D01*
D75*
X158070000Y-91068962D02*
X158070000Y-91130000D01*
D79*
%TO.N,/LORA_RESET*%
X154500000Y-92975000D02*
X154500000Y-92609997D01*
X154500000Y-92609997D02*
X154820000Y-92289997D01*
D78*
%TO.N,/VOUT_A1*%
X183110000Y-91696938D02*
X187280000Y-91696938D01*
D73*
%TO.N,I2C_1_SDA*%
X153650000Y-98620000D02*
X153645025Y-98624975D01*
X164630000Y-96990000D02*
X164475000Y-96990000D01*
D79*
X157700000Y-86525001D02*
X157700000Y-81602194D01*
D72*
X172175000Y-112000000D02*
X172175000Y-111795000D01*
D74*
X154060000Y-109350000D02*
X153074000Y-108364000D01*
X153074000Y-105691226D02*
X154935226Y-103830000D01*
D72*
X143512500Y-116112500D02*
X142447500Y-116112500D01*
D79*
X156746500Y-80648694D02*
X156746500Y-79015500D01*
D73*
X164640000Y-97000000D02*
X164630000Y-96990000D01*
X166212500Y-103937500D02*
X165162500Y-103937500D01*
D79*
X157700000Y-81602194D02*
X157398903Y-81301097D01*
D74*
X154935226Y-103830000D02*
X158430000Y-103830000D01*
X144300000Y-92450000D02*
X143473062Y-92450000D01*
X153074000Y-108364000D02*
X153074000Y-105691226D01*
D79*
X156746500Y-79015500D02*
X158207500Y-77554500D01*
D73*
X153645025Y-98624975D02*
X153645025Y-99045025D01*
X154634975Y-100034975D02*
X158430000Y-103830000D01*
X166112500Y-97000000D02*
X164640000Y-97000000D01*
D74*
X143473062Y-92450000D02*
X142720000Y-91696938D01*
D72*
X172175000Y-111795000D02*
X172620000Y-111350000D01*
D73*
X153650000Y-97440000D02*
X153650000Y-98620000D01*
D79*
X158207500Y-77554500D02*
X158207500Y-77227500D01*
X157398903Y-81301097D02*
X156746500Y-80648694D01*
D72*
X142447500Y-116112500D02*
X142310000Y-116250000D01*
%TO.N,Net-(IC1-QSTRT)*%
X172175000Y-113000000D02*
X171150000Y-113000000D01*
D78*
%TO.N,/VOUT_A2*%
X187280000Y-93696938D02*
X183110000Y-93696938D01*
%TO.N,/VOUT_A3*%
X183110000Y-95696938D02*
X187280000Y-95696938D01*
D81*
X182320000Y-95696938D02*
X183110000Y-95696938D01*
X180928438Y-97088500D02*
X182320000Y-95696938D01*
X178644900Y-97088500D02*
X180928438Y-97088500D01*
X179337500Y-103187500D02*
X178675001Y-103187500D01*
X178224000Y-102736499D02*
X178224000Y-97509400D01*
X178675001Y-103187500D02*
X178224000Y-102736499D01*
X178224000Y-97509400D02*
X178644900Y-97088500D01*
D74*
%TO.N,I2C_1_SCL*%
X156800000Y-100500000D02*
X154543413Y-98243413D01*
X145050000Y-93056938D02*
X144410000Y-93696938D01*
D72*
X171499943Y-112500000D02*
X171109943Y-112110000D01*
D74*
X164500000Y-97715003D02*
X164475000Y-97740003D01*
D79*
X157550000Y-76500000D02*
X157550000Y-77220000D01*
D72*
X171109943Y-112110000D02*
X171080000Y-112110000D01*
D79*
X158100000Y-86525000D02*
X158100000Y-82019406D01*
D72*
X143512500Y-116762500D02*
X143512500Y-117362500D01*
D74*
X145050000Y-90450000D02*
X145050000Y-93056938D01*
D79*
X158100000Y-82019406D02*
X158814791Y-81304615D01*
D74*
X164500000Y-97650000D02*
X164500000Y-97715003D01*
D72*
X172175000Y-112500000D02*
X171499943Y-112500000D01*
D73*
X166212500Y-104587500D02*
X165281210Y-104587500D01*
D72*
X143512500Y-117362500D02*
X143630000Y-117480000D01*
D74*
X144410000Y-93696938D02*
X142720000Y-93696938D01*
X166112500Y-97650000D02*
X164500000Y-97650000D01*
X154543413Y-98243413D02*
X154543413Y-97533413D01*
D79*
X157550000Y-77220000D02*
X157557500Y-77227500D01*
D72*
%TO.N,Net-(IC1-~{ALRT})*%
X172175000Y-113500000D02*
X171500000Y-113500000D01*
X171500000Y-113500000D02*
X171200000Y-113800000D01*
D81*
%TO.N,/VOUT_B1*%
X180618000Y-105981999D02*
X180618000Y-99398938D01*
X179999999Y-106600000D02*
X180618000Y-105981999D01*
X179337500Y-106600000D02*
X179999999Y-106600000D01*
D78*
X187280000Y-97696938D02*
X183110000Y-97696938D01*
D81*
X180618000Y-99398938D02*
X182320000Y-97696938D01*
X182320000Y-97696938D02*
X183110000Y-97696938D01*
D78*
%TO.N,/VOUT_B2*%
X183110000Y-99696938D02*
X187280000Y-99696938D01*
D81*
X179337500Y-110000000D02*
X180114938Y-110000000D01*
X181369000Y-108745938D02*
X181369000Y-100745938D01*
X181369000Y-100745938D02*
X182418000Y-99696938D01*
X180114938Y-110000000D02*
X181369000Y-108745938D01*
X182418000Y-99696938D02*
X183110000Y-99696938D01*
D72*
%TO.N,Net-(D4-A)*%
X147000000Y-119870000D02*
X147015735Y-119885735D01*
X147000000Y-117650000D02*
X147000000Y-119870000D01*
%TO.N,Net-(D5-A)*%
X149989550Y-114162500D02*
X149998000Y-114154050D01*
X149187500Y-114162500D02*
X149989550Y-114162500D01*
%TO.N,Net-(D6-A)*%
X148481000Y-105051000D02*
X148481000Y-106497938D01*
X148481000Y-106497938D02*
X150001000Y-108017938D01*
X150001000Y-113095324D02*
X149583824Y-113512500D01*
X150001000Y-108017938D02*
X150001000Y-113095324D01*
X148170000Y-104740000D02*
X148481000Y-105051000D01*
X149583824Y-113512500D02*
X149187500Y-113512500D01*
%TO.N,Net-(D7-A)*%
X145299000Y-105883938D02*
X145299000Y-108549057D01*
X140870000Y-95480000D02*
X140360000Y-95990000D01*
X145611000Y-108861057D02*
X145611000Y-108895938D01*
X145299000Y-108549057D02*
X145611000Y-108861057D01*
X149540000Y-112510000D02*
X149187500Y-112862500D01*
X140360000Y-95990000D02*
X140360000Y-104400000D01*
X140855938Y-104895938D02*
X144311000Y-104895938D01*
X148481000Y-108895938D02*
X148481000Y-108920000D01*
X148481000Y-108920000D02*
X148505062Y-108920000D01*
X149540000Y-109954938D02*
X149540000Y-112510000D01*
X148505062Y-108920000D02*
X149540000Y-109954938D01*
X140360000Y-104400000D02*
X140855938Y-104895938D01*
X145611000Y-108895938D02*
X148481000Y-108895938D01*
X144311000Y-104895938D02*
X145299000Y-105883938D01*
D75*
%TO.N,Net-(D8-A)*%
X151856388Y-89150000D02*
X151645388Y-89361000D01*
X151645388Y-89361000D02*
X147379000Y-89361000D01*
X152275001Y-89150000D02*
X151856388Y-89150000D01*
X147379000Y-89361000D02*
X147050000Y-89690000D01*
%TO.N,Net-(D9-A)*%
X147050000Y-89010000D02*
X146540000Y-88500000D01*
X140880000Y-89660000D02*
X140880000Y-91330000D01*
X152275000Y-88750000D02*
X151760000Y-88750000D01*
X140870000Y-89650000D02*
X140880000Y-89660000D01*
X151760000Y-88750000D02*
X151500000Y-89010000D01*
X151500000Y-89010000D02*
X147050000Y-89010000D01*
X146540000Y-88500000D02*
X142020000Y-88500000D01*
X142020000Y-88500000D02*
X140870000Y-89650000D01*
D76*
%TO.N,Net-(Q3-G)*%
X166562500Y-112237500D02*
X165890000Y-112910000D01*
X165890000Y-112910000D02*
X165890000Y-113000000D01*
X166562500Y-111337500D02*
X166562500Y-112237500D01*
D75*
%TO.N,Net-(U3-GPIO18)*%
X159548585Y-89331886D02*
X159548585Y-89401415D01*
X159186999Y-90750000D02*
X158725000Y-90750000D01*
X159450000Y-90486999D02*
X159186999Y-90750000D01*
X159548585Y-89401415D02*
X159450000Y-89500000D01*
X159555471Y-89325000D02*
X159548585Y-89331886D01*
X159450000Y-89500000D02*
X159450000Y-90486999D01*
D79*
%TO.N,/LORA_CS*%
X163925000Y-84375000D02*
X161750000Y-84375000D01*
X164550000Y-85000000D02*
X163925000Y-84375000D01*
X159860664Y-91950000D02*
X160410664Y-91400000D01*
X158724999Y-91950000D02*
X159860664Y-91950000D01*
X160410664Y-91400000D02*
X164000000Y-91400000D01*
X164000000Y-91400000D02*
X164550000Y-90850000D01*
X164550000Y-90850000D02*
X164550000Y-85000000D01*
D76*
%TO.N,/Power Supply Unit/OBC_BATT*%
X168655112Y-112426000D02*
X169419888Y-112426000D01*
D81*
X166600000Y-115750178D02*
X166338322Y-115488500D01*
D76*
X164700000Y-117920000D02*
X164600000Y-118020000D01*
X169987500Y-111858388D02*
X169987500Y-111362500D01*
D81*
X164296900Y-115488500D02*
X163911500Y-115103100D01*
D76*
X166600000Y-116154112D02*
X166600000Y-116650000D01*
D81*
X166600000Y-116650000D02*
X166600000Y-115750178D01*
D76*
X169419888Y-112426000D02*
X169987500Y-111858388D01*
X168087500Y-111858388D02*
X168655112Y-112426000D01*
X168020000Y-109950000D02*
X167687500Y-109617500D01*
D81*
X165209400Y-108274000D02*
X167661500Y-108274000D01*
D76*
X168020000Y-109950000D02*
X168050000Y-109980000D01*
X168050000Y-111325000D02*
X168087500Y-111362500D01*
D81*
X163911500Y-109571900D02*
X165209400Y-108274000D01*
D76*
X168087500Y-111362500D02*
X168087500Y-111858388D01*
D73*
X167687500Y-108300000D02*
X168400000Y-107587500D01*
D81*
X166338322Y-115488500D02*
X164750000Y-115488500D01*
D76*
X168050000Y-109980000D02*
X168050000Y-111325000D01*
D81*
X167661500Y-108274000D02*
X167687500Y-108300000D01*
X164750000Y-115488500D02*
X164296900Y-115488500D01*
D73*
X168400000Y-107587500D02*
X168400000Y-106125000D01*
D76*
X164700000Y-116650000D02*
X164700000Y-117920000D01*
D81*
X164700000Y-116650000D02*
X164700000Y-115538500D01*
X164700000Y-115538500D02*
X164750000Y-115488500D01*
D76*
X167687500Y-109617500D02*
X167687500Y-108300000D01*
D81*
X163911500Y-115103100D02*
X163911500Y-109571900D01*
D79*
%TO.N,/GPS_RX*%
X154900000Y-86525001D02*
X154900000Y-85550000D01*
X154900000Y-85550000D02*
X155250000Y-85200000D01*
%TO.N,/GPS_TX*%
X153100000Y-87290000D02*
X153100000Y-87270100D01*
X153100000Y-87270100D02*
X153140100Y-87230000D01*
X153140100Y-87230000D02*
X155120000Y-87230000D01*
X155300000Y-87050000D02*
X155300000Y-86525000D01*
X155120000Y-87230000D02*
X155300000Y-87050000D01*
%TO.N,/SCREEN_RESET*%
X158950000Y-94655204D02*
X158950000Y-98500000D01*
X156100000Y-87115733D02*
X156100000Y-86525001D01*
X155915735Y-87299998D02*
X156100000Y-87115733D01*
X158950000Y-98500000D02*
X160629000Y-100179000D01*
X155834866Y-87299998D02*
X155915735Y-87299998D01*
X160629000Y-100179000D02*
X162912500Y-100179000D01*
%TO.N,/SCREEN_MOSI*%
X161536500Y-94902836D02*
X161536500Y-97855000D01*
X164950000Y-84832900D02*
X164950000Y-91489336D01*
X157125000Y-84187500D02*
X157125000Y-84300000D01*
X164950000Y-91489336D02*
X161536500Y-94902836D01*
X161536500Y-97855000D02*
X161760500Y-98079000D01*
X159018159Y-83000000D02*
X159737344Y-83000000D01*
X159737344Y-83000000D02*
X160118672Y-83381328D01*
X160118672Y-83381328D02*
X163498428Y-83381328D01*
X157300000Y-84475000D02*
X157300000Y-86525000D01*
X158988825Y-82970666D02*
X159018159Y-83000000D01*
X157125000Y-84300000D02*
X157300000Y-84475000D01*
X161760500Y-98079000D02*
X162912500Y-98079000D01*
X163498428Y-83381328D02*
X164950000Y-84832900D01*
%TO.N,/SCREEN_DC*%
X158675000Y-84949110D02*
X158775890Y-85050000D01*
X160996805Y-99479000D02*
X162912500Y-99479000D01*
X156500000Y-85758983D02*
X156496610Y-85755593D01*
X162975336Y-85286000D02*
X163950000Y-86260664D01*
X163950000Y-86260664D02*
X163950000Y-90600000D01*
X160299997Y-98632195D02*
X160299997Y-98782192D01*
X158675000Y-84949110D02*
X158750000Y-85024110D01*
X156500000Y-86525000D02*
X156500000Y-85758983D01*
X158775890Y-85050000D02*
X160110664Y-85050000D01*
X160299997Y-98782192D02*
X160996805Y-99479000D01*
X160110664Y-85050000D02*
X160346664Y-85286000D01*
X160346664Y-85286000D02*
X162975336Y-85286000D01*
%TO.N,/SCREEN_CLK*%
X165351000Y-84666800D02*
X165351000Y-91655436D01*
X162150000Y-95102508D02*
X162124508Y-95128000D01*
X163064337Y-81375001D02*
X163750000Y-82060664D01*
X161196805Y-98779000D02*
X161050000Y-98632195D01*
X162912500Y-98779000D02*
X161196805Y-98779000D01*
X163750000Y-82060664D02*
X163750000Y-83065800D01*
X156900000Y-86525000D02*
X156900000Y-87150000D01*
X160240065Y-81375001D02*
X163064337Y-81375001D01*
X165351000Y-91655436D02*
X162150000Y-94856436D01*
X162150000Y-94856436D02*
X162150000Y-95102508D01*
X163750000Y-83065800D02*
X165351000Y-84666800D01*
%TO.N,/SCREEN_CS*%
X163150000Y-95150000D02*
X163150000Y-95128000D01*
X163865409Y-78515409D02*
X165752000Y-80402000D01*
X162883500Y-100850000D02*
X162912500Y-100879000D01*
X155700000Y-85824177D02*
X155746921Y-85777256D01*
X160900000Y-100850000D02*
X162883500Y-100850000D01*
X155700000Y-86525000D02*
X155700000Y-85824177D01*
X165752000Y-80402000D02*
X165752000Y-92548000D01*
X165752000Y-92548000D02*
X163150000Y-95150000D01*
D75*
%TO.N,Net-(D11-A)*%
X175630000Y-115100000D02*
X175631741Y-115101741D01*
X176105000Y-114625000D02*
X175630000Y-115100000D01*
X176475000Y-114625000D02*
X176105000Y-114625000D01*
X175631741Y-115101741D02*
X175677138Y-115101741D01*
D79*
%TO.N,/EXP2_USART_TXD*%
X150270000Y-94140000D02*
X150270000Y-99793138D01*
X148366200Y-101696938D02*
X146890000Y-101696938D01*
X150400000Y-94010000D02*
X150270000Y-94140000D01*
X153700000Y-93720000D02*
X153410000Y-94010000D01*
X153700000Y-92975000D02*
X153700000Y-93720000D01*
X150270000Y-99793138D02*
X148366200Y-101696938D01*
X153410000Y-94010000D02*
X150400000Y-94010000D01*
%TO.N,/EXP0_USART_RXD*%
X144853100Y-100920938D02*
X144286000Y-101488038D01*
X149830000Y-99666038D02*
X148575100Y-100920938D01*
X153300000Y-93544000D02*
X153264000Y-93580000D01*
X144286000Y-101488038D02*
X144286000Y-102472938D01*
X153264000Y-93580000D02*
X150190000Y-93580000D01*
X144286000Y-102472938D02*
X143062000Y-103696938D01*
X148575100Y-100920938D02*
X144853100Y-100920938D01*
X153300000Y-92974999D02*
X153300000Y-93544000D01*
X143062000Y-103696938D02*
X142720000Y-103696938D01*
X150190000Y-93580000D02*
X149830000Y-93940000D01*
X149830000Y-93940000D02*
X149830000Y-99666038D01*
%TO.N,/EXP2_USART_RXD*%
X151210000Y-92201000D02*
X149751000Y-92201000D01*
X141860000Y-90050000D02*
X141860000Y-90036020D01*
X148420000Y-90870000D02*
X146284588Y-90870000D01*
X149751000Y-92201000D02*
X148420000Y-90870000D01*
X145288588Y-89874000D02*
X142036000Y-89874000D01*
X154100000Y-92610000D02*
X153710000Y-92220000D01*
X154100000Y-92975000D02*
X154100000Y-92610000D01*
X142036000Y-89874000D02*
X141860000Y-90050000D01*
X146284588Y-90870000D02*
X145288588Y-89874000D01*
%TO.N,/EXP0_USART_TXD*%
X152900000Y-92975000D02*
X152698000Y-93177000D01*
X148438938Y-100490000D02*
X144716938Y-100490000D01*
X149410000Y-93740000D02*
X149410000Y-99518938D01*
X149973000Y-93177000D02*
X149410000Y-93740000D01*
X149410000Y-99518938D02*
X148438938Y-100490000D01*
X152698000Y-93177000D02*
X149973000Y-93177000D01*
X144716938Y-100490000D02*
X143510000Y-101696938D01*
X143510000Y-101696938D02*
X142720000Y-101696938D01*
%TO.N,/EXP1_SPI_CS*%
X147910000Y-94676938D02*
X146890000Y-95696938D01*
X148212414Y-92748106D02*
X148240308Y-92776000D01*
X147910000Y-94646940D02*
X147910000Y-94676938D01*
X151849000Y-92776000D02*
X152275000Y-92350000D01*
X148240308Y-92776000D02*
X151849000Y-92776000D01*
%TO.N,I2C_2_SCL*%
X158724999Y-87550000D02*
X159600000Y-87550000D01*
D74*
X146890000Y-93696938D02*
X148596938Y-93696938D01*
D79*
%TO.N,I2C_2_SDA*%
X159150000Y-87150000D02*
X159600000Y-86700000D01*
X158725000Y-87150000D02*
X159150000Y-87150000D01*
%TO.N,SPI_0_SCLK*%
X158135830Y-88750000D02*
X158725000Y-88750000D01*
X158100000Y-119550000D02*
X158100000Y-120475000D01*
X143571531Y-100548469D02*
X142720000Y-99696938D01*
X158128594Y-88742764D02*
X158135830Y-88750000D01*
X158128594Y-88699353D02*
X158128594Y-88742764D01*
X158100000Y-120475000D02*
X158175000Y-120550000D01*
X158101594Y-88672353D02*
X158128594Y-88699353D01*
X157150000Y-118600000D02*
X158100000Y-119550000D01*
%TO.N,SPI_0_MOSI*%
X144653062Y-97696938D02*
X142720000Y-97696938D01*
D75*
X159810491Y-91186999D02*
X159810491Y-91125203D01*
X158999475Y-93714729D02*
X158964204Y-93750000D01*
D79*
X161725000Y-88350000D02*
X161750000Y-88375000D01*
D75*
X159810491Y-91125203D02*
X159822492Y-91113202D01*
X159822492Y-89906740D02*
X161354232Y-88375000D01*
D79*
X155975000Y-119075000D02*
X155200000Y-118300000D01*
D75*
X158964204Y-93750000D02*
X157400000Y-93750000D01*
D79*
X145650000Y-98693876D02*
X144653062Y-97696938D01*
X155975000Y-120550000D02*
X155975000Y-119075000D01*
X145650000Y-98746936D02*
X145650000Y-98693876D01*
D75*
X157000000Y-94150000D02*
X157000000Y-94640000D01*
D79*
X155200000Y-118300000D02*
X154250000Y-118300000D01*
D75*
X160075000Y-88375000D02*
X160150000Y-88375000D01*
D79*
X158725000Y-88350000D02*
X161725000Y-88350000D01*
X149100000Y-105800000D02*
X149100000Y-104300000D01*
D75*
X161354232Y-88375000D02*
X161750000Y-88375000D01*
X157400000Y-93750000D02*
X157000000Y-94150000D01*
D79*
X149100000Y-104300000D02*
X149700000Y-103700000D01*
D75*
X159822492Y-91113202D02*
X159822492Y-89906740D01*
X160150000Y-88375000D02*
X161750000Y-88375000D01*
D79*
%TO.N,SPI_0_MISO*%
X158725000Y-87950000D02*
X158134267Y-87950000D01*
X158134267Y-87950000D02*
X158132267Y-87948000D01*
X144550000Y-96500000D02*
X143523062Y-96500000D01*
X143523062Y-96500000D02*
X142720000Y-95696938D01*
D72*
%TO.N,/EN_B1*%
X148119195Y-110862063D02*
X147650000Y-111331258D01*
X147650000Y-111331258D02*
X147650000Y-111975000D01*
%TO.N,/EN_A1*%
X145700000Y-110950000D02*
X145700000Y-111975000D01*
X145650000Y-110900000D02*
X145700000Y-110950000D01*
%TO.N,/EN_A2*%
X146391562Y-110787797D02*
X146391562Y-110788702D01*
X146391562Y-110788702D02*
X146350000Y-110830264D01*
X146350000Y-110830264D02*
X146350000Y-111975001D01*
%TO.N,/EN_A3*%
X147000000Y-111060604D02*
X147180302Y-110880302D01*
X147000000Y-111975000D02*
X147000000Y-111060604D01*
%TO.N,/EN_B2*%
X148300000Y-111975000D02*
X148525000Y-111975000D01*
X148525000Y-111975000D02*
X148925956Y-111574044D01*
X148925956Y-111574044D02*
X148925956Y-110975956D01*
%TO.N,Net-(D3-A)*%
X146480000Y-119370000D02*
X146010000Y-119840000D01*
X146480000Y-117779999D02*
X146480000Y-119370000D01*
X146350000Y-117649999D02*
X146480000Y-117779999D01*
D74*
%TO.N,+3V0*%
X157930000Y-107900000D02*
X157930000Y-106900000D01*
X157930000Y-106900000D02*
X157930000Y-106070000D01*
D76*
X166650000Y-114325000D02*
X166650000Y-113260000D01*
D74*
X159621000Y-104379000D02*
X162912500Y-104379000D01*
D76*
X166600000Y-114375000D02*
X166650000Y-114325000D01*
X166910000Y-113000000D02*
X167216057Y-113000000D01*
D74*
X157930000Y-106070000D02*
X159621000Y-104379000D01*
X161021000Y-102979000D02*
X162912500Y-102979000D01*
D76*
X166650000Y-113260000D02*
X166910000Y-113000000D01*
D74*
X159621000Y-104379000D02*
X161021000Y-102979000D01*
D76*
X167216057Y-113000000D02*
X167558736Y-112657321D01*
D74*
%TO.N,Net-(U3-CHIP_PU)*%
X155310000Y-84410000D02*
X155370000Y-84350000D01*
D79*
X154100000Y-86000000D02*
X153732451Y-85632451D01*
X153732451Y-85632451D02*
X153732451Y-84807550D01*
X154100000Y-86525000D02*
X154100000Y-86000000D01*
D74*
X154450000Y-84410000D02*
X155310000Y-84410000D01*
D79*
X154130001Y-84410000D02*
X154450000Y-84410000D01*
X153732451Y-84807550D02*
X154130001Y-84410000D01*
D76*
%TO.N,Net-(U4-IN+1)*%
X175530000Y-96600000D02*
X175530000Y-95217500D01*
D73*
X174111500Y-93799000D02*
X175312500Y-95000000D01*
X170101002Y-93799000D02*
X174111500Y-93799000D01*
X168950000Y-95462501D02*
X168950000Y-94950002D01*
D76*
X176425001Y-96337500D02*
X175312500Y-95224999D01*
X177087500Y-96337500D02*
X176425001Y-96337500D01*
X175530000Y-95217500D02*
X175312500Y-95000000D01*
D73*
X168950000Y-94950002D02*
X170101002Y-93799000D01*
D76*
X175312500Y-95224999D02*
X175312500Y-95000000D01*
D73*
%TO.N,Net-(U4-IN+2)*%
X175300000Y-98450000D02*
X174099000Y-97249000D01*
X171351000Y-97249000D02*
X170950000Y-97650000D01*
D76*
X175550000Y-98700000D02*
X175300000Y-98450000D01*
X177087500Y-99787500D02*
X176425001Y-99787500D01*
X175550000Y-100050000D02*
X175550000Y-98700000D01*
D73*
X174099000Y-97249000D02*
X171351000Y-97249000D01*
X170950000Y-97650000D02*
X169837500Y-97650000D01*
D76*
X175300000Y-98662499D02*
X175300000Y-98450000D01*
X176425001Y-99787500D02*
X175300000Y-98662499D01*
%TO.N,Net-(U4-IN+3)*%
X175530000Y-103450000D02*
X175530000Y-102117500D01*
D73*
X168300000Y-99637201D02*
X168300000Y-99187500D01*
X174061500Y-100649000D02*
X169311799Y-100649000D01*
D76*
X177062500Y-103187500D02*
X177050000Y-103187500D01*
D73*
X169311799Y-100649000D02*
X168300000Y-99637201D01*
D76*
X175530000Y-102117500D02*
X175262500Y-101850000D01*
X175262500Y-102049999D02*
X175262500Y-101850000D01*
X177050000Y-103187500D02*
X176400001Y-103187500D01*
X176400001Y-103187500D02*
X175262500Y-102049999D01*
D73*
X175262500Y-101850000D02*
X174061500Y-100649000D01*
D76*
%TO.N,Net-(U5-IN+1)*%
X176400001Y-106600000D02*
X175262500Y-105462499D01*
X175500000Y-106900000D02*
X175500000Y-105487500D01*
X177062500Y-106600000D02*
X176400001Y-106600000D01*
D73*
X169050000Y-101350000D02*
X169100000Y-101300000D01*
D76*
X175262500Y-105462499D02*
X175262500Y-105250000D01*
D73*
X169050000Y-102400001D02*
X169050000Y-101350000D01*
D76*
X175500000Y-105487500D02*
X175262500Y-105250000D01*
D73*
X173612500Y-103600000D02*
X171400000Y-103600000D01*
X175262500Y-105250000D02*
X173612500Y-103600000D01*
D76*
%TO.N,Net-(U10-VIN)*%
X176562500Y-110000000D02*
X175262500Y-108700000D01*
D73*
X171800000Y-107100000D02*
X173662500Y-107100000D01*
X171300000Y-106600000D02*
X171800000Y-107100000D01*
D76*
X177062500Y-110000000D02*
X176562500Y-110000000D01*
D73*
X171300000Y-105150000D02*
X171300000Y-106600000D01*
X170737500Y-104587500D02*
X171300000Y-105150000D01*
X169937500Y-104587500D02*
X170737500Y-104587500D01*
D76*
X175530000Y-110350000D02*
X175530000Y-108967500D01*
X175530000Y-108967500D02*
X175262500Y-108700000D01*
D73*
X173662500Y-107100000D02*
X175262500Y-108700000D01*
D76*
%TO.N,Net-(U12-VCC)*%
X179150000Y-117125000D02*
X178875000Y-116850000D01*
X179125000Y-120090000D02*
X180555001Y-120090000D01*
X180555001Y-120090000D02*
X180600000Y-120045001D01*
X179125000Y-120090000D02*
X179150000Y-120065000D01*
X179150000Y-120065000D02*
X179150000Y-117125000D01*
%TO.N,Net-(U12-OC)*%
X183645000Y-120995000D02*
X186099999Y-118540001D01*
X186099999Y-118540001D02*
X186099999Y-115937500D01*
X182875000Y-120995000D02*
X183645000Y-120995000D01*
%TO.N,Net-(U12-OD)*%
X184200001Y-115937500D02*
X184200001Y-117770001D01*
X184200001Y-117770001D02*
X182875000Y-119095002D01*
D72*
%TO.N,/PB1*%
X150837500Y-114812500D02*
X149187499Y-114812500D01*
X151550000Y-113900000D02*
X151550000Y-114100000D01*
X151550000Y-114100000D02*
X150837500Y-114812500D01*
D75*
%TO.N,Net-(D10-A)*%
X175450000Y-114600000D02*
X176075000Y-113975000D01*
X175290000Y-114600000D02*
X175450000Y-114600000D01*
X175225000Y-114535000D02*
X175290000Y-114600000D01*
X176075000Y-113975000D02*
X176475000Y-113975000D01*
D72*
%TO.N,/PB3*%
X157625000Y-117025000D02*
X156712500Y-116112500D01*
X156712500Y-116112500D02*
X149187500Y-116112500D01*
%TO.N,/PB5*%
X163125000Y-117025000D02*
X162500000Y-117650000D01*
X162500000Y-117650000D02*
X148300000Y-117650000D01*
%TO.N,Net-(U1-INTB)*%
X142985000Y-111975000D02*
X144400000Y-111975000D01*
X142310000Y-112650000D02*
X142985000Y-111975000D01*
%TO.N,/PB2*%
X152264134Y-112880000D02*
X152264134Y-114035866D01*
X152264134Y-114035866D02*
X150837500Y-115462500D01*
X150837500Y-115462500D02*
X149187500Y-115462500D01*
%TO.N,Net-(U1-INTA)*%
X142310000Y-111700000D02*
X142848500Y-111161500D01*
X142848500Y-111161500D02*
X144748999Y-111161500D01*
X144748999Y-111161500D02*
X145050000Y-111462501D01*
X145050000Y-111462501D02*
X145050000Y-111975000D01*
%TO.N,Net-(U1-~{RESET})*%
X143512500Y-112862500D02*
X143047500Y-112862500D01*
X143047500Y-112862500D02*
X142310000Y-113600000D01*
%TO.N,/PB4*%
X149187500Y-116762500D02*
X150812500Y-116762500D01*
X150812500Y-116762500D02*
X150850000Y-116800000D01*
X150850000Y-116800000D02*
X150812057Y-116762057D01*
D79*
%TO.N,Net-(U3-GPIO0)*%
X154500000Y-85425000D02*
X154500000Y-86525000D01*
X154308451Y-85233451D02*
X154500000Y-85425000D01*
X154308451Y-85167963D02*
X154308451Y-85233451D01*
D73*
%TO.N,Net-(U4-TC)*%
X170700000Y-96150000D02*
X170700000Y-95460000D01*
X170500000Y-96350000D02*
X170700000Y-96150000D01*
X169837499Y-96350000D02*
X170500000Y-96350000D01*
%TO.N,Net-(U4-VPU)*%
X169837499Y-98300000D02*
X170800000Y-98300000D01*
%TO.N,Net-(U4-WARNING)*%
X166112501Y-96350000D02*
X165090000Y-96350000D01*
X165090000Y-96350000D02*
X164850000Y-96110000D01*
%TO.N,Net-(U4-CRITICAL)*%
X167000000Y-95462501D02*
X167000000Y-94440000D01*
X167000000Y-94440000D02*
X166760000Y-94200000D01*
%TO.N,Net-(U4-PV)*%
X167650000Y-94250000D02*
X167650000Y-95462500D01*
%TO.N,Net-(U5-CRITICAL)*%
X167100000Y-102400001D02*
X167100000Y-101390000D01*
X167100000Y-101390000D02*
X166860000Y-101150000D01*
%TO.N,Net-(U5-TC)*%
X169937499Y-103287500D02*
X170612500Y-103287500D01*
X170800000Y-103100000D02*
X170800000Y-102420000D01*
X170612500Y-103287500D02*
X170800000Y-103100000D01*
%TO.N,Net-(U5-WARNING)*%
X166212501Y-103287500D02*
X165177500Y-103287500D01*
X165177500Y-103287500D02*
X164950000Y-103060000D01*
%TO.N,Net-(U5-VPU)*%
X169937499Y-105237500D02*
X169937499Y-106037499D01*
X169937499Y-106037499D02*
X169950000Y-106050000D01*
%TO.N,Net-(U5-PV)*%
X167750000Y-101525569D02*
X167750000Y-102400000D01*
D76*
%TO.N,Net-(U12-CS)*%
X184016111Y-119595734D02*
X184016111Y-119597150D01*
X182875000Y-120045001D02*
X183566844Y-120045001D01*
X187675000Y-118032745D02*
X187675000Y-115050000D01*
X183566844Y-120045001D02*
X184016111Y-119595734D01*
X186050000Y-119600000D02*
X186107745Y-119600000D01*
X186107745Y-119600000D02*
X187675000Y-118032745D01*
D73*
%TO.N,Net-(U14-PROG)*%
X179575000Y-113975000D02*
X180565000Y-113975000D01*
X180565000Y-113975000D02*
X180650000Y-114060000D01*
D72*
%TO.N,Net-(D2-A)*%
X140351000Y-106499000D02*
X140351000Y-115286897D01*
X140351000Y-115286897D02*
X140473465Y-115491015D01*
X147650000Y-120100000D02*
X147650000Y-117650000D01*
X147250000Y-120500000D02*
X147650000Y-120100000D01*
X145482450Y-120500000D02*
X147250000Y-120500000D01*
X140473465Y-115491015D02*
X145482450Y-120500000D01*
X140950000Y-105900000D02*
X140351000Y-106499000D01*
D74*
%TO.N,Net-(U18-LEDK)*%
X164363500Y-103828000D02*
X164363500Y-107986500D01*
X164214500Y-103679000D02*
X164363500Y-103828000D01*
X162912500Y-103679000D02*
X164214500Y-103679000D01*
X155125000Y-109000000D02*
X153900000Y-107775000D01*
X163350000Y-109000000D02*
X155125000Y-109000000D01*
X164363500Y-107986500D02*
X163350000Y-109000000D01*
D82*
%TO.N,Net-(AE1-A)*%
X151060000Y-82340000D02*
X151100000Y-82300000D01*
X151060000Y-83235000D02*
X151060000Y-82340000D01*
X151100000Y-81266370D02*
X149416815Y-79583185D01*
X151100000Y-82300000D02*
X151100000Y-81266370D01*
%TO.N,Net-(U3-LNA_IN)*%
X151120000Y-85160000D02*
X151120000Y-84265000D01*
X151120000Y-84265000D02*
X151060000Y-84205000D01*
X152900000Y-86525000D02*
X151565000Y-86525000D01*
X151120000Y-86080000D02*
X151120000Y-85160000D01*
X151565000Y-86525000D02*
X151120000Y-86080000D01*
D83*
%TO.N,Net-(J6-In)*%
X176800000Y-78375000D02*
X176805000Y-78380000D01*
X180040000Y-78380000D02*
X182340000Y-80680000D01*
X182340000Y-80680000D02*
X182340000Y-86690000D01*
X176805000Y-78380000D02*
X180040000Y-78380000D01*
%TD*%
%TA.AperFunction,Conductor*%
%TO.N,GND*%
G36*
X179670361Y-75915621D02*
G01*
X180425624Y-76377004D01*
X180429169Y-76379253D01*
X181240049Y-76913123D01*
X181243516Y-76915490D01*
X182035892Y-77476529D01*
X182039277Y-77479013D01*
X182211620Y-77610019D01*
X182812216Y-78066561D01*
X182815483Y-78069133D01*
X183568065Y-78682490D01*
X183571268Y-78685192D01*
X184092233Y-79139981D01*
X184302650Y-79323670D01*
X184305763Y-79326481D01*
X184508319Y-79515765D01*
X185015134Y-79989373D01*
X185018152Y-79992291D01*
X185704644Y-80678784D01*
X185707562Y-80681802D01*
X186370449Y-81391171D01*
X186373263Y-81394287D01*
X187011735Y-82125665D01*
X187014442Y-82128874D01*
X187627796Y-82881455D01*
X187630393Y-82884754D01*
X188217907Y-83657650D01*
X188220391Y-83661034D01*
X188781424Y-84453405D01*
X188783792Y-84456872D01*
X189317688Y-85267794D01*
X189319936Y-85271339D01*
X189781317Y-86026602D01*
X189799500Y-86091245D01*
X189799500Y-90408598D01*
X189779815Y-90475637D01*
X189727011Y-90521392D01*
X189676017Y-90532597D01*
X178908017Y-90577495D01*
X178840896Y-90558090D01*
X178794921Y-90505477D01*
X178783500Y-90453496D01*
X178783500Y-89985668D01*
X178783500Y-89985666D01*
X178780765Y-89945332D01*
X178737405Y-89770977D01*
X178657577Y-89610019D01*
X178545015Y-89469985D01*
X178540261Y-89465231D01*
X178541651Y-89463840D01*
X178507167Y-89414316D01*
X178504580Y-89344494D01*
X178540152Y-89284358D01*
X178544044Y-89280985D01*
X178545009Y-89280019D01*
X178545015Y-89280015D01*
X178657577Y-89139981D01*
X178737405Y-88979023D01*
X178780765Y-88804668D01*
X178783500Y-88764334D01*
X178783500Y-87985666D01*
X178780765Y-87945332D01*
X178737405Y-87770977D01*
X178657577Y-87610019D01*
X178545015Y-87469985D01*
X178540261Y-87465231D01*
X178541651Y-87463840D01*
X178507167Y-87414316D01*
X178504580Y-87344494D01*
X178529641Y-87295460D01*
X178537512Y-87286045D01*
X178545015Y-87280015D01*
X178606212Y-87203881D01*
X178606983Y-87202960D01*
X178635081Y-87184194D01*
X178662807Y-87164894D01*
X178664360Y-87164641D01*
X178665086Y-87164157D01*
X178667610Y-87164112D01*
X178702111Y-87158500D01*
X178716799Y-87158500D01*
X178751394Y-87163424D01*
X178756454Y-87164894D01*
X178827746Y-87185606D01*
X178864516Y-87188500D01*
X178864522Y-87188500D01*
X179335478Y-87188500D01*
X179335484Y-87188500D01*
X179372254Y-87185606D01*
X179372256Y-87185605D01*
X179372258Y-87185605D01*
X179413746Y-87173551D01*
X179529597Y-87139894D01*
X179670629Y-87056488D01*
X179786488Y-86940629D01*
X179869894Y-86799597D01*
X179915606Y-86642254D01*
X179918500Y-86605484D01*
X179918500Y-86194516D01*
X179915606Y-86157746D01*
X179914446Y-86153754D01*
X179874343Y-86015716D01*
X179869894Y-86000403D01*
X179786488Y-85859371D01*
X179786486Y-85859369D01*
X179786483Y-85859365D01*
X179670634Y-85743516D01*
X179670626Y-85743510D01*
X179529597Y-85660106D01*
X179529592Y-85660104D01*
X179372258Y-85614394D01*
X179372252Y-85614393D01*
X179335489Y-85611500D01*
X179335484Y-85611500D01*
X178864516Y-85611500D01*
X178864509Y-85611500D01*
X178827750Y-85614393D01*
X178827745Y-85614394D01*
X178790051Y-85625345D01*
X178772595Y-85630417D01*
X178772068Y-85630570D01*
X178752970Y-85630515D01*
X178734527Y-85635458D01*
X178718756Y-85630417D01*
X178702199Y-85630370D01*
X178686164Y-85620000D01*
X178667974Y-85614186D01*
X178646291Y-85594213D01*
X178643529Y-85592427D01*
X178641858Y-85590445D01*
X178641294Y-85589762D01*
X178545015Y-85469985D01*
X178537214Y-85463714D01*
X178529153Y-85453952D01*
X178520184Y-85433011D01*
X178507167Y-85414316D01*
X178506692Y-85401508D01*
X178501646Y-85389725D01*
X178505423Y-85367258D01*
X178504580Y-85344494D01*
X178511105Y-85333461D01*
X178513231Y-85320822D01*
X178528553Y-85303966D01*
X178540152Y-85284358D01*
X178544044Y-85280985D01*
X178545009Y-85280019D01*
X178545015Y-85280015D01*
X178657577Y-85139981D01*
X178737405Y-84979023D01*
X178780765Y-84804668D01*
X178783500Y-84764334D01*
X178783500Y-83985666D01*
X178780765Y-83945332D01*
X178737405Y-83770977D01*
X178657577Y-83610019D01*
X178545015Y-83469985D01*
X178540261Y-83465231D01*
X178541651Y-83463840D01*
X178507167Y-83414316D01*
X178504580Y-83344494D01*
X178540152Y-83284358D01*
X178544044Y-83280985D01*
X178545009Y-83280019D01*
X178545015Y-83280015D01*
X178657577Y-83139981D01*
X178737405Y-82979023D01*
X178780765Y-82804668D01*
X178783500Y-82764334D01*
X178783500Y-81985666D01*
X178780765Y-81945332D01*
X178737405Y-81770977D01*
X178657577Y-81610019D01*
X178545015Y-81469985D01*
X178404981Y-81357423D01*
X178404980Y-81357422D01*
X178244024Y-81277595D01*
X178069672Y-81234235D01*
X178042778Y-81232411D01*
X178029334Y-81231500D01*
X177601343Y-81231500D01*
X177534304Y-81211815D01*
X177488549Y-81159011D01*
X177477343Y-81107264D01*
X177477778Y-80878872D01*
X177478602Y-80445075D01*
X177480129Y-79642264D01*
X177499941Y-79575262D01*
X177552832Y-79529608D01*
X177604129Y-79518500D01*
X178029332Y-79518500D01*
X178029334Y-79518500D01*
X178069668Y-79515765D01*
X178244023Y-79472405D01*
X178404981Y-79392577D01*
X178545015Y-79280015D01*
X178657577Y-79139981D01*
X178718716Y-79016706D01*
X178766137Y-78965393D01*
X178829804Y-78947800D01*
X179753447Y-78947800D01*
X179820486Y-78967485D01*
X179841128Y-78984119D01*
X181735881Y-80878872D01*
X181769366Y-80940195D01*
X181772200Y-80966553D01*
X181772200Y-85210291D01*
X181752515Y-85277330D01*
X181704495Y-85320776D01*
X181549372Y-85399815D01*
X181357275Y-85539382D01*
X181189382Y-85707275D01*
X181049815Y-85899372D01*
X180942019Y-86110932D01*
X180868643Y-86336758D01*
X180831500Y-86571272D01*
X180831500Y-86808727D01*
X180868643Y-87043241D01*
X180942019Y-87269067D01*
X180995995Y-87375000D01*
X181049815Y-87480627D01*
X181189380Y-87672722D01*
X181357278Y-87840620D01*
X181549373Y-87980185D01*
X181649328Y-88031114D01*
X181760932Y-88087980D01*
X181760934Y-88087980D01*
X181760937Y-88087982D01*
X181881984Y-88127312D01*
X181986758Y-88161356D01*
X182221273Y-88198500D01*
X182221278Y-88198500D01*
X182458727Y-88198500D01*
X182693241Y-88161356D01*
X182919063Y-88087982D01*
X183130627Y-87980185D01*
X183322722Y-87840620D01*
X183490620Y-87672722D01*
X183630185Y-87480627D01*
X183737982Y-87269063D01*
X183811356Y-87043241D01*
X183848500Y-86808727D01*
X183848500Y-86571272D01*
X183811356Y-86336758D01*
X183765138Y-86194516D01*
X183737982Y-86110937D01*
X183737980Y-86110934D01*
X183737980Y-86110932D01*
X183654411Y-85946919D01*
X183630185Y-85899373D01*
X183490620Y-85707278D01*
X183322722Y-85539380D01*
X183130627Y-85399815D01*
X183081925Y-85375000D01*
X182975505Y-85320776D01*
X182924709Y-85272801D01*
X182907800Y-85210291D01*
X182907800Y-80605250D01*
X182907800Y-80605248D01*
X182869106Y-80460837D01*
X182794353Y-80331362D01*
X182688638Y-80225647D01*
X180388638Y-77925647D01*
X180323900Y-77888270D01*
X180259164Y-77850894D01*
X180186957Y-77831547D01*
X180114752Y-77812200D01*
X180114751Y-77812200D01*
X178834764Y-77812200D01*
X178767725Y-77792515D01*
X178723676Y-77743295D01*
X178657577Y-77610019D01*
X178545015Y-77469985D01*
X178545014Y-77469984D01*
X178404980Y-77357422D01*
X178244024Y-77277595D01*
X178069672Y-77234235D01*
X178042778Y-77232411D01*
X178029334Y-77231500D01*
X177608948Y-77231500D01*
X177541909Y-77211815D01*
X177496154Y-77159011D01*
X177484948Y-77107264D01*
X177487013Y-76021202D01*
X177506825Y-75954200D01*
X177559716Y-75908546D01*
X177611013Y-75897438D01*
X179605718Y-75897438D01*
X179670361Y-75915621D01*
G37*
%TD.AperFunction*%
%TD*%
M02*
