%TF.GenerationSoftware,KiCad,Pcbnew,9.0.3*%
%TF.CreationDate,2025-08-25T21:57:46+02:00*%
%TF.ProjectId,gaia_obc,67616961-5f6f-4626-932e-6b696361645f,10*%
%TF.SameCoordinates,Original*%
%TF.FileFunction,Copper,L6,Inr*%
%TF.FilePolarity,Positive*%
%FSLAX46Y46*%
G04 Gerber Fmt 4.6, Leading zero omitted, Abs format (unit mm)*
G04 Created by KiCad (PCBNEW 9.0.3) date 2025-08-25 21:57:46*
%MOMM*%
%LPD*%
G01*
G04 APERTURE LIST*
%TA.AperFunction,ComponentPad*%
%ADD10C,2.000000*%
%TD*%
%TA.AperFunction,ComponentPad*%
%ADD11C,2.200000*%
%TD*%
%TA.AperFunction,ViaPad*%
%ADD12C,0.520000*%
%TD*%
%TA.AperFunction,ViaPad*%
%ADD13C,0.600000*%
%TD*%
%TA.AperFunction,ViaPad*%
%ADD14C,0.530000*%
%TD*%
%TA.AperFunction,ViaPad*%
%ADD15C,0.800000*%
%TD*%
%TA.AperFunction,ViaPad*%
%ADD16C,0.550000*%
%TD*%
%TA.AperFunction,ViaPad*%
%ADD17C,0.700000*%
%TD*%
%TA.AperFunction,ViaPad*%
%ADD18C,0.570000*%
%TD*%
%TA.AperFunction,ViaPad*%
%ADD19C,0.900000*%
%TD*%
%TA.AperFunction,ViaPad*%
%ADD20C,0.500000*%
%TD*%
%TA.AperFunction,Conductor*%
%ADD21C,0.400000*%
%TD*%
%TA.AperFunction,Conductor*%
%ADD22C,0.500000*%
%TD*%
%TA.AperFunction,Conductor*%
%ADD23C,0.250000*%
%TD*%
G04 APERTURE END LIST*
D10*
%TO.N,Net-(J6-In)*%
%TO.C,J6*%
X182340000Y-86690000D03*
D11*
%TO.N,GND*%
X179790000Y-84140000D03*
X179790000Y-89240000D03*
X184890000Y-84140000D03*
X184890000Y-89240000D03*
%TD*%
D12*
%TO.N,*%
X158750000Y-93050000D03*
D13*
%TO.N,VBUS*%
X145007584Y-109111001D03*
X170610000Y-119350000D03*
%TO.N,GND*%
X173400000Y-110650000D03*
D14*
X164490000Y-123950000D03*
D13*
X168750000Y-104900000D03*
X167450000Y-104250000D03*
X184200001Y-113662500D03*
X167450000Y-103600000D03*
X169037500Y-111362500D03*
X178375000Y-114375000D03*
X183390000Y-80300000D03*
D15*
X167900000Y-79250000D03*
X146890000Y-97696938D03*
D13*
X143700000Y-82560000D03*
X154100000Y-91250000D03*
X183390000Y-81053333D03*
D16*
X165600000Y-78520000D03*
D13*
X154100000Y-90050000D03*
D16*
X169980000Y-91250000D03*
D13*
X178375000Y-113575000D03*
D16*
X180700000Y-116305000D03*
X174540554Y-106900000D03*
D13*
X185600000Y-105700000D03*
X181000000Y-122930000D03*
X145910000Y-106680000D03*
X175400000Y-117895500D03*
X168000000Y-98000000D03*
D16*
X163070000Y-124520000D03*
D15*
X146890000Y-99696938D03*
D13*
X154100000Y-89450000D03*
D16*
X173910000Y-94960000D03*
D13*
X167350000Y-98000000D03*
X159275000Y-120550000D03*
D16*
X172320000Y-122960000D03*
D13*
X168750000Y-103600000D03*
D16*
X159280000Y-124260000D03*
X161200000Y-112720000D03*
D13*
X183080000Y-100670000D03*
D16*
X142250000Y-115480000D03*
D13*
X154100000Y-90650000D03*
X153120000Y-80250000D03*
X168000000Y-96700000D03*
X155500000Y-90050000D03*
D16*
X175340000Y-121060000D03*
D13*
X150018252Y-85900001D03*
X180800000Y-80470000D03*
X170812500Y-78647500D03*
D16*
X171920000Y-91690000D03*
D13*
X154200000Y-78640000D03*
D16*
X184010000Y-112060000D03*
X179124412Y-121048501D03*
X174570235Y-96600055D03*
D13*
X156900000Y-88850000D03*
X149400000Y-82300000D03*
D15*
X166950000Y-89750000D03*
D16*
X174530000Y-83670000D03*
D17*
X162950000Y-112850000D03*
D16*
X155450000Y-110590000D03*
D13*
X177200047Y-118441601D03*
D16*
X179460000Y-111930000D03*
D13*
X168650000Y-97350000D03*
D16*
X153790000Y-113020000D03*
X172170000Y-86950000D03*
X156560000Y-77140000D03*
D13*
X147390000Y-78810000D03*
D15*
X144580000Y-106860000D03*
D13*
X181078000Y-78030000D03*
D16*
X171530000Y-83820000D03*
D13*
X168650000Y-98000000D03*
D18*
X174550000Y-114150000D03*
D13*
X154600000Y-110360000D03*
X163730000Y-118370000D03*
D15*
X173175000Y-112750000D03*
D16*
X152240000Y-99590000D03*
D13*
X144240000Y-87410000D03*
X147810000Y-106710000D03*
X178960000Y-77430000D03*
D16*
X168980271Y-109957334D03*
D13*
X157124000Y-83350000D03*
D16*
X164530000Y-80680000D03*
D13*
X181350000Y-81110000D03*
X183900000Y-102800000D03*
X177096252Y-105650000D03*
X167250000Y-118450000D03*
X156200000Y-90050000D03*
X177900000Y-122650000D03*
X168650000Y-96700000D03*
D16*
X156970000Y-106900000D03*
D13*
X183390000Y-81806667D03*
X161200000Y-105050000D03*
D16*
X158220000Y-112550000D03*
D15*
X167900000Y-89750000D03*
D13*
X177200047Y-122641601D03*
X154800000Y-88850000D03*
X184800000Y-105700000D03*
X154800000Y-88250000D03*
X145060000Y-94470000D03*
D16*
X175800000Y-81315000D03*
D13*
X154800000Y-91250000D03*
D16*
X159812500Y-76252500D03*
X148570000Y-121050000D03*
D13*
X156900000Y-91250000D03*
D15*
X166900000Y-79250000D03*
D13*
X179700000Y-79340000D03*
X182812000Y-79680000D03*
X181350000Y-81820000D03*
X156900000Y-90050000D03*
D16*
X183790000Y-106720000D03*
D13*
X189180000Y-108590000D03*
D16*
X173790000Y-101790000D03*
X157302500Y-80302500D03*
D14*
X170047500Y-115065000D03*
D16*
X169610000Y-82030000D03*
D13*
X161280351Y-101584857D03*
X156200000Y-91250000D03*
X156900000Y-88250000D03*
X168100000Y-104900000D03*
X184150000Y-98650000D03*
X146290000Y-89250000D03*
D16*
X144870000Y-118950000D03*
X173810000Y-98290000D03*
D13*
X184130000Y-96710000D03*
X156900000Y-89450000D03*
X147160000Y-84830000D03*
X177096252Y-98836509D03*
X177096252Y-95387473D03*
X178375000Y-115125000D03*
D15*
X161750000Y-92375000D03*
D16*
X174589805Y-100044436D03*
D13*
X177625000Y-114350000D03*
D16*
X169920000Y-79920000D03*
D13*
X168000000Y-97350000D03*
X155500000Y-91250000D03*
X181350000Y-82560000D03*
D16*
X151320000Y-123620000D03*
D13*
X143410000Y-90500000D03*
D12*
X173852794Y-115530176D03*
D13*
X156200000Y-88850000D03*
X165654017Y-116293309D03*
X156900000Y-90650000D03*
X177096252Y-109050000D03*
X154100000Y-88850000D03*
X156200000Y-88250000D03*
D16*
X174570825Y-103451686D03*
D12*
X151200000Y-88380000D03*
D16*
X174570739Y-110350000D03*
D13*
X180250000Y-79880000D03*
X154800000Y-90650000D03*
X177096252Y-102237500D03*
X166550047Y-118450000D03*
X164661500Y-110976000D03*
X168100000Y-103600000D03*
X189180000Y-93150000D03*
X141710000Y-87100000D03*
X185350000Y-110496938D03*
X167450000Y-104900000D03*
X184800000Y-103700000D03*
D16*
X182660000Y-114200000D03*
D13*
X177900000Y-118450000D03*
X154100000Y-88250000D03*
X171722500Y-115872500D03*
X156200000Y-90650000D03*
D16*
X171020000Y-81430000D03*
D15*
X162446367Y-78377995D03*
D13*
X182234000Y-79120000D03*
D16*
X172470000Y-88770000D03*
D13*
X184080000Y-94730000D03*
X177650000Y-113575000D03*
D16*
X148570000Y-120100000D03*
D13*
X154800000Y-90050000D03*
X178960000Y-79340000D03*
X180500000Y-77560000D03*
D16*
X154770000Y-123490000D03*
D13*
X168750000Y-104250000D03*
X185600000Y-103700000D03*
X179700000Y-77440000D03*
X164600000Y-83060000D03*
X180600000Y-119095002D03*
X155500000Y-88850000D03*
X181656000Y-78530000D03*
X155500000Y-89450000D03*
X189200000Y-101010000D03*
X183390000Y-82560000D03*
D16*
X175390000Y-116780000D03*
X167760000Y-93160000D03*
D13*
X155500000Y-88250000D03*
X155500000Y-90650000D03*
X167350000Y-97350000D03*
X169000000Y-117895500D03*
X167350000Y-96700000D03*
D16*
X169460000Y-89020000D03*
D17*
X151325000Y-120425000D03*
D16*
X173770000Y-105320000D03*
X169960000Y-121760000D03*
D15*
X161096367Y-78377995D03*
D16*
X183130000Y-110850000D03*
D13*
X168100000Y-104250000D03*
X156200000Y-89450000D03*
X154800000Y-89450000D03*
X177650000Y-115075000D03*
X158270000Y-118440000D03*
D14*
%TO.N,/SD_CS*%
X158070000Y-90370000D03*
D13*
X152863302Y-111438168D03*
X154880000Y-120610000D03*
X163375000Y-89360000D03*
D14*
%TO.N,+3.3V*%
X165740000Y-94200000D03*
D16*
X173130000Y-86950000D03*
D15*
X151850000Y-77750000D03*
D13*
X168120000Y-120540000D03*
D16*
X145830000Y-118950000D03*
D13*
X161800000Y-109980000D03*
D15*
X150950000Y-77750000D03*
D13*
X167449000Y-100250000D03*
X169037500Y-113637500D03*
X163120000Y-115840000D03*
X166010000Y-106050000D03*
D16*
X158852500Y-76252500D03*
D14*
X165839292Y-101151344D03*
X164848609Y-95089274D03*
D13*
X163000000Y-106910000D03*
X157090000Y-121860000D03*
X166875000Y-109525000D03*
D12*
X153000000Y-95660000D03*
D14*
X170800000Y-101400000D03*
D16*
X149530000Y-120100000D03*
D12*
X154450000Y-83390000D03*
D13*
X155410000Y-104530000D03*
D14*
X164955058Y-102036762D03*
D16*
X141290000Y-113600000D03*
X179109545Y-86401345D03*
D13*
X150870000Y-95360000D03*
X149300000Y-87300000D03*
D16*
X158262500Y-80302500D03*
D14*
X170710000Y-94410000D03*
D16*
X149530000Y-121050000D03*
D14*
X158070000Y-89630000D03*
D13*
X179743403Y-91595938D03*
D16*
X142250000Y-114520000D03*
%TO.N,+BATT*%
X175390000Y-115820000D03*
D13*
X177250000Y-116850000D03*
D19*
X187280000Y-107696938D03*
D16*
X175350000Y-112870000D03*
D15*
%TO.N,VCC*%
X172400000Y-95000000D03*
X172400000Y-98500000D03*
D13*
X168400000Y-100650000D03*
X168550000Y-94200000D03*
D15*
X172400000Y-101850000D03*
X172400000Y-108700000D03*
X170650000Y-108350000D03*
D13*
X172350000Y-96624000D03*
D15*
X172400000Y-105200000D03*
D13*
%TO.N,/USB_D+*%
X170994824Y-115690861D03*
D14*
X158077877Y-91776196D03*
D13*
%TO.N,/USB_D-*%
X172940000Y-115920000D03*
D14*
X158075284Y-91063678D03*
D13*
%TO.N,/LORA_RESET*%
X154820000Y-92289997D03*
D15*
X161750000Y-82400000D03*
D13*
%TO.N,/VOUT_A1*%
X179362500Y-96337500D03*
D15*
X183110000Y-91696938D03*
D13*
%TO.N,Net-(U8-CT)*%
X179337500Y-101287500D03*
%TO.N,Net-(U8-QOD)*%
X179337500Y-102237500D03*
%TO.N,I2C_1_SDA*%
X153645025Y-99045025D03*
X154634975Y-100034975D03*
X165162500Y-103937500D03*
X164475000Y-96990000D03*
X154060000Y-109350000D03*
D12*
X154000000Y-94640000D03*
D13*
X142310000Y-116250000D03*
X172620000Y-111350000D03*
X144300000Y-92450000D03*
X153650000Y-97440000D03*
X158430000Y-103830000D03*
X157398903Y-81301097D03*
%TO.N,Net-(IC1-QSTRT)*%
X171700000Y-110650000D03*
X171150000Y-113000000D03*
%TO.N,/VOUT_A2*%
X179362500Y-99787500D03*
D15*
X184000000Y-93650000D03*
D13*
%TO.N,/VOUT_A3*%
X179337500Y-103187500D03*
%TO.N,I2C_1_SCL*%
X145050000Y-90450000D03*
X158814791Y-81304615D03*
X156800000Y-100500000D03*
X165181447Y-104687263D03*
X143630000Y-117480000D03*
X171080000Y-112110000D03*
X157550000Y-76500000D03*
X154543413Y-97533413D03*
X157940000Y-104680000D03*
X164475000Y-97740003D03*
D12*
X155000000Y-94640000D03*
D13*
%TO.N,Net-(IC1-~{ALRT})*%
X175525000Y-111650000D03*
X171200000Y-113800000D03*
%TO.N,/VOUT_B1*%
X179337500Y-106600000D03*
%TO.N,/VOUT_B2*%
X179337500Y-110000000D03*
%TO.N,Net-(D4-A)*%
X147015735Y-119885735D03*
X140960000Y-101710000D03*
X140970000Y-114790000D03*
%TO.N,Net-(D5-A)*%
X149998000Y-114154050D03*
%TO.N,Net-(D6-A)*%
X148170000Y-104740000D03*
X140979998Y-97568632D03*
%TO.N,Net-(D7-A)*%
X140870000Y-95480000D03*
%TO.N,Net-(D8-A)*%
X147050000Y-89690000D03*
%TO.N,Net-(D9-A)*%
X140880000Y-91330000D03*
%TO.N,Net-(U3-GPIO18)*%
X159555471Y-89325000D03*
%TO.N,/GPS_RX*%
X155250000Y-85200000D03*
D14*
X148050000Y-88140000D03*
D16*
%TO.N,/GPS_TX*%
X153100000Y-87290000D03*
D14*
X149000000Y-88140000D03*
D13*
%TO.N,/SCREEN_RESET*%
X155834866Y-87299998D03*
X158950000Y-94655204D03*
%TO.N,/SCREEN_MOSI*%
X158988825Y-82970666D03*
X157125000Y-84187500D03*
%TO.N,/SCREEN_DC*%
X160299997Y-98632195D03*
X156496610Y-85755593D03*
X163950000Y-90600000D03*
X158675000Y-84949110D03*
%TO.N,/SCREEN_CLK*%
X161050000Y-98632195D03*
X156900000Y-87150000D03*
X162124508Y-95128000D03*
X160240065Y-81375001D03*
%TO.N,/SCREEN_CS*%
X160900000Y-100850000D03*
X163150000Y-95128000D03*
X163865409Y-78515409D03*
X155746921Y-85777256D03*
%TO.N,Net-(D11-A)*%
X141681666Y-110986724D03*
X175677138Y-115101741D03*
%TO.N,/EXP2_USART_RXD*%
X153710000Y-92220000D03*
X151210000Y-92201000D03*
X146970000Y-103670000D03*
X141860000Y-90036020D03*
%TO.N,/EXP1_SPI_CS*%
X147910000Y-94646940D03*
X148212414Y-92748106D03*
D12*
%TO.N,I2C_2_SCL*%
X148596938Y-93696938D03*
D13*
X159600000Y-87550000D03*
X161940000Y-93460000D03*
D12*
X152000000Y-94640000D03*
D13*
%TO.N,I2C_2_SDA*%
X159600000Y-86700000D03*
X146890000Y-91696938D03*
D12*
X153000000Y-94640000D03*
D13*
%TO.N,SPI_0_SCLK*%
X143571531Y-100548469D03*
X157150000Y-118600000D03*
D12*
X158000000Y-94640000D03*
D16*
X158101594Y-88672353D03*
D15*
X161750000Y-86350000D03*
D13*
%TO.N,SPI_0_MOSI*%
X145650000Y-98746936D03*
X149100000Y-105800000D03*
D12*
X157000000Y-94640000D03*
D13*
X158999475Y-93714729D03*
X154250000Y-118300000D03*
X159810491Y-91186999D03*
X149700000Y-103700000D03*
%TO.N,SPI_0_MISO*%
X144550000Y-96500000D03*
X160375000Y-120550000D03*
D15*
X161750000Y-90450000D03*
D12*
X156000000Y-94640000D03*
D13*
X158132267Y-87948000D03*
%TO.N,/EN_B1*%
X177062500Y-104700000D03*
X148119195Y-110862063D03*
%TO.N,/EN_A1*%
X177087500Y-94437500D03*
X145650000Y-110900000D03*
%TO.N,/EN_A2*%
X177087500Y-97887500D03*
X146391562Y-110787797D03*
%TO.N,/EN_A3*%
X177062500Y-101287500D03*
X147180302Y-110880302D03*
%TO.N,/EN_B2*%
X148925956Y-110975956D03*
X177062500Y-108100000D03*
%TO.N,Net-(D3-A)*%
X146010000Y-119840000D03*
X140960000Y-103780000D03*
D16*
%TO.N,+3V0*%
X157930000Y-106890000D03*
D13*
X167558736Y-112657321D03*
D12*
%TO.N,Net-(U3-CHIP_PU)*%
X154450000Y-84410000D03*
D16*
X156560000Y-78100000D03*
D15*
X175800000Y-77041000D03*
D13*
%TO.N,Net-(U4-IN+1)*%
X183000000Y-92700000D03*
X177096252Y-96337500D03*
%TO.N,Net-(U4-IN+2)*%
X177096252Y-99787500D03*
X183090000Y-96700000D03*
%TO.N,Net-(U4-IN+3)*%
X184100000Y-100690000D03*
X177096252Y-103187500D03*
%TO.N,Net-(U5-IN+1)*%
X177096252Y-106600000D03*
X183200000Y-104746936D03*
X171400000Y-103600000D03*
X169100000Y-101300000D03*
%TO.N,Net-(U10-VIN)*%
X177096252Y-110000000D03*
X183450000Y-108746936D03*
D20*
%TO.N,Net-(Q3-D)*%
X165630000Y-109540000D03*
X153900000Y-106125000D03*
D13*
%TO.N,/PB1*%
X151550000Y-113900000D03*
D16*
%TO.N,Net-(D10-A)*%
X175225000Y-114535000D03*
D13*
X140951000Y-110081857D03*
%TO.N,/PB3*%
X157625000Y-117025000D03*
%TO.N,/PB5*%
X163125000Y-117025000D03*
%TO.N,/PB2*%
X152264134Y-112880000D03*
%TO.N,/PB4*%
X150850000Y-116800000D03*
%TO.N,Net-(U3-GPIO0)*%
X174300000Y-91650000D03*
X154308451Y-85167963D03*
D14*
%TO.N,Net-(U4-VPU)*%
X166120000Y-100050000D03*
D13*
X170800000Y-98300000D03*
%TO.N,Net-(U4-PV)*%
X167650000Y-94250000D03*
D14*
X165100000Y-100050000D03*
D13*
%TO.N,Net-(U5-VPU)*%
X169950000Y-106050000D03*
D14*
X166220000Y-107000000D03*
%TO.N,Net-(U5-PV)*%
X165200000Y-107000000D03*
D13*
X167750000Y-101525569D03*
%TO.N,Net-(U6-CT)*%
X179362500Y-94437500D03*
%TO.N,Net-(U6-QOD)*%
X179362500Y-95387500D03*
%TO.N,Net-(U7-CT)*%
X179362500Y-97887500D03*
%TO.N,Net-(U7-QOD)*%
X179362500Y-98837500D03*
%TO.N,Net-(U9-CT)*%
X179337500Y-104700000D03*
%TO.N,Net-(U9-QOD)*%
X179337500Y-105650000D03*
%TO.N,Net-(U10-QOD)*%
X179337500Y-109050000D03*
%TO.N,Net-(U10-CT)*%
X179337500Y-108100000D03*
%TO.N,Net-(U12-CS)*%
X186050000Y-119600000D03*
X184016111Y-119597150D03*
%TO.N,Net-(D2-A)*%
X140950000Y-105900000D03*
%TD*%
D21*
%TO.N,VBUS*%
X144999000Y-111169654D02*
X148769346Y-114940000D01*
X144999000Y-109121000D02*
X144999000Y-111169654D01*
X158551000Y-121201000D02*
X168759000Y-121201000D01*
X152290000Y-114940000D02*
X158551000Y-121201000D01*
X145007584Y-109111001D02*
X145007584Y-109112416D01*
X148769346Y-114940000D02*
X152290000Y-114940000D01*
X145007584Y-109112416D02*
X144999000Y-109121000D01*
X168759000Y-121201000D02*
X170610000Y-119350000D01*
%TO.N,/USB_D+*%
X158124257Y-91729816D02*
X158187835Y-91729816D01*
X158187835Y-91729816D02*
X158897019Y-92439000D01*
X159361000Y-92902981D02*
X160889000Y-94430981D01*
X171071500Y-115710000D02*
X171013963Y-115710000D01*
X170994824Y-114524824D02*
X170994824Y-115690861D01*
X163750000Y-99933208D02*
X163750000Y-108509943D01*
X158077877Y-91776196D02*
X158124257Y-91729816D01*
X158897019Y-92439000D02*
X159003085Y-92439000D01*
X171013963Y-115710000D02*
X170994824Y-115690861D01*
X168476321Y-112006321D02*
X170994824Y-114524824D01*
X171071500Y-115250846D02*
X171071500Y-115710000D01*
X159361000Y-92796915D02*
X159361000Y-92902981D01*
X160889000Y-94430981D02*
X160889000Y-97072208D01*
X167246378Y-112006321D02*
X168476321Y-112006321D01*
X159003085Y-92439000D02*
X159361000Y-92796915D01*
X160889000Y-97072208D02*
X163750000Y-99933208D01*
X163750000Y-108509943D02*
X167246378Y-112006321D01*
%TO.N,/USB_D-*%
X172930000Y-114200000D02*
X172930000Y-115910000D01*
X164824422Y-99454422D02*
X164844844Y-99434000D01*
X166799000Y-99857844D02*
X166799000Y-106707844D01*
X161401058Y-94061000D02*
X161440000Y-94061000D01*
X166799000Y-106707844D02*
X172424000Y-112332844D01*
X161440000Y-94061000D02*
X161440000Y-96070000D01*
X172424000Y-113694000D02*
X172930000Y-114200000D01*
X158075284Y-91063678D02*
X158088959Y-91050003D01*
X161440000Y-96070000D02*
X164824422Y-99454422D01*
X172930000Y-115910000D02*
X172940000Y-115920000D01*
X166375156Y-99434000D02*
X166799000Y-99857844D01*
X158088959Y-91050003D02*
X158670003Y-91050003D01*
X159922492Y-92582434D02*
X161401058Y-94061000D01*
X159922492Y-92302492D02*
X159922492Y-92582434D01*
X164844844Y-99434000D02*
X166375156Y-99434000D01*
X158670003Y-91050003D02*
X159922492Y-92302492D01*
X172424000Y-112332844D02*
X172424000Y-113694000D01*
%TO.N,I2C_1_SDA*%
X143079000Y-109341114D02*
X144512114Y-107908000D01*
D22*
X157398903Y-81301097D02*
X152307597Y-81301097D01*
D21*
X144512114Y-107908000D02*
X153791346Y-107908000D01*
D22*
X144300000Y-89308694D02*
X144300000Y-92450000D01*
X152307597Y-81301097D02*
X144300000Y-89308694D01*
D21*
X142134702Y-116250000D02*
X141624000Y-115739298D01*
X157869346Y-103830000D02*
X158430000Y-103830000D01*
X153791346Y-107908000D02*
X157869346Y-103830000D01*
X143079000Y-112805702D02*
X143079000Y-109341114D01*
X141624000Y-115739298D02*
X141624000Y-114260702D01*
X142310000Y-116250000D02*
X142134702Y-116250000D01*
X141624000Y-114260702D02*
X143079000Y-112805702D01*
%TO.N,I2C_1_SCL*%
X168849139Y-110711500D02*
X168190000Y-110052361D01*
D22*
X145050000Y-89479347D02*
X145050000Y-90450000D01*
D21*
X164944844Y-107616000D02*
X164584000Y-107255156D01*
X164584000Y-107255156D02*
X164584000Y-105284710D01*
X143630000Y-109569346D02*
X144740346Y-108459000D01*
X143630000Y-117480000D02*
X143630000Y-109569346D01*
X165926000Y-107616000D02*
X164944844Y-107616000D01*
X168190000Y-109880000D02*
X165926000Y-107616000D01*
X154161000Y-108459000D02*
X157940000Y-104680000D01*
D22*
X158814791Y-81304615D02*
X157826000Y-82293406D01*
X157826000Y-82293406D02*
X152235941Y-82293406D01*
X152235941Y-82293406D02*
X145050000Y-89479347D01*
D21*
X164584000Y-105284710D02*
X165181447Y-104687263D01*
X144740346Y-108459000D02*
X154161000Y-108459000D01*
X171080000Y-112110000D02*
X169681500Y-110711500D01*
X168190000Y-110052361D02*
X168190000Y-109880000D01*
X169681500Y-110711500D02*
X168849139Y-110711500D01*
%TO.N,Net-(D4-A)*%
X140401000Y-113188044D02*
X142332666Y-111256378D01*
X140920000Y-101710000D02*
X140960000Y-101710000D01*
X142332666Y-103122666D02*
X140920000Y-101710000D01*
X140401000Y-114221000D02*
X140401000Y-113188044D01*
X140970000Y-114790000D02*
X140401000Y-114221000D01*
X142332666Y-111256378D02*
X142332666Y-103122666D01*
D22*
%TO.N,/GPS_RX*%
X148050000Y-88140000D02*
X148050000Y-87400000D01*
X148050000Y-87400000D02*
X148850000Y-86600000D01*
X148850000Y-86600000D02*
X153866364Y-86600000D01*
X153866364Y-86600000D02*
X155250000Y-85216364D01*
X155250000Y-85216364D02*
X155250000Y-85200000D01*
%TO.N,/GPS_TX*%
X153070099Y-87300000D02*
X153068685Y-87300000D01*
X150161364Y-87430000D02*
X149590364Y-88001000D01*
X149139000Y-88001000D02*
X149000000Y-88140000D01*
X152938685Y-87430000D02*
X150161364Y-87430000D01*
X153080099Y-87290000D02*
X153070099Y-87300000D01*
X149590364Y-88001000D02*
X149139000Y-88001000D01*
X153068685Y-87300000D02*
X152938685Y-87430000D01*
X153100000Y-87290000D02*
X153080099Y-87290000D01*
%TO.N,/EXP2_USART_RXD*%
X141860000Y-99828302D02*
X145701698Y-103670000D01*
X145701698Y-103670000D02*
X146970000Y-103670000D01*
X141860000Y-90036020D02*
X141860000Y-99828302D01*
%TO.N,I2C_2_SCL*%
X161940000Y-93460000D02*
X161650000Y-93460000D01*
X160523492Y-88473492D02*
X159600000Y-87550000D01*
X160523492Y-92333492D02*
X160523492Y-88473492D01*
X161650000Y-93460000D02*
X160523492Y-92333492D01*
%TO.N,I2C_2_SDA*%
X153860049Y-87500000D02*
X153000000Y-88360049D01*
X159349000Y-86449000D02*
X156609636Y-86449000D01*
X159600000Y-86700000D02*
X159349000Y-86449000D01*
X156609636Y-86449000D02*
X156459638Y-86598998D01*
X153887018Y-87500000D02*
X153860049Y-87500000D01*
X156459638Y-86598998D02*
X154788020Y-86598998D01*
X154788020Y-86598998D02*
X153887018Y-87500000D01*
X153000000Y-88360049D02*
X153000000Y-94640000D01*
D23*
%TO.N,SPI_0_SCLK*%
X157509000Y-94149000D02*
X157509000Y-89264947D01*
X158000000Y-94640000D02*
X157509000Y-94149000D01*
X157509000Y-89264947D02*
X158101594Y-88672353D01*
D22*
%TO.N,SPI_0_MISO*%
X159449000Y-98690364D02*
X156000000Y-95241364D01*
X156000000Y-95241364D02*
X156000000Y-94640000D01*
X160375000Y-120550000D02*
X159449000Y-119624000D01*
X159449000Y-119624000D02*
X159449000Y-98690364D01*
%TD*%
M02*
