%TF.GenerationSoftware,KiCad,Pcbnew,9.0.6*%
%TF.CreationDate,2025-12-12T18:48:04+01:00*%
%TF.ProjectId,gaia_obc,67616961-5f6f-4626-932e-6b696361645f,10*%
%TF.SameCoordinates,Original*%
%TF.FileFunction,Copper,L6,Inr*%
%TF.FilePolarity,Positive*%
%FSLAX46Y46*%
G04 Gerber Fmt 4.6, Leading zero omitted, Abs format (unit mm)*
G04 Created by KiCad (PCBNEW 9.0.6) date 2025-12-12 18:48:04*
%MOMM*%
%LPD*%
G01*
G04 APERTURE LIST*
%TA.AperFunction,ViaPad*%
%ADD10C,0.600000*%
%TD*%
%TA.AperFunction,ViaPad*%
%ADD11C,0.520000*%
%TD*%
%TA.AperFunction,ViaPad*%
%ADD12C,0.800000*%
%TD*%
%TA.AperFunction,ViaPad*%
%ADD13C,0.550000*%
%TD*%
%TA.AperFunction,ViaPad*%
%ADD14C,0.530000*%
%TD*%
%TA.AperFunction,ViaPad*%
%ADD15C,0.700000*%
%TD*%
%TA.AperFunction,ViaPad*%
%ADD16C,1.000000*%
%TD*%
%TA.AperFunction,ViaPad*%
%ADD17C,0.500000*%
%TD*%
%TA.AperFunction,Conductor*%
%ADD18C,0.600000*%
%TD*%
%TA.AperFunction,Conductor*%
%ADD19C,0.250000*%
%TD*%
%TA.AperFunction,Conductor*%
%ADD20C,0.200000*%
%TD*%
%TA.AperFunction,Conductor*%
%ADD21C,0.400000*%
%TD*%
%TA.AperFunction,Conductor*%
%ADD22C,0.300000*%
%TD*%
G04 APERTURE END LIST*
D10*
%TO.N,+3V0*%
X185400000Y-92496938D03*
X172200000Y-93174000D03*
%TO.N,VCC*%
X187450000Y-90450000D03*
%TO.N,VCCQ*%
X187450000Y-92646940D03*
%TO.N,+1V8*%
X185400000Y-90400000D03*
X179475000Y-122050000D03*
%TO.N,+3.3V*%
X185350000Y-94600000D03*
%TO.N,GND*%
X154100000Y-112850000D03*
X163500000Y-118400000D03*
%TO.N,VBACKUP*%
X145086091Y-87486091D03*
%TO.N,GND*%
X169950000Y-100000000D03*
X156050000Y-97400000D03*
X149437103Y-85187103D03*
X153500000Y-82550000D03*
X149750000Y-104250000D03*
X149600000Y-124000000D03*
X152050000Y-122200000D03*
X156050000Y-124750000D03*
X188450000Y-87150000D03*
X180300000Y-89400000D03*
%TO.N,+3.3V*%
X144800000Y-96700000D03*
%TO.N,+3V0*%
X158825000Y-102629000D03*
%TO.N,/SCREEN_CLK*%
X160600000Y-102629000D03*
%TO.N,/SCREEN_DC*%
X159975000Y-101600000D03*
%TO.N,SPI_0_MISO*%
X159500000Y-94350000D03*
X163800000Y-94050000D03*
%TO.N,/SD_CS*%
X164526000Y-93350000D03*
%TO.N,I2C_2_SDA*%
X157800000Y-87250000D03*
%TO.N,/SCREEN_DC*%
X156655783Y-87263148D03*
%TO.N,/SCREEN_CLK*%
X156650000Y-85350000D03*
D11*
%TO.N,Net-(U3-GPIO18)*%
X169200000Y-77710000D03*
D10*
%TO.N,I2C_1_SCL*%
X158825672Y-81150000D03*
%TO.N,I2C_1_SDA*%
X157398903Y-81301097D03*
D11*
%TO.N,*%
X158750000Y-93050000D03*
D10*
%TO.N,VBUS*%
X170610000Y-119350000D03*
%TO.N,GND*%
X185150000Y-100750000D03*
X145581250Y-114825000D03*
X146375000Y-113275000D03*
X168750000Y-104900000D03*
X167450000Y-104250000D03*
X150050000Y-97550000D03*
X167450000Y-103600000D03*
X169037500Y-111362500D03*
X183390000Y-80300000D03*
X145556250Y-116375000D03*
D12*
X167900000Y-79250000D03*
X146890000Y-97696938D03*
D10*
X145606250Y-113275000D03*
X154100000Y-91250000D03*
X183390000Y-81053333D03*
D13*
X165600000Y-78520000D03*
D10*
X154100000Y-90050000D03*
X181762500Y-121093619D03*
D13*
X169980000Y-91250000D03*
D10*
X160400000Y-98400000D03*
X186500000Y-85900000D03*
D13*
X174540554Y-106900000D03*
D10*
X185600000Y-105700000D03*
D13*
X180130000Y-123300000D03*
D10*
X146890000Y-107696938D03*
X175400000Y-118125000D03*
X148400000Y-122550000D03*
X168000000Y-98000000D03*
X147093750Y-116375000D03*
D13*
X163070000Y-124520000D03*
D12*
X146890000Y-99696938D03*
D10*
X154100000Y-89450000D03*
D13*
X173910000Y-94960000D03*
D10*
X167350000Y-98000000D03*
X159275000Y-120550000D03*
D13*
X172100000Y-122950000D03*
D10*
X168750000Y-103600000D03*
D13*
X159280000Y-124260000D03*
D10*
X182700000Y-88700000D03*
D13*
X161200000Y-112720000D03*
X142250000Y-115480000D03*
D10*
X154100000Y-90650000D03*
X153300000Y-80751097D03*
X160450000Y-107200000D03*
X168000000Y-96700000D03*
X155500000Y-90050000D03*
D13*
X174750000Y-121600000D03*
D10*
X180800000Y-80470000D03*
X170812500Y-78647500D03*
D13*
X171920000Y-91690000D03*
D10*
X155500000Y-80000000D03*
X147887500Y-114825000D03*
D13*
X184700000Y-111950000D03*
X177150000Y-121050000D03*
X174570235Y-96600055D03*
D10*
X156900000Y-88850000D03*
D12*
X166950000Y-89750000D03*
D13*
X174530000Y-83670000D03*
D10*
X144837500Y-113275000D03*
D12*
X142175000Y-99688241D03*
D13*
X155450000Y-110590000D03*
X180857707Y-111375000D03*
D10*
X168650000Y-97350000D03*
D13*
X172170000Y-86950000D03*
X156560000Y-77140000D03*
D12*
X143600000Y-107700000D03*
D10*
X144837500Y-114050000D03*
X147912500Y-113275000D03*
X146375000Y-114050000D03*
X181078000Y-78030000D03*
D13*
X171530000Y-83820000D03*
D10*
X182950000Y-116250000D03*
X168650000Y-98000000D03*
X185250000Y-82950000D03*
X147118750Y-114825000D03*
D13*
X152240000Y-99590000D03*
D10*
X147881016Y-106646940D03*
X178960000Y-77430000D03*
D13*
X168980271Y-109957334D03*
D10*
X157124000Y-83350000D03*
D13*
X164530000Y-80680000D03*
D10*
X181350000Y-81110000D03*
X183900000Y-102800000D03*
X177096252Y-105650000D03*
X167250000Y-118450000D03*
X147862500Y-116375000D03*
X156200000Y-90050000D03*
X144812500Y-114825000D03*
X177900000Y-122650000D03*
X168650000Y-96700000D03*
D13*
X156970000Y-106900000D03*
D10*
X183390000Y-81806667D03*
D13*
X157400000Y-112700000D03*
D12*
X167900000Y-89750000D03*
D10*
X177200047Y-122641601D03*
X154800000Y-88850000D03*
X184800000Y-105700000D03*
X154800000Y-88250000D03*
X147887500Y-115600000D03*
X145153907Y-94256114D03*
D13*
X175800000Y-81315000D03*
D10*
X154800000Y-91250000D03*
D13*
X159812500Y-76252500D03*
X148570000Y-121050000D03*
D10*
X156900000Y-91250000D03*
D12*
X166900000Y-79250000D03*
D10*
X187300000Y-88800000D03*
X179700000Y-79340000D03*
X182812000Y-79680000D03*
X144787500Y-116375000D03*
X181350000Y-81820000D03*
X156900000Y-90050000D03*
D13*
X184450000Y-106750000D03*
D10*
X189350000Y-109000000D03*
D13*
X173790000Y-101790000D03*
X157302500Y-80302500D03*
D14*
X170047500Y-115065000D03*
D13*
X169610000Y-82030000D03*
D10*
X156200000Y-91250000D03*
X156900000Y-88250000D03*
X168100000Y-104900000D03*
X158150000Y-100250000D03*
X146290000Y-89250000D03*
D13*
X144870000Y-118950000D03*
X173872731Y-98572731D03*
D10*
X184541007Y-96624276D03*
X156900000Y-89450000D03*
X177096252Y-98836509D03*
X177096252Y-95387473D03*
D15*
X180650000Y-114350000D03*
D12*
X162400000Y-92200000D03*
D13*
X174589805Y-100044436D03*
D10*
X179100000Y-88350000D03*
X144812500Y-115600000D03*
X146350000Y-114825000D03*
X146350000Y-115600000D03*
D13*
X169920000Y-79920000D03*
D10*
X145581250Y-115600000D03*
X168000000Y-97350000D03*
X155500000Y-91250000D03*
X181350000Y-82560000D03*
D13*
X151320000Y-123620000D03*
D10*
X143750000Y-90450000D03*
D11*
X173852794Y-115530176D03*
D10*
X156200000Y-88850000D03*
X165654017Y-116293309D03*
X156900000Y-90650000D03*
X177096252Y-109050000D03*
X154100000Y-88850000D03*
X156200000Y-88250000D03*
D13*
X174570825Y-103451686D03*
D11*
X151200000Y-88380000D03*
D12*
X171450000Y-113150000D03*
D13*
X174570739Y-110350000D03*
D10*
X180250000Y-79880000D03*
X147118750Y-115600000D03*
X154800000Y-90650000D03*
X177096252Y-102237500D03*
X166550047Y-118450000D03*
X145606250Y-114050000D03*
X164661500Y-110976000D03*
X184950000Y-108850000D03*
X168100000Y-103600000D03*
X155250000Y-116712500D03*
X187450000Y-94646940D03*
X167450000Y-104900000D03*
X184800000Y-103700000D03*
X147912500Y-114050000D03*
X154100000Y-88250000D03*
X171722500Y-115872500D03*
X169700000Y-124000000D03*
X146000000Y-92746936D03*
X156200000Y-90650000D03*
X177700000Y-119525000D03*
D13*
X171020000Y-81430000D03*
D12*
X162446367Y-78377995D03*
D10*
X182234000Y-79120000D03*
D13*
X175870000Y-115450000D03*
X172470000Y-88770000D03*
X148570000Y-120100000D03*
D10*
X183800000Y-85195000D03*
X154800000Y-90050000D03*
X178960000Y-79340000D03*
X180500000Y-77560000D03*
D13*
X154770000Y-123490000D03*
D10*
X168750000Y-104250000D03*
X185600000Y-103700000D03*
X179700000Y-77440000D03*
X164600000Y-83060000D03*
X180600000Y-119095002D03*
X155500000Y-88850000D03*
X181656000Y-78530000D03*
X147143750Y-113275000D03*
X180850000Y-85195000D03*
X155500000Y-89450000D03*
X189200000Y-100350000D03*
X183390000Y-82560000D03*
X146325000Y-116375000D03*
X155300000Y-102950000D03*
D13*
X167760000Y-93160000D03*
D10*
X155500000Y-88250000D03*
X155500000Y-90650000D03*
X167350000Y-97350000D03*
X167350000Y-96700000D03*
D13*
X169460000Y-89020000D03*
D15*
X151325000Y-120425000D03*
D13*
X173770000Y-105320000D03*
X169960000Y-121760000D03*
D12*
X161096367Y-78377995D03*
D13*
X183130000Y-110850000D03*
D10*
X147143750Y-114050000D03*
X168100000Y-104250000D03*
X156200000Y-89450000D03*
X154800000Y-89450000D03*
D15*
X179900000Y-114350000D03*
D14*
%TO.N,/SD_CS*%
X158070000Y-90370000D03*
D10*
X152863302Y-111438168D03*
X154880000Y-120610000D03*
X163375000Y-89400000D03*
D14*
%TO.N,+3.3V*%
X165740000Y-94200000D03*
X179400000Y-93250000D03*
D12*
X155150000Y-78700000D03*
D10*
X168120000Y-120540000D03*
D13*
X145830000Y-118950000D03*
D10*
X161800000Y-109980000D03*
X167449000Y-100250000D03*
X168087500Y-113637500D03*
X163120000Y-115840000D03*
X166010000Y-106050000D03*
D13*
X158852500Y-76252500D03*
D14*
X165839292Y-101151344D03*
X164848609Y-95089274D03*
D10*
X163000000Y-106910000D03*
X157027880Y-120597120D03*
D13*
X166758760Y-109466240D03*
D11*
X153000000Y-95660000D03*
D14*
X170800000Y-101400000D03*
D13*
X149530000Y-120100000D03*
D11*
X154450000Y-83390000D03*
D10*
X155410000Y-104530000D03*
D14*
X164955058Y-102036762D03*
D13*
X141290000Y-113600000D03*
X179109545Y-86401345D03*
D10*
X152000000Y-98400000D03*
X149770000Y-86650000D03*
D13*
X158262500Y-80302500D03*
D14*
X170710000Y-94410000D03*
D13*
X149530000Y-121050000D03*
D14*
X158070000Y-89630000D03*
D10*
X185150000Y-102300000D03*
D13*
X142250000Y-114520000D03*
D10*
%TO.N,+BATT*%
X177150000Y-116700000D03*
X178225000Y-115424000D03*
D12*
%TO.N,VCC*%
X172400000Y-95000000D03*
X172400000Y-98500000D03*
D10*
X168400000Y-100650000D03*
X168550000Y-94200000D03*
D12*
X172400000Y-101850000D03*
X170508130Y-108395630D03*
D10*
X172350000Y-96624000D03*
D12*
X172400000Y-105200000D03*
D10*
X175000000Y-114300000D03*
%TO.N,/USB_D+*%
X171105693Y-115445824D03*
D14*
X158077877Y-91776196D03*
D10*
%TO.N,/USB_D-*%
X173519073Y-114827601D03*
D14*
X158075284Y-91063678D03*
D10*
%TO.N,/LORA_RESET*%
X155845126Y-92290449D03*
D12*
X161750000Y-82400000D03*
D10*
%TO.N,/VOUT_A1*%
X179362500Y-96337500D03*
D12*
X183110000Y-91696938D03*
D10*
%TO.N,Net-(U8-CT)*%
X179337500Y-101287500D03*
%TO.N,Net-(U8-QOD)*%
X179337500Y-102237500D03*
%TO.N,I2C_1_SDA*%
X165162500Y-103937500D03*
X164475000Y-96990000D03*
X155900000Y-109650000D03*
D11*
X154000000Y-94640000D03*
X171750000Y-110150000D03*
D10*
X186266911Y-100646938D03*
X142310000Y-116250000D03*
X144400000Y-91100000D03*
X153950000Y-96721000D03*
X158430000Y-103830000D03*
D16*
%TO.N,PRI_HI*%
X187280000Y-107696938D03*
D10*
%TO.N,/VOUT_A2*%
X179362500Y-99787500D03*
D12*
X184000000Y-93650000D03*
D10*
%TO.N,/VOUT_A3*%
X179337500Y-103187500D03*
%TO.N,I2C_1_SCL*%
X145050000Y-90450000D03*
X156800000Y-100500000D03*
D11*
X172540000Y-112360000D03*
D10*
X165181447Y-104687263D03*
X143630000Y-117480000D03*
X186700000Y-96746936D03*
X157550000Y-76500000D03*
X155000000Y-96721000D03*
X157940000Y-104680000D03*
X164475000Y-97740003D03*
D11*
X155000000Y-94640000D03*
D10*
%TO.N,/VOUT_B1*%
X179337500Y-106600000D03*
%TO.N,/VOUT_B2*%
X179337500Y-110000000D03*
%TO.N,Net-(D4-A)*%
X147015735Y-119885735D03*
X140970000Y-114790000D03*
X141000000Y-106456621D03*
%TO.N,Net-(D5-A)*%
X149998000Y-114154050D03*
%TO.N,Net-(D6-A)*%
X148170000Y-104740000D03*
X141000000Y-100713241D03*
%TO.N,Net-(D7-A)*%
X140500000Y-96130000D03*
%TO.N,Net-(D8-A)*%
X147050000Y-89690000D03*
%TO.N,Net-(D9-A)*%
X140979998Y-92098172D03*
%TO.N,Net-(U3-GPIO18)*%
X159555471Y-89325000D03*
%TO.N,/GPS_RX*%
X155250000Y-85200000D03*
X147268155Y-87356052D03*
D13*
%TO.N,/GPS_TX*%
X153100000Y-87290000D03*
D14*
X149000000Y-86650000D03*
D10*
%TO.N,/SCREEN_RESET*%
X155834866Y-87299998D03*
X159911091Y-95621000D03*
%TO.N,/SCREEN_MOSI*%
X158988825Y-82970666D03*
X157125000Y-84375000D03*
%TO.N,/SCREEN_DC*%
X163906293Y-90601000D03*
%TO.N,/SCREEN_CLK*%
X162124508Y-95128000D03*
X160240065Y-81375001D03*
%TO.N,/SCREEN_CS*%
X161412139Y-100614091D03*
X162976001Y-95980907D03*
X165752000Y-80402000D03*
X155922452Y-85532133D03*
%TO.N,Net-(D10-K)*%
X173700000Y-124687500D03*
X178000000Y-113600000D03*
%TO.N,Net-(D11-K)*%
X175850000Y-124687500D03*
X178089359Y-114344660D03*
D17*
%TO.N,/EXP0_USART_RXD*%
X152950000Y-92200000D03*
D10*
X141050000Y-102650000D03*
%TO.N,/EXP1_SPI_CS*%
X146890000Y-95696938D03*
X148212414Y-92748106D03*
%TO.N,I2C_2_SCL*%
X146890000Y-93696938D03*
X159912244Y-87674584D03*
X161948368Y-93460000D03*
D11*
X152000000Y-94640000D03*
D10*
%TO.N,I2C_2_SDA*%
X146890000Y-91696938D03*
D11*
X153000000Y-94640000D03*
D10*
%TO.N,SPI_0_SCLK*%
X155113172Y-118250000D03*
D11*
X158000000Y-94640000D03*
D13*
X158101594Y-88672353D03*
D12*
X161464504Y-86374584D03*
D11*
%TO.N,SPI_0_MOSI*%
X157000000Y-94640000D03*
D10*
X158999475Y-93714729D03*
X153565134Y-118250000D03*
X159810491Y-91186999D03*
%TO.N,SPI_0_MISO*%
X160375000Y-120550000D03*
D12*
X161750000Y-90450000D03*
D11*
X156000000Y-94640000D03*
D10*
X158132267Y-87948000D03*
%TO.N,/EN_B1*%
X177062500Y-104700000D03*
X148119195Y-110862063D03*
%TO.N,/EN_A1*%
X177087500Y-94437500D03*
X145650000Y-110900000D03*
%TO.N,/EN_A2*%
X177087500Y-97887500D03*
X146391562Y-110787797D03*
%TO.N,/EN_A3*%
X177062500Y-101287500D03*
X147180302Y-110880302D03*
%TO.N,/EN_B2*%
X177062500Y-108100000D03*
X148925956Y-110975956D03*
%TO.N,Net-(D3-A)*%
X146010000Y-119840000D03*
X140950000Y-109300000D03*
%TO.N,+3V0*%
X161200000Y-98800000D03*
D13*
X157930000Y-106890000D03*
D10*
X167558736Y-112657321D03*
D11*
%TO.N,Net-(U3-CHIP_PU)*%
X154450000Y-84410000D03*
D13*
X156560000Y-78100000D03*
D12*
X175800000Y-77041000D03*
D10*
%TO.N,Net-(U4-IN+1)*%
X183000000Y-92700000D03*
X177096252Y-96337500D03*
%TO.N,Net-(U4-IN+2)*%
X177096252Y-99787500D03*
X183090000Y-96700000D03*
%TO.N,Net-(U4-IN+3)*%
X184000000Y-100746936D03*
X177096252Y-103187500D03*
%TO.N,Net-(U5-IN+1)*%
X177096252Y-106600000D03*
X183050000Y-104746936D03*
X171400000Y-103600000D03*
X169100000Y-101300000D03*
%TO.N,Net-(U10-VIN)*%
X177096252Y-110000000D03*
X183099291Y-108746936D03*
D17*
%TO.N,Net-(Q3-D)*%
X165559324Y-109378000D03*
X153900000Y-106125000D03*
D10*
%TO.N,/PB1*%
X151607802Y-113843668D03*
%TO.N,/PB3*%
X157625000Y-117025000D03*
%TO.N,/PB5*%
X163125000Y-117025000D03*
%TO.N,/PB2*%
X152264134Y-112880000D03*
%TO.N,/PB4*%
X150850000Y-116800000D03*
%TO.N,Net-(U3-GPIO0)*%
X174600000Y-91650000D03*
X154308451Y-85233451D03*
D14*
%TO.N,Net-(U4-VPU)*%
X166120000Y-100050000D03*
D10*
X170800000Y-98300000D03*
%TO.N,Net-(U4-PV)*%
X167650000Y-94250000D03*
D14*
X165100000Y-100050000D03*
D10*
%TO.N,Net-(U5-VPU)*%
X169950000Y-106050000D03*
D14*
X166220000Y-107000000D03*
%TO.N,Net-(U5-PV)*%
X165200000Y-107000000D03*
D10*
X167750000Y-101525569D03*
%TO.N,Net-(U6-CT)*%
X179362500Y-94437500D03*
%TO.N,Net-(U6-QOD)*%
X179362500Y-95387500D03*
%TO.N,Net-(U7-CT)*%
X179362500Y-97887500D03*
%TO.N,Net-(U7-QOD)*%
X179362500Y-98837500D03*
%TO.N,Net-(U9-CT)*%
X179337500Y-104700000D03*
%TO.N,Net-(U9-QOD)*%
X179337500Y-105650000D03*
%TO.N,Net-(U10-QOD)*%
X179337500Y-109050000D03*
%TO.N,Net-(U10-CT)*%
X179337500Y-108100000D03*
%TO.N,Net-(U12-CS)*%
X186050000Y-119600000D03*
X184016111Y-119597150D03*
%TO.N,Net-(D2-A)*%
X140951000Y-110600000D03*
%TO.N,Net-(IC1-LXBB2-PadB2)*%
X174750000Y-113102000D03*
D11*
%TO.N,1v8_I2C_1_SDA*%
X178250000Y-111691000D03*
D17*
X168450000Y-108250000D03*
D10*
%TO.N,VCCQ*%
X177249000Y-114250000D03*
D11*
X177150000Y-111200000D03*
D10*
%TO.N,Net-(IC1-LXBB1-PadB4)*%
X174751415Y-111651001D03*
D11*
%TO.N,1v8_I2C_1_SCL*%
X178200000Y-110950000D03*
X172650000Y-110350000D03*
X168440000Y-109200000D03*
D14*
%TO.N,GND*%
X164490000Y-123950000D03*
D13*
%TO.N,+3.3V*%
X173130000Y-86950000D03*
%TD*%
D18*
%TO.N,+3V0*%
X183749000Y-90845938D02*
X185400000Y-92496938D01*
X172200000Y-93174000D02*
X177426000Y-93174000D01*
X177426000Y-93174000D02*
X179754062Y-90845938D01*
X179754062Y-90845938D02*
X183749000Y-90845938D01*
%TO.N,VCCQ*%
X187450000Y-92650000D02*
X187450000Y-92646940D01*
X186329000Y-107303020D02*
X188200000Y-105432020D01*
X188200000Y-93400000D02*
X187450000Y-92650000D01*
X186329000Y-111581075D02*
X186329000Y-107303020D01*
X181735075Y-116175000D02*
X186329000Y-111581075D01*
X177913925Y-116175000D02*
X181735075Y-116175000D01*
X188200000Y-105432020D02*
X188200000Y-93400000D01*
X177249000Y-115510075D02*
X177913925Y-116175000D01*
X177249000Y-114250000D02*
X177249000Y-115510075D01*
D19*
%TO.N,/SCREEN_CS*%
X155826000Y-85435681D02*
X155922452Y-85532133D01*
X157333412Y-82326000D02*
X155826000Y-83833412D01*
X158474478Y-82326000D02*
X157333412Y-82326000D01*
X160700478Y-80100000D02*
X158474478Y-82326000D01*
X165450000Y-80100000D02*
X160700478Y-80100000D01*
X155826000Y-83833412D02*
X155826000Y-85435681D01*
X165752000Y-80402000D02*
X165450000Y-80100000D01*
D20*
%TO.N,I2C_1_SCL*%
X165787263Y-104687263D02*
X165181447Y-104687263D01*
X171080000Y-109980000D02*
X165787263Y-104687263D01*
X171080000Y-111280000D02*
X171080000Y-109980000D01*
X172160000Y-112360000D02*
X171080000Y-111280000D01*
X172540000Y-112360000D02*
X172160000Y-112360000D01*
D19*
%TO.N,/SCREEN_MOSI*%
X158629334Y-82970666D02*
X158988825Y-82970666D01*
X157225000Y-84375000D02*
X158629334Y-82970666D01*
X157125000Y-84375000D02*
X157225000Y-84375000D01*
D20*
%TO.N,1v8_I2C_1_SCL*%
X173168073Y-110868073D02*
X172650000Y-110350000D01*
X172083744Y-114983744D02*
X171925000Y-114825000D01*
X171925000Y-114825000D02*
X173168073Y-113581927D01*
X173168073Y-113581927D02*
X173168073Y-110868073D01*
X177739000Y-111411000D02*
X178200000Y-110950000D01*
X177739000Y-112811000D02*
X177739000Y-111411000D01*
X173141176Y-116041176D02*
X174508824Y-116041176D01*
X172083744Y-114983744D02*
X173141176Y-116041176D01*
X174508824Y-116041176D02*
X177739000Y-112811000D01*
D21*
%TO.N,Net-(D4-A)*%
X141916000Y-107372621D02*
X141000000Y-106456621D01*
X140985298Y-114790000D02*
X141916000Y-113859298D01*
X141916000Y-113859298D02*
X141916000Y-107372621D01*
X140970000Y-114790000D02*
X140985298Y-114790000D01*
D19*
%TO.N,SPI_0_MISO*%
X163100000Y-93350000D02*
X163800000Y-94050000D01*
X161750000Y-90450000D02*
X163100000Y-91800000D01*
X163100000Y-91800000D02*
X163100000Y-93350000D01*
X163786000Y-94036000D02*
X163800000Y-94050000D01*
X161617744Y-94036000D02*
X163786000Y-94036000D01*
X158831463Y-91249719D02*
X161617744Y-94036000D01*
X158156473Y-87948000D02*
X158831463Y-88622990D01*
X158132267Y-87948000D02*
X158156473Y-87948000D01*
X158831463Y-88622990D02*
X158831463Y-91249719D01*
D20*
%TO.N,/USB_D-*%
X158113678Y-91063678D02*
X158075284Y-91063678D01*
X161627000Y-94577000D02*
X158113678Y-91063678D01*
X163378232Y-94577000D02*
X161627000Y-94577000D01*
X166799000Y-97997768D02*
X163378232Y-94577000D01*
X166799000Y-99049000D02*
X166799000Y-97997768D01*
X166800000Y-99050000D02*
X166799000Y-99049000D01*
X166800000Y-101800000D02*
X166800000Y-99050000D01*
X168049000Y-103049000D02*
X166800000Y-101800000D01*
X168978232Y-103049000D02*
X168049000Y-103049000D01*
X170700000Y-106650000D02*
X170700000Y-104770768D01*
X170700000Y-104770768D02*
X168978232Y-103049000D01*
%TO.N,I2C_2_SCL*%
X160361491Y-88231392D02*
X159912244Y-87782145D01*
X160361491Y-91911491D02*
X160361491Y-88231392D01*
X161948368Y-93460000D02*
X161910000Y-93460000D01*
X161910000Y-93460000D02*
X160361491Y-91911491D01*
X159912244Y-87782145D02*
X159912244Y-87674584D01*
D19*
%TO.N,/SD_CS*%
X163415000Y-89360000D02*
X163524588Y-89360000D01*
X163524588Y-89360000D02*
X164526000Y-90361412D01*
X163375000Y-89400000D02*
X163415000Y-89360000D01*
X164526000Y-90361412D02*
X164526000Y-93350000D01*
D20*
%TO.N,/USB_D+*%
X161573508Y-95356232D02*
X163050000Y-96832724D01*
X163050000Y-96832724D02*
X163050000Y-98409926D01*
X161573508Y-95073508D02*
X161573508Y-95356232D01*
X158276196Y-91776196D02*
X161573508Y-95073508D01*
X158077877Y-91776196D02*
X158276196Y-91776196D01*
D19*
%TO.N,/SCREEN_CLK*%
X157150000Y-85850000D02*
X156650000Y-85350000D01*
X160381000Y-84456344D02*
X158987344Y-85850000D01*
X158987344Y-85850000D02*
X157150000Y-85850000D01*
X160381000Y-81515936D02*
X160381000Y-84456344D01*
X160240065Y-81375001D02*
X160381000Y-81515936D01*
D22*
%TO.N,Net-(U3-GPIO18)*%
X159662300Y-87074584D02*
X159257463Y-87479421D01*
X162016780Y-87074584D02*
X159662300Y-87074584D01*
X159257463Y-87479421D02*
X159257463Y-89026992D01*
X159257463Y-89026992D02*
X159555471Y-89325000D01*
X169200000Y-77710000D02*
X169200000Y-79891364D01*
X169200000Y-79891364D02*
X162016780Y-87074584D01*
D20*
%TO.N,I2C_1_SCL*%
X158825672Y-81150000D02*
X158825672Y-77775672D01*
X158825672Y-81293734D02*
X158825672Y-81150000D01*
X151896388Y-81950000D02*
X158169406Y-81950000D01*
X158169406Y-81950000D02*
X158825672Y-81293734D01*
X145050000Y-88796388D02*
X151896388Y-81950000D01*
X145050000Y-90450000D02*
X145050000Y-88796388D01*
X158825672Y-77775672D02*
X157550000Y-76500000D01*
%TO.N,I2C_1_SDA*%
X152048903Y-81301097D02*
X157398903Y-81301097D01*
X144400000Y-88950000D02*
X152048903Y-81301097D01*
X144400000Y-91100000D02*
X144400000Y-88950000D01*
%TO.N,1v8_I2C_1_SCL*%
X169300000Y-109200000D02*
X170729000Y-110629000D01*
X170729000Y-110629000D02*
X170729000Y-113629000D01*
X170729000Y-113629000D02*
X172083744Y-114983744D01*
X168440000Y-109200000D02*
X169300000Y-109200000D01*
%TO.N,/USB_D+*%
X171105693Y-115445824D02*
X170994824Y-115334955D01*
X166175000Y-109867649D02*
X166175000Y-108704735D01*
X170994824Y-114687473D02*
X166175000Y-109867649D01*
X170994824Y-115334955D02*
X170994824Y-114687473D01*
X166175000Y-108704735D02*
X163050000Y-105579735D01*
%TO.N,/USB_D-*%
X171050882Y-107990832D02*
X170966029Y-107905979D01*
X170966029Y-107566567D02*
X171121591Y-107411002D01*
X171545857Y-107835269D02*
X171390292Y-107990831D01*
X173519073Y-109469073D02*
X171885269Y-107835269D01*
X170700000Y-106650000D02*
X171121592Y-107071592D01*
X173519073Y-114827601D02*
X173519073Y-109469073D01*
X171390292Y-107990831D02*
G75*
G02*
X171050895Y-107990819I-169692J169731D01*
G01*
X171885269Y-107835269D02*
G75*
G03*
X171545857Y-107835269I-169706J-169701D01*
G01*
X171121591Y-107411002D02*
G75*
G03*
X171121589Y-107071596I-169691J169702D01*
G01*
X170966029Y-107905979D02*
G75*
G02*
X170966056Y-107566594I169671J169679D01*
G01*
%TO.N,/USB_D+*%
X162810000Y-98649926D02*
X162290000Y-98649926D01*
X164050000Y-99489926D02*
X164050000Y-99609926D01*
X162290000Y-99249926D02*
X163810000Y-99249926D01*
X163810000Y-99849926D02*
X163290000Y-99849926D01*
X162050000Y-98889926D02*
X162050000Y-99009926D01*
X163050000Y-100089926D02*
X163050000Y-105579735D01*
X162050000Y-99009926D02*
G75*
G03*
X162290000Y-99249900I240000J26D01*
G01*
X163810000Y-99249926D02*
G75*
G02*
X164049974Y-99489926I0J-239974D01*
G01*
X162290000Y-98649926D02*
G75*
G03*
X162050026Y-98889926I0J-239974D01*
G01*
X163290000Y-99849926D02*
G75*
G03*
X163050026Y-100089926I0J-239974D01*
G01*
X164050000Y-99609926D02*
G75*
G02*
X163810000Y-99849900I-240000J26D01*
G01*
X163050000Y-98409926D02*
G75*
G02*
X162810000Y-98649900I-240000J26D01*
G01*
%TO.N,I2C_1_SDA*%
X142825000Y-115735000D02*
X142310000Y-116250000D01*
X144400000Y-91100000D02*
X144400000Y-92050000D01*
X142825000Y-93625000D02*
X142825000Y-115735000D01*
X144400000Y-92050000D02*
X142825000Y-93625000D01*
%TO.N,I2C_1_SCL*%
X152250000Y-108475000D02*
X144725000Y-108475000D01*
X153200000Y-107525000D02*
X152250000Y-108475000D01*
X156800000Y-100500000D02*
X153200000Y-104100000D01*
X153200000Y-104100000D02*
X153200000Y-107525000D01*
X143630000Y-109570000D02*
X143630000Y-117480000D01*
X144725000Y-108475000D02*
X143630000Y-109570000D01*
%TO.N,/GPS_RX*%
X147162103Y-87250000D02*
X147162103Y-87180673D01*
X147268155Y-87356052D02*
X147162103Y-87250000D01*
X148242776Y-86100000D02*
X154350000Y-86100000D01*
X147162103Y-87180673D02*
X148242776Y-86100000D01*
X154350000Y-86100000D02*
X155250000Y-85200000D01*
%TO.N,/GPS_TX*%
X149521768Y-87552000D02*
X152838000Y-87552000D01*
X149000000Y-86650000D02*
X149000000Y-87030232D01*
X152838000Y-87552000D02*
X153100000Y-87290000D01*
X149000000Y-87030232D02*
X149521768Y-87552000D01*
D19*
%TO.N,SPI_0_SCLK*%
X157509000Y-94149000D02*
X157509000Y-89264947D01*
X158000000Y-94640000D02*
X157509000Y-94149000D01*
X157509000Y-89264947D02*
X158101594Y-88672353D01*
%TO.N,SPI_0_MISO*%
X156000000Y-94640000D02*
X159400000Y-98040000D01*
X160375000Y-120550000D02*
X159400000Y-119575000D01*
X159400000Y-119575000D02*
X159400000Y-98040000D01*
D20*
%TO.N,I2C_2_SDA*%
X154725000Y-86500000D02*
X152100000Y-89125000D01*
X152100000Y-93740000D02*
X153000000Y-94640000D01*
X157050000Y-86500000D02*
X154725000Y-86500000D01*
X152100000Y-89125000D02*
X152100000Y-93740000D01*
X157800000Y-87250000D02*
X157050000Y-86500000D01*
%TD*%
M02*
