%TF.GenerationSoftware,KiCad,Pcbnew,9.0.6*%
%TF.CreationDate,2025-12-30T10:16:32+01:00*%
%TF.ProjectId,gaia_obc,67616961-5f6f-4626-932e-6b696361645f,10*%
%TF.SameCoordinates,Original*%
%TF.FileFunction,Legend,Bot*%
%TF.FilePolarity,Positive*%
%FSLAX46Y46*%
G04 Gerber Fmt 4.6, Leading zero omitted, Abs format (unit mm)*
G04 Created by KiCad (PCBNEW 9.0.6) date 2025-12-30 10:16:32*
%MOMM*%
%LPD*%
G01*
G04 APERTURE LIST*
%ADD10C,0.000000*%
%ADD11C,0.100000*%
%ADD12C,0.017999*%
%ADD13C,0.120000*%
%ADD14C,0.112500*%
%ADD15C,0.087500*%
%ADD16C,0.254000*%
%ADD17C,0.127000*%
%ADD18C,0.200000*%
G04 APERTURE END LIST*
D10*
G36*
X174288854Y-85149544D02*
G01*
X174288854Y-85347981D01*
X174090417Y-85347981D01*
X173891979Y-85347981D01*
X173891979Y-85149544D01*
X173891979Y-84951107D01*
X174090417Y-84951107D01*
X174288854Y-84951107D01*
X174288854Y-85149544D01*
G37*
G36*
X165465000Y-87147148D02*
G01*
X165465000Y-87345586D01*
X165266562Y-87345586D01*
X165068126Y-87345586D01*
X165068126Y-87147148D01*
X165068126Y-86948711D01*
X165266562Y-86948711D01*
X165465000Y-86948711D01*
X165465000Y-87147148D01*
G37*
D11*
X160904356Y-112431082D02*
X160880499Y-112432548D01*
X160857222Y-112434952D01*
X160834536Y-112438284D01*
X160812454Y-112442530D01*
X160790987Y-112447680D01*
X160770147Y-112453720D01*
X160749944Y-112460640D01*
X160730392Y-112468427D01*
X160711501Y-112477069D01*
X160693283Y-112486555D01*
X160675750Y-112496872D01*
X160658913Y-112508008D01*
X160642784Y-112519951D01*
X160627375Y-112532691D01*
X160612697Y-112546213D01*
X160598762Y-112560507D01*
X160585581Y-112575561D01*
X160573166Y-112591363D01*
X160561529Y-112607900D01*
X160550682Y-112625161D01*
X160540635Y-112643134D01*
X160531401Y-112661807D01*
X160522992Y-112681168D01*
X160515418Y-112701205D01*
X160508692Y-112721906D01*
X160502824Y-112743259D01*
X160497828Y-112765252D01*
X160493714Y-112787873D01*
X160490494Y-112811111D01*
X160488179Y-112834952D01*
X160486782Y-112859386D01*
X160486314Y-112884401D01*
X160486813Y-112910227D01*
X160488302Y-112935439D01*
X160490768Y-112960026D01*
X160494200Y-112983972D01*
X160498583Y-113007264D01*
X160503906Y-113029889D01*
X160510155Y-113051833D01*
X160517320Y-113073083D01*
X160525386Y-113093624D01*
X160534341Y-113113445D01*
X160544172Y-113132530D01*
X160554868Y-113150866D01*
X160566415Y-113168440D01*
X160578800Y-113185239D01*
X160592012Y-113201248D01*
X160606038Y-113216454D01*
X160620864Y-113230844D01*
X160636479Y-113244403D01*
X160652870Y-113257119D01*
X160670024Y-113268978D01*
X160687928Y-113279966D01*
X160706570Y-113290070D01*
X160725938Y-113299276D01*
X160746019Y-113307570D01*
X160766800Y-113314939D01*
X160788268Y-113321370D01*
X160810412Y-113326849D01*
X160833218Y-113331362D01*
X160856673Y-113334895D01*
X160880766Y-113337436D01*
X160905484Y-113338971D01*
X160930814Y-113339485D01*
X160955157Y-113338997D01*
X160978902Y-113337540D01*
X161002039Y-113335129D01*
X161024558Y-113331779D01*
X161046451Y-113327501D01*
X161067709Y-113322312D01*
X161088320Y-113316224D01*
X161108278Y-113309251D01*
X161127571Y-113301407D01*
X161146190Y-113292707D01*
X161164127Y-113283164D01*
X161181372Y-113272791D01*
X161197916Y-113261604D01*
X161213748Y-113249615D01*
X161228860Y-113236839D01*
X161243243Y-113223289D01*
X161256886Y-113208979D01*
X161269782Y-113193924D01*
X161281919Y-113178137D01*
X161293290Y-113161632D01*
X161303884Y-113144422D01*
X161313692Y-113126523D01*
X161322705Y-113107947D01*
X161330914Y-113088709D01*
X161338308Y-113068823D01*
X161344880Y-113048301D01*
X161350619Y-113027159D01*
X161355515Y-113005410D01*
X161359561Y-112983068D01*
X161362745Y-112960147D01*
X161365060Y-112936661D01*
X161366495Y-112912624D01*
X161558759Y-112912625D01*
X161556912Y-112946640D01*
X161553703Y-112979881D01*
X161549151Y-113012327D01*
X161543280Y-113043959D01*
X161536110Y-113074756D01*
X161527664Y-113104699D01*
X161517962Y-113133766D01*
X161507027Y-113161940D01*
X161494880Y-113189198D01*
X161481543Y-113215522D01*
X161467038Y-113240891D01*
X161451386Y-113265286D01*
X161434608Y-113288685D01*
X161416727Y-113311070D01*
X161397763Y-113332420D01*
X161377740Y-113352715D01*
X161356677Y-113371936D01*
X161334598Y-113390061D01*
X161311523Y-113407072D01*
X161287475Y-113422947D01*
X161262474Y-113437668D01*
X161236543Y-113451213D01*
X161209703Y-113463564D01*
X161181975Y-113474700D01*
X161153382Y-113484600D01*
X161123946Y-113493245D01*
X161093686Y-113500616D01*
X161062627Y-113506691D01*
X161030788Y-113511451D01*
X160998192Y-113514875D01*
X160964860Y-113516945D01*
X160930814Y-113517639D01*
X160895010Y-113516954D01*
X160860043Y-113514907D01*
X160825932Y-113511512D01*
X160792696Y-113506780D01*
X160760356Y-113500726D01*
X160728931Y-113493362D01*
X160698440Y-113484700D01*
X160668904Y-113474755D01*
X160640342Y-113463538D01*
X160612773Y-113451063D01*
X160586218Y-113437342D01*
X160560697Y-113422389D01*
X160536228Y-113406217D01*
X160512832Y-113388838D01*
X160490528Y-113370265D01*
X160469336Y-113350511D01*
X160449276Y-113329589D01*
X160430367Y-113307513D01*
X160412630Y-113284294D01*
X160396083Y-113259946D01*
X160380747Y-113234482D01*
X160366641Y-113207915D01*
X160353784Y-113180257D01*
X160342198Y-113151522D01*
X160331901Y-113121723D01*
X160322913Y-113090871D01*
X160315253Y-113058981D01*
X160308942Y-113026065D01*
X160304000Y-112992137D01*
X160300445Y-112957208D01*
X160298297Y-112921292D01*
X160297577Y-112884403D01*
X160298291Y-112849250D01*
X160300419Y-112814911D01*
X160303936Y-112781404D01*
X160308818Y-112748745D01*
X160315043Y-112716953D01*
X160322587Y-112686046D01*
X160331426Y-112656042D01*
X160341537Y-112626957D01*
X160352895Y-112598811D01*
X160365478Y-112571620D01*
X160379262Y-112545403D01*
X160394222Y-112520177D01*
X160410337Y-112495960D01*
X160427582Y-112472769D01*
X160445933Y-112450623D01*
X160465367Y-112429540D01*
X160485861Y-112409536D01*
X160507390Y-112390630D01*
X160529932Y-112372840D01*
X160553462Y-112356183D01*
X160577957Y-112340677D01*
X160603394Y-112326340D01*
X160629749Y-112313190D01*
X160656998Y-112301244D01*
X160685117Y-112290520D01*
X160714084Y-112281036D01*
X160743875Y-112272810D01*
X160774465Y-112265859D01*
X160805832Y-112260202D01*
X160837952Y-112255855D01*
X160870801Y-112252837D01*
X160904356Y-112251166D01*
X160904356Y-112431082D01*
G36*
X160904356Y-112431082D02*
G01*
X160880499Y-112432548D01*
X160857222Y-112434952D01*
X160834536Y-112438284D01*
X160812454Y-112442530D01*
X160790987Y-112447680D01*
X160770147Y-112453720D01*
X160749944Y-112460640D01*
X160730392Y-112468427D01*
X160711501Y-112477069D01*
X160693283Y-112486555D01*
X160675750Y-112496872D01*
X160658913Y-112508008D01*
X160642784Y-112519951D01*
X160627375Y-112532691D01*
X160612697Y-112546213D01*
X160598762Y-112560507D01*
X160585581Y-112575561D01*
X160573166Y-112591363D01*
X160561529Y-112607900D01*
X160550682Y-112625161D01*
X160540635Y-112643134D01*
X160531401Y-112661807D01*
X160522992Y-112681168D01*
X160515418Y-112701205D01*
X160508692Y-112721906D01*
X160502824Y-112743259D01*
X160497828Y-112765252D01*
X160493714Y-112787873D01*
X160490494Y-112811111D01*
X160488179Y-112834952D01*
X160486782Y-112859386D01*
X160486314Y-112884401D01*
X160486813Y-112910227D01*
X160488302Y-112935439D01*
X160490768Y-112960026D01*
X160494200Y-112983972D01*
X160498583Y-113007264D01*
X160503906Y-113029889D01*
X160510155Y-113051833D01*
X160517320Y-113073083D01*
X160525386Y-113093624D01*
X160534341Y-113113445D01*
X160544172Y-113132530D01*
X160554868Y-113150866D01*
X160566415Y-113168440D01*
X160578800Y-113185239D01*
X160592012Y-113201248D01*
X160606038Y-113216454D01*
X160620864Y-113230844D01*
X160636479Y-113244403D01*
X160652870Y-113257119D01*
X160670024Y-113268978D01*
X160687928Y-113279966D01*
X160706570Y-113290070D01*
X160725938Y-113299276D01*
X160746019Y-113307570D01*
X160766800Y-113314939D01*
X160788268Y-113321370D01*
X160810412Y-113326849D01*
X160833218Y-113331362D01*
X160856673Y-113334895D01*
X160880766Y-113337436D01*
X160905484Y-113338971D01*
X160930814Y-113339485D01*
X160955157Y-113338997D01*
X160978902Y-113337540D01*
X161002039Y-113335129D01*
X161024558Y-113331779D01*
X161046451Y-113327501D01*
X161067709Y-113322312D01*
X161088320Y-113316224D01*
X161108278Y-113309251D01*
X161127571Y-113301407D01*
X161146190Y-113292707D01*
X161164127Y-113283164D01*
X161181372Y-113272791D01*
X161197916Y-113261604D01*
X161213748Y-113249615D01*
X161228860Y-113236839D01*
X161243243Y-113223289D01*
X161256886Y-113208979D01*
X161269782Y-113193924D01*
X161281919Y-113178137D01*
X161293290Y-113161632D01*
X161303884Y-113144422D01*
X161313692Y-113126523D01*
X161322705Y-113107947D01*
X161330914Y-113088709D01*
X161338308Y-113068823D01*
X161344880Y-113048301D01*
X161350619Y-113027159D01*
X161355515Y-113005410D01*
X161359561Y-112983068D01*
X161362745Y-112960147D01*
X161365060Y-112936661D01*
X161366495Y-112912624D01*
X161558759Y-112912625D01*
X161556912Y-112946640D01*
X161553703Y-112979881D01*
X161549151Y-113012327D01*
X161543280Y-113043959D01*
X161536110Y-113074756D01*
X161527664Y-113104699D01*
X161517962Y-113133766D01*
X161507027Y-113161940D01*
X161494880Y-113189198D01*
X161481543Y-113215522D01*
X161467038Y-113240891D01*
X161451386Y-113265286D01*
X161434608Y-113288685D01*
X161416727Y-113311070D01*
X161397763Y-113332420D01*
X161377740Y-113352715D01*
X161356677Y-113371936D01*
X161334598Y-113390061D01*
X161311523Y-113407072D01*
X161287475Y-113422947D01*
X161262474Y-113437668D01*
X161236543Y-113451213D01*
X161209703Y-113463564D01*
X161181975Y-113474700D01*
X161153382Y-113484600D01*
X161123946Y-113493245D01*
X161093686Y-113500616D01*
X161062627Y-113506691D01*
X161030788Y-113511451D01*
X160998192Y-113514875D01*
X160964860Y-113516945D01*
X160930814Y-113517639D01*
X160895010Y-113516954D01*
X160860043Y-113514907D01*
X160825932Y-113511512D01*
X160792696Y-113506780D01*
X160760356Y-113500726D01*
X160728931Y-113493362D01*
X160698440Y-113484700D01*
X160668904Y-113474755D01*
X160640342Y-113463538D01*
X160612773Y-113451063D01*
X160586218Y-113437342D01*
X160560697Y-113422389D01*
X160536228Y-113406217D01*
X160512832Y-113388838D01*
X160490528Y-113370265D01*
X160469336Y-113350511D01*
X160449276Y-113329589D01*
X160430367Y-113307513D01*
X160412630Y-113284294D01*
X160396083Y-113259946D01*
X160380747Y-113234482D01*
X160366641Y-113207915D01*
X160353784Y-113180257D01*
X160342198Y-113151522D01*
X160331901Y-113121723D01*
X160322913Y-113090871D01*
X160315253Y-113058981D01*
X160308942Y-113026065D01*
X160304000Y-112992137D01*
X160300445Y-112957208D01*
X160298297Y-112921292D01*
X160297577Y-112884403D01*
X160298291Y-112849250D01*
X160300419Y-112814911D01*
X160303936Y-112781404D01*
X160308818Y-112748745D01*
X160315043Y-112716953D01*
X160322587Y-112686046D01*
X160331426Y-112656042D01*
X160341537Y-112626957D01*
X160352895Y-112598811D01*
X160365478Y-112571620D01*
X160379262Y-112545403D01*
X160394222Y-112520177D01*
X160410337Y-112495960D01*
X160427582Y-112472769D01*
X160445933Y-112450623D01*
X160465367Y-112429540D01*
X160485861Y-112409536D01*
X160507390Y-112390630D01*
X160529932Y-112372840D01*
X160553462Y-112356183D01*
X160577957Y-112340677D01*
X160603394Y-112326340D01*
X160629749Y-112313190D01*
X160656998Y-112301244D01*
X160685117Y-112290520D01*
X160714084Y-112281036D01*
X160743875Y-112272810D01*
X160774465Y-112265859D01*
X160805832Y-112260202D01*
X160837952Y-112255855D01*
X160870801Y-112252837D01*
X160904356Y-112251166D01*
X160904356Y-112431082D01*
G37*
D10*
G36*
X170677292Y-80731002D02*
G01*
X170677292Y-80929440D01*
X170478854Y-80929440D01*
X170280417Y-80929440D01*
X170280417Y-80731002D01*
X170280417Y-80532565D01*
X170478854Y-80532565D01*
X170677292Y-80532565D01*
X170677292Y-80731002D01*
G37*
G36*
X167078959Y-81736419D02*
G01*
X165670052Y-81736419D01*
X164261146Y-81736419D01*
X164261146Y-80334128D01*
X164261146Y-79328711D01*
X164671251Y-79328711D01*
X164671251Y-80334128D01*
X164671251Y-81339544D01*
X165670052Y-81339544D01*
X166668854Y-81339544D01*
X166668854Y-80334128D01*
X166668854Y-79328711D01*
X165670052Y-79328711D01*
X164671251Y-79328711D01*
X164261146Y-79328711D01*
X164261146Y-78931836D01*
X165670052Y-78931836D01*
X167078959Y-78931836D01*
X167078959Y-80334128D01*
X167078959Y-81736419D01*
G37*
D12*
X152816675Y-77783326D02*
X153546562Y-78091663D01*
X152816675Y-78400000D01*
X152508337Y-79129888D01*
X152200000Y-78400000D01*
X151470113Y-78091663D01*
X152200000Y-77783326D01*
X152508337Y-77053438D01*
X152816675Y-77783326D01*
G36*
X152816675Y-77783326D02*
G01*
X153546562Y-78091663D01*
X152816675Y-78400000D01*
X152508337Y-79129888D01*
X152200000Y-78400000D01*
X151470113Y-78091663D01*
X152200000Y-77783326D01*
X152508337Y-77053438D01*
X152816675Y-77783326D01*
G37*
D11*
X156884454Y-113500000D02*
X156701009Y-113500000D01*
X156701009Y-112907332D01*
X156884454Y-112642749D01*
X156884454Y-113500000D01*
G36*
X156884454Y-113500000D02*
G01*
X156701009Y-113500000D01*
X156701009Y-112907332D01*
X156884454Y-112642749D01*
X156884454Y-113500000D01*
G37*
X158780633Y-113500000D02*
X158590133Y-113500000D01*
X158590133Y-112635693D01*
X158780633Y-112635693D01*
X158780633Y-113500000D01*
G36*
X158780633Y-113500000D02*
G01*
X158590133Y-113500000D01*
X158590133Y-112635693D01*
X158780633Y-112635693D01*
X158780633Y-113500000D01*
G37*
X153328452Y-112454013D02*
X152381242Y-112454013D01*
X152381242Y-112268805D01*
X153328452Y-112268805D01*
X153328452Y-112454013D01*
G36*
X153328452Y-112454013D02*
G01*
X152381242Y-112454013D01*
X152381242Y-112268805D01*
X153328452Y-112268805D01*
X153328452Y-112454013D01*
G37*
X159233952Y-113212486D02*
X159886591Y-112268805D01*
X160071800Y-112268805D01*
X159246300Y-113500000D01*
X159050508Y-113500000D01*
X159050508Y-112268805D01*
X159228661Y-112268805D01*
X159233952Y-113212486D01*
G36*
X159233952Y-113212486D02*
G01*
X159886591Y-112268805D01*
X160071800Y-112268805D01*
X159246300Y-113500000D01*
X159050508Y-113500000D01*
X159050508Y-112268805D01*
X159228661Y-112268805D01*
X159233952Y-113212486D01*
G37*
X158780633Y-112411679D02*
X158588369Y-112411679D01*
X158588369Y-112268803D01*
X158780633Y-112268803D01*
X158780633Y-112411679D01*
G36*
X158780633Y-112411679D02*
G01*
X158588369Y-112411679D01*
X158588369Y-112268803D01*
X158780633Y-112268803D01*
X158780633Y-112411679D01*
G37*
X157702898Y-112431082D02*
X157679041Y-112432548D01*
X157655764Y-112434952D01*
X157633079Y-112438284D01*
X157610997Y-112442530D01*
X157589530Y-112447680D01*
X157568690Y-112453720D01*
X157548487Y-112460640D01*
X157528935Y-112468427D01*
X157510044Y-112477069D01*
X157491826Y-112486555D01*
X157474293Y-112496872D01*
X157457456Y-112508008D01*
X157441327Y-112519951D01*
X157425918Y-112532691D01*
X157411240Y-112546213D01*
X157397305Y-112560507D01*
X157384124Y-112575561D01*
X157371709Y-112591363D01*
X157360072Y-112607900D01*
X157349225Y-112625161D01*
X157339178Y-112643134D01*
X157329944Y-112661807D01*
X157321535Y-112681168D01*
X157313961Y-112701205D01*
X157307234Y-112721906D01*
X157301367Y-112743259D01*
X157296371Y-112765252D01*
X157292257Y-112787873D01*
X157289036Y-112811111D01*
X157286722Y-112834952D01*
X157285325Y-112859386D01*
X157284856Y-112884401D01*
X157285356Y-112910227D01*
X157286845Y-112935439D01*
X157289311Y-112960026D01*
X157292742Y-112983972D01*
X157297126Y-113007264D01*
X157302448Y-113029889D01*
X157308698Y-113051833D01*
X157315862Y-113073083D01*
X157323928Y-113093624D01*
X157332883Y-113113445D01*
X157342715Y-113132530D01*
X157353411Y-113150866D01*
X157364958Y-113168440D01*
X157377343Y-113185239D01*
X157390555Y-113201248D01*
X157404581Y-113216454D01*
X157419407Y-113230844D01*
X157435022Y-113244403D01*
X157451413Y-113257119D01*
X157468567Y-113268978D01*
X157486471Y-113279966D01*
X157505113Y-113290070D01*
X157524481Y-113299276D01*
X157544562Y-113307570D01*
X157565343Y-113314939D01*
X157586811Y-113321370D01*
X157608955Y-113326849D01*
X157631761Y-113331362D01*
X157655217Y-113334895D01*
X157679310Y-113337436D01*
X157704028Y-113338971D01*
X157729357Y-113339485D01*
X157753700Y-113338997D01*
X157777445Y-113337540D01*
X157800582Y-113335129D01*
X157823102Y-113331779D01*
X157844995Y-113327501D01*
X157866252Y-113322312D01*
X157886864Y-113316224D01*
X157906821Y-113309251D01*
X157926114Y-113301407D01*
X157944734Y-113292707D01*
X157962671Y-113283164D01*
X157979916Y-113272791D01*
X157996459Y-113261604D01*
X158012292Y-113249615D01*
X158027404Y-113236839D01*
X158041786Y-113223289D01*
X158055430Y-113208979D01*
X158068325Y-113193924D01*
X158080463Y-113178137D01*
X158091833Y-113161632D01*
X158102427Y-113144422D01*
X158112235Y-113126523D01*
X158121248Y-113107947D01*
X158129457Y-113088709D01*
X158136852Y-113068823D01*
X158143423Y-113048301D01*
X158149162Y-113027159D01*
X158154058Y-113005410D01*
X158158104Y-112983068D01*
X158161288Y-112960147D01*
X158163603Y-112936661D01*
X158165038Y-112912624D01*
X158357301Y-112912625D01*
X158355454Y-112946640D01*
X158352245Y-112979881D01*
X158347693Y-113012327D01*
X158341822Y-113043959D01*
X158334652Y-113074756D01*
X158326206Y-113104699D01*
X158316504Y-113133766D01*
X158305569Y-113161940D01*
X158293423Y-113189198D01*
X158280086Y-113215522D01*
X158265580Y-113240891D01*
X158249928Y-113265286D01*
X158233150Y-113288685D01*
X158215269Y-113311070D01*
X158196305Y-113332420D01*
X158176282Y-113352715D01*
X158155219Y-113371936D01*
X158133140Y-113390061D01*
X158110065Y-113407072D01*
X158086017Y-113422947D01*
X158061016Y-113437668D01*
X158035085Y-113451213D01*
X158008245Y-113463564D01*
X157980518Y-113474700D01*
X157951925Y-113484600D01*
X157922488Y-113493245D01*
X157892229Y-113500616D01*
X157861169Y-113506691D01*
X157829330Y-113511451D01*
X157796734Y-113514875D01*
X157763402Y-113516945D01*
X157729356Y-113517639D01*
X157693553Y-113516954D01*
X157658586Y-113514907D01*
X157624475Y-113511512D01*
X157591239Y-113506780D01*
X157558899Y-113500726D01*
X157527473Y-113493362D01*
X157496982Y-113484700D01*
X157467446Y-113474755D01*
X157438884Y-113463538D01*
X157411316Y-113451063D01*
X157384761Y-113437342D01*
X157359239Y-113422389D01*
X157334770Y-113406217D01*
X157311374Y-113388838D01*
X157289070Y-113370265D01*
X157267879Y-113350511D01*
X157247818Y-113329589D01*
X157228910Y-113307513D01*
X157211172Y-113284294D01*
X157194625Y-113259946D01*
X157179289Y-113234482D01*
X157165183Y-113207915D01*
X157152327Y-113180257D01*
X157140741Y-113151522D01*
X157130444Y-113121723D01*
X157121455Y-113090871D01*
X157113796Y-113058981D01*
X157107485Y-113026065D01*
X157102542Y-112992137D01*
X157098987Y-112957208D01*
X157096840Y-112921292D01*
X157096120Y-112884403D01*
X157096834Y-112849250D01*
X157098962Y-112814911D01*
X157102478Y-112781404D01*
X157107361Y-112748745D01*
X157113586Y-112716953D01*
X157121130Y-112686046D01*
X157129969Y-112656042D01*
X157140079Y-112626957D01*
X157151438Y-112598811D01*
X157164021Y-112571620D01*
X157177804Y-112545403D01*
X157192765Y-112520177D01*
X157208880Y-112495960D01*
X157226125Y-112472769D01*
X157244476Y-112450623D01*
X157263910Y-112429540D01*
X157284404Y-112409536D01*
X157305933Y-112390630D01*
X157328475Y-112372840D01*
X157352005Y-112356183D01*
X157376500Y-112340677D01*
X157401937Y-112326340D01*
X157428291Y-112313190D01*
X157455540Y-112301244D01*
X157483660Y-112290520D01*
X157512627Y-112281036D01*
X157542417Y-112272810D01*
X157573008Y-112265859D01*
X157604375Y-112260202D01*
X157636495Y-112255855D01*
X157669344Y-112252837D01*
X157702898Y-112251166D01*
X157702898Y-112431082D01*
G36*
X157702898Y-112431082D02*
G01*
X157679041Y-112432548D01*
X157655764Y-112434952D01*
X157633079Y-112438284D01*
X157610997Y-112442530D01*
X157589530Y-112447680D01*
X157568690Y-112453720D01*
X157548487Y-112460640D01*
X157528935Y-112468427D01*
X157510044Y-112477069D01*
X157491826Y-112486555D01*
X157474293Y-112496872D01*
X157457456Y-112508008D01*
X157441327Y-112519951D01*
X157425918Y-112532691D01*
X157411240Y-112546213D01*
X157397305Y-112560507D01*
X157384124Y-112575561D01*
X157371709Y-112591363D01*
X157360072Y-112607900D01*
X157349225Y-112625161D01*
X157339178Y-112643134D01*
X157329944Y-112661807D01*
X157321535Y-112681168D01*
X157313961Y-112701205D01*
X157307234Y-112721906D01*
X157301367Y-112743259D01*
X157296371Y-112765252D01*
X157292257Y-112787873D01*
X157289036Y-112811111D01*
X157286722Y-112834952D01*
X157285325Y-112859386D01*
X157284856Y-112884401D01*
X157285356Y-112910227D01*
X157286845Y-112935439D01*
X157289311Y-112960026D01*
X157292742Y-112983972D01*
X157297126Y-113007264D01*
X157302448Y-113029889D01*
X157308698Y-113051833D01*
X157315862Y-113073083D01*
X157323928Y-113093624D01*
X157332883Y-113113445D01*
X157342715Y-113132530D01*
X157353411Y-113150866D01*
X157364958Y-113168440D01*
X157377343Y-113185239D01*
X157390555Y-113201248D01*
X157404581Y-113216454D01*
X157419407Y-113230844D01*
X157435022Y-113244403D01*
X157451413Y-113257119D01*
X157468567Y-113268978D01*
X157486471Y-113279966D01*
X157505113Y-113290070D01*
X157524481Y-113299276D01*
X157544562Y-113307570D01*
X157565343Y-113314939D01*
X157586811Y-113321370D01*
X157608955Y-113326849D01*
X157631761Y-113331362D01*
X157655217Y-113334895D01*
X157679310Y-113337436D01*
X157704028Y-113338971D01*
X157729357Y-113339485D01*
X157753700Y-113338997D01*
X157777445Y-113337540D01*
X157800582Y-113335129D01*
X157823102Y-113331779D01*
X157844995Y-113327501D01*
X157866252Y-113322312D01*
X157886864Y-113316224D01*
X157906821Y-113309251D01*
X157926114Y-113301407D01*
X157944734Y-113292707D01*
X157962671Y-113283164D01*
X157979916Y-113272791D01*
X157996459Y-113261604D01*
X158012292Y-113249615D01*
X158027404Y-113236839D01*
X158041786Y-113223289D01*
X158055430Y-113208979D01*
X158068325Y-113193924D01*
X158080463Y-113178137D01*
X158091833Y-113161632D01*
X158102427Y-113144422D01*
X158112235Y-113126523D01*
X158121248Y-113107947D01*
X158129457Y-113088709D01*
X158136852Y-113068823D01*
X158143423Y-113048301D01*
X158149162Y-113027159D01*
X158154058Y-113005410D01*
X158158104Y-112983068D01*
X158161288Y-112960147D01*
X158163603Y-112936661D01*
X158165038Y-112912624D01*
X158357301Y-112912625D01*
X158355454Y-112946640D01*
X158352245Y-112979881D01*
X158347693Y-113012327D01*
X158341822Y-113043959D01*
X158334652Y-113074756D01*
X158326206Y-113104699D01*
X158316504Y-113133766D01*
X158305569Y-113161940D01*
X158293423Y-113189198D01*
X158280086Y-113215522D01*
X158265580Y-113240891D01*
X158249928Y-113265286D01*
X158233150Y-113288685D01*
X158215269Y-113311070D01*
X158196305Y-113332420D01*
X158176282Y-113352715D01*
X158155219Y-113371936D01*
X158133140Y-113390061D01*
X158110065Y-113407072D01*
X158086017Y-113422947D01*
X158061016Y-113437668D01*
X158035085Y-113451213D01*
X158008245Y-113463564D01*
X157980518Y-113474700D01*
X157951925Y-113484600D01*
X157922488Y-113493245D01*
X157892229Y-113500616D01*
X157861169Y-113506691D01*
X157829330Y-113511451D01*
X157796734Y-113514875D01*
X157763402Y-113516945D01*
X157729356Y-113517639D01*
X157693553Y-113516954D01*
X157658586Y-113514907D01*
X157624475Y-113511512D01*
X157591239Y-113506780D01*
X157558899Y-113500726D01*
X157527473Y-113493362D01*
X157496982Y-113484700D01*
X157467446Y-113474755D01*
X157438884Y-113463538D01*
X157411316Y-113451063D01*
X157384761Y-113437342D01*
X157359239Y-113422389D01*
X157334770Y-113406217D01*
X157311374Y-113388838D01*
X157289070Y-113370265D01*
X157267879Y-113350511D01*
X157247818Y-113329589D01*
X157228910Y-113307513D01*
X157211172Y-113284294D01*
X157194625Y-113259946D01*
X157179289Y-113234482D01*
X157165183Y-113207915D01*
X157152327Y-113180257D01*
X157140741Y-113151522D01*
X157130444Y-113121723D01*
X157121455Y-113090871D01*
X157113796Y-113058981D01*
X157107485Y-113026065D01*
X157102542Y-112992137D01*
X157098987Y-112957208D01*
X157096840Y-112921292D01*
X157096120Y-112884403D01*
X157096834Y-112849250D01*
X157098962Y-112814911D01*
X157102478Y-112781404D01*
X157107361Y-112748745D01*
X157113586Y-112716953D01*
X157121130Y-112686046D01*
X157129969Y-112656042D01*
X157140079Y-112626957D01*
X157151438Y-112598811D01*
X157164021Y-112571620D01*
X157177804Y-112545403D01*
X157192765Y-112520177D01*
X157208880Y-112495960D01*
X157226125Y-112472769D01*
X157244476Y-112450623D01*
X157263910Y-112429540D01*
X157284404Y-112409536D01*
X157305933Y-112390630D01*
X157328475Y-112372840D01*
X157352005Y-112356183D01*
X157376500Y-112340677D01*
X157401937Y-112326340D01*
X157428291Y-112313190D01*
X157455540Y-112301244D01*
X157483660Y-112290520D01*
X157512627Y-112281036D01*
X157542417Y-112272810D01*
X157573008Y-112265859D01*
X157604375Y-112260202D01*
X157636495Y-112255855D01*
X157669344Y-112252837D01*
X157702898Y-112251166D01*
X157702898Y-112431082D01*
G37*
D10*
G36*
X173481875Y-84144127D02*
G01*
X173481875Y-84541002D01*
X173283438Y-84541002D01*
X173085000Y-84541002D01*
X173085000Y-84342565D01*
X173085000Y-84144127D01*
X172886562Y-84144127D01*
X172688125Y-84144127D01*
X172688125Y-83945690D01*
X172688125Y-83747252D01*
X173085000Y-83747252D01*
X173481875Y-83747252D01*
X173481875Y-84144127D01*
G37*
D11*
X152947452Y-113500000D02*
X152758715Y-113500000D01*
X152758715Y-112672736D01*
X152947452Y-112672736D01*
X152947452Y-113500000D01*
G36*
X152947452Y-113500000D02*
G01*
X152758715Y-113500000D01*
X152758715Y-112672736D01*
X152947452Y-112672736D01*
X152947452Y-113500000D01*
G37*
D10*
G36*
X166271979Y-80334128D02*
G01*
X166271979Y-80929440D01*
X165670052Y-80929440D01*
X165068126Y-80929440D01*
X165068126Y-80334128D01*
X165068126Y-79738815D01*
X165670052Y-79738815D01*
X166271979Y-79738815D01*
X166271979Y-80334128D01*
G37*
G36*
X167078959Y-86346784D02*
G01*
X167078959Y-86551836D01*
X166873906Y-86551836D01*
X166668854Y-86551836D01*
X166668854Y-86346784D01*
X166668854Y-86141731D01*
X166873906Y-86141731D01*
X167078959Y-86141731D01*
X167078959Y-86346784D01*
G37*
G36*
X170882344Y-80135690D02*
G01*
X171087396Y-80135690D01*
X171087396Y-80334128D01*
X171087396Y-80532565D01*
X170882344Y-80532565D01*
X170677292Y-80532565D01*
X170677292Y-80334128D01*
X170677292Y-80135690D01*
X170882344Y-80135690D01*
G37*
G36*
X170677292Y-79937253D02*
G01*
X170677292Y-80135690D01*
X170478854Y-80135690D01*
X170280417Y-80135690D01*
X170280417Y-79937253D01*
X170280417Y-79738815D01*
X170478854Y-79738815D01*
X170677292Y-79738815D01*
X170677292Y-79937253D01*
G37*
D11*
X155623444Y-112612624D02*
X155620996Y-112629421D01*
X155617715Y-112645535D01*
X155613627Y-112660983D01*
X155608752Y-112675787D01*
X155603116Y-112689966D01*
X155596740Y-112703540D01*
X155589649Y-112716529D01*
X155581865Y-112728951D01*
X155573412Y-112740827D01*
X155564313Y-112752177D01*
X155554591Y-112763020D01*
X155544270Y-112773376D01*
X155533373Y-112783265D01*
X155521923Y-112792706D01*
X155509943Y-112801719D01*
X155497457Y-112810324D01*
X155484487Y-112818540D01*
X155471058Y-112826388D01*
X155457192Y-112833886D01*
X155428242Y-112847914D01*
X155397826Y-112860782D01*
X155366127Y-112872647D01*
X155333333Y-112883668D01*
X155299630Y-112894001D01*
X155265203Y-112903804D01*
X155247857Y-112909523D01*
X155230284Y-112914829D01*
X155212586Y-112919803D01*
X155194868Y-112924530D01*
X155159783Y-112933570D01*
X155125856Y-112942610D01*
X155059710Y-112965541D01*
X155028621Y-112976841D01*
X155013573Y-112982594D01*
X154998856Y-112988471D01*
X154984851Y-112995608D01*
X154971319Y-113003154D01*
X154958320Y-113011144D01*
X154945912Y-113019614D01*
X154934155Y-113028602D01*
X154923109Y-113038142D01*
X154912832Y-113048272D01*
X154903385Y-113059026D01*
X154898992Y-113064649D01*
X154894827Y-113070442D01*
X154890900Y-113076410D01*
X154887218Y-113082556D01*
X154883787Y-113088886D01*
X154880616Y-113095404D01*
X154877711Y-113102114D01*
X154875081Y-113109021D01*
X154872732Y-113116130D01*
X154870672Y-113123445D01*
X154868909Y-113130970D01*
X154867450Y-113138711D01*
X154866302Y-113146671D01*
X154865473Y-113154856D01*
X154864970Y-113163269D01*
X154864800Y-113171915D01*
X154865335Y-113186609D01*
X154866904Y-113200605D01*
X154869460Y-113213918D01*
X154872951Y-113226564D01*
X154877329Y-113238558D01*
X154882544Y-113249914D01*
X154888545Y-113260648D01*
X154895283Y-113270775D01*
X154902708Y-113280311D01*
X154910771Y-113289270D01*
X154919422Y-113297667D01*
X154928611Y-113305519D01*
X154938288Y-113312839D01*
X154948404Y-113319644D01*
X154958908Y-113325948D01*
X154969752Y-113331767D01*
X154980885Y-113337115D01*
X154992258Y-113342009D01*
X155003821Y-113346462D01*
X155015524Y-113350491D01*
X155039151Y-113357335D01*
X155062742Y-113362663D01*
X155085899Y-113366595D01*
X155108224Y-113369253D01*
X155129320Y-113370759D01*
X155148787Y-113371234D01*
X155176747Y-113370401D01*
X155204287Y-113367872D01*
X155231239Y-113363607D01*
X155257432Y-113357564D01*
X155282694Y-113349702D01*
X155306855Y-113339980D01*
X155318469Y-113334408D01*
X155329745Y-113328356D01*
X155340660Y-113321818D01*
X155351193Y-113314789D01*
X155361323Y-113307264D01*
X155371029Y-113299238D01*
X155380289Y-113290705D01*
X155389082Y-113281661D01*
X155397387Y-113272100D01*
X155405182Y-113262017D01*
X155412446Y-113251407D01*
X155419158Y-113240265D01*
X155425296Y-113228585D01*
X155430840Y-113216363D01*
X155435767Y-113203593D01*
X155440056Y-113190270D01*
X155443687Y-113176388D01*
X155446637Y-113161944D01*
X155448886Y-113146931D01*
X155450412Y-113131345D01*
X155646203Y-113131346D01*
X155644446Y-113157440D01*
X155641507Y-113182484D01*
X155637416Y-113206492D01*
X155632199Y-113229480D01*
X155625886Y-113251461D01*
X155618503Y-113272450D01*
X155610081Y-113292462D01*
X155600645Y-113311511D01*
X155590225Y-113329612D01*
X155578849Y-113346779D01*
X155566545Y-113363027D01*
X155553341Y-113378370D01*
X155539264Y-113392823D01*
X155524344Y-113406400D01*
X155508607Y-113419117D01*
X155492083Y-113430987D01*
X155474800Y-113442025D01*
X155456784Y-113452245D01*
X155438066Y-113461663D01*
X155418672Y-113470292D01*
X155398630Y-113478147D01*
X155377970Y-113485243D01*
X155356718Y-113491594D01*
X155334904Y-113497215D01*
X155312555Y-113502120D01*
X155289699Y-113506324D01*
X155242579Y-113512687D01*
X155193769Y-113516419D01*
X155143495Y-113517638D01*
X155101309Y-113516429D01*
X155059017Y-113512766D01*
X155017010Y-113506592D01*
X154975677Y-113497849D01*
X154935409Y-113486481D01*
X154896595Y-113472431D01*
X154859626Y-113455642D01*
X154824892Y-113436058D01*
X154808485Y-113425199D01*
X154792783Y-113413621D01*
X154777835Y-113401315D01*
X154763690Y-113388274D01*
X154750396Y-113374492D01*
X154738002Y-113359962D01*
X154726557Y-113344675D01*
X154716109Y-113328626D01*
X154706709Y-113311806D01*
X154698403Y-113294210D01*
X154691241Y-113275829D01*
X154685272Y-113256657D01*
X154680545Y-113236687D01*
X154677108Y-113215911D01*
X154675010Y-113194323D01*
X154674300Y-113171915D01*
X154674796Y-113152460D01*
X154676269Y-113133771D01*
X154678690Y-113115825D01*
X154682034Y-113098603D01*
X154686273Y-113082084D01*
X154691380Y-113066247D01*
X154697329Y-113051071D01*
X154704093Y-113036536D01*
X154711645Y-113022621D01*
X154719958Y-113009306D01*
X154729006Y-112996570D01*
X154738761Y-112984391D01*
X154749197Y-112972750D01*
X154760287Y-112961626D01*
X154772004Y-112950998D01*
X154784322Y-112940845D01*
X154797214Y-112931147D01*
X154810652Y-112921884D01*
X154824610Y-112913033D01*
X154839061Y-112904576D01*
X154869336Y-112888756D01*
X154901263Y-112874259D01*
X154934625Y-112860920D01*
X154969210Y-112848572D01*
X155004803Y-112837052D01*
X155041189Y-112826193D01*
X155059117Y-112820399D01*
X155077128Y-112814893D01*
X155113067Y-112804585D01*
X155182300Y-112785623D01*
X155220503Y-112774265D01*
X155261041Y-112760901D01*
X155281573Y-112753254D01*
X155301952Y-112744850D01*
X155321933Y-112735604D01*
X155341271Y-112725430D01*
X155359719Y-112714243D01*
X155377034Y-112701959D01*
X155392969Y-112688490D01*
X155400342Y-112681286D01*
X155407279Y-112673754D01*
X155413747Y-112665883D01*
X155419718Y-112657663D01*
X155425159Y-112649083D01*
X155430041Y-112640133D01*
X155434332Y-112630802D01*
X155438002Y-112621079D01*
X155441020Y-112610954D01*
X155443356Y-112600415D01*
X155625037Y-112595123D01*
X155623444Y-112612624D01*
G36*
X155623444Y-112612624D02*
G01*
X155620996Y-112629421D01*
X155617715Y-112645535D01*
X155613627Y-112660983D01*
X155608752Y-112675787D01*
X155603116Y-112689966D01*
X155596740Y-112703540D01*
X155589649Y-112716529D01*
X155581865Y-112728951D01*
X155573412Y-112740827D01*
X155564313Y-112752177D01*
X155554591Y-112763020D01*
X155544270Y-112773376D01*
X155533373Y-112783265D01*
X155521923Y-112792706D01*
X155509943Y-112801719D01*
X155497457Y-112810324D01*
X155484487Y-112818540D01*
X155471058Y-112826388D01*
X155457192Y-112833886D01*
X155428242Y-112847914D01*
X155397826Y-112860782D01*
X155366127Y-112872647D01*
X155333333Y-112883668D01*
X155299630Y-112894001D01*
X155265203Y-112903804D01*
X155247857Y-112909523D01*
X155230284Y-112914829D01*
X155212586Y-112919803D01*
X155194868Y-112924530D01*
X155159783Y-112933570D01*
X155125856Y-112942610D01*
X155059710Y-112965541D01*
X155028621Y-112976841D01*
X155013573Y-112982594D01*
X154998856Y-112988471D01*
X154984851Y-112995608D01*
X154971319Y-113003154D01*
X154958320Y-113011144D01*
X154945912Y-113019614D01*
X154934155Y-113028602D01*
X154923109Y-113038142D01*
X154912832Y-113048272D01*
X154903385Y-113059026D01*
X154898992Y-113064649D01*
X154894827Y-113070442D01*
X154890900Y-113076410D01*
X154887218Y-113082556D01*
X154883787Y-113088886D01*
X154880616Y-113095404D01*
X154877711Y-113102114D01*
X154875081Y-113109021D01*
X154872732Y-113116130D01*
X154870672Y-113123445D01*
X154868909Y-113130970D01*
X154867450Y-113138711D01*
X154866302Y-113146671D01*
X154865473Y-113154856D01*
X154864970Y-113163269D01*
X154864800Y-113171915D01*
X154865335Y-113186609D01*
X154866904Y-113200605D01*
X154869460Y-113213918D01*
X154872951Y-113226564D01*
X154877329Y-113238558D01*
X154882544Y-113249914D01*
X154888545Y-113260648D01*
X154895283Y-113270775D01*
X154902708Y-113280311D01*
X154910771Y-113289270D01*
X154919422Y-113297667D01*
X154928611Y-113305519D01*
X154938288Y-113312839D01*
X154948404Y-113319644D01*
X154958908Y-113325948D01*
X154969752Y-113331767D01*
X154980885Y-113337115D01*
X154992258Y-113342009D01*
X155003821Y-113346462D01*
X155015524Y-113350491D01*
X155039151Y-113357335D01*
X155062742Y-113362663D01*
X155085899Y-113366595D01*
X155108224Y-113369253D01*
X155129320Y-113370759D01*
X155148787Y-113371234D01*
X155176747Y-113370401D01*
X155204287Y-113367872D01*
X155231239Y-113363607D01*
X155257432Y-113357564D01*
X155282694Y-113349702D01*
X155306855Y-113339980D01*
X155318469Y-113334408D01*
X155329745Y-113328356D01*
X155340660Y-113321818D01*
X155351193Y-113314789D01*
X155361323Y-113307264D01*
X155371029Y-113299238D01*
X155380289Y-113290705D01*
X155389082Y-113281661D01*
X155397387Y-113272100D01*
X155405182Y-113262017D01*
X155412446Y-113251407D01*
X155419158Y-113240265D01*
X155425296Y-113228585D01*
X155430840Y-113216363D01*
X155435767Y-113203593D01*
X155440056Y-113190270D01*
X155443687Y-113176388D01*
X155446637Y-113161944D01*
X155448886Y-113146931D01*
X155450412Y-113131345D01*
X155646203Y-113131346D01*
X155644446Y-113157440D01*
X155641507Y-113182484D01*
X155637416Y-113206492D01*
X155632199Y-113229480D01*
X155625886Y-113251461D01*
X155618503Y-113272450D01*
X155610081Y-113292462D01*
X155600645Y-113311511D01*
X155590225Y-113329612D01*
X155578849Y-113346779D01*
X155566545Y-113363027D01*
X155553341Y-113378370D01*
X155539264Y-113392823D01*
X155524344Y-113406400D01*
X155508607Y-113419117D01*
X155492083Y-113430987D01*
X155474800Y-113442025D01*
X155456784Y-113452245D01*
X155438066Y-113461663D01*
X155418672Y-113470292D01*
X155398630Y-113478147D01*
X155377970Y-113485243D01*
X155356718Y-113491594D01*
X155334904Y-113497215D01*
X155312555Y-113502120D01*
X155289699Y-113506324D01*
X155242579Y-113512687D01*
X155193769Y-113516419D01*
X155143495Y-113517638D01*
X155101309Y-113516429D01*
X155059017Y-113512766D01*
X155017010Y-113506592D01*
X154975677Y-113497849D01*
X154935409Y-113486481D01*
X154896595Y-113472431D01*
X154859626Y-113455642D01*
X154824892Y-113436058D01*
X154808485Y-113425199D01*
X154792783Y-113413621D01*
X154777835Y-113401315D01*
X154763690Y-113388274D01*
X154750396Y-113374492D01*
X154738002Y-113359962D01*
X154726557Y-113344675D01*
X154716109Y-113328626D01*
X154706709Y-113311806D01*
X154698403Y-113294210D01*
X154691241Y-113275829D01*
X154685272Y-113256657D01*
X154680545Y-113236687D01*
X154677108Y-113215911D01*
X154675010Y-113194323D01*
X154674300Y-113171915D01*
X154674796Y-113152460D01*
X154676269Y-113133771D01*
X154678690Y-113115825D01*
X154682034Y-113098603D01*
X154686273Y-113082084D01*
X154691380Y-113066247D01*
X154697329Y-113051071D01*
X154704093Y-113036536D01*
X154711645Y-113022621D01*
X154719958Y-113009306D01*
X154729006Y-112996570D01*
X154738761Y-112984391D01*
X154749197Y-112972750D01*
X154760287Y-112961626D01*
X154772004Y-112950998D01*
X154784322Y-112940845D01*
X154797214Y-112931147D01*
X154810652Y-112921884D01*
X154824610Y-112913033D01*
X154839061Y-112904576D01*
X154869336Y-112888756D01*
X154901263Y-112874259D01*
X154934625Y-112860920D01*
X154969210Y-112848572D01*
X155004803Y-112837052D01*
X155041189Y-112826193D01*
X155059117Y-112820399D01*
X155077128Y-112814893D01*
X155113067Y-112804585D01*
X155182300Y-112785623D01*
X155220503Y-112774265D01*
X155261041Y-112760901D01*
X155281573Y-112753254D01*
X155301952Y-112744850D01*
X155321933Y-112735604D01*
X155341271Y-112725430D01*
X155359719Y-112714243D01*
X155377034Y-112701959D01*
X155392969Y-112688490D01*
X155400342Y-112681286D01*
X155407279Y-112673754D01*
X155413747Y-112665883D01*
X155419718Y-112657663D01*
X155425159Y-112649083D01*
X155430041Y-112640133D01*
X155434332Y-112630802D01*
X155438002Y-112621079D01*
X155441020Y-112610954D01*
X155443356Y-112600415D01*
X155625037Y-112595123D01*
X155623444Y-112612624D01*
G37*
X156032495Y-113212486D02*
X156685133Y-112268805D01*
X156870342Y-112268805D01*
X156044842Y-113500000D01*
X155849050Y-113500000D01*
X155849050Y-112268805D01*
X156027203Y-112268805D01*
X156032495Y-113212486D01*
G36*
X156032495Y-113212486D02*
G01*
X156685133Y-112268805D01*
X156870342Y-112268805D01*
X156044842Y-113500000D01*
X155849050Y-113500000D01*
X155849050Y-112268805D01*
X156027203Y-112268805D01*
X156032495Y-113212486D01*
G37*
X155141730Y-112395805D02*
X155116393Y-112398267D01*
X155091417Y-112402351D01*
X155066959Y-112408068D01*
X155043172Y-112415429D01*
X155020212Y-112424443D01*
X154998234Y-112435121D01*
X154977393Y-112447473D01*
X154967447Y-112454281D01*
X154957844Y-112461510D01*
X154948602Y-112469164D01*
X154939741Y-112477242D01*
X154931281Y-112485747D01*
X154923241Y-112494680D01*
X154915640Y-112504041D01*
X154908498Y-112513833D01*
X154901834Y-112524056D01*
X154895667Y-112534712D01*
X154890016Y-112545802D01*
X154884902Y-112557327D01*
X154880344Y-112569289D01*
X154876360Y-112581689D01*
X154872971Y-112594529D01*
X154870195Y-112607808D01*
X154868053Y-112621530D01*
X154866563Y-112635695D01*
X154674300Y-112635693D01*
X154676166Y-112611176D01*
X154679104Y-112587560D01*
X154683088Y-112564834D01*
X154688094Y-112542989D01*
X154694097Y-112522017D01*
X154701073Y-112501907D01*
X154708998Y-112482650D01*
X154717846Y-112464238D01*
X154727593Y-112446660D01*
X154738215Y-112429907D01*
X154749687Y-112413970D01*
X154761984Y-112398839D01*
X154775083Y-112384506D01*
X154788958Y-112370960D01*
X154803585Y-112358193D01*
X154818939Y-112346195D01*
X154834996Y-112334956D01*
X154851731Y-112324468D01*
X154869120Y-112314721D01*
X154887138Y-112305705D01*
X154905761Y-112297411D01*
X154924963Y-112289830D01*
X154944722Y-112282953D01*
X154965011Y-112276770D01*
X154985807Y-112271271D01*
X155007084Y-112266448D01*
X155050987Y-112258790D01*
X155096522Y-112253721D01*
X155143495Y-112251166D01*
X155141730Y-112395805D01*
G36*
X155141730Y-112395805D02*
G01*
X155116393Y-112398267D01*
X155091417Y-112402351D01*
X155066959Y-112408068D01*
X155043172Y-112415429D01*
X155020212Y-112424443D01*
X154998234Y-112435121D01*
X154977393Y-112447473D01*
X154967447Y-112454281D01*
X154957844Y-112461510D01*
X154948602Y-112469164D01*
X154939741Y-112477242D01*
X154931281Y-112485747D01*
X154923241Y-112494680D01*
X154915640Y-112504041D01*
X154908498Y-112513833D01*
X154901834Y-112524056D01*
X154895667Y-112534712D01*
X154890016Y-112545802D01*
X154884902Y-112557327D01*
X154880344Y-112569289D01*
X154876360Y-112581689D01*
X154872971Y-112594529D01*
X154870195Y-112607808D01*
X154868053Y-112621530D01*
X154866563Y-112635695D01*
X154674300Y-112635693D01*
X154676166Y-112611176D01*
X154679104Y-112587560D01*
X154683088Y-112564834D01*
X154688094Y-112542989D01*
X154694097Y-112522017D01*
X154701073Y-112501907D01*
X154708998Y-112482650D01*
X154717846Y-112464238D01*
X154727593Y-112446660D01*
X154738215Y-112429907D01*
X154749687Y-112413970D01*
X154761984Y-112398839D01*
X154775083Y-112384506D01*
X154788958Y-112370960D01*
X154803585Y-112358193D01*
X154818939Y-112346195D01*
X154834996Y-112334956D01*
X154851731Y-112324468D01*
X154869120Y-112314721D01*
X154887138Y-112305705D01*
X154905761Y-112297411D01*
X154924963Y-112289830D01*
X154944722Y-112282953D01*
X154965011Y-112276770D01*
X154985807Y-112271271D01*
X155007084Y-112266448D01*
X155050987Y-112258790D01*
X155096522Y-112253721D01*
X155143495Y-112251166D01*
X155141730Y-112395805D01*
G37*
D10*
G36*
X173481875Y-80334128D02*
G01*
X173481875Y-80929440D01*
X172886562Y-80929440D01*
X172291250Y-80929440D01*
X172291250Y-80334128D01*
X172291250Y-79738815D01*
X172886562Y-79738815D01*
X173481875Y-79738815D01*
X173481875Y-80334128D01*
G37*
D11*
X154568466Y-113500000D02*
X154362091Y-113500000D01*
X154004022Y-112422263D01*
X153993439Y-112422263D01*
X153610674Y-113500000D01*
X153390188Y-113500000D01*
X153862911Y-112268805D01*
X154134550Y-112268805D01*
X154568466Y-113500000D01*
G36*
X154568466Y-113500000D02*
G01*
X154362091Y-113500000D01*
X154004022Y-112422263D01*
X153993439Y-112422263D01*
X153610674Y-113500000D01*
X153390188Y-113500000D01*
X153862911Y-112268805D01*
X154134550Y-112268805D01*
X154568466Y-113500000D01*
G37*
D10*
G36*
X174288854Y-81736419D02*
G01*
X172886562Y-81736419D01*
X171484271Y-81736419D01*
X171484271Y-80334128D01*
X171484271Y-79328711D01*
X171881146Y-79328711D01*
X171881146Y-80334128D01*
X171881146Y-81339544D01*
X172886562Y-81339544D01*
X173891979Y-81339544D01*
X173891979Y-80334128D01*
X173891979Y-79328711D01*
X172886562Y-79328711D01*
X171881146Y-79328711D01*
X171484271Y-79328711D01*
X171484271Y-78931836D01*
X172886562Y-78931836D01*
X174288854Y-78931836D01*
X174288854Y-80334128D01*
X174288854Y-81736419D01*
G37*
G36*
X171087396Y-79335326D02*
G01*
X171087396Y-79738815D01*
X170882344Y-79738815D01*
X170677292Y-79738815D01*
X170677292Y-79533763D01*
X170677292Y-79328711D01*
X170478854Y-79328711D01*
X170280417Y-79328711D01*
X170280417Y-79130273D01*
X170280417Y-78931836D01*
X170683906Y-78931836D01*
X171087396Y-78931836D01*
X171087396Y-79335326D01*
G37*
G36*
X173891979Y-83138711D02*
G01*
X173891979Y-83337148D01*
X174090417Y-83337148D01*
X174288854Y-83337148D01*
X174288854Y-83542200D01*
X174288854Y-83747252D01*
X173885365Y-83747252D01*
X173481875Y-83747252D01*
X173481875Y-83343763D01*
X173481875Y-82940273D01*
X173686927Y-82940273D01*
X173891979Y-82940273D01*
X173891979Y-83138711D01*
G37*
G36*
X167078959Y-84541002D02*
G01*
X167277396Y-84541002D01*
X167475834Y-84541002D01*
X167475834Y-84342565D01*
X167475834Y-84144127D01*
X167674271Y-84144127D01*
X167872709Y-84144127D01*
X167872709Y-83740638D01*
X167872709Y-83337148D01*
X168071146Y-83337148D01*
X168269583Y-83337148D01*
X168269583Y-83542200D01*
X168269583Y-83747252D01*
X168474635Y-83747252D01*
X168679688Y-83747252D01*
X168679688Y-84349180D01*
X168679688Y-84951107D01*
X168276198Y-84951107D01*
X167872709Y-84951107D01*
X167872709Y-85347981D01*
X167872709Y-85744856D01*
X168071146Y-85744856D01*
X168269583Y-85744856D01*
X168269583Y-85546419D01*
X168269583Y-85347981D01*
X168474635Y-85347981D01*
X168679688Y-85347981D01*
X168679688Y-85546419D01*
X168679688Y-85744856D01*
X168878125Y-85744856D01*
X169076563Y-85744856D01*
X169076563Y-85943294D01*
X169076563Y-86141731D01*
X169275000Y-86141731D01*
X169473438Y-86141731D01*
X169473438Y-86346784D01*
X169473438Y-86551836D01*
X169678490Y-86551836D01*
X169883542Y-86551836D01*
X169883542Y-86148346D01*
X169883542Y-85744856D01*
X170485469Y-85744856D01*
X171087396Y-85744856D01*
X171087396Y-86346784D01*
X171087396Y-86948711D01*
X170882344Y-86948711D01*
X170677292Y-86948711D01*
X170677292Y-86750273D01*
X170677292Y-86551836D01*
X170478854Y-86551836D01*
X170280417Y-86551836D01*
X170280417Y-86948711D01*
X170280417Y-87345586D01*
X170683906Y-87345586D01*
X171087396Y-87345586D01*
X171087396Y-87749075D01*
X171087396Y-87954128D01*
X171087396Y-88152564D01*
X170882344Y-88152564D01*
X170677292Y-88152564D01*
X170677292Y-88351002D01*
X170677292Y-88549439D01*
X170478854Y-88549439D01*
X170280417Y-88549439D01*
X170280417Y-88754491D01*
X170280417Y-88959544D01*
X170081979Y-88959544D01*
X169883542Y-88959544D01*
X169883542Y-88754491D01*
X169883542Y-88549439D01*
X169480052Y-88549439D01*
X169076563Y-88549439D01*
X169076563Y-88351002D01*
X169076563Y-88152564D01*
X168878125Y-88152564D01*
X168679688Y-88152564D01*
X168679688Y-87954128D01*
X168679688Y-87755690D01*
X168878125Y-87755690D01*
X169076563Y-87755690D01*
X169883542Y-87755690D01*
X169883542Y-87954128D01*
X169883542Y-88152564D01*
X170280417Y-88152564D01*
X170677292Y-88152564D01*
X170677292Y-87954128D01*
X170677292Y-87755690D01*
X170280417Y-87755690D01*
X169883542Y-87755690D01*
X169076563Y-87755690D01*
X169076563Y-87352200D01*
X169076563Y-86948711D01*
X169275000Y-86948711D01*
X169473438Y-86948711D01*
X169473438Y-87147148D01*
X169473438Y-87345586D01*
X169678490Y-87345586D01*
X169883542Y-87345586D01*
X169883542Y-87147148D01*
X169883542Y-86948711D01*
X169678490Y-86948711D01*
X169473438Y-86948711D01*
X169473438Y-86750273D01*
X169473438Y-86551836D01*
X169275000Y-86551836D01*
X169076563Y-86551836D01*
X169076563Y-86750273D01*
X169076563Y-86948711D01*
X168878125Y-86948711D01*
X168679688Y-86948711D01*
X168679688Y-87147148D01*
X168679688Y-87345586D01*
X168474635Y-87345586D01*
X168269583Y-87345586D01*
X168269583Y-87954128D01*
X168269583Y-88152564D01*
X168269583Y-88959544D01*
X167872709Y-88959544D01*
X167475834Y-88959544D01*
X167475834Y-88754491D01*
X167475834Y-88549439D01*
X167277396Y-88549439D01*
X167078959Y-88549439D01*
X167078959Y-88351002D01*
X167078959Y-88152564D01*
X166873906Y-88152564D01*
X166668854Y-88152564D01*
X166668854Y-87954128D01*
X166668854Y-87755690D01*
X166873906Y-87755690D01*
X167078959Y-87755690D01*
X167475834Y-87755690D01*
X167475834Y-87954128D01*
X167475834Y-88152564D01*
X167674271Y-88152564D01*
X167872709Y-88152564D01*
X167872709Y-87954128D01*
X167872709Y-87755690D01*
X167674271Y-87755690D01*
X167475834Y-87755690D01*
X167078959Y-87755690D01*
X167078959Y-87550638D01*
X167078959Y-87345586D01*
X166675469Y-87345586D01*
X166271979Y-87345586D01*
X166271979Y-87550638D01*
X166271979Y-87755690D01*
X166073542Y-87755690D01*
X165875104Y-87755690D01*
X165875104Y-87954128D01*
X165875104Y-88152564D01*
X165670052Y-88152564D01*
X165465000Y-88152564D01*
X165465000Y-88556054D01*
X165465000Y-88959544D01*
X164863074Y-88959544D01*
X164261146Y-88959544D01*
X164261146Y-88556054D01*
X164261146Y-88152564D01*
X164466199Y-88152564D01*
X164671251Y-88152564D01*
X164671251Y-87954128D01*
X164671251Y-87755690D01*
X164466199Y-87755690D01*
X164261146Y-87755690D01*
X164261146Y-86948711D01*
X164671251Y-86948711D01*
X164671251Y-87147148D01*
X164671251Y-87345586D01*
X164869688Y-87345586D01*
X165068126Y-87345586D01*
X165068126Y-87550638D01*
X165068126Y-87755690D01*
X165471615Y-87755690D01*
X165875104Y-87755690D01*
X165875104Y-86948711D01*
X165875104Y-86141731D01*
X165670052Y-86141731D01*
X165465000Y-86141731D01*
X165465000Y-86346784D01*
X165465000Y-86551836D01*
X165266562Y-86551836D01*
X165068126Y-86551836D01*
X165068126Y-86750273D01*
X165068126Y-86948711D01*
X164869688Y-86948711D01*
X164671251Y-86948711D01*
X164261146Y-86948711D01*
X164261146Y-86141731D01*
X164664636Y-86141731D01*
X165068126Y-86141731D01*
X165068126Y-85943294D01*
X165068126Y-85744856D01*
X164869688Y-85744856D01*
X164671251Y-85744856D01*
X164671251Y-85546419D01*
X164671251Y-85347981D01*
X164466199Y-85347981D01*
X164261146Y-85347981D01*
X164261146Y-85149544D01*
X164261146Y-84951107D01*
X164466199Y-84951107D01*
X164671251Y-84951107D01*
X164671251Y-84746055D01*
X164671251Y-84541002D01*
X164869688Y-84541002D01*
X165068126Y-84541002D01*
X165068126Y-85142930D01*
X165068126Y-85744856D01*
X165471615Y-85744856D01*
X165875104Y-85744856D01*
X166271979Y-85744856D01*
X166271979Y-86346784D01*
X166271979Y-86948711D01*
X166873906Y-86948711D01*
X167475834Y-86948711D01*
X167475834Y-86551836D01*
X167872709Y-86551836D01*
X168071146Y-86551836D01*
X168269583Y-86551836D01*
X168269583Y-86346784D01*
X168269583Y-86141731D01*
X168071146Y-86141731D01*
X167872709Y-86141731D01*
X167872709Y-86346784D01*
X167872709Y-86551836D01*
X167475834Y-86551836D01*
X167475834Y-86346784D01*
X167475834Y-85744856D01*
X166873906Y-85744856D01*
X166271979Y-85744856D01*
X165875104Y-85744856D01*
X165875104Y-85546419D01*
X165875104Y-85347981D01*
X166675469Y-85347981D01*
X167475834Y-85347981D01*
X167475834Y-85149544D01*
X167475834Y-84951107D01*
X167277396Y-84951107D01*
X167078959Y-84951107D01*
X167078959Y-84746055D01*
X167078959Y-84541002D01*
X166873906Y-84541002D01*
X166668854Y-84541002D01*
X166668854Y-84746055D01*
X166668854Y-84951107D01*
X166066927Y-84951107D01*
X165465000Y-84951107D01*
X165465000Y-84349180D01*
X165465000Y-84144127D01*
X165875104Y-84144127D01*
X165875104Y-84342565D01*
X165875104Y-84541002D01*
X166073542Y-84541002D01*
X166271979Y-84541002D01*
X166271979Y-84342565D01*
X166271979Y-84144127D01*
X166073542Y-84144127D01*
X165875104Y-84144127D01*
X165465000Y-84144127D01*
X165465000Y-83747252D01*
X165266562Y-83747252D01*
X165068126Y-83747252D01*
X165068126Y-83945690D01*
X165068126Y-84144127D01*
X164869688Y-84144127D01*
X164671251Y-84144127D01*
X164671251Y-84342565D01*
X164671251Y-84541002D01*
X164466199Y-84541002D01*
X164261146Y-84541002D01*
X164261146Y-83542200D01*
X164671251Y-83542200D01*
X164671251Y-83747252D01*
X164869688Y-83747252D01*
X165068126Y-83747252D01*
X165068126Y-83542200D01*
X165068126Y-83337148D01*
X164869688Y-83337148D01*
X164671251Y-83337148D01*
X164671251Y-83542200D01*
X164261146Y-83542200D01*
X164261146Y-83337148D01*
X164261146Y-82133294D01*
X164664636Y-82133294D01*
X165068126Y-82133294D01*
X165068126Y-82338346D01*
X165068126Y-82543398D01*
X164869688Y-82543398D01*
X164671251Y-82543398D01*
X164671251Y-82741836D01*
X164671251Y-82940273D01*
X165273177Y-82940273D01*
X165875104Y-82940273D01*
X165875104Y-82741836D01*
X165875104Y-82543398D01*
X165670052Y-82543398D01*
X165465000Y-82543398D01*
X165465000Y-82338346D01*
X165465000Y-82133294D01*
X165670052Y-82133294D01*
X165875104Y-82133294D01*
X165875104Y-82338346D01*
X165875104Y-82543398D01*
X166271979Y-82543398D01*
X166668854Y-82543398D01*
X166668854Y-82338346D01*
X166668854Y-82133294D01*
X166873906Y-82133294D01*
X167078959Y-82133294D01*
X167078959Y-82338346D01*
X167078959Y-82543398D01*
X166873906Y-82543398D01*
X166668854Y-82543398D01*
X166668854Y-82741836D01*
X166668854Y-82940273D01*
X166271979Y-82940273D01*
X165875104Y-82940273D01*
X165875104Y-83343763D01*
X165875104Y-83747252D01*
X166073542Y-83747252D01*
X166271979Y-83747252D01*
X166271979Y-83542200D01*
X166271979Y-83337148D01*
X166675469Y-83337148D01*
X167078959Y-83337148D01*
X167078959Y-83542200D01*
X167078959Y-83747252D01*
X166873906Y-83747252D01*
X166668854Y-83747252D01*
X166668854Y-83945690D01*
X166668854Y-84144127D01*
X166873906Y-84144127D01*
X167078959Y-84144127D01*
X167078959Y-84342565D01*
X167078959Y-84541002D01*
G37*
G36*
X170882344Y-88549439D02*
G01*
X171087396Y-88549439D01*
X171087396Y-88754491D01*
X171087396Y-88959544D01*
X170882344Y-88959544D01*
X170677292Y-88959544D01*
X170677292Y-88754491D01*
X170677292Y-88549439D01*
X170882344Y-88549439D01*
G37*
G36*
X166073542Y-88152564D02*
G01*
X166271979Y-88152564D01*
X166271979Y-88351002D01*
X166271979Y-88549439D01*
X166073542Y-88549439D01*
X165875104Y-88549439D01*
X165875104Y-88351002D01*
X165875104Y-88152564D01*
X166073542Y-88152564D01*
G37*
G36*
X168878125Y-84951107D02*
G01*
X169076563Y-84951107D01*
X169076563Y-85149544D01*
X169076563Y-85347981D01*
X168878125Y-85347981D01*
X168679688Y-85347981D01*
X168679688Y-85149544D01*
X168679688Y-84951107D01*
X168878125Y-84951107D01*
G37*
G36*
X167674271Y-82940273D02*
G01*
X167872709Y-82940273D01*
X167872709Y-83138711D01*
X167872709Y-83337148D01*
X167674271Y-83337148D01*
X167475834Y-83337148D01*
X167475834Y-83138711D01*
X167475834Y-82940273D01*
X167674271Y-82940273D01*
G37*
G36*
X167277396Y-82543398D02*
G01*
X167475834Y-82543398D01*
X167475834Y-82741836D01*
X167475834Y-82940273D01*
X167277396Y-82940273D01*
X167078959Y-82940273D01*
X167078959Y-82741836D01*
X167078959Y-82543398D01*
X167277396Y-82543398D01*
G37*
G36*
X174288854Y-88959544D02*
G01*
X172886562Y-88959544D01*
X171484271Y-88959544D01*
X171484271Y-87550638D01*
X171484271Y-86551836D01*
X171881146Y-86551836D01*
X171881146Y-87550638D01*
X171881146Y-88549439D01*
X172886562Y-88549439D01*
X173891979Y-88549439D01*
X173891979Y-87550638D01*
X173891979Y-86551836D01*
X172886562Y-86551836D01*
X171881146Y-86551836D01*
X171484271Y-86551836D01*
X171484271Y-86141731D01*
X172886562Y-86141731D01*
X174288854Y-86141731D01*
X174288854Y-87550638D01*
X174288854Y-88959544D01*
G37*
G36*
X169076563Y-88754491D02*
G01*
X169076563Y-88959544D01*
X168878125Y-88959544D01*
X168679688Y-88959544D01*
X168679688Y-88754491D01*
X168679688Y-88549439D01*
X168878125Y-88549439D01*
X169076563Y-88549439D01*
X169076563Y-88754491D01*
G37*
G36*
X167475834Y-83945690D02*
G01*
X167475834Y-84144127D01*
X167277396Y-84144127D01*
X167078959Y-84144127D01*
X167078959Y-83945690D01*
X167078959Y-83747252D01*
X167277396Y-83747252D01*
X167475834Y-83747252D01*
X167475834Y-83945690D01*
G37*
G36*
X169883542Y-79533763D02*
G01*
X169883542Y-79738815D01*
X169678490Y-79738815D01*
X169473438Y-79738815D01*
X169473438Y-79533763D01*
X169473438Y-79328711D01*
X169678490Y-79328711D01*
X169883542Y-79328711D01*
X169883542Y-79533763D01*
G37*
D11*
X160085912Y-113500000D02*
X159902467Y-113500000D01*
X159902467Y-112907332D01*
X160085912Y-112642749D01*
X160085912Y-113500000D01*
G36*
X160085912Y-113500000D02*
G01*
X159902467Y-113500000D01*
X159902467Y-112907332D01*
X160085912Y-112642749D01*
X160085912Y-113500000D01*
G37*
D10*
G36*
X174288854Y-82536784D02*
G01*
X174288854Y-82940273D01*
X174090417Y-82940273D01*
X173891979Y-82940273D01*
X173891979Y-82536784D01*
X173891979Y-82133294D01*
X174090417Y-82133294D01*
X174288854Y-82133294D01*
X174288854Y-82536784D01*
G37*
G36*
X173481875Y-87550638D02*
G01*
X173481875Y-88152564D01*
X172886562Y-88152564D01*
X172291250Y-88152564D01*
X172291250Y-87550638D01*
X172291250Y-86948711D01*
X172886562Y-86948711D01*
X173481875Y-86948711D01*
X173481875Y-87550638D01*
G37*
G36*
X168878125Y-79328711D02*
G01*
X169076563Y-79328711D01*
X169076563Y-79732200D01*
X169076563Y-80135690D01*
X168878125Y-80135690D01*
X168679688Y-80135690D01*
X168679688Y-80532565D01*
X168679688Y-80929440D01*
X168474635Y-80929440D01*
X168269583Y-80929440D01*
X168269583Y-81134492D01*
X168269583Y-81339544D01*
X168071146Y-81339544D01*
X167872709Y-81339544D01*
X167872709Y-81537982D01*
X167872709Y-81736419D01*
X168071146Y-81736419D01*
X168269583Y-81736419D01*
X168269583Y-81537982D01*
X168269583Y-81339544D01*
X168474635Y-81339544D01*
X168679688Y-81339544D01*
X168679688Y-81537982D01*
X168679688Y-81736419D01*
X168878125Y-81736419D01*
X169076563Y-81736419D01*
X169076563Y-80936055D01*
X169076563Y-80135690D01*
X169480052Y-80135690D01*
X169883542Y-80135690D01*
X169883542Y-80334128D01*
X169883542Y-80532565D01*
X169678490Y-80532565D01*
X169473438Y-80532565D01*
X169473438Y-80936055D01*
X169473438Y-81332930D01*
X169473438Y-82133294D01*
X169076563Y-82133294D01*
X168679688Y-82133294D01*
X168679688Y-82536784D01*
X168679688Y-82940273D01*
X168878125Y-82940273D01*
X169076563Y-82940273D01*
X169076563Y-82741836D01*
X169076563Y-82543398D01*
X169275000Y-82543398D01*
X169473438Y-82543398D01*
X169473438Y-82741836D01*
X169473438Y-82940273D01*
X169678490Y-82940273D01*
X169883542Y-82940273D01*
X169883542Y-83138711D01*
X169883542Y-83337148D01*
X169678490Y-83337148D01*
X169473438Y-83337148D01*
X169473438Y-83740638D01*
X169473438Y-84144127D01*
X169678490Y-84144127D01*
X169883542Y-84144127D01*
X169883542Y-83740638D01*
X169883542Y-83337148D01*
X170081979Y-83337148D01*
X170280417Y-83337148D01*
X170280417Y-83740638D01*
X170280417Y-83939075D01*
X170280417Y-84541002D01*
X170478854Y-84541002D01*
X170677292Y-84541002D01*
X170677292Y-83740638D01*
X170677292Y-82940273D01*
X170882344Y-82940273D01*
X171087396Y-82940273D01*
X171087396Y-83343763D01*
X171087396Y-83747252D01*
X171484271Y-83747252D01*
X171881146Y-83747252D01*
X171881146Y-83945690D01*
X171881146Y-84144127D01*
X171484271Y-84144127D01*
X171087396Y-84144127D01*
X171087396Y-84342565D01*
X171087396Y-84541002D01*
X171689323Y-84541002D01*
X172291250Y-84541002D01*
X172291250Y-84342565D01*
X172291250Y-84144127D01*
X172489688Y-84144127D01*
X172688125Y-84144127D01*
X172688125Y-84342565D01*
X172688125Y-84541002D01*
X172886562Y-84541002D01*
X173085000Y-84541002D01*
X173085000Y-84746055D01*
X173085000Y-84951107D01*
X173283438Y-84951107D01*
X173481875Y-84951107D01*
X173481875Y-84746055D01*
X173481875Y-84541002D01*
X173686927Y-84541002D01*
X173891979Y-84541002D01*
X173891979Y-84746055D01*
X173891979Y-84951107D01*
X173686927Y-84951107D01*
X173481875Y-84951107D01*
X173481875Y-85347981D01*
X173481875Y-85744856D01*
X173283438Y-85744856D01*
X173085000Y-85744856D01*
X173085000Y-85546419D01*
X173085000Y-85347981D01*
X172688125Y-85347981D01*
X172291250Y-85347981D01*
X172291250Y-85149544D01*
X172291250Y-84951107D01*
X171887760Y-84951107D01*
X171484271Y-84951107D01*
X171484271Y-85149544D01*
X171484271Y-85347981D01*
X171682708Y-85347981D01*
X171881146Y-85347981D01*
X171881146Y-85546419D01*
X171881146Y-85744856D01*
X171484271Y-85744856D01*
X171087396Y-85744856D01*
X171087396Y-85142930D01*
X171087396Y-84541002D01*
X170882344Y-84541002D01*
X170677292Y-84541002D01*
X170677292Y-84746055D01*
X170677292Y-84951107D01*
X170478854Y-84951107D01*
X170280417Y-84951107D01*
X170280417Y-85149544D01*
X170280417Y-85347981D01*
X169876927Y-85347981D01*
X169473438Y-85347981D01*
X169473438Y-84944492D01*
X169473438Y-84541002D01*
X169275000Y-84541002D01*
X169076563Y-84541002D01*
X169076563Y-83939075D01*
X169076563Y-83337148D01*
X168878125Y-83337148D01*
X168679688Y-83337148D01*
X168679688Y-83138711D01*
X168679688Y-82940273D01*
X168474635Y-82940273D01*
X168269583Y-82940273D01*
X168269583Y-82536784D01*
X168269583Y-82133294D01*
X168071146Y-82133294D01*
X167872709Y-82133294D01*
X167872709Y-81934856D01*
X167872709Y-81736419D01*
X167674271Y-81736419D01*
X167475834Y-81736419D01*
X167475834Y-81134492D01*
X167475834Y-80532565D01*
X167674271Y-80532565D01*
X167872709Y-80532565D01*
X167872709Y-80135690D01*
X167872709Y-79738815D01*
X168276198Y-79738815D01*
X168679688Y-79738815D01*
X168679688Y-79533763D01*
X168679688Y-79328711D01*
X168878125Y-79328711D01*
G37*
G36*
X171689323Y-82133294D02*
G01*
X172291250Y-82133294D01*
X172291250Y-82338346D01*
X172291250Y-82543398D01*
X172489688Y-82543398D01*
X172688125Y-82543398D01*
X172688125Y-82338346D01*
X172688125Y-82133294D01*
X173085000Y-82133294D01*
X173481875Y-82133294D01*
X173481875Y-82536784D01*
X173481875Y-82940273D01*
X173283438Y-82940273D01*
X173085000Y-82940273D01*
X173085000Y-82741836D01*
X173085000Y-82543398D01*
X172886562Y-82543398D01*
X172688125Y-82543398D01*
X172688125Y-82940273D01*
X172688125Y-83337148D01*
X172489688Y-83337148D01*
X172291250Y-83337148D01*
X172291250Y-83542200D01*
X172291250Y-83747252D01*
X172086198Y-83747252D01*
X171881146Y-83747252D01*
X171881146Y-83542200D01*
X171881146Y-83337148D01*
X171682708Y-83337148D01*
X171484271Y-83337148D01*
X171484271Y-83138711D01*
X171484271Y-82940273D01*
X171682708Y-82940273D01*
X171881146Y-82940273D01*
X171881146Y-82741836D01*
X171881146Y-82543398D01*
X171682708Y-82543398D01*
X171484271Y-82543398D01*
X171484271Y-82741836D01*
X171484271Y-82940273D01*
X171285833Y-82940273D01*
X171087396Y-82940273D01*
X171087396Y-82536784D01*
X171087396Y-82133294D01*
X171689323Y-82133294D01*
G37*
G36*
X170478854Y-82543398D02*
G01*
X170677292Y-82543398D01*
X170677292Y-82741836D01*
X170677292Y-82940273D01*
X170478854Y-82940273D01*
X170280417Y-82940273D01*
X170280417Y-82741836D01*
X170280417Y-82543398D01*
X170478854Y-82543398D01*
G37*
G36*
X170280417Y-81332930D02*
G01*
X170280417Y-81736419D01*
X170478854Y-81736419D01*
X170677292Y-81736419D01*
X170677292Y-81537982D01*
X170677292Y-81339544D01*
X170882344Y-81339544D01*
X171087396Y-81339544D01*
X171087396Y-81736419D01*
X171087396Y-82133294D01*
X170683906Y-82133294D01*
X170280417Y-82133294D01*
X170280417Y-82338346D01*
X170280417Y-82543398D01*
X170081979Y-82543398D01*
X169883542Y-82543398D01*
X169883542Y-81736419D01*
X169883542Y-80929440D01*
X170081979Y-80929440D01*
X170280417Y-80929440D01*
X170280417Y-81332930D01*
G37*
G36*
X168679688Y-79130273D02*
G01*
X168679688Y-79328711D01*
X168276198Y-79328711D01*
X167872709Y-79328711D01*
X167872709Y-79130273D01*
X167872709Y-78931836D01*
X168276198Y-78931836D01*
X168679688Y-78931836D01*
X168679688Y-79130273D01*
G37*
D13*
X152919878Y-97542856D02*
X152119878Y-97542856D01*
X152881783Y-97542856D02*
X152919878Y-97466665D01*
X152919878Y-97466665D02*
X152919878Y-97314284D01*
X152919878Y-97314284D02*
X152881783Y-97238094D01*
X152881783Y-97238094D02*
X152843687Y-97199999D01*
X152843687Y-97199999D02*
X152767497Y-97161903D01*
X152767497Y-97161903D02*
X152538925Y-97161903D01*
X152538925Y-97161903D02*
X152462735Y-97199999D01*
X152462735Y-97199999D02*
X152424640Y-97238094D01*
X152424640Y-97238094D02*
X152386544Y-97314284D01*
X152386544Y-97314284D02*
X152386544Y-97466665D01*
X152386544Y-97466665D02*
X152424640Y-97542856D01*
X152881783Y-98228571D02*
X152919878Y-98152380D01*
X152919878Y-98152380D02*
X152919878Y-97999999D01*
X152919878Y-97999999D02*
X152881783Y-97923809D01*
X152881783Y-97923809D02*
X152805592Y-97885713D01*
X152805592Y-97885713D02*
X152500830Y-97885713D01*
X152500830Y-97885713D02*
X152424640Y-97923809D01*
X152424640Y-97923809D02*
X152386544Y-97999999D01*
X152386544Y-97999999D02*
X152386544Y-98152380D01*
X152386544Y-98152380D02*
X152424640Y-98228571D01*
X152424640Y-98228571D02*
X152500830Y-98266666D01*
X152500830Y-98266666D02*
X152577021Y-98266666D01*
X152577021Y-98266666D02*
X152653211Y-97885713D01*
X152881783Y-98571427D02*
X152919878Y-98647618D01*
X152919878Y-98647618D02*
X152919878Y-98799999D01*
X152919878Y-98799999D02*
X152881783Y-98876189D01*
X152881783Y-98876189D02*
X152805592Y-98914285D01*
X152805592Y-98914285D02*
X152767497Y-98914285D01*
X152767497Y-98914285D02*
X152691306Y-98876189D01*
X152691306Y-98876189D02*
X152653211Y-98799999D01*
X152653211Y-98799999D02*
X152653211Y-98685713D01*
X152653211Y-98685713D02*
X152615116Y-98609523D01*
X152615116Y-98609523D02*
X152538925Y-98571427D01*
X152538925Y-98571427D02*
X152500830Y-98571427D01*
X152500830Y-98571427D02*
X152424640Y-98609523D01*
X152424640Y-98609523D02*
X152386544Y-98685713D01*
X152386544Y-98685713D02*
X152386544Y-98799999D01*
X152386544Y-98799999D02*
X152424640Y-98876189D01*
X152919878Y-99257142D02*
X152386544Y-99257142D01*
X152119878Y-99257142D02*
X152157973Y-99219046D01*
X152157973Y-99219046D02*
X152196068Y-99257142D01*
X152196068Y-99257142D02*
X152157973Y-99295237D01*
X152157973Y-99295237D02*
X152119878Y-99257142D01*
X152119878Y-99257142D02*
X152196068Y-99257142D01*
X152386544Y-99980951D02*
X153034163Y-99980951D01*
X153034163Y-99980951D02*
X153110354Y-99942856D01*
X153110354Y-99942856D02*
X153148449Y-99904760D01*
X153148449Y-99904760D02*
X153186544Y-99828570D01*
X153186544Y-99828570D02*
X153186544Y-99714284D01*
X153186544Y-99714284D02*
X153148449Y-99638094D01*
X152881783Y-99980951D02*
X152919878Y-99904760D01*
X152919878Y-99904760D02*
X152919878Y-99752379D01*
X152919878Y-99752379D02*
X152881783Y-99676189D01*
X152881783Y-99676189D02*
X152843687Y-99638094D01*
X152843687Y-99638094D02*
X152767497Y-99599998D01*
X152767497Y-99599998D02*
X152538925Y-99599998D01*
X152538925Y-99599998D02*
X152462735Y-99638094D01*
X152462735Y-99638094D02*
X152424640Y-99676189D01*
X152424640Y-99676189D02*
X152386544Y-99752379D01*
X152386544Y-99752379D02*
X152386544Y-99904760D01*
X152386544Y-99904760D02*
X152424640Y-99980951D01*
X152386544Y-100361904D02*
X152919878Y-100361904D01*
X152462735Y-100361904D02*
X152424640Y-100399999D01*
X152424640Y-100399999D02*
X152386544Y-100476189D01*
X152386544Y-100476189D02*
X152386544Y-100590475D01*
X152386544Y-100590475D02*
X152424640Y-100666666D01*
X152424640Y-100666666D02*
X152500830Y-100704761D01*
X152500830Y-100704761D02*
X152919878Y-100704761D01*
X152881783Y-101390476D02*
X152919878Y-101314285D01*
X152919878Y-101314285D02*
X152919878Y-101161904D01*
X152919878Y-101161904D02*
X152881783Y-101085714D01*
X152881783Y-101085714D02*
X152805592Y-101047618D01*
X152805592Y-101047618D02*
X152500830Y-101047618D01*
X152500830Y-101047618D02*
X152424640Y-101085714D01*
X152424640Y-101085714D02*
X152386544Y-101161904D01*
X152386544Y-101161904D02*
X152386544Y-101314285D01*
X152386544Y-101314285D02*
X152424640Y-101390476D01*
X152424640Y-101390476D02*
X152500830Y-101428571D01*
X152500830Y-101428571D02*
X152577021Y-101428571D01*
X152577021Y-101428571D02*
X152653211Y-101047618D01*
X152919878Y-102114285D02*
X152119878Y-102114285D01*
X152881783Y-102114285D02*
X152919878Y-102038094D01*
X152919878Y-102038094D02*
X152919878Y-101885713D01*
X152919878Y-101885713D02*
X152881783Y-101809523D01*
X152881783Y-101809523D02*
X152843687Y-101771428D01*
X152843687Y-101771428D02*
X152767497Y-101733332D01*
X152767497Y-101733332D02*
X152538925Y-101733332D01*
X152538925Y-101733332D02*
X152462735Y-101771428D01*
X152462735Y-101771428D02*
X152424640Y-101809523D01*
X152424640Y-101809523D02*
X152386544Y-101885713D01*
X152386544Y-101885713D02*
X152386544Y-102038094D01*
X152386544Y-102038094D02*
X152424640Y-102114285D01*
X152386544Y-102990476D02*
X152386544Y-103295238D01*
X152919878Y-103104762D02*
X152234163Y-103104762D01*
X152234163Y-103104762D02*
X152157973Y-103142857D01*
X152157973Y-103142857D02*
X152119878Y-103219047D01*
X152119878Y-103219047D02*
X152119878Y-103295238D01*
X152919878Y-103676190D02*
X152881783Y-103600000D01*
X152881783Y-103600000D02*
X152843687Y-103561905D01*
X152843687Y-103561905D02*
X152767497Y-103523809D01*
X152767497Y-103523809D02*
X152538925Y-103523809D01*
X152538925Y-103523809D02*
X152462735Y-103561905D01*
X152462735Y-103561905D02*
X152424640Y-103600000D01*
X152424640Y-103600000D02*
X152386544Y-103676190D01*
X152386544Y-103676190D02*
X152386544Y-103790476D01*
X152386544Y-103790476D02*
X152424640Y-103866667D01*
X152424640Y-103866667D02*
X152462735Y-103904762D01*
X152462735Y-103904762D02*
X152538925Y-103942857D01*
X152538925Y-103942857D02*
X152767497Y-103942857D01*
X152767497Y-103942857D02*
X152843687Y-103904762D01*
X152843687Y-103904762D02*
X152881783Y-103866667D01*
X152881783Y-103866667D02*
X152919878Y-103790476D01*
X152919878Y-103790476D02*
X152919878Y-103676190D01*
X152919878Y-104285715D02*
X152386544Y-104285715D01*
X152538925Y-104285715D02*
X152462735Y-104323810D01*
X152462735Y-104323810D02*
X152424640Y-104361905D01*
X152424640Y-104361905D02*
X152386544Y-104438096D01*
X152386544Y-104438096D02*
X152386544Y-104514286D01*
X154131642Y-97523808D02*
X154169738Y-97485712D01*
X154169738Y-97485712D02*
X154207833Y-97371427D01*
X154207833Y-97371427D02*
X154207833Y-97295236D01*
X154207833Y-97295236D02*
X154169738Y-97180950D01*
X154169738Y-97180950D02*
X154093547Y-97104760D01*
X154093547Y-97104760D02*
X154017357Y-97066665D01*
X154017357Y-97066665D02*
X153864976Y-97028569D01*
X153864976Y-97028569D02*
X153750690Y-97028569D01*
X153750690Y-97028569D02*
X153598309Y-97066665D01*
X153598309Y-97066665D02*
X153522118Y-97104760D01*
X153522118Y-97104760D02*
X153445928Y-97180950D01*
X153445928Y-97180950D02*
X153407833Y-97295236D01*
X153407833Y-97295236D02*
X153407833Y-97371427D01*
X153407833Y-97371427D02*
X153445928Y-97485712D01*
X153445928Y-97485712D02*
X153484023Y-97523808D01*
X154207833Y-98209522D02*
X153788785Y-98209522D01*
X153788785Y-98209522D02*
X153712595Y-98171427D01*
X153712595Y-98171427D02*
X153674499Y-98095236D01*
X153674499Y-98095236D02*
X153674499Y-97942855D01*
X153674499Y-97942855D02*
X153712595Y-97866665D01*
X154169738Y-98209522D02*
X154207833Y-98133331D01*
X154207833Y-98133331D02*
X154207833Y-97942855D01*
X154207833Y-97942855D02*
X154169738Y-97866665D01*
X154169738Y-97866665D02*
X154093547Y-97828569D01*
X154093547Y-97828569D02*
X154017357Y-97828569D01*
X154017357Y-97828569D02*
X153941166Y-97866665D01*
X153941166Y-97866665D02*
X153903071Y-97942855D01*
X153903071Y-97942855D02*
X153903071Y-98133331D01*
X153903071Y-98133331D02*
X153864976Y-98209522D01*
X153674499Y-98590475D02*
X154207833Y-98590475D01*
X153750690Y-98590475D02*
X153712595Y-98628570D01*
X153712595Y-98628570D02*
X153674499Y-98704760D01*
X153674499Y-98704760D02*
X153674499Y-98819046D01*
X153674499Y-98819046D02*
X153712595Y-98895237D01*
X153712595Y-98895237D02*
X153788785Y-98933332D01*
X153788785Y-98933332D02*
X154207833Y-98933332D01*
X154169738Y-99276189D02*
X154207833Y-99390475D01*
X154207833Y-99390475D02*
X154207833Y-99580951D01*
X154207833Y-99580951D02*
X154169738Y-99657142D01*
X154169738Y-99657142D02*
X154131642Y-99695237D01*
X154131642Y-99695237D02*
X154055452Y-99733332D01*
X154055452Y-99733332D02*
X153979261Y-99733332D01*
X153979261Y-99733332D02*
X153903071Y-99695237D01*
X153903071Y-99695237D02*
X153864976Y-99657142D01*
X153864976Y-99657142D02*
X153826880Y-99580951D01*
X153826880Y-99580951D02*
X153788785Y-99428570D01*
X153788785Y-99428570D02*
X153750690Y-99352380D01*
X153750690Y-99352380D02*
X153712595Y-99314285D01*
X153712595Y-99314285D02*
X153636404Y-99276189D01*
X153636404Y-99276189D02*
X153560214Y-99276189D01*
X153560214Y-99276189D02*
X153484023Y-99314285D01*
X153484023Y-99314285D02*
X153445928Y-99352380D01*
X153445928Y-99352380D02*
X153407833Y-99428570D01*
X153407833Y-99428570D02*
X153407833Y-99619047D01*
X153407833Y-99619047D02*
X153445928Y-99733332D01*
X154207833Y-100419047D02*
X153788785Y-100419047D01*
X153788785Y-100419047D02*
X153712595Y-100380952D01*
X153712595Y-100380952D02*
X153674499Y-100304761D01*
X153674499Y-100304761D02*
X153674499Y-100152380D01*
X153674499Y-100152380D02*
X153712595Y-100076190D01*
X154169738Y-100419047D02*
X154207833Y-100342856D01*
X154207833Y-100342856D02*
X154207833Y-100152380D01*
X154207833Y-100152380D02*
X154169738Y-100076190D01*
X154169738Y-100076190D02*
X154093547Y-100038094D01*
X154093547Y-100038094D02*
X154017357Y-100038094D01*
X154017357Y-100038094D02*
X153941166Y-100076190D01*
X153941166Y-100076190D02*
X153903071Y-100152380D01*
X153903071Y-100152380D02*
X153903071Y-100342856D01*
X153903071Y-100342856D02*
X153864976Y-100419047D01*
X153674499Y-100685714D02*
X153674499Y-100990476D01*
X153407833Y-100800000D02*
X154093547Y-100800000D01*
X154093547Y-100800000D02*
X154169738Y-100838095D01*
X154169738Y-100838095D02*
X154207833Y-100914285D01*
X154207833Y-100914285D02*
X154207833Y-100990476D01*
X153484023Y-101828571D02*
X153445928Y-101866667D01*
X153445928Y-101866667D02*
X153407833Y-101942857D01*
X153407833Y-101942857D02*
X153407833Y-102133333D01*
X153407833Y-102133333D02*
X153445928Y-102209524D01*
X153445928Y-102209524D02*
X153484023Y-102247619D01*
X153484023Y-102247619D02*
X153560214Y-102285714D01*
X153560214Y-102285714D02*
X153636404Y-102285714D01*
X153636404Y-102285714D02*
X153750690Y-102247619D01*
X153750690Y-102247619D02*
X154207833Y-101790476D01*
X154207833Y-101790476D02*
X154207833Y-102285714D01*
X153407833Y-102780953D02*
X153407833Y-102857143D01*
X153407833Y-102857143D02*
X153445928Y-102933334D01*
X153445928Y-102933334D02*
X153484023Y-102971429D01*
X153484023Y-102971429D02*
X153560214Y-103009524D01*
X153560214Y-103009524D02*
X153712595Y-103047619D01*
X153712595Y-103047619D02*
X153903071Y-103047619D01*
X153903071Y-103047619D02*
X154055452Y-103009524D01*
X154055452Y-103009524D02*
X154131642Y-102971429D01*
X154131642Y-102971429D02*
X154169738Y-102933334D01*
X154169738Y-102933334D02*
X154207833Y-102857143D01*
X154207833Y-102857143D02*
X154207833Y-102780953D01*
X154207833Y-102780953D02*
X154169738Y-102704762D01*
X154169738Y-102704762D02*
X154131642Y-102666667D01*
X154131642Y-102666667D02*
X154055452Y-102628572D01*
X154055452Y-102628572D02*
X153903071Y-102590476D01*
X153903071Y-102590476D02*
X153712595Y-102590476D01*
X153712595Y-102590476D02*
X153560214Y-102628572D01*
X153560214Y-102628572D02*
X153484023Y-102666667D01*
X153484023Y-102666667D02*
X153445928Y-102704762D01*
X153445928Y-102704762D02*
X153407833Y-102780953D01*
X153484023Y-103352381D02*
X153445928Y-103390477D01*
X153445928Y-103390477D02*
X153407833Y-103466667D01*
X153407833Y-103466667D02*
X153407833Y-103657143D01*
X153407833Y-103657143D02*
X153445928Y-103733334D01*
X153445928Y-103733334D02*
X153484023Y-103771429D01*
X153484023Y-103771429D02*
X153560214Y-103809524D01*
X153560214Y-103809524D02*
X153636404Y-103809524D01*
X153636404Y-103809524D02*
X153750690Y-103771429D01*
X153750690Y-103771429D02*
X154207833Y-103314286D01*
X154207833Y-103314286D02*
X154207833Y-103809524D01*
X153407833Y-104495239D02*
X153407833Y-104342858D01*
X153407833Y-104342858D02*
X153445928Y-104266667D01*
X153445928Y-104266667D02*
X153484023Y-104228572D01*
X153484023Y-104228572D02*
X153598309Y-104152382D01*
X153598309Y-104152382D02*
X153750690Y-104114286D01*
X153750690Y-104114286D02*
X154055452Y-104114286D01*
X154055452Y-104114286D02*
X154131642Y-104152382D01*
X154131642Y-104152382D02*
X154169738Y-104190477D01*
X154169738Y-104190477D02*
X154207833Y-104266667D01*
X154207833Y-104266667D02*
X154207833Y-104419048D01*
X154207833Y-104419048D02*
X154169738Y-104495239D01*
X154169738Y-104495239D02*
X154131642Y-104533334D01*
X154131642Y-104533334D02*
X154055452Y-104571429D01*
X154055452Y-104571429D02*
X153864976Y-104571429D01*
X153864976Y-104571429D02*
X153788785Y-104533334D01*
X153788785Y-104533334D02*
X153750690Y-104495239D01*
X153750690Y-104495239D02*
X153712595Y-104419048D01*
X153712595Y-104419048D02*
X153712595Y-104266667D01*
X153712595Y-104266667D02*
X153750690Y-104190477D01*
X153750690Y-104190477D02*
X153788785Y-104152382D01*
X153788785Y-104152382D02*
X153864976Y-104114286D01*
D11*
X159724762Y-116309678D02*
X159724762Y-115876345D01*
X159724762Y-116000154D02*
X159693809Y-115938249D01*
X159693809Y-115938249D02*
X159662857Y-115907297D01*
X159662857Y-115907297D02*
X159600952Y-115876345D01*
X159600952Y-115876345D02*
X159539047Y-115876345D01*
X159074762Y-116278726D02*
X159136666Y-116309678D01*
X159136666Y-116309678D02*
X159260476Y-116309678D01*
X159260476Y-116309678D02*
X159322381Y-116278726D01*
X159322381Y-116278726D02*
X159353333Y-116216821D01*
X159353333Y-116216821D02*
X159353333Y-115969202D01*
X159353333Y-115969202D02*
X159322381Y-115907297D01*
X159322381Y-115907297D02*
X159260476Y-115876345D01*
X159260476Y-115876345D02*
X159136666Y-115876345D01*
X159136666Y-115876345D02*
X159074762Y-115907297D01*
X159074762Y-115907297D02*
X159043809Y-115969202D01*
X159043809Y-115969202D02*
X159043809Y-116031106D01*
X159043809Y-116031106D02*
X159353333Y-116093011D01*
X158827142Y-115876345D02*
X158672380Y-116309678D01*
X158672380Y-116309678D02*
X158517619Y-115876345D01*
X158270000Y-116309678D02*
X158270000Y-115876345D01*
X158270000Y-115659678D02*
X158300952Y-115690630D01*
X158300952Y-115690630D02*
X158270000Y-115721583D01*
X158270000Y-115721583D02*
X158239047Y-115690630D01*
X158239047Y-115690630D02*
X158270000Y-115659678D01*
X158270000Y-115659678D02*
X158270000Y-115721583D01*
X157991428Y-116278726D02*
X157929523Y-116309678D01*
X157929523Y-116309678D02*
X157805714Y-116309678D01*
X157805714Y-116309678D02*
X157743809Y-116278726D01*
X157743809Y-116278726D02*
X157712857Y-116216821D01*
X157712857Y-116216821D02*
X157712857Y-116185868D01*
X157712857Y-116185868D02*
X157743809Y-116123964D01*
X157743809Y-116123964D02*
X157805714Y-116093011D01*
X157805714Y-116093011D02*
X157898571Y-116093011D01*
X157898571Y-116093011D02*
X157960476Y-116062059D01*
X157960476Y-116062059D02*
X157991428Y-116000154D01*
X157991428Y-116000154D02*
X157991428Y-115969202D01*
X157991428Y-115969202D02*
X157960476Y-115907297D01*
X157960476Y-115907297D02*
X157898571Y-115876345D01*
X157898571Y-115876345D02*
X157805714Y-115876345D01*
X157805714Y-115876345D02*
X157743809Y-115907297D01*
X157434286Y-116309678D02*
X157434286Y-115876345D01*
X157434286Y-115659678D02*
X157465238Y-115690630D01*
X157465238Y-115690630D02*
X157434286Y-115721583D01*
X157434286Y-115721583D02*
X157403333Y-115690630D01*
X157403333Y-115690630D02*
X157434286Y-115659678D01*
X157434286Y-115659678D02*
X157434286Y-115721583D01*
X157031904Y-116309678D02*
X157093809Y-116278726D01*
X157093809Y-116278726D02*
X157124762Y-116247773D01*
X157124762Y-116247773D02*
X157155714Y-116185868D01*
X157155714Y-116185868D02*
X157155714Y-116000154D01*
X157155714Y-116000154D02*
X157124762Y-115938249D01*
X157124762Y-115938249D02*
X157093809Y-115907297D01*
X157093809Y-115907297D02*
X157031904Y-115876345D01*
X157031904Y-115876345D02*
X156939047Y-115876345D01*
X156939047Y-115876345D02*
X156877143Y-115907297D01*
X156877143Y-115907297D02*
X156846190Y-115938249D01*
X156846190Y-115938249D02*
X156815238Y-116000154D01*
X156815238Y-116000154D02*
X156815238Y-116185868D01*
X156815238Y-116185868D02*
X156846190Y-116247773D01*
X156846190Y-116247773D02*
X156877143Y-116278726D01*
X156877143Y-116278726D02*
X156939047Y-116309678D01*
X156939047Y-116309678D02*
X157031904Y-116309678D01*
X156536667Y-115876345D02*
X156536667Y-116309678D01*
X156536667Y-115938249D02*
X156505714Y-115907297D01*
X156505714Y-115907297D02*
X156443809Y-115876345D01*
X156443809Y-115876345D02*
X156350952Y-115876345D01*
X156350952Y-115876345D02*
X156289048Y-115907297D01*
X156289048Y-115907297D02*
X156258095Y-115969202D01*
X156258095Y-115969202D02*
X156258095Y-116309678D01*
X155112857Y-116309678D02*
X155484286Y-116309678D01*
X155298572Y-116309678D02*
X155298572Y-115659678D01*
X155298572Y-115659678D02*
X155360476Y-115752535D01*
X155360476Y-115752535D02*
X155422381Y-115814440D01*
X155422381Y-115814440D02*
X155484286Y-115845392D01*
X154834286Y-116247773D02*
X154803333Y-116278726D01*
X154803333Y-116278726D02*
X154834286Y-116309678D01*
X154834286Y-116309678D02*
X154865238Y-116278726D01*
X154865238Y-116278726D02*
X154834286Y-116247773D01*
X154834286Y-116247773D02*
X154834286Y-116309678D01*
X154246190Y-115876345D02*
X154246190Y-116309678D01*
X154400952Y-115628726D02*
X154555714Y-116093011D01*
X154555714Y-116093011D02*
X154153333Y-116093011D01*
X160746190Y-117356142D02*
X160746190Y-116706142D01*
X160746190Y-116706142D02*
X160498571Y-116706142D01*
X160498571Y-116706142D02*
X160436666Y-116737094D01*
X160436666Y-116737094D02*
X160405713Y-116768047D01*
X160405713Y-116768047D02*
X160374761Y-116829951D01*
X160374761Y-116829951D02*
X160374761Y-116922809D01*
X160374761Y-116922809D02*
X160405713Y-116984713D01*
X160405713Y-116984713D02*
X160436666Y-117015666D01*
X160436666Y-117015666D02*
X160498571Y-117046618D01*
X160498571Y-117046618D02*
X160746190Y-117046618D01*
X160096190Y-117356142D02*
X160096190Y-116922809D01*
X160096190Y-117046618D02*
X160065237Y-116984713D01*
X160065237Y-116984713D02*
X160034285Y-116953761D01*
X160034285Y-116953761D02*
X159972380Y-116922809D01*
X159972380Y-116922809D02*
X159910475Y-116922809D01*
X159600951Y-117356142D02*
X159662856Y-117325190D01*
X159662856Y-117325190D02*
X159693809Y-117294237D01*
X159693809Y-117294237D02*
X159724761Y-117232332D01*
X159724761Y-117232332D02*
X159724761Y-117046618D01*
X159724761Y-117046618D02*
X159693809Y-116984713D01*
X159693809Y-116984713D02*
X159662856Y-116953761D01*
X159662856Y-116953761D02*
X159600951Y-116922809D01*
X159600951Y-116922809D02*
X159508094Y-116922809D01*
X159508094Y-116922809D02*
X159446190Y-116953761D01*
X159446190Y-116953761D02*
X159415237Y-116984713D01*
X159415237Y-116984713D02*
X159384285Y-117046618D01*
X159384285Y-117046618D02*
X159384285Y-117232332D01*
X159384285Y-117232332D02*
X159415237Y-117294237D01*
X159415237Y-117294237D02*
X159446190Y-117325190D01*
X159446190Y-117325190D02*
X159508094Y-117356142D01*
X159508094Y-117356142D02*
X159600951Y-117356142D01*
X159105714Y-116922809D02*
X159105714Y-117479951D01*
X159105714Y-117479951D02*
X159136666Y-117541856D01*
X159136666Y-117541856D02*
X159198571Y-117572809D01*
X159198571Y-117572809D02*
X159229523Y-117572809D01*
X159105714Y-116706142D02*
X159136666Y-116737094D01*
X159136666Y-116737094D02*
X159105714Y-116768047D01*
X159105714Y-116768047D02*
X159074761Y-116737094D01*
X159074761Y-116737094D02*
X159105714Y-116706142D01*
X159105714Y-116706142D02*
X159105714Y-116768047D01*
X158548571Y-117325190D02*
X158610475Y-117356142D01*
X158610475Y-117356142D02*
X158734285Y-117356142D01*
X158734285Y-117356142D02*
X158796190Y-117325190D01*
X158796190Y-117325190D02*
X158827142Y-117263285D01*
X158827142Y-117263285D02*
X158827142Y-117015666D01*
X158827142Y-117015666D02*
X158796190Y-116953761D01*
X158796190Y-116953761D02*
X158734285Y-116922809D01*
X158734285Y-116922809D02*
X158610475Y-116922809D01*
X158610475Y-116922809D02*
X158548571Y-116953761D01*
X158548571Y-116953761D02*
X158517618Y-117015666D01*
X158517618Y-117015666D02*
X158517618Y-117077570D01*
X158517618Y-117077570D02*
X158827142Y-117139475D01*
X157960475Y-117325190D02*
X158022380Y-117356142D01*
X158022380Y-117356142D02*
X158146189Y-117356142D01*
X158146189Y-117356142D02*
X158208094Y-117325190D01*
X158208094Y-117325190D02*
X158239047Y-117294237D01*
X158239047Y-117294237D02*
X158269999Y-117232332D01*
X158269999Y-117232332D02*
X158269999Y-117046618D01*
X158269999Y-117046618D02*
X158239047Y-116984713D01*
X158239047Y-116984713D02*
X158208094Y-116953761D01*
X158208094Y-116953761D02*
X158146189Y-116922809D01*
X158146189Y-116922809D02*
X158022380Y-116922809D01*
X158022380Y-116922809D02*
X157960475Y-116953761D01*
X157774761Y-116922809D02*
X157527142Y-116922809D01*
X157681904Y-116706142D02*
X157681904Y-117263285D01*
X157681904Y-117263285D02*
X157650951Y-117325190D01*
X157650951Y-117325190D02*
X157589046Y-117356142D01*
X157589046Y-117356142D02*
X157527142Y-117356142D01*
X156815237Y-117356142D02*
X156815237Y-116706142D01*
X156815237Y-116706142D02*
X156443808Y-117356142D01*
X156443808Y-117356142D02*
X156443808Y-116706142D01*
X155886666Y-117325190D02*
X155948570Y-117356142D01*
X155948570Y-117356142D02*
X156072380Y-117356142D01*
X156072380Y-117356142D02*
X156134285Y-117325190D01*
X156134285Y-117325190D02*
X156165237Y-117263285D01*
X156165237Y-117263285D02*
X156165237Y-117015666D01*
X156165237Y-117015666D02*
X156134285Y-116953761D01*
X156134285Y-116953761D02*
X156072380Y-116922809D01*
X156072380Y-116922809D02*
X155948570Y-116922809D01*
X155948570Y-116922809D02*
X155886666Y-116953761D01*
X155886666Y-116953761D02*
X155855713Y-117015666D01*
X155855713Y-117015666D02*
X155855713Y-117077570D01*
X155855713Y-117077570D02*
X156165237Y-117139475D01*
X155577142Y-116922809D02*
X155577142Y-117572809D01*
X155577142Y-116953761D02*
X155515237Y-116922809D01*
X155515237Y-116922809D02*
X155391427Y-116922809D01*
X155391427Y-116922809D02*
X155329523Y-116953761D01*
X155329523Y-116953761D02*
X155298570Y-116984713D01*
X155298570Y-116984713D02*
X155267618Y-117046618D01*
X155267618Y-117046618D02*
X155267618Y-117232332D01*
X155267618Y-117232332D02*
X155298570Y-117294237D01*
X155298570Y-117294237D02*
X155329523Y-117325190D01*
X155329523Y-117325190D02*
X155391427Y-117356142D01*
X155391427Y-117356142D02*
X155515237Y-117356142D01*
X155515237Y-117356142D02*
X155577142Y-117325190D01*
X155081904Y-116922809D02*
X154834285Y-116922809D01*
X154989047Y-116706142D02*
X154989047Y-117263285D01*
X154989047Y-117263285D02*
X154958094Y-117325190D01*
X154958094Y-117325190D02*
X154896189Y-117356142D01*
X154896189Y-117356142D02*
X154834285Y-117356142D01*
X154339046Y-116922809D02*
X154339046Y-117356142D01*
X154617618Y-116922809D02*
X154617618Y-117263285D01*
X154617618Y-117263285D02*
X154586665Y-117325190D01*
X154586665Y-117325190D02*
X154524760Y-117356142D01*
X154524760Y-117356142D02*
X154431903Y-117356142D01*
X154431903Y-117356142D02*
X154369999Y-117325190D01*
X154369999Y-117325190D02*
X154339046Y-117294237D01*
X154029523Y-116922809D02*
X154029523Y-117356142D01*
X154029523Y-116984713D02*
X153998570Y-116953761D01*
X153998570Y-116953761D02*
X153936665Y-116922809D01*
X153936665Y-116922809D02*
X153843808Y-116922809D01*
X153843808Y-116922809D02*
X153781904Y-116953761D01*
X153781904Y-116953761D02*
X153750951Y-117015666D01*
X153750951Y-117015666D02*
X153750951Y-117356142D01*
X153193809Y-117325190D02*
X153255713Y-117356142D01*
X153255713Y-117356142D02*
X153379523Y-117356142D01*
X153379523Y-117356142D02*
X153441428Y-117325190D01*
X153441428Y-117325190D02*
X153472380Y-117263285D01*
X153472380Y-117263285D02*
X153472380Y-117015666D01*
X153472380Y-117015666D02*
X153441428Y-116953761D01*
X153441428Y-116953761D02*
X153379523Y-116922809D01*
X153379523Y-116922809D02*
X153255713Y-116922809D01*
X153255713Y-116922809D02*
X153193809Y-116953761D01*
X153193809Y-116953761D02*
X153162856Y-117015666D01*
X153162856Y-117015666D02*
X153162856Y-117077570D01*
X153162856Y-117077570D02*
X153472380Y-117139475D01*
X155670396Y-98153571D02*
X155670396Y-98463095D01*
X155856110Y-98091666D02*
X155206110Y-98308333D01*
X155206110Y-98308333D02*
X155856110Y-98525000D01*
X155794205Y-98741666D02*
X155825158Y-98772619D01*
X155825158Y-98772619D02*
X155856110Y-98741666D01*
X155856110Y-98741666D02*
X155825158Y-98710714D01*
X155825158Y-98710714D02*
X155794205Y-98741666D01*
X155794205Y-98741666D02*
X155856110Y-98741666D01*
X155515634Y-99763095D02*
X155546586Y-99855952D01*
X155546586Y-99855952D02*
X155577538Y-99886905D01*
X155577538Y-99886905D02*
X155639443Y-99917857D01*
X155639443Y-99917857D02*
X155732300Y-99917857D01*
X155732300Y-99917857D02*
X155794205Y-99886905D01*
X155794205Y-99886905D02*
X155825158Y-99855952D01*
X155825158Y-99855952D02*
X155856110Y-99794047D01*
X155856110Y-99794047D02*
X155856110Y-99546428D01*
X155856110Y-99546428D02*
X155206110Y-99546428D01*
X155206110Y-99546428D02*
X155206110Y-99763095D01*
X155206110Y-99763095D02*
X155237062Y-99825000D01*
X155237062Y-99825000D02*
X155268015Y-99855952D01*
X155268015Y-99855952D02*
X155329919Y-99886905D01*
X155329919Y-99886905D02*
X155391824Y-99886905D01*
X155391824Y-99886905D02*
X155453729Y-99855952D01*
X155453729Y-99855952D02*
X155484681Y-99825000D01*
X155484681Y-99825000D02*
X155515634Y-99763095D01*
X155515634Y-99763095D02*
X155515634Y-99546428D01*
X155608491Y-100196428D02*
X155608491Y-100691667D01*
X155825158Y-100970238D02*
X155856110Y-101063095D01*
X155856110Y-101063095D02*
X155856110Y-101217857D01*
X155856110Y-101217857D02*
X155825158Y-101279762D01*
X155825158Y-101279762D02*
X155794205Y-101310714D01*
X155794205Y-101310714D02*
X155732300Y-101341667D01*
X155732300Y-101341667D02*
X155670396Y-101341667D01*
X155670396Y-101341667D02*
X155608491Y-101310714D01*
X155608491Y-101310714D02*
X155577538Y-101279762D01*
X155577538Y-101279762D02*
X155546586Y-101217857D01*
X155546586Y-101217857D02*
X155515634Y-101094048D01*
X155515634Y-101094048D02*
X155484681Y-101032143D01*
X155484681Y-101032143D02*
X155453729Y-101001190D01*
X155453729Y-101001190D02*
X155391824Y-100970238D01*
X155391824Y-100970238D02*
X155329919Y-100970238D01*
X155329919Y-100970238D02*
X155268015Y-101001190D01*
X155268015Y-101001190D02*
X155237062Y-101032143D01*
X155237062Y-101032143D02*
X155206110Y-101094048D01*
X155206110Y-101094048D02*
X155206110Y-101248809D01*
X155206110Y-101248809D02*
X155237062Y-101341667D01*
X155856110Y-101713096D02*
X155825158Y-101651191D01*
X155825158Y-101651191D02*
X155794205Y-101620238D01*
X155794205Y-101620238D02*
X155732300Y-101589286D01*
X155732300Y-101589286D02*
X155546586Y-101589286D01*
X155546586Y-101589286D02*
X155484681Y-101620238D01*
X155484681Y-101620238D02*
X155453729Y-101651191D01*
X155453729Y-101651191D02*
X155422777Y-101713096D01*
X155422777Y-101713096D02*
X155422777Y-101805953D01*
X155422777Y-101805953D02*
X155453729Y-101867857D01*
X155453729Y-101867857D02*
X155484681Y-101898810D01*
X155484681Y-101898810D02*
X155546586Y-101929762D01*
X155546586Y-101929762D02*
X155732300Y-101929762D01*
X155732300Y-101929762D02*
X155794205Y-101898810D01*
X155794205Y-101898810D02*
X155825158Y-101867857D01*
X155825158Y-101867857D02*
X155856110Y-101805953D01*
X155856110Y-101805953D02*
X155856110Y-101713096D01*
X155206110Y-101651191D02*
X155237062Y-101682143D01*
X155237062Y-101682143D02*
X155268015Y-101651191D01*
X155268015Y-101651191D02*
X155237062Y-101620238D01*
X155237062Y-101620238D02*
X155206110Y-101651191D01*
X155206110Y-101651191D02*
X155268015Y-101651191D01*
X155206110Y-101898810D02*
X155237062Y-101929762D01*
X155237062Y-101929762D02*
X155268015Y-101898810D01*
X155268015Y-101898810D02*
X155237062Y-101867857D01*
X155237062Y-101867857D02*
X155206110Y-101898810D01*
X155206110Y-101898810D02*
X155268015Y-101898810D01*
X155856110Y-102208333D02*
X155422777Y-102208333D01*
X155546586Y-102208333D02*
X155484681Y-102239286D01*
X155484681Y-102239286D02*
X155453729Y-102270238D01*
X155453729Y-102270238D02*
X155422777Y-102332143D01*
X155422777Y-102332143D02*
X155422777Y-102394048D01*
X155856110Y-102703572D02*
X155825158Y-102641667D01*
X155825158Y-102641667D02*
X155794205Y-102610714D01*
X155794205Y-102610714D02*
X155732300Y-102579762D01*
X155732300Y-102579762D02*
X155546586Y-102579762D01*
X155546586Y-102579762D02*
X155484681Y-102610714D01*
X155484681Y-102610714D02*
X155453729Y-102641667D01*
X155453729Y-102641667D02*
X155422777Y-102703572D01*
X155422777Y-102703572D02*
X155422777Y-102796429D01*
X155422777Y-102796429D02*
X155453729Y-102858333D01*
X155453729Y-102858333D02*
X155484681Y-102889286D01*
X155484681Y-102889286D02*
X155546586Y-102920238D01*
X155546586Y-102920238D02*
X155732300Y-102920238D01*
X155732300Y-102920238D02*
X155794205Y-102889286D01*
X155794205Y-102889286D02*
X155825158Y-102858333D01*
X155825158Y-102858333D02*
X155856110Y-102796429D01*
X155856110Y-102796429D02*
X155856110Y-102703572D01*
X155206110Y-102641667D02*
X155237062Y-102672619D01*
X155237062Y-102672619D02*
X155268015Y-102641667D01*
X155268015Y-102641667D02*
X155237062Y-102610714D01*
X155237062Y-102610714D02*
X155206110Y-102641667D01*
X155206110Y-102641667D02*
X155268015Y-102641667D01*
X155206110Y-102889286D02*
X155237062Y-102920238D01*
X155237062Y-102920238D02*
X155268015Y-102889286D01*
X155268015Y-102889286D02*
X155237062Y-102858333D01*
X155237062Y-102858333D02*
X155206110Y-102889286D01*
X155206110Y-102889286D02*
X155268015Y-102889286D01*
X155825158Y-103167857D02*
X155856110Y-103229762D01*
X155856110Y-103229762D02*
X155856110Y-103353571D01*
X155856110Y-103353571D02*
X155825158Y-103415476D01*
X155825158Y-103415476D02*
X155763253Y-103446428D01*
X155763253Y-103446428D02*
X155732300Y-103446428D01*
X155732300Y-103446428D02*
X155670396Y-103415476D01*
X155670396Y-103415476D02*
X155639443Y-103353571D01*
X155639443Y-103353571D02*
X155639443Y-103260714D01*
X155639443Y-103260714D02*
X155608491Y-103198809D01*
X155608491Y-103198809D02*
X155546586Y-103167857D01*
X155546586Y-103167857D02*
X155515634Y-103167857D01*
X155515634Y-103167857D02*
X155453729Y-103198809D01*
X155453729Y-103198809D02*
X155422777Y-103260714D01*
X155422777Y-103260714D02*
X155422777Y-103353571D01*
X155422777Y-103353571D02*
X155453729Y-103415476D01*
X156902574Y-97844047D02*
X156252574Y-97844047D01*
X156252574Y-97844047D02*
X156716860Y-98060714D01*
X156716860Y-98060714D02*
X156252574Y-98277381D01*
X156252574Y-98277381D02*
X156902574Y-98277381D01*
X156840669Y-98586904D02*
X156871622Y-98617857D01*
X156871622Y-98617857D02*
X156902574Y-98586904D01*
X156902574Y-98586904D02*
X156871622Y-98555952D01*
X156871622Y-98555952D02*
X156840669Y-98586904D01*
X156840669Y-98586904D02*
X156902574Y-98586904D01*
X156902574Y-99391666D02*
X156252574Y-99391666D01*
X156252574Y-99391666D02*
X156252574Y-99546428D01*
X156252574Y-99546428D02*
X156283526Y-99639285D01*
X156283526Y-99639285D02*
X156345431Y-99701190D01*
X156345431Y-99701190D02*
X156407336Y-99732143D01*
X156407336Y-99732143D02*
X156531145Y-99763095D01*
X156531145Y-99763095D02*
X156624002Y-99763095D01*
X156624002Y-99763095D02*
X156747812Y-99732143D01*
X156747812Y-99732143D02*
X156809717Y-99701190D01*
X156809717Y-99701190D02*
X156871622Y-99639285D01*
X156871622Y-99639285D02*
X156902574Y-99546428D01*
X156902574Y-99546428D02*
X156902574Y-99391666D01*
X156871622Y-100289285D02*
X156902574Y-100227381D01*
X156902574Y-100227381D02*
X156902574Y-100103571D01*
X156902574Y-100103571D02*
X156871622Y-100041666D01*
X156871622Y-100041666D02*
X156809717Y-100010714D01*
X156809717Y-100010714D02*
X156562098Y-100010714D01*
X156562098Y-100010714D02*
X156500193Y-100041666D01*
X156500193Y-100041666D02*
X156469241Y-100103571D01*
X156469241Y-100103571D02*
X156469241Y-100227381D01*
X156469241Y-100227381D02*
X156500193Y-100289285D01*
X156500193Y-100289285D02*
X156562098Y-100320238D01*
X156562098Y-100320238D02*
X156624002Y-100320238D01*
X156624002Y-100320238D02*
X156685907Y-100010714D01*
X156902574Y-100598809D02*
X156469241Y-100598809D01*
X156593050Y-100598809D02*
X156531145Y-100629762D01*
X156531145Y-100629762D02*
X156500193Y-100660714D01*
X156500193Y-100660714D02*
X156469241Y-100722619D01*
X156469241Y-100722619D02*
X156469241Y-100784524D01*
X156469241Y-101001190D02*
X156902574Y-101001190D01*
X156531145Y-101001190D02*
X156500193Y-101032143D01*
X156500193Y-101032143D02*
X156469241Y-101094048D01*
X156469241Y-101094048D02*
X156469241Y-101186905D01*
X156469241Y-101186905D02*
X156500193Y-101248809D01*
X156500193Y-101248809D02*
X156562098Y-101279762D01*
X156562098Y-101279762D02*
X156902574Y-101279762D01*
X156902574Y-101682143D02*
X156871622Y-101620238D01*
X156871622Y-101620238D02*
X156840669Y-101589285D01*
X156840669Y-101589285D02*
X156778764Y-101558333D01*
X156778764Y-101558333D02*
X156593050Y-101558333D01*
X156593050Y-101558333D02*
X156531145Y-101589285D01*
X156531145Y-101589285D02*
X156500193Y-101620238D01*
X156500193Y-101620238D02*
X156469241Y-101682143D01*
X156469241Y-101682143D02*
X156469241Y-101775000D01*
X156469241Y-101775000D02*
X156500193Y-101836904D01*
X156500193Y-101836904D02*
X156531145Y-101867857D01*
X156531145Y-101867857D02*
X156593050Y-101898809D01*
X156593050Y-101898809D02*
X156778764Y-101898809D01*
X156778764Y-101898809D02*
X156840669Y-101867857D01*
X156840669Y-101867857D02*
X156871622Y-101836904D01*
X156871622Y-101836904D02*
X156902574Y-101775000D01*
X156902574Y-101775000D02*
X156902574Y-101682143D01*
X156469241Y-102115476D02*
X156902574Y-102270238D01*
X156902574Y-102270238D02*
X156469241Y-102424999D01*
X156902574Y-102672618D02*
X156469241Y-102672618D01*
X156252574Y-102672618D02*
X156283526Y-102641666D01*
X156283526Y-102641666D02*
X156314479Y-102672618D01*
X156314479Y-102672618D02*
X156283526Y-102703571D01*
X156283526Y-102703571D02*
X156252574Y-102672618D01*
X156252574Y-102672618D02*
X156314479Y-102672618D01*
X156871622Y-103260714D02*
X156902574Y-103198809D01*
X156902574Y-103198809D02*
X156902574Y-103075000D01*
X156902574Y-103075000D02*
X156871622Y-103013095D01*
X156871622Y-103013095D02*
X156840669Y-102982142D01*
X156840669Y-102982142D02*
X156778764Y-102951190D01*
X156778764Y-102951190D02*
X156593050Y-102951190D01*
X156593050Y-102951190D02*
X156531145Y-102982142D01*
X156531145Y-102982142D02*
X156500193Y-103013095D01*
X156500193Y-103013095D02*
X156469241Y-103075000D01*
X156469241Y-103075000D02*
X156469241Y-103198809D01*
X156469241Y-103198809D02*
X156500193Y-103260714D01*
X156871622Y-103508333D02*
X156902574Y-103570238D01*
X156902574Y-103570238D02*
X156902574Y-103694047D01*
X156902574Y-103694047D02*
X156871622Y-103755952D01*
X156871622Y-103755952D02*
X156809717Y-103786904D01*
X156809717Y-103786904D02*
X156778764Y-103786904D01*
X156778764Y-103786904D02*
X156716860Y-103755952D01*
X156716860Y-103755952D02*
X156685907Y-103694047D01*
X156685907Y-103694047D02*
X156685907Y-103601190D01*
X156685907Y-103601190D02*
X156654955Y-103539285D01*
X156654955Y-103539285D02*
X156593050Y-103508333D01*
X156593050Y-103508333D02*
X156562098Y-103508333D01*
X156562098Y-103508333D02*
X156500193Y-103539285D01*
X156500193Y-103539285D02*
X156469241Y-103601190D01*
X156469241Y-103601190D02*
X156469241Y-103694047D01*
X156469241Y-103694047D02*
X156500193Y-103755952D01*
X157949038Y-98447619D02*
X157639514Y-98230952D01*
X157949038Y-98076190D02*
X157299038Y-98076190D01*
X157299038Y-98076190D02*
X157299038Y-98323809D01*
X157299038Y-98323809D02*
X157329990Y-98385714D01*
X157329990Y-98385714D02*
X157360943Y-98416667D01*
X157360943Y-98416667D02*
X157422847Y-98447619D01*
X157422847Y-98447619D02*
X157515705Y-98447619D01*
X157515705Y-98447619D02*
X157577609Y-98416667D01*
X157577609Y-98416667D02*
X157608562Y-98385714D01*
X157608562Y-98385714D02*
X157639514Y-98323809D01*
X157639514Y-98323809D02*
X157639514Y-98076190D01*
X157887133Y-98726190D02*
X157918086Y-98757143D01*
X157918086Y-98757143D02*
X157949038Y-98726190D01*
X157949038Y-98726190D02*
X157918086Y-98695238D01*
X157918086Y-98695238D02*
X157887133Y-98726190D01*
X157887133Y-98726190D02*
X157949038Y-98726190D01*
X157949038Y-99530952D02*
X157299038Y-99530952D01*
X157299038Y-99530952D02*
X157763324Y-99747619D01*
X157763324Y-99747619D02*
X157299038Y-99964286D01*
X157299038Y-99964286D02*
X157949038Y-99964286D01*
X157949038Y-100273809D02*
X157515705Y-100273809D01*
X157299038Y-100273809D02*
X157329990Y-100242857D01*
X157329990Y-100242857D02*
X157360943Y-100273809D01*
X157360943Y-100273809D02*
X157329990Y-100304762D01*
X157329990Y-100304762D02*
X157299038Y-100273809D01*
X157299038Y-100273809D02*
X157360943Y-100273809D01*
X157949038Y-100583333D02*
X157299038Y-100583333D01*
X157949038Y-100861905D02*
X157608562Y-100861905D01*
X157608562Y-100861905D02*
X157546657Y-100830952D01*
X157546657Y-100830952D02*
X157515705Y-100769048D01*
X157515705Y-100769048D02*
X157515705Y-100676191D01*
X157515705Y-100676191D02*
X157546657Y-100614286D01*
X157546657Y-100614286D02*
X157577609Y-100583333D01*
X157949038Y-101450000D02*
X157608562Y-101450000D01*
X157608562Y-101450000D02*
X157546657Y-101419047D01*
X157546657Y-101419047D02*
X157515705Y-101357143D01*
X157515705Y-101357143D02*
X157515705Y-101233333D01*
X157515705Y-101233333D02*
X157546657Y-101171428D01*
X157918086Y-101450000D02*
X157949038Y-101388095D01*
X157949038Y-101388095D02*
X157949038Y-101233333D01*
X157949038Y-101233333D02*
X157918086Y-101171428D01*
X157918086Y-101171428D02*
X157856181Y-101140476D01*
X157856181Y-101140476D02*
X157794276Y-101140476D01*
X157794276Y-101140476D02*
X157732371Y-101171428D01*
X157732371Y-101171428D02*
X157701419Y-101233333D01*
X157701419Y-101233333D02*
X157701419Y-101388095D01*
X157701419Y-101388095D02*
X157670466Y-101450000D01*
X157268086Y-101357143D02*
X157360943Y-101264286D01*
X157949038Y-101852381D02*
X157918086Y-101790476D01*
X157918086Y-101790476D02*
X157856181Y-101759523D01*
X157856181Y-101759523D02*
X157299038Y-101759523D01*
X157515705Y-102038095D02*
X157949038Y-102192857D01*
X157515705Y-102347618D02*
X157949038Y-102192857D01*
X157949038Y-102192857D02*
X158103800Y-102130952D01*
X158103800Y-102130952D02*
X158134752Y-102099999D01*
X158134752Y-102099999D02*
X158165705Y-102038095D01*
X157515705Y-102502380D02*
X157515705Y-102749999D01*
X157949038Y-102595237D02*
X157391895Y-102595237D01*
X157391895Y-102595237D02*
X157329990Y-102626190D01*
X157329990Y-102626190D02*
X157299038Y-102688095D01*
X157299038Y-102688095D02*
X157299038Y-102749999D01*
X157515705Y-102873809D02*
X157515705Y-103121428D01*
X157949038Y-102966666D02*
X157391895Y-102966666D01*
X157391895Y-102966666D02*
X157329990Y-102997619D01*
X157329990Y-102997619D02*
X157299038Y-103059524D01*
X157299038Y-103059524D02*
X157299038Y-103121428D01*
X157515705Y-103276191D02*
X157949038Y-103430953D01*
X157515705Y-103585714D02*
X157949038Y-103430953D01*
X157949038Y-103430953D02*
X158103800Y-103369048D01*
X158103800Y-103369048D02*
X158134752Y-103338095D01*
X158134752Y-103338095D02*
X158165705Y-103276191D01*
X158345502Y-98029762D02*
X158345502Y-98463095D01*
X158345502Y-98463095D02*
X158995502Y-98029762D01*
X158995502Y-98029762D02*
X158995502Y-98463095D01*
X158933597Y-98710714D02*
X158964550Y-98741667D01*
X158964550Y-98741667D02*
X158995502Y-98710714D01*
X158995502Y-98710714D02*
X158964550Y-98679762D01*
X158964550Y-98679762D02*
X158933597Y-98710714D01*
X158933597Y-98710714D02*
X158995502Y-98710714D01*
X158995502Y-99515476D02*
X158345502Y-99515476D01*
X158345502Y-99515476D02*
X158809788Y-99732143D01*
X158809788Y-99732143D02*
X158345502Y-99948810D01*
X158345502Y-99948810D02*
X158995502Y-99948810D01*
X158995502Y-100258333D02*
X158562169Y-100258333D01*
X158345502Y-100258333D02*
X158376454Y-100227381D01*
X158376454Y-100227381D02*
X158407407Y-100258333D01*
X158407407Y-100258333D02*
X158376454Y-100289286D01*
X158376454Y-100289286D02*
X158345502Y-100258333D01*
X158345502Y-100258333D02*
X158407407Y-100258333D01*
X158995502Y-100567857D02*
X158345502Y-100567857D01*
X158995502Y-100846429D02*
X158655026Y-100846429D01*
X158655026Y-100846429D02*
X158593121Y-100815476D01*
X158593121Y-100815476D02*
X158562169Y-100753572D01*
X158562169Y-100753572D02*
X158562169Y-100660715D01*
X158562169Y-100660715D02*
X158593121Y-100598810D01*
X158593121Y-100598810D02*
X158624073Y-100567857D01*
X158995502Y-101434524D02*
X158655026Y-101434524D01*
X158655026Y-101434524D02*
X158593121Y-101403571D01*
X158593121Y-101403571D02*
X158562169Y-101341667D01*
X158562169Y-101341667D02*
X158562169Y-101217857D01*
X158562169Y-101217857D02*
X158593121Y-101155952D01*
X158964550Y-101434524D02*
X158995502Y-101372619D01*
X158995502Y-101372619D02*
X158995502Y-101217857D01*
X158995502Y-101217857D02*
X158964550Y-101155952D01*
X158964550Y-101155952D02*
X158902645Y-101125000D01*
X158902645Y-101125000D02*
X158840740Y-101125000D01*
X158840740Y-101125000D02*
X158778835Y-101155952D01*
X158778835Y-101155952D02*
X158747883Y-101217857D01*
X158747883Y-101217857D02*
X158747883Y-101372619D01*
X158747883Y-101372619D02*
X158716930Y-101434524D01*
X158314550Y-101341667D02*
X158407407Y-101248810D01*
X158995502Y-101836905D02*
X158964550Y-101775000D01*
X158964550Y-101775000D02*
X158902645Y-101744047D01*
X158902645Y-101744047D02*
X158345502Y-101744047D01*
X158562169Y-102022619D02*
X158995502Y-102177381D01*
X158562169Y-102332142D02*
X158995502Y-102177381D01*
X158995502Y-102177381D02*
X159150264Y-102115476D01*
X159150264Y-102115476D02*
X159181216Y-102084523D01*
X159181216Y-102084523D02*
X159212169Y-102022619D01*
X158562169Y-102486904D02*
X158562169Y-102734523D01*
X158995502Y-102579761D02*
X158438359Y-102579761D01*
X158438359Y-102579761D02*
X158376454Y-102610714D01*
X158376454Y-102610714D02*
X158345502Y-102672619D01*
X158345502Y-102672619D02*
X158345502Y-102734523D01*
X158562169Y-102858333D02*
X158562169Y-103105952D01*
X158995502Y-102951190D02*
X158438359Y-102951190D01*
X158438359Y-102951190D02*
X158376454Y-102982143D01*
X158376454Y-102982143D02*
X158345502Y-103044048D01*
X158345502Y-103044048D02*
X158345502Y-103105952D01*
X158562169Y-103260715D02*
X158995502Y-103415477D01*
X158562169Y-103570238D02*
X158995502Y-103415477D01*
X158995502Y-103415477D02*
X159150264Y-103353572D01*
X159150264Y-103353572D02*
X159181216Y-103322619D01*
X159181216Y-103322619D02*
X159212169Y-103260715D01*
X160041966Y-99051190D02*
X159391966Y-99051190D01*
X159391966Y-99051190D02*
X159391966Y-99205952D01*
X159391966Y-99205952D02*
X159422918Y-99298809D01*
X159422918Y-99298809D02*
X159484823Y-99360714D01*
X159484823Y-99360714D02*
X159546728Y-99391667D01*
X159546728Y-99391667D02*
X159670537Y-99422619D01*
X159670537Y-99422619D02*
X159763394Y-99422619D01*
X159763394Y-99422619D02*
X159887204Y-99391667D01*
X159887204Y-99391667D02*
X159949109Y-99360714D01*
X159949109Y-99360714D02*
X160011014Y-99298809D01*
X160011014Y-99298809D02*
X160041966Y-99205952D01*
X160041966Y-99205952D02*
X160041966Y-99051190D01*
X159980061Y-99701190D02*
X160011014Y-99732143D01*
X160011014Y-99732143D02*
X160041966Y-99701190D01*
X160041966Y-99701190D02*
X160011014Y-99670238D01*
X160011014Y-99670238D02*
X159980061Y-99701190D01*
X159980061Y-99701190D02*
X160041966Y-99701190D01*
X160041966Y-100505952D02*
X159391966Y-100505952D01*
X159391966Y-100505952D02*
X160041966Y-100877381D01*
X160041966Y-100877381D02*
X159391966Y-100877381D01*
X160041966Y-101465476D02*
X159701490Y-101465476D01*
X159701490Y-101465476D02*
X159639585Y-101434523D01*
X159639585Y-101434523D02*
X159608633Y-101372619D01*
X159608633Y-101372619D02*
X159608633Y-101248809D01*
X159608633Y-101248809D02*
X159639585Y-101186904D01*
X160011014Y-101465476D02*
X160041966Y-101403571D01*
X160041966Y-101403571D02*
X160041966Y-101248809D01*
X160041966Y-101248809D02*
X160011014Y-101186904D01*
X160011014Y-101186904D02*
X159949109Y-101155952D01*
X159949109Y-101155952D02*
X159887204Y-101155952D01*
X159887204Y-101155952D02*
X159825299Y-101186904D01*
X159825299Y-101186904D02*
X159794347Y-101248809D01*
X159794347Y-101248809D02*
X159794347Y-101403571D01*
X159794347Y-101403571D02*
X159763394Y-101465476D01*
X159608633Y-102053571D02*
X160134823Y-102053571D01*
X160134823Y-102053571D02*
X160196728Y-102022618D01*
X160196728Y-102022618D02*
X160227680Y-101991666D01*
X160227680Y-101991666D02*
X160258633Y-101929761D01*
X160258633Y-101929761D02*
X160258633Y-101836904D01*
X160258633Y-101836904D02*
X160227680Y-101774999D01*
X160011014Y-102053571D02*
X160041966Y-101991666D01*
X160041966Y-101991666D02*
X160041966Y-101867857D01*
X160041966Y-101867857D02*
X160011014Y-101805952D01*
X160011014Y-101805952D02*
X159980061Y-101774999D01*
X159980061Y-101774999D02*
X159918156Y-101744047D01*
X159918156Y-101744047D02*
X159732442Y-101744047D01*
X159732442Y-101744047D02*
X159670537Y-101774999D01*
X159670537Y-101774999D02*
X159639585Y-101805952D01*
X159639585Y-101805952D02*
X159608633Y-101867857D01*
X159608633Y-101867857D02*
X159608633Y-101991666D01*
X159608633Y-101991666D02*
X159639585Y-102053571D01*
X159608633Y-102301190D02*
X160041966Y-102455952D01*
X159608633Y-102610713D02*
X160041966Y-102455952D01*
X160041966Y-102455952D02*
X160196728Y-102394047D01*
X160196728Y-102394047D02*
X160227680Y-102363094D01*
X160227680Y-102363094D02*
X160258633Y-102301190D01*
X160438430Y-98911904D02*
X160438430Y-99283333D01*
X161088430Y-99097619D02*
X160438430Y-99097619D01*
X161026525Y-99499999D02*
X161057478Y-99530952D01*
X161057478Y-99530952D02*
X161088430Y-99499999D01*
X161088430Y-99499999D02*
X161057478Y-99469047D01*
X161057478Y-99469047D02*
X161026525Y-99499999D01*
X161026525Y-99499999D02*
X161088430Y-99499999D01*
X161088430Y-100304761D02*
X160438430Y-100304761D01*
X160438430Y-100304761D02*
X160438430Y-100552380D01*
X160438430Y-100552380D02*
X160469382Y-100614285D01*
X160469382Y-100614285D02*
X160500335Y-100645238D01*
X160500335Y-100645238D02*
X160562239Y-100676190D01*
X160562239Y-100676190D02*
X160655097Y-100676190D01*
X160655097Y-100676190D02*
X160717001Y-100645238D01*
X160717001Y-100645238D02*
X160747954Y-100614285D01*
X160747954Y-100614285D02*
X160778906Y-100552380D01*
X160778906Y-100552380D02*
X160778906Y-100304761D01*
X161057478Y-101202380D02*
X161088430Y-101140476D01*
X161088430Y-101140476D02*
X161088430Y-101016666D01*
X161088430Y-101016666D02*
X161057478Y-100954761D01*
X161057478Y-100954761D02*
X160995573Y-100923809D01*
X160995573Y-100923809D02*
X160747954Y-100923809D01*
X160747954Y-100923809D02*
X160686049Y-100954761D01*
X160686049Y-100954761D02*
X160655097Y-101016666D01*
X160655097Y-101016666D02*
X160655097Y-101140476D01*
X160655097Y-101140476D02*
X160686049Y-101202380D01*
X160686049Y-101202380D02*
X160747954Y-101233333D01*
X160747954Y-101233333D02*
X160809858Y-101233333D01*
X160809858Y-101233333D02*
X160871763Y-100923809D01*
X160407478Y-101140476D02*
X160500335Y-101047619D01*
X161057478Y-101790476D02*
X161088430Y-101728571D01*
X161088430Y-101728571D02*
X161088430Y-101604762D01*
X161088430Y-101604762D02*
X161057478Y-101542857D01*
X161057478Y-101542857D02*
X161026525Y-101511904D01*
X161026525Y-101511904D02*
X160964620Y-101480952D01*
X160964620Y-101480952D02*
X160778906Y-101480952D01*
X160778906Y-101480952D02*
X160717001Y-101511904D01*
X160717001Y-101511904D02*
X160686049Y-101542857D01*
X160686049Y-101542857D02*
X160655097Y-101604762D01*
X160655097Y-101604762D02*
X160655097Y-101728571D01*
X160655097Y-101728571D02*
X160686049Y-101790476D01*
X161057478Y-102038095D02*
X161088430Y-102100000D01*
X161088430Y-102100000D02*
X161088430Y-102223809D01*
X161088430Y-102223809D02*
X161057478Y-102285714D01*
X161057478Y-102285714D02*
X160995573Y-102316666D01*
X160995573Y-102316666D02*
X160964620Y-102316666D01*
X160964620Y-102316666D02*
X160902716Y-102285714D01*
X160902716Y-102285714D02*
X160871763Y-102223809D01*
X160871763Y-102223809D02*
X160871763Y-102130952D01*
X160871763Y-102130952D02*
X160840811Y-102069047D01*
X160840811Y-102069047D02*
X160778906Y-102038095D01*
X160778906Y-102038095D02*
X160747954Y-102038095D01*
X160747954Y-102038095D02*
X160686049Y-102069047D01*
X160686049Y-102069047D02*
X160655097Y-102130952D01*
X160655097Y-102130952D02*
X160655097Y-102223809D01*
X160655097Y-102223809D02*
X160686049Y-102285714D01*
X161088430Y-102595237D02*
X160655097Y-102595237D01*
X160438430Y-102595237D02*
X160469382Y-102564285D01*
X160469382Y-102564285D02*
X160500335Y-102595237D01*
X160500335Y-102595237D02*
X160469382Y-102626190D01*
X160469382Y-102626190D02*
X160438430Y-102595237D01*
X160438430Y-102595237D02*
X160500335Y-102595237D01*
D14*
X162078069Y-114119123D02*
X161944735Y-114119123D01*
X161944735Y-114119123D02*
X161878069Y-114152456D01*
X161878069Y-114152456D02*
X161811402Y-114219123D01*
X161811402Y-114219123D02*
X161778069Y-114352456D01*
X161778069Y-114352456D02*
X161778069Y-114585790D01*
X161778069Y-114585790D02*
X161811402Y-114719123D01*
X161811402Y-114719123D02*
X161878069Y-114785790D01*
X161878069Y-114785790D02*
X161944735Y-114819123D01*
X161944735Y-114819123D02*
X162078069Y-114819123D01*
X162078069Y-114819123D02*
X162144735Y-114785790D01*
X162144735Y-114785790D02*
X162211402Y-114719123D01*
X162211402Y-114719123D02*
X162244735Y-114585790D01*
X162244735Y-114585790D02*
X162244735Y-114352456D01*
X162244735Y-114352456D02*
X162211402Y-114219123D01*
X162211402Y-114219123D02*
X162144735Y-114152456D01*
X162144735Y-114152456D02*
X162078069Y-114119123D01*
X161478069Y-114352456D02*
X161478069Y-114819123D01*
X161478069Y-114419123D02*
X161444736Y-114385790D01*
X161444736Y-114385790D02*
X161378069Y-114352456D01*
X161378069Y-114352456D02*
X161278069Y-114352456D01*
X161278069Y-114352456D02*
X161211402Y-114385790D01*
X161211402Y-114385790D02*
X161178069Y-114452456D01*
X161178069Y-114452456D02*
X161178069Y-114819123D01*
X160844736Y-114552456D02*
X160311403Y-114552456D01*
X159744736Y-114452456D02*
X159644736Y-114485790D01*
X159644736Y-114485790D02*
X159611402Y-114519123D01*
X159611402Y-114519123D02*
X159578069Y-114585790D01*
X159578069Y-114585790D02*
X159578069Y-114685790D01*
X159578069Y-114685790D02*
X159611402Y-114752456D01*
X159611402Y-114752456D02*
X159644736Y-114785790D01*
X159644736Y-114785790D02*
X159711402Y-114819123D01*
X159711402Y-114819123D02*
X159978069Y-114819123D01*
X159978069Y-114819123D02*
X159978069Y-114119123D01*
X159978069Y-114119123D02*
X159744736Y-114119123D01*
X159744736Y-114119123D02*
X159678069Y-114152456D01*
X159678069Y-114152456D02*
X159644736Y-114185790D01*
X159644736Y-114185790D02*
X159611402Y-114252456D01*
X159611402Y-114252456D02*
X159611402Y-114319123D01*
X159611402Y-114319123D02*
X159644736Y-114385790D01*
X159644736Y-114385790D02*
X159678069Y-114419123D01*
X159678069Y-114419123D02*
X159744736Y-114452456D01*
X159744736Y-114452456D02*
X159978069Y-114452456D01*
X159178069Y-114819123D02*
X159244736Y-114785790D01*
X159244736Y-114785790D02*
X159278069Y-114752456D01*
X159278069Y-114752456D02*
X159311402Y-114685790D01*
X159311402Y-114685790D02*
X159311402Y-114485790D01*
X159311402Y-114485790D02*
X159278069Y-114419123D01*
X159278069Y-114419123D02*
X159244736Y-114385790D01*
X159244736Y-114385790D02*
X159178069Y-114352456D01*
X159178069Y-114352456D02*
X159078069Y-114352456D01*
X159078069Y-114352456D02*
X159011402Y-114385790D01*
X159011402Y-114385790D02*
X158978069Y-114419123D01*
X158978069Y-114419123D02*
X158944736Y-114485790D01*
X158944736Y-114485790D02*
X158944736Y-114685790D01*
X158944736Y-114685790D02*
X158978069Y-114752456D01*
X158978069Y-114752456D02*
X159011402Y-114785790D01*
X159011402Y-114785790D02*
X159078069Y-114819123D01*
X159078069Y-114819123D02*
X159178069Y-114819123D01*
X158344736Y-114819123D02*
X158344736Y-114452456D01*
X158344736Y-114452456D02*
X158378069Y-114385790D01*
X158378069Y-114385790D02*
X158444736Y-114352456D01*
X158444736Y-114352456D02*
X158578069Y-114352456D01*
X158578069Y-114352456D02*
X158644736Y-114385790D01*
X158344736Y-114785790D02*
X158411403Y-114819123D01*
X158411403Y-114819123D02*
X158578069Y-114819123D01*
X158578069Y-114819123D02*
X158644736Y-114785790D01*
X158644736Y-114785790D02*
X158678069Y-114719123D01*
X158678069Y-114719123D02*
X158678069Y-114652456D01*
X158678069Y-114652456D02*
X158644736Y-114585790D01*
X158644736Y-114585790D02*
X158578069Y-114552456D01*
X158578069Y-114552456D02*
X158411403Y-114552456D01*
X158411403Y-114552456D02*
X158344736Y-114519123D01*
X158011403Y-114819123D02*
X158011403Y-114352456D01*
X158011403Y-114485790D02*
X157978070Y-114419123D01*
X157978070Y-114419123D02*
X157944736Y-114385790D01*
X157944736Y-114385790D02*
X157878070Y-114352456D01*
X157878070Y-114352456D02*
X157811403Y-114352456D01*
X157278070Y-114819123D02*
X157278070Y-114119123D01*
X157278070Y-114785790D02*
X157344737Y-114819123D01*
X157344737Y-114819123D02*
X157478070Y-114819123D01*
X157478070Y-114819123D02*
X157544737Y-114785790D01*
X157544737Y-114785790D02*
X157578070Y-114752456D01*
X157578070Y-114752456D02*
X157611403Y-114685790D01*
X157611403Y-114685790D02*
X157611403Y-114485790D01*
X157611403Y-114485790D02*
X157578070Y-114419123D01*
X157578070Y-114419123D02*
X157544737Y-114385790D01*
X157544737Y-114385790D02*
X157478070Y-114352456D01*
X157478070Y-114352456D02*
X157344737Y-114352456D01*
X157344737Y-114352456D02*
X157278070Y-114385790D01*
X156011404Y-114752456D02*
X156044737Y-114785790D01*
X156044737Y-114785790D02*
X156144737Y-114819123D01*
X156144737Y-114819123D02*
X156211404Y-114819123D01*
X156211404Y-114819123D02*
X156311404Y-114785790D01*
X156311404Y-114785790D02*
X156378071Y-114719123D01*
X156378071Y-114719123D02*
X156411404Y-114652456D01*
X156411404Y-114652456D02*
X156444737Y-114519123D01*
X156444737Y-114519123D02*
X156444737Y-114419123D01*
X156444737Y-114419123D02*
X156411404Y-114285790D01*
X156411404Y-114285790D02*
X156378071Y-114219123D01*
X156378071Y-114219123D02*
X156311404Y-114152456D01*
X156311404Y-114152456D02*
X156211404Y-114119123D01*
X156211404Y-114119123D02*
X156144737Y-114119123D01*
X156144737Y-114119123D02*
X156044737Y-114152456D01*
X156044737Y-114152456D02*
X156011404Y-114185790D01*
X155611404Y-114819123D02*
X155678071Y-114785790D01*
X155678071Y-114785790D02*
X155711404Y-114752456D01*
X155711404Y-114752456D02*
X155744737Y-114685790D01*
X155744737Y-114685790D02*
X155744737Y-114485790D01*
X155744737Y-114485790D02*
X155711404Y-114419123D01*
X155711404Y-114419123D02*
X155678071Y-114385790D01*
X155678071Y-114385790D02*
X155611404Y-114352456D01*
X155611404Y-114352456D02*
X155511404Y-114352456D01*
X155511404Y-114352456D02*
X155444737Y-114385790D01*
X155444737Y-114385790D02*
X155411404Y-114419123D01*
X155411404Y-114419123D02*
X155378071Y-114485790D01*
X155378071Y-114485790D02*
X155378071Y-114685790D01*
X155378071Y-114685790D02*
X155411404Y-114752456D01*
X155411404Y-114752456D02*
X155444737Y-114785790D01*
X155444737Y-114785790D02*
X155511404Y-114819123D01*
X155511404Y-114819123D02*
X155611404Y-114819123D01*
X155078071Y-114819123D02*
X155078071Y-114352456D01*
X155078071Y-114419123D02*
X155044738Y-114385790D01*
X155044738Y-114385790D02*
X154978071Y-114352456D01*
X154978071Y-114352456D02*
X154878071Y-114352456D01*
X154878071Y-114352456D02*
X154811404Y-114385790D01*
X154811404Y-114385790D02*
X154778071Y-114452456D01*
X154778071Y-114452456D02*
X154778071Y-114819123D01*
X154778071Y-114452456D02*
X154744738Y-114385790D01*
X154744738Y-114385790D02*
X154678071Y-114352456D01*
X154678071Y-114352456D02*
X154578071Y-114352456D01*
X154578071Y-114352456D02*
X154511404Y-114385790D01*
X154511404Y-114385790D02*
X154478071Y-114452456D01*
X154478071Y-114452456D02*
X154478071Y-114819123D01*
X154144738Y-114352456D02*
X154144738Y-115052456D01*
X154144738Y-114385790D02*
X154078071Y-114352456D01*
X154078071Y-114352456D02*
X153944738Y-114352456D01*
X153944738Y-114352456D02*
X153878071Y-114385790D01*
X153878071Y-114385790D02*
X153844738Y-114419123D01*
X153844738Y-114419123D02*
X153811405Y-114485790D01*
X153811405Y-114485790D02*
X153811405Y-114685790D01*
X153811405Y-114685790D02*
X153844738Y-114752456D01*
X153844738Y-114752456D02*
X153878071Y-114785790D01*
X153878071Y-114785790D02*
X153944738Y-114819123D01*
X153944738Y-114819123D02*
X154078071Y-114819123D01*
X154078071Y-114819123D02*
X154144738Y-114785790D01*
X153211405Y-114352456D02*
X153211405Y-114819123D01*
X153511405Y-114352456D02*
X153511405Y-114719123D01*
X153511405Y-114719123D02*
X153478072Y-114785790D01*
X153478072Y-114785790D02*
X153411405Y-114819123D01*
X153411405Y-114819123D02*
X153311405Y-114819123D01*
X153311405Y-114819123D02*
X153244738Y-114785790D01*
X153244738Y-114785790D02*
X153211405Y-114752456D01*
X152978072Y-114352456D02*
X152711405Y-114352456D01*
X152878072Y-114119123D02*
X152878072Y-114719123D01*
X152878072Y-114719123D02*
X152844739Y-114785790D01*
X152844739Y-114785790D02*
X152778072Y-114819123D01*
X152778072Y-114819123D02*
X152711405Y-114819123D01*
X152211405Y-114785790D02*
X152278072Y-114819123D01*
X152278072Y-114819123D02*
X152411405Y-114819123D01*
X152411405Y-114819123D02*
X152478072Y-114785790D01*
X152478072Y-114785790D02*
X152511405Y-114719123D01*
X152511405Y-114719123D02*
X152511405Y-114452456D01*
X152511405Y-114452456D02*
X152478072Y-114385790D01*
X152478072Y-114385790D02*
X152411405Y-114352456D01*
X152411405Y-114352456D02*
X152278072Y-114352456D01*
X152278072Y-114352456D02*
X152211405Y-114385790D01*
X152211405Y-114385790D02*
X152178072Y-114452456D01*
X152178072Y-114452456D02*
X152178072Y-114519123D01*
X152178072Y-114519123D02*
X152511405Y-114585790D01*
X151878072Y-114819123D02*
X151878072Y-114352456D01*
X151878072Y-114485790D02*
X151844739Y-114419123D01*
X151844739Y-114419123D02*
X151811405Y-114385790D01*
X151811405Y-114385790D02*
X151744739Y-114352456D01*
X151744739Y-114352456D02*
X151678072Y-114352456D01*
D13*
X172741668Y-90046416D02*
X173008334Y-90046416D01*
X173008334Y-90465464D02*
X173008334Y-89665464D01*
X173008334Y-89665464D02*
X172627382Y-89665464D01*
X172208335Y-90465464D02*
X172284525Y-90427369D01*
X172284525Y-90427369D02*
X172322620Y-90389273D01*
X172322620Y-90389273D02*
X172360716Y-90313083D01*
X172360716Y-90313083D02*
X172360716Y-90084511D01*
X172360716Y-90084511D02*
X172322620Y-90008321D01*
X172322620Y-90008321D02*
X172284525Y-89970226D01*
X172284525Y-89970226D02*
X172208335Y-89932130D01*
X172208335Y-89932130D02*
X172094049Y-89932130D01*
X172094049Y-89932130D02*
X172017858Y-89970226D01*
X172017858Y-89970226D02*
X171979763Y-90008321D01*
X171979763Y-90008321D02*
X171941668Y-90084511D01*
X171941668Y-90084511D02*
X171941668Y-90313083D01*
X171941668Y-90313083D02*
X171979763Y-90389273D01*
X171979763Y-90389273D02*
X172017858Y-90427369D01*
X172017858Y-90427369D02*
X172094049Y-90465464D01*
X172094049Y-90465464D02*
X172208335Y-90465464D01*
X171484525Y-90465464D02*
X171560715Y-90427369D01*
X171560715Y-90427369D02*
X171598810Y-90351178D01*
X171598810Y-90351178D02*
X171598810Y-89665464D01*
X171065477Y-90465464D02*
X171141667Y-90427369D01*
X171141667Y-90427369D02*
X171179762Y-90351178D01*
X171179762Y-90351178D02*
X171179762Y-89665464D01*
X170646429Y-90465464D02*
X170722619Y-90427369D01*
X170722619Y-90427369D02*
X170760714Y-90389273D01*
X170760714Y-90389273D02*
X170798810Y-90313083D01*
X170798810Y-90313083D02*
X170798810Y-90084511D01*
X170798810Y-90084511D02*
X170760714Y-90008321D01*
X170760714Y-90008321D02*
X170722619Y-89970226D01*
X170722619Y-89970226D02*
X170646429Y-89932130D01*
X170646429Y-89932130D02*
X170532143Y-89932130D01*
X170532143Y-89932130D02*
X170455952Y-89970226D01*
X170455952Y-89970226D02*
X170417857Y-90008321D01*
X170417857Y-90008321D02*
X170379762Y-90084511D01*
X170379762Y-90084511D02*
X170379762Y-90313083D01*
X170379762Y-90313083D02*
X170417857Y-90389273D01*
X170417857Y-90389273D02*
X170455952Y-90427369D01*
X170455952Y-90427369D02*
X170532143Y-90465464D01*
X170532143Y-90465464D02*
X170646429Y-90465464D01*
X170113095Y-89932130D02*
X169960714Y-90465464D01*
X169960714Y-90465464D02*
X169808333Y-90084511D01*
X169808333Y-90084511D02*
X169655952Y-90465464D01*
X169655952Y-90465464D02*
X169503571Y-89932130D01*
X168246428Y-89932130D02*
X168246428Y-90465464D01*
X168589285Y-89932130D02*
X168589285Y-90351178D01*
X168589285Y-90351178D02*
X168551190Y-90427369D01*
X168551190Y-90427369D02*
X168475000Y-90465464D01*
X168475000Y-90465464D02*
X168360714Y-90465464D01*
X168360714Y-90465464D02*
X168284523Y-90427369D01*
X168284523Y-90427369D02*
X168246428Y-90389273D01*
X167903571Y-90427369D02*
X167827380Y-90465464D01*
X167827380Y-90465464D02*
X167674999Y-90465464D01*
X167674999Y-90465464D02*
X167598809Y-90427369D01*
X167598809Y-90427369D02*
X167560713Y-90351178D01*
X167560713Y-90351178D02*
X167560713Y-90313083D01*
X167560713Y-90313083D02*
X167598809Y-90236892D01*
X167598809Y-90236892D02*
X167674999Y-90198797D01*
X167674999Y-90198797D02*
X167789285Y-90198797D01*
X167789285Y-90198797D02*
X167865475Y-90160702D01*
X167865475Y-90160702D02*
X167903571Y-90084511D01*
X167903571Y-90084511D02*
X167903571Y-90046416D01*
X167903571Y-90046416D02*
X167865475Y-89970226D01*
X167865475Y-89970226D02*
X167789285Y-89932130D01*
X167789285Y-89932130D02*
X167674999Y-89932130D01*
X167674999Y-89932130D02*
X167598809Y-89970226D01*
X166494047Y-90465464D02*
X166570237Y-90427369D01*
X166570237Y-90427369D02*
X166608332Y-90389273D01*
X166608332Y-90389273D02*
X166646428Y-90313083D01*
X166646428Y-90313083D02*
X166646428Y-90084511D01*
X166646428Y-90084511D02*
X166608332Y-90008321D01*
X166608332Y-90008321D02*
X166570237Y-89970226D01*
X166570237Y-89970226D02*
X166494047Y-89932130D01*
X166494047Y-89932130D02*
X166379761Y-89932130D01*
X166379761Y-89932130D02*
X166303570Y-89970226D01*
X166303570Y-89970226D02*
X166265475Y-90008321D01*
X166265475Y-90008321D02*
X166227380Y-90084511D01*
X166227380Y-90084511D02*
X166227380Y-90313083D01*
X166227380Y-90313083D02*
X166265475Y-90389273D01*
X166265475Y-90389273D02*
X166303570Y-90427369D01*
X166303570Y-90427369D02*
X166379761Y-90465464D01*
X166379761Y-90465464D02*
X166494047Y-90465464D01*
X165884522Y-89932130D02*
X165884522Y-90465464D01*
X165884522Y-90008321D02*
X165846427Y-89970226D01*
X165846427Y-89970226D02*
X165770237Y-89932130D01*
X165770237Y-89932130D02*
X165655951Y-89932130D01*
X165655951Y-89932130D02*
X165579760Y-89970226D01*
X165579760Y-89970226D02*
X165541665Y-90046416D01*
X165541665Y-90046416D02*
X165541665Y-90465464D01*
X172989286Y-91715324D02*
X172875000Y-91753419D01*
X172875000Y-91753419D02*
X172684524Y-91753419D01*
X172684524Y-91753419D02*
X172608333Y-91715324D01*
X172608333Y-91715324D02*
X172570238Y-91677228D01*
X172570238Y-91677228D02*
X172532143Y-91601038D01*
X172532143Y-91601038D02*
X172532143Y-91524847D01*
X172532143Y-91524847D02*
X172570238Y-91448657D01*
X172570238Y-91448657D02*
X172608333Y-91410562D01*
X172608333Y-91410562D02*
X172684524Y-91372466D01*
X172684524Y-91372466D02*
X172836905Y-91334371D01*
X172836905Y-91334371D02*
X172913095Y-91296276D01*
X172913095Y-91296276D02*
X172951190Y-91258181D01*
X172951190Y-91258181D02*
X172989286Y-91181990D01*
X172989286Y-91181990D02*
X172989286Y-91105800D01*
X172989286Y-91105800D02*
X172951190Y-91029609D01*
X172951190Y-91029609D02*
X172913095Y-90991514D01*
X172913095Y-90991514D02*
X172836905Y-90953419D01*
X172836905Y-90953419D02*
X172646428Y-90953419D01*
X172646428Y-90953419D02*
X172532143Y-90991514D01*
X172075000Y-91753419D02*
X172151190Y-91715324D01*
X172151190Y-91715324D02*
X172189285Y-91677228D01*
X172189285Y-91677228D02*
X172227381Y-91601038D01*
X172227381Y-91601038D02*
X172227381Y-91372466D01*
X172227381Y-91372466D02*
X172189285Y-91296276D01*
X172189285Y-91296276D02*
X172151190Y-91258181D01*
X172151190Y-91258181D02*
X172075000Y-91220085D01*
X172075000Y-91220085D02*
X171960714Y-91220085D01*
X171960714Y-91220085D02*
X171884523Y-91258181D01*
X171884523Y-91258181D02*
X171846428Y-91296276D01*
X171846428Y-91296276D02*
X171808333Y-91372466D01*
X171808333Y-91372466D02*
X171808333Y-91601038D01*
X171808333Y-91601038D02*
X171846428Y-91677228D01*
X171846428Y-91677228D02*
X171884523Y-91715324D01*
X171884523Y-91715324D02*
X171960714Y-91753419D01*
X171960714Y-91753419D02*
X172075000Y-91753419D01*
X171122618Y-91715324D02*
X171198809Y-91753419D01*
X171198809Y-91753419D02*
X171351190Y-91753419D01*
X171351190Y-91753419D02*
X171427380Y-91715324D01*
X171427380Y-91715324D02*
X171465475Y-91677228D01*
X171465475Y-91677228D02*
X171503571Y-91601038D01*
X171503571Y-91601038D02*
X171503571Y-91372466D01*
X171503571Y-91372466D02*
X171465475Y-91296276D01*
X171465475Y-91296276D02*
X171427380Y-91258181D01*
X171427380Y-91258181D02*
X171351190Y-91220085D01*
X171351190Y-91220085D02*
X171198809Y-91220085D01*
X171198809Y-91220085D02*
X171122618Y-91258181D01*
X170779761Y-91753419D02*
X170779761Y-91220085D01*
X170779761Y-90953419D02*
X170817857Y-90991514D01*
X170817857Y-90991514D02*
X170779761Y-91029609D01*
X170779761Y-91029609D02*
X170741666Y-90991514D01*
X170741666Y-90991514D02*
X170779761Y-90953419D01*
X170779761Y-90953419D02*
X170779761Y-91029609D01*
X170055952Y-91753419D02*
X170055952Y-91334371D01*
X170055952Y-91334371D02*
X170094047Y-91258181D01*
X170094047Y-91258181D02*
X170170238Y-91220085D01*
X170170238Y-91220085D02*
X170322619Y-91220085D01*
X170322619Y-91220085D02*
X170398809Y-91258181D01*
X170055952Y-91715324D02*
X170132143Y-91753419D01*
X170132143Y-91753419D02*
X170322619Y-91753419D01*
X170322619Y-91753419D02*
X170398809Y-91715324D01*
X170398809Y-91715324D02*
X170436905Y-91639133D01*
X170436905Y-91639133D02*
X170436905Y-91562943D01*
X170436905Y-91562943D02*
X170398809Y-91486752D01*
X170398809Y-91486752D02*
X170322619Y-91448657D01*
X170322619Y-91448657D02*
X170132143Y-91448657D01*
X170132143Y-91448657D02*
X170055952Y-91410562D01*
X169560714Y-91753419D02*
X169636904Y-91715324D01*
X169636904Y-91715324D02*
X169674999Y-91639133D01*
X169674999Y-91639133D02*
X169674999Y-90953419D01*
X168646427Y-91753419D02*
X168646427Y-90953419D01*
X168646427Y-90953419D02*
X168379761Y-91524847D01*
X168379761Y-91524847D02*
X168113094Y-90953419D01*
X168113094Y-90953419D02*
X168113094Y-91753419D01*
X167427379Y-91715324D02*
X167503570Y-91753419D01*
X167503570Y-91753419D02*
X167655951Y-91753419D01*
X167655951Y-91753419D02*
X167732141Y-91715324D01*
X167732141Y-91715324D02*
X167770237Y-91639133D01*
X167770237Y-91639133D02*
X167770237Y-91334371D01*
X167770237Y-91334371D02*
X167732141Y-91258181D01*
X167732141Y-91258181D02*
X167655951Y-91220085D01*
X167655951Y-91220085D02*
X167503570Y-91220085D01*
X167503570Y-91220085D02*
X167427379Y-91258181D01*
X167427379Y-91258181D02*
X167389284Y-91334371D01*
X167389284Y-91334371D02*
X167389284Y-91410562D01*
X167389284Y-91410562D02*
X167770237Y-91486752D01*
X166703570Y-91753419D02*
X166703570Y-90953419D01*
X166703570Y-91715324D02*
X166779761Y-91753419D01*
X166779761Y-91753419D02*
X166932142Y-91753419D01*
X166932142Y-91753419D02*
X167008332Y-91715324D01*
X167008332Y-91715324D02*
X167046427Y-91677228D01*
X167046427Y-91677228D02*
X167084523Y-91601038D01*
X167084523Y-91601038D02*
X167084523Y-91372466D01*
X167084523Y-91372466D02*
X167046427Y-91296276D01*
X167046427Y-91296276D02*
X167008332Y-91258181D01*
X167008332Y-91258181D02*
X166932142Y-91220085D01*
X166932142Y-91220085D02*
X166779761Y-91220085D01*
X166779761Y-91220085D02*
X166703570Y-91258181D01*
X166322617Y-91753419D02*
X166322617Y-91220085D01*
X166322617Y-90953419D02*
X166360713Y-90991514D01*
X166360713Y-90991514D02*
X166322617Y-91029609D01*
X166322617Y-91029609D02*
X166284522Y-90991514D01*
X166284522Y-90991514D02*
X166322617Y-90953419D01*
X166322617Y-90953419D02*
X166322617Y-91029609D01*
X165598808Y-91753419D02*
X165598808Y-91334371D01*
X165598808Y-91334371D02*
X165636903Y-91258181D01*
X165636903Y-91258181D02*
X165713094Y-91220085D01*
X165713094Y-91220085D02*
X165865475Y-91220085D01*
X165865475Y-91220085D02*
X165941665Y-91258181D01*
X165598808Y-91715324D02*
X165674999Y-91753419D01*
X165674999Y-91753419D02*
X165865475Y-91753419D01*
X165865475Y-91753419D02*
X165941665Y-91715324D01*
X165941665Y-91715324D02*
X165979761Y-91639133D01*
X165979761Y-91639133D02*
X165979761Y-91562943D01*
X165979761Y-91562943D02*
X165941665Y-91486752D01*
X165941665Y-91486752D02*
X165865475Y-91448657D01*
X165865475Y-91448657D02*
X165674999Y-91448657D01*
X165674999Y-91448657D02*
X165598808Y-91410562D01*
D15*
X184052970Y-87848811D02*
X184338684Y-87848811D01*
X184338684Y-87848811D02*
X184338684Y-87248811D01*
X183738685Y-87248811D02*
X183624399Y-87248811D01*
X183624399Y-87248811D02*
X183567256Y-87277382D01*
X183567256Y-87277382D02*
X183510113Y-87334525D01*
X183510113Y-87334525D02*
X183481542Y-87448811D01*
X183481542Y-87448811D02*
X183481542Y-87648811D01*
X183481542Y-87648811D02*
X183510113Y-87763097D01*
X183510113Y-87763097D02*
X183567256Y-87820240D01*
X183567256Y-87820240D02*
X183624399Y-87848811D01*
X183624399Y-87848811D02*
X183738685Y-87848811D01*
X183738685Y-87848811D02*
X183795828Y-87820240D01*
X183795828Y-87820240D02*
X183852970Y-87763097D01*
X183852970Y-87763097D02*
X183881542Y-87648811D01*
X183881542Y-87648811D02*
X183881542Y-87448811D01*
X183881542Y-87448811D02*
X183852970Y-87334525D01*
X183852970Y-87334525D02*
X183795828Y-87277382D01*
X183795828Y-87277382D02*
X183738685Y-87248811D01*
X182881542Y-87848811D02*
X183081542Y-87563097D01*
X183224399Y-87848811D02*
X183224399Y-87248811D01*
X183224399Y-87248811D02*
X182995828Y-87248811D01*
X182995828Y-87248811D02*
X182938685Y-87277382D01*
X182938685Y-87277382D02*
X182910114Y-87305954D01*
X182910114Y-87305954D02*
X182881542Y-87363097D01*
X182881542Y-87363097D02*
X182881542Y-87448811D01*
X182881542Y-87448811D02*
X182910114Y-87505954D01*
X182910114Y-87505954D02*
X182938685Y-87534525D01*
X182938685Y-87534525D02*
X182995828Y-87563097D01*
X182995828Y-87563097D02*
X183224399Y-87563097D01*
X182652971Y-87677382D02*
X182367257Y-87677382D01*
X182710114Y-87848811D02*
X182510114Y-87248811D01*
X182510114Y-87248811D02*
X182310114Y-87848811D01*
X181681542Y-87677382D02*
X181395828Y-87677382D01*
X181738685Y-87848811D02*
X181538685Y-87248811D01*
X181538685Y-87248811D02*
X181338685Y-87848811D01*
X181138684Y-87848811D02*
X181138684Y-87248811D01*
X181138684Y-87248811D02*
X180795827Y-87848811D01*
X180795827Y-87848811D02*
X180795827Y-87248811D01*
X180595828Y-87248811D02*
X180252971Y-87248811D01*
X180424399Y-87848811D02*
X180424399Y-87248811D01*
D16*
%TO.C,U18*%
X158662500Y-96229000D02*
X158662500Y-95181500D01*
X158662500Y-96279000D02*
X151512500Y-96279000D01*
X158662500Y-105279000D02*
X151412500Y-105279000D01*
X158904500Y-105521000D02*
X158904500Y-106568000D01*
X159912500Y-94679000D02*
X159562500Y-94679000D01*
X163912500Y-94679000D02*
X159912500Y-94679000D01*
X163912500Y-94679000D02*
X163912500Y-96248000D01*
X163912500Y-105510000D02*
X163912500Y-107079000D01*
X163912500Y-107079000D02*
X159912500Y-107079000D01*
X158662500Y-95181500D02*
G75*
G02*
X159670500Y-94671000I1007477J-738882D01*
G01*
X158662500Y-105279000D02*
G75*
G02*
X158904500Y-105521000I0J-242000D01*
G01*
X159912500Y-107079000D02*
G75*
G02*
X158904499Y-106568001I-140J1249420D01*
G01*
D13*
%TO.C,R34*%
X173072936Y-100940000D02*
X174527064Y-100940000D01*
X173072936Y-102760000D02*
X174527064Y-102760000D01*
%TO.C,R5*%
X169667500Y-115728641D02*
X169667500Y-115421359D01*
X170427500Y-115728641D02*
X170427500Y-115421359D01*
%TO.C,C5*%
X156200000Y-77512164D02*
X156200000Y-77727836D01*
X156920000Y-77512164D02*
X156920000Y-77727836D01*
%TO.C,U12*%
X181737500Y-118485001D02*
X180937500Y-118485001D01*
X181737500Y-118485001D02*
X182537500Y-118485001D01*
X181737500Y-121605001D02*
X180937500Y-121605001D01*
X181737500Y-121605001D02*
X182537500Y-121605001D01*
%TO.C,U13*%
X164090000Y-115512500D02*
X164090000Y-114712500D01*
X164090000Y-115512500D02*
X164090000Y-116312500D01*
X167210000Y-115512500D02*
X167210000Y-114712500D01*
X167210000Y-115512500D02*
X167210000Y-116312500D01*
%TO.C,R26*%
X164470000Y-95446359D02*
X164470000Y-95753641D01*
X165230000Y-95446359D02*
X165230000Y-95753641D01*
%TO.C,R4*%
X173470000Y-115886359D02*
X173470000Y-116193641D01*
X174230000Y-115886359D02*
X174230000Y-116193641D01*
%TO.C,C25*%
X155492164Y-107510000D02*
X155707836Y-107510000D01*
X155492164Y-108230000D02*
X155707836Y-108230000D01*
%TO.C,C38*%
X157342164Y-106540000D02*
X157557836Y-106540000D01*
X157342164Y-107260000D02*
X157557836Y-107260000D01*
%TO.C,R17*%
X152620000Y-94996359D02*
X152620000Y-95303641D01*
X153380000Y-94996359D02*
X153380000Y-95303641D01*
%TO.C,C39*%
X178740000Y-86772164D02*
X178740000Y-86987836D01*
X179460000Y-86772164D02*
X179460000Y-86987836D01*
%TO.C,R20*%
X151620000Y-94996359D02*
X151620000Y-95303641D01*
X152380000Y-94996359D02*
X152380000Y-95303641D01*
%TO.C,C47*%
X150532164Y-84800000D02*
X150747836Y-84800000D01*
X150532164Y-85520000D02*
X150747836Y-85520000D01*
D16*
%TO.C,AE1*%
X143600862Y-84126346D02*
X148267767Y-79459441D01*
X144873654Y-85399138D02*
X149540559Y-80732233D01*
X148694544Y-80555456D02*
G75*
G02*
X148194544Y-80555456I-250000J0D01*
G01*
X148194544Y-80555456D02*
G75*
G02*
X148694544Y-80555456I250000J0D01*
G01*
D13*
%TO.C,U11*%
X167477500Y-112500000D02*
X167477500Y-111700000D01*
X167477500Y-112500000D02*
X167477500Y-113300000D01*
X170597500Y-112500000D02*
X170597500Y-111700000D01*
X170597500Y-112500000D02*
X170597500Y-113300000D01*
D11*
%TO.C,U17*%
X157182500Y-76902500D02*
X157182500Y-77052500D01*
X157182500Y-79602500D02*
X157182500Y-79452500D01*
X157182500Y-79602500D02*
X157332500Y-79602500D01*
X157332500Y-76902500D02*
X157182500Y-76902500D01*
X159882500Y-76902500D02*
X159732500Y-76902500D01*
X159882500Y-76902500D02*
X159882500Y-77052500D01*
X159882500Y-79602500D02*
X159882500Y-79452500D01*
X159882500Y-79612500D02*
X159732500Y-79612500D01*
D13*
%TO.C,R32*%
X173122936Y-94090000D02*
X174577064Y-94090000D01*
X173122936Y-95910000D02*
X174577064Y-95910000D01*
%TO.C,R24*%
X170330000Y-94766359D02*
X170330000Y-95073641D01*
X171090000Y-94766359D02*
X171090000Y-95073641D01*
%TO.C,J6*%
X180925000Y-83835000D02*
X181565000Y-83835000D01*
X180975000Y-86555000D02*
X183675000Y-86555000D01*
X183725000Y-83835000D02*
X183085000Y-83835000D01*
%TO.C,R29*%
X166196359Y-100770000D02*
X166503641Y-100770000D01*
X166196359Y-101530000D02*
X166503641Y-101530000D01*
%TO.C,R13*%
X154070000Y-83746359D02*
X154070000Y-84053641D01*
X154830000Y-83746359D02*
X154830000Y-84053641D01*
%TO.C,R51*%
X187527500Y-113912742D02*
X187527500Y-114387258D01*
X188572500Y-113912742D02*
X188572500Y-114387258D01*
%TO.C,U10*%
X178200000Y-107490000D02*
X177400000Y-107490000D01*
X178200000Y-107490000D02*
X179000000Y-107490000D01*
X178200000Y-110610000D02*
X177400000Y-110610000D01*
X178200000Y-110610000D02*
X179000000Y-110610000D01*
%TO.C,R18*%
X156620000Y-94996359D02*
X156620000Y-95303641D01*
X157380000Y-94996359D02*
X157380000Y-95303641D01*
%TO.C,U9*%
X178200000Y-104090000D02*
X177400000Y-104090000D01*
X178200000Y-104090000D02*
X179000000Y-104090000D01*
X178200000Y-107210000D02*
X177400000Y-107210000D01*
X178200000Y-107210000D02*
X179000000Y-107210000D01*
%TO.C,R14*%
X153620000Y-94996359D02*
X153620000Y-95303641D01*
X154380000Y-94996359D02*
X154380000Y-95303641D01*
%TO.C,C32*%
X178765000Y-120462164D02*
X178765000Y-120677836D01*
X179485000Y-120462164D02*
X179485000Y-120677836D01*
%TO.C,R23*%
X157620000Y-94996359D02*
X157620000Y-95303641D01*
X158380000Y-94996359D02*
X158380000Y-95303641D01*
%TO.C,R59*%
X166553641Y-112620000D02*
X166246359Y-112620000D01*
X166553641Y-113380000D02*
X166246359Y-113380000D01*
%TO.C,C50*%
X176457836Y-115090000D02*
X176242164Y-115090000D01*
X176457836Y-115810000D02*
X176242164Y-115810000D01*
%TO.C,U4*%
X165865000Y-95215000D02*
X166565000Y-95215000D01*
X165865000Y-95915000D02*
X165865000Y-95215000D01*
X165865000Y-98735000D02*
X165865000Y-99435000D01*
X165865000Y-99435000D02*
X166565000Y-99435000D01*
X169385000Y-99435000D02*
X170085000Y-99435000D01*
X170085000Y-95215000D02*
X169385000Y-95215000D01*
X170085000Y-95915000D02*
X170085000Y-95215000D01*
X170085000Y-98735000D02*
X170085000Y-99435000D01*
%TO.C,C33*%
X172740580Y-110540000D02*
X172459420Y-110540000D01*
X172740580Y-111560000D02*
X172459420Y-111560000D01*
%TO.C,C46*%
X150727836Y-81940000D02*
X150512164Y-81940000D01*
X150727836Y-82660000D02*
X150512164Y-82660000D01*
%TO.C,U5*%
X165965000Y-102152500D02*
X166665000Y-102152500D01*
X165965000Y-102852500D02*
X165965000Y-102152500D01*
X165965000Y-105672500D02*
X165965000Y-106372500D01*
X165965000Y-106372500D02*
X166665000Y-106372500D01*
X169485000Y-106372500D02*
X170185000Y-106372500D01*
X170185000Y-102152500D02*
X169485000Y-102152500D01*
X170185000Y-102852500D02*
X170185000Y-102152500D01*
X170185000Y-105672500D02*
X170185000Y-106372500D01*
%TO.C,C12*%
X150907836Y-89790000D02*
X150692164Y-89790000D01*
X150907836Y-90510000D02*
X150692164Y-90510000D01*
%TO.C,R60*%
X153377500Y-106712742D02*
X153377500Y-107187258D01*
X154422500Y-106712742D02*
X154422500Y-107187258D01*
%TO.C,C36*%
X157557836Y-107540000D02*
X157342164Y-107540000D01*
X157557836Y-108260000D02*
X157342164Y-108260000D01*
%TO.C,C43*%
X159224664Y-75892500D02*
X159440336Y-75892500D01*
X159224664Y-76612500D02*
X159440336Y-76612500D01*
%TO.C,R28*%
X166096359Y-93820000D02*
X166403641Y-93820000D01*
X166096359Y-94580000D02*
X166403641Y-94580000D01*
%TO.C,C26*%
X155707836Y-106540000D02*
X155492164Y-106540000D01*
X155707836Y-107260000D02*
X155492164Y-107260000D01*
%TO.C,J2*%
X142695000Y-90586938D02*
X142695000Y-90886938D01*
X142695000Y-92506938D02*
X142695000Y-92886938D01*
X142695000Y-94506938D02*
X142695000Y-94886938D01*
X142695000Y-96506938D02*
X142695000Y-96886938D01*
X142695000Y-98506938D02*
X142695000Y-98886938D01*
X142695000Y-100506938D02*
X142695000Y-100886938D01*
X142695000Y-102506938D02*
X142695000Y-102886938D01*
X142695000Y-104506938D02*
X142695000Y-104886938D01*
X142695000Y-106506938D02*
X142695000Y-106886938D01*
X142695000Y-108506938D02*
X142695000Y-108886938D01*
X142695000Y-110506938D02*
X142695000Y-110806938D01*
X146915000Y-90586938D02*
X142695000Y-90586938D01*
X146915000Y-90586938D02*
X146915000Y-90886938D01*
X146915000Y-92506938D02*
X146915000Y-92886938D01*
X146915000Y-94506938D02*
X146915000Y-94886938D01*
X146915000Y-96506938D02*
X146915000Y-96886938D01*
X146915000Y-98506938D02*
X146915000Y-98886938D01*
X146915000Y-100506938D02*
X146915000Y-100886938D01*
X146915000Y-102506938D02*
X146915000Y-102886938D01*
X146915000Y-104506938D02*
X146915000Y-104886938D01*
X146915000Y-106506938D02*
X146915000Y-106886938D01*
X146915000Y-108506938D02*
X146915000Y-108886938D01*
X146915000Y-110506938D02*
X146915000Y-110806938D01*
X146915000Y-110806938D02*
X142695000Y-110806938D01*
%TO.C,C2*%
X145457836Y-118590000D02*
X145242164Y-118590000D01*
X145457836Y-119310000D02*
X145242164Y-119310000D01*
D16*
%TO.C,J1*%
X167628000Y-119276500D02*
X167628000Y-121664500D01*
X167628000Y-123626500D02*
X167628000Y-125477500D01*
X167628000Y-125477500D02*
X176772000Y-125477500D01*
X168469000Y-117984500D02*
X168106000Y-117984500D01*
X176294000Y-117984500D02*
X175931000Y-117984500D01*
X176772000Y-121664500D02*
X176772000Y-119276500D01*
X176772000Y-125477500D02*
X176772000Y-123626500D01*
D13*
%TO.C,C35*%
X184065580Y-111440000D02*
X183784420Y-111440000D01*
X184065580Y-112460000D02*
X183784420Y-112460000D01*
%TO.C,R37*%
X169677064Y-107390000D02*
X168222936Y-107390000D01*
X169677064Y-109210000D02*
X168222936Y-109210000D01*
%TO.C,C44*%
X157890336Y-79942500D02*
X157674664Y-79942500D01*
X157890336Y-80662500D02*
X157674664Y-80662500D01*
%TO.C,C17*%
X174912164Y-106540000D02*
X175127836Y-106540000D01*
X174912164Y-107260000D02*
X175127836Y-107260000D01*
%TO.C,C45*%
X178680000Y-92662164D02*
X178680000Y-92877836D01*
X179400000Y-92662164D02*
X179400000Y-92877836D01*
%TO.C,C11*%
X150840000Y-87792164D02*
X150840000Y-88007836D01*
X151560000Y-87792164D02*
X151560000Y-88007836D01*
%TO.C,Q2*%
X184040000Y-114800000D02*
X184040000Y-114000000D01*
X184040000Y-114800000D02*
X184040000Y-115600000D01*
X187160000Y-114800000D02*
X187160000Y-114000000D01*
X187160000Y-114800000D02*
X187160000Y-115600000D01*
%TO.C,R36*%
X173072936Y-107790000D02*
X174527064Y-107790000D01*
X173072936Y-109610000D02*
X174527064Y-109610000D01*
%TO.C,R48*%
X177812742Y-116327500D02*
X178287258Y-116327500D01*
X177812742Y-117372500D02*
X178287258Y-117372500D01*
%TO.C,J5*%
X150515000Y-109415000D02*
X150515000Y-111225000D01*
X150515000Y-113125000D02*
X150515000Y-119425000D01*
X150625000Y-109415000D02*
X150515000Y-109415000D01*
X163385000Y-109415000D02*
X152125000Y-109415000D01*
X163385000Y-110575000D02*
X163385000Y-109415000D01*
X163385000Y-113825000D02*
X163385000Y-119425000D01*
%TO.C,C16*%
X174942164Y-103090000D02*
X175157836Y-103090000D01*
X174942164Y-103810000D02*
X175157836Y-103810000D01*
%TO.C,C48*%
X162402164Y-107410000D02*
X162617836Y-107410000D01*
X162402164Y-108130000D02*
X162617836Y-108130000D01*
%TO.C,C40*%
X148942164Y-119740000D02*
X149157836Y-119740000D01*
X148942164Y-120460000D02*
X149157836Y-120460000D01*
%TO.C,C3*%
X168740000Y-115657836D02*
X168740000Y-115442164D01*
X169460000Y-115657836D02*
X169460000Y-115442164D01*
%TO.C,C1*%
X141890000Y-115107836D02*
X141890000Y-114892164D01*
X142610000Y-115107836D02*
X142610000Y-114892164D01*
%TO.C,Q3*%
X164052500Y-110400000D02*
X164052500Y-109750000D01*
X164052500Y-110400000D02*
X164052500Y-111050000D01*
X167172500Y-110400000D02*
X167172500Y-109750000D01*
X167172500Y-110400000D02*
X167172500Y-111050000D01*
D17*
%TO.C,U3*%
X152000000Y-86250000D02*
X152000000Y-86550000D01*
X152000000Y-92950000D02*
X152000000Y-93250000D01*
X152000000Y-93250000D02*
X152300000Y-93250000D01*
X152300000Y-86250000D02*
X152000000Y-86250000D01*
X158700000Y-86250000D02*
X159000000Y-86250000D01*
X159000000Y-86250000D02*
X159000000Y-86550000D01*
X159000000Y-92950000D02*
X159000000Y-93250000D01*
X159000000Y-93250000D02*
X158700000Y-93250000D01*
D13*
%TO.C,C9*%
X155742164Y-82990000D02*
X155957836Y-82990000D01*
X155742164Y-83710000D02*
X155957836Y-83710000D01*
%TO.C,R35*%
X173072936Y-104340000D02*
X174527064Y-104340000D01*
X173072936Y-106160000D02*
X174527064Y-106160000D01*
%TO.C,C6*%
X155742164Y-83990000D02*
X155957836Y-83990000D01*
X155742164Y-84710000D02*
X155957836Y-84710000D01*
%TO.C,C14*%
X174942164Y-96240000D02*
X175157836Y-96240000D01*
X174942164Y-96960000D02*
X175157836Y-96960000D01*
%TO.C,U14*%
X178740000Y-112340000D02*
X178740000Y-112490000D01*
X181800000Y-112290000D02*
X178800000Y-112290000D01*
X181800000Y-115510000D02*
X178800000Y-115510000D01*
%TO.C,R53*%
X182570000Y-114436359D02*
X182570000Y-114743641D01*
X183330000Y-114436359D02*
X183330000Y-114743641D01*
%TO.C,U6*%
X178225000Y-93827500D02*
X177425000Y-93827500D01*
X178225000Y-93827500D02*
X179025000Y-93827500D01*
X178225000Y-96947500D02*
X177425000Y-96947500D01*
X178225000Y-96947500D02*
X179025000Y-96947500D01*
D17*
%TO.C,IC1*%
X175320000Y-111790000D02*
X175320000Y-112255000D01*
X175320000Y-111790000D02*
X175785000Y-111790000D01*
X175320000Y-114010000D02*
X175320000Y-113545000D01*
X175785000Y-114010000D02*
X175320000Y-114010000D01*
X176715000Y-114010000D02*
X177180000Y-114010000D01*
X177180000Y-111790000D02*
X176715000Y-111790000D01*
X177180000Y-112255000D02*
X177180000Y-111790000D01*
X177180000Y-114010000D02*
X177180000Y-113545000D01*
D18*
X176950000Y-114600000D02*
G75*
G02*
X176750000Y-114600000I-100000J0D01*
G01*
X176750000Y-114600000D02*
G75*
G02*
X176950000Y-114600000I100000J0D01*
G01*
D13*
%TO.C,R27*%
X164570000Y-102396359D02*
X164570000Y-102703641D01*
X165330000Y-102396359D02*
X165330000Y-102703641D01*
%TO.C,R31*%
X165863641Y-106620000D02*
X165556359Y-106620000D01*
X165863641Y-107380000D02*
X165556359Y-107380000D01*
%TO.C,C18*%
X174942164Y-109990000D02*
X175157836Y-109990000D01*
X174942164Y-110710000D02*
X175157836Y-110710000D01*
%TO.C,R16*%
X155620000Y-94996359D02*
X155620000Y-95303641D01*
X156380000Y-94996359D02*
X156380000Y-95303641D01*
%TO.C,C24*%
X168392164Y-109590000D02*
X168607836Y-109590000D01*
X168392164Y-110310000D02*
X168607836Y-110310000D01*
%TO.C,U16*%
X161175000Y-77275000D02*
X177375000Y-77275000D01*
X161175000Y-77675000D02*
X161175000Y-77275000D01*
X161175000Y-93475000D02*
X161175000Y-93075000D01*
X161175000Y-93475000D02*
X177375000Y-93475000D01*
X177375000Y-77275000D02*
X177375000Y-77675000D01*
X177375000Y-93475000D02*
X177375000Y-93075000D01*
%TO.C,R33*%
X173110436Y-97540000D02*
X174564564Y-97540000D01*
X173110436Y-99360000D02*
X174564564Y-99360000D01*
%TO.C,U1*%
X143240000Y-111702500D02*
X143990000Y-111702500D01*
X143240000Y-112452500D02*
X143240000Y-111702500D01*
X143240000Y-117172500D02*
X143240000Y-117922500D01*
X143240000Y-117922500D02*
X143990000Y-117922500D01*
X148710000Y-117922500D02*
X149460066Y-117922500D01*
X149460000Y-111702500D02*
X148710000Y-111702500D01*
X149460000Y-112452500D02*
X149460000Y-111702500D01*
X149460000Y-117172500D02*
X149460000Y-117912500D01*
%TO.C,R2*%
X141646359Y-111320000D02*
X141953641Y-111320000D01*
X141646359Y-112080000D02*
X141953641Y-112080000D01*
%TO.C,R3*%
X141646359Y-113220000D02*
X141953641Y-113220000D01*
X141646359Y-113980000D02*
X141953641Y-113980000D01*
%TO.C,C13*%
X150907836Y-90790000D02*
X150692164Y-90790000D01*
X150907836Y-91510000D02*
X150692164Y-91510000D01*
%TO.C,C34*%
X164240000Y-118392164D02*
X164240000Y-118607836D01*
X164960000Y-118392164D02*
X164960000Y-118607836D01*
%TO.C,U8*%
X178200000Y-100677500D02*
X177400000Y-100677500D01*
X178200000Y-100677500D02*
X179000000Y-100677500D01*
X178200000Y-103797500D02*
X177400000Y-103797500D01*
X178200000Y-103797500D02*
X179000000Y-103797500D01*
%TO.C,C51*%
X172761252Y-112115000D02*
X172238748Y-112115000D01*
X172761252Y-113585000D02*
X172238748Y-113585000D01*
%TO.C,U7*%
X178225000Y-97277500D02*
X177425000Y-97277500D01*
X178225000Y-97277500D02*
X179025000Y-97277500D01*
X178225000Y-100397500D02*
X177425000Y-100397500D01*
X178225000Y-100397500D02*
X179025000Y-100397500D01*
%TO.C,C42*%
X148942164Y-120690000D02*
X149157836Y-120690000D01*
X148942164Y-121410000D02*
X149157836Y-121410000D01*
%TO.C,R15*%
X154620000Y-94996359D02*
X154620000Y-95303641D01*
X155380000Y-94996359D02*
X155380000Y-95303641D01*
%TO.C,U2*%
X170732500Y-114925000D02*
X170732500Y-116225000D01*
X172712500Y-114925000D02*
X172712500Y-116225000D01*
%TO.C,C10*%
X149840000Y-87592164D02*
X149840000Y-87807836D01*
X150560000Y-87592164D02*
X150560000Y-87807836D01*
%TO.C,R25*%
X170420000Y-101756359D02*
X170420000Y-102063641D01*
X171180000Y-101756359D02*
X171180000Y-102063641D01*
%TO.C,R30*%
X165763641Y-99670000D02*
X165456359Y-99670000D01*
X165763641Y-100430000D02*
X165456359Y-100430000D01*
%TO.C,C15*%
X174962164Y-99690000D02*
X175177836Y-99690000D01*
X174962164Y-100410000D02*
X175177836Y-100410000D01*
%TO.C,R1*%
X141646359Y-112270000D02*
X141953641Y-112270000D01*
X141646359Y-113030000D02*
X141953641Y-113030000D01*
%TO.C,J3*%
X183085000Y-90586938D02*
X183085000Y-90886938D01*
X183085000Y-92506938D02*
X183085000Y-92886938D01*
X183085000Y-94506938D02*
X183085000Y-94886938D01*
X183085000Y-96506938D02*
X183085000Y-96886938D01*
X183085000Y-98506938D02*
X183085000Y-98886938D01*
X183085000Y-100506938D02*
X183085000Y-100886938D01*
X183085000Y-102506938D02*
X183085000Y-102886938D01*
X183085000Y-104506938D02*
X183085000Y-104886938D01*
X183085000Y-106506938D02*
X183085000Y-106886938D01*
X183085000Y-108506938D02*
X183085000Y-108886938D01*
X183085000Y-110506938D02*
X183085000Y-110806938D01*
X187305000Y-90586938D02*
X183085000Y-90586938D01*
X187305000Y-90586938D02*
X187305000Y-90886938D01*
X187305000Y-92506938D02*
X187305000Y-92886938D01*
X187305000Y-94506938D02*
X187305000Y-94886938D01*
X187305000Y-96506938D02*
X187305000Y-96886938D01*
X187305000Y-98506938D02*
X187305000Y-98886938D01*
X187305000Y-100506938D02*
X187305000Y-100886938D01*
X187305000Y-102506938D02*
X187305000Y-102886938D01*
X187305000Y-104506938D02*
X187305000Y-104886938D01*
X187305000Y-106506938D02*
X187305000Y-106886938D01*
X187305000Y-108506938D02*
X187305000Y-108886938D01*
X187305000Y-110506938D02*
X187305000Y-110806938D01*
X187305000Y-110806938D02*
X183085000Y-110806938D01*
%TO.C,C8*%
X155742164Y-81990000D02*
X155957836Y-81990000D01*
X155742164Y-82710000D02*
X155957836Y-82710000D01*
%TD*%
M02*
