%TF.GenerationSoftware,KiCad,Pcbnew,9.0.6*%
%TF.CreationDate,2025-11-10T09:30:47+01:00*%
%TF.ProjectId,gaia_obc,67616961-5f6f-4626-932e-6b696361645f,10*%
%TF.SameCoordinates,Original*%
%TF.FileFunction,Legend,Bot*%
%TF.FilePolarity,Positive*%
%FSLAX46Y46*%
G04 Gerber Fmt 4.6, Leading zero omitted, Abs format (unit mm)*
G04 Created by KiCad (PCBNEW 9.0.6) date 2025-11-10 09:30:47*
%MOMM*%
%LPD*%
G01*
G04 APERTURE LIST*
%ADD10C,0.017999*%
%ADD11C,0.254000*%
%ADD12C,0.120000*%
%ADD13C,0.100000*%
%ADD14C,0.127000*%
G04 APERTURE END LIST*
D10*
X152816675Y-77783326D02*
X153546562Y-78091663D01*
X152816675Y-78400000D01*
X152508337Y-79129888D01*
X152200000Y-78400000D01*
X151470113Y-78091663D01*
X152200000Y-77783326D01*
X152508337Y-77053438D01*
X152816675Y-77783326D01*
G36*
X152816675Y-77783326D02*
G01*
X153546562Y-78091663D01*
X152816675Y-78400000D01*
X152508337Y-79129888D01*
X152200000Y-78400000D01*
X151470113Y-78091663D01*
X152200000Y-77783326D01*
X152508337Y-77053438D01*
X152816675Y-77783326D01*
G37*
D11*
%TO.C,AE1*%
X143600862Y-84126346D02*
X148267767Y-79459441D01*
X144873654Y-85399138D02*
X149540559Y-80732233D01*
X148694544Y-80555456D02*
G75*
G02*
X148194544Y-80555456I-250000J0D01*
G01*
X148194544Y-80555456D02*
G75*
G02*
X148694544Y-80555456I250000J0D01*
G01*
%TO.C,U18*%
X158662500Y-96229000D02*
X158662500Y-95181500D01*
X158662500Y-96279000D02*
X151512500Y-96279000D01*
X158662500Y-105279000D02*
X151412500Y-105279000D01*
X158904500Y-105521000D02*
X158904500Y-106568000D01*
X159912500Y-94679000D02*
X159562500Y-94679000D01*
X163912500Y-94679000D02*
X159912500Y-94679000D01*
X163912500Y-94679000D02*
X163912500Y-96248000D01*
X163912500Y-105510000D02*
X163912500Y-107079000D01*
X163912500Y-107079000D02*
X159912500Y-107079000D01*
X158662500Y-95181500D02*
G75*
G02*
X159670500Y-94671000I1007477J-738882D01*
G01*
X158662500Y-105279000D02*
G75*
G02*
X158904500Y-105521000I0J-242000D01*
G01*
X159912500Y-107079000D02*
G75*
G02*
X158904499Y-106568001I-140J1249420D01*
G01*
D12*
%TO.C,R34*%
X173072936Y-100940000D02*
X174527064Y-100940000D01*
X173072936Y-102760000D02*
X174527064Y-102760000D01*
%TO.C,R5*%
X169667500Y-115728641D02*
X169667500Y-115421359D01*
X170427500Y-115728641D02*
X170427500Y-115421359D01*
%TO.C,C5*%
X156200000Y-77512164D02*
X156200000Y-77727836D01*
X156920000Y-77512164D02*
X156920000Y-77727836D01*
%TO.C,U13*%
X164090000Y-115512500D02*
X164090000Y-114712500D01*
X164090000Y-115512500D02*
X164090000Y-116312500D01*
X167210000Y-115512500D02*
X167210000Y-114712500D01*
X167210000Y-115512500D02*
X167210000Y-116312500D01*
%TO.C,R26*%
X164470000Y-95446359D02*
X164470000Y-95753641D01*
X165230000Y-95446359D02*
X165230000Y-95753641D01*
%TO.C,R4*%
X173470000Y-115886359D02*
X173470000Y-116193641D01*
X174230000Y-115886359D02*
X174230000Y-116193641D01*
%TO.C,C25*%
X155492164Y-107510000D02*
X155707836Y-107510000D01*
X155492164Y-108230000D02*
X155707836Y-108230000D01*
%TO.C,C38*%
X157342164Y-106540000D02*
X157557836Y-106540000D01*
X157342164Y-107260000D02*
X157557836Y-107260000D01*
%TO.C,R17*%
X152620000Y-94996359D02*
X152620000Y-95303641D01*
X153380000Y-94996359D02*
X153380000Y-95303641D01*
%TO.C,C39*%
X178740000Y-86772164D02*
X178740000Y-86987836D01*
X179460000Y-86772164D02*
X179460000Y-86987836D01*
%TO.C,R20*%
X151620000Y-94996359D02*
X151620000Y-95303641D01*
X152380000Y-94996359D02*
X152380000Y-95303641D01*
%TO.C,C47*%
X150532164Y-84800000D02*
X150747836Y-84800000D01*
X150532164Y-85520000D02*
X150747836Y-85520000D01*
%TO.C,U11*%
X167477500Y-112500000D02*
X167477500Y-111700000D01*
X167477500Y-112500000D02*
X167477500Y-113300000D01*
X170597500Y-112500000D02*
X170597500Y-111700000D01*
X170597500Y-112500000D02*
X170597500Y-113300000D01*
D13*
%TO.C,U17*%
X157182500Y-76902500D02*
X157182500Y-77052500D01*
X157182500Y-79602500D02*
X157182500Y-79452500D01*
X157182500Y-79602500D02*
X157332500Y-79602500D01*
X157332500Y-76902500D02*
X157182500Y-76902500D01*
X159882500Y-76902500D02*
X159732500Y-76902500D01*
X159882500Y-76902500D02*
X159882500Y-77052500D01*
X159882500Y-79602500D02*
X159882500Y-79452500D01*
X159882500Y-79612500D02*
X159732500Y-79612500D01*
D12*
%TO.C,Q2*%
X183590000Y-114800000D02*
X183590000Y-114000000D01*
X183590000Y-114800000D02*
X183590000Y-115600000D01*
X186710000Y-114800000D02*
X186710000Y-114000000D01*
X186710000Y-114800000D02*
X186710000Y-115600000D01*
%TO.C,R32*%
X173122936Y-94090000D02*
X174577064Y-94090000D01*
X173122936Y-95910000D02*
X174577064Y-95910000D01*
%TO.C,R24*%
X170330000Y-94766359D02*
X170330000Y-95073641D01*
X171090000Y-94766359D02*
X171090000Y-95073641D01*
%TO.C,U12*%
X181737500Y-118485001D02*
X180937500Y-118485001D01*
X181737500Y-118485001D02*
X182537500Y-118485001D01*
X181737500Y-121605001D02*
X180937500Y-121605001D01*
X181737500Y-121605001D02*
X182537500Y-121605001D01*
%TO.C,J6*%
X180925000Y-83835000D02*
X181565000Y-83835000D01*
X180975000Y-86555000D02*
X183675000Y-86555000D01*
X183725000Y-83835000D02*
X183085000Y-83835000D01*
%TO.C,C4*%
X183315580Y-111515000D02*
X183034420Y-111515000D01*
X183315580Y-112535000D02*
X183034420Y-112535000D01*
%TO.C,R29*%
X166196359Y-100770000D02*
X166503641Y-100770000D01*
X166196359Y-101530000D02*
X166503641Y-101530000D01*
%TO.C,R53*%
X180270000Y-113703641D02*
X180270000Y-113396359D01*
X181030000Y-113703641D02*
X181030000Y-113396359D01*
%TO.C,R13*%
X154070000Y-83746359D02*
X154070000Y-84053641D01*
X154830000Y-83746359D02*
X154830000Y-84053641D01*
%TO.C,U10*%
X178200000Y-107490000D02*
X177400000Y-107490000D01*
X178200000Y-107490000D02*
X179000000Y-107490000D01*
X178200000Y-110610000D02*
X177400000Y-110610000D01*
X178200000Y-110610000D02*
X179000000Y-110610000D01*
%TO.C,R18*%
X156620000Y-94996359D02*
X156620000Y-95303641D01*
X157380000Y-94996359D02*
X157380000Y-95303641D01*
%TO.C,U9*%
X178200000Y-104090000D02*
X177400000Y-104090000D01*
X178200000Y-104090000D02*
X179000000Y-104090000D01*
X178200000Y-107210000D02*
X177400000Y-107210000D01*
X178200000Y-107210000D02*
X179000000Y-107210000D01*
%TO.C,R14*%
X153620000Y-94996359D02*
X153620000Y-95303641D01*
X154380000Y-94996359D02*
X154380000Y-95303641D01*
%TO.C,R23*%
X157620000Y-94996359D02*
X157620000Y-95303641D01*
X158380000Y-94996359D02*
X158380000Y-95303641D01*
%TO.C,R59*%
X166553641Y-112620000D02*
X166246359Y-112620000D01*
X166553641Y-113380000D02*
X166246359Y-113380000D01*
%TO.C,U4*%
X165865000Y-95215000D02*
X166565000Y-95215000D01*
X165865000Y-95915000D02*
X165865000Y-95215000D01*
X165865000Y-98735000D02*
X165865000Y-99435000D01*
X165865000Y-99435000D02*
X166565000Y-99435000D01*
X169385000Y-99435000D02*
X170085000Y-99435000D01*
X170085000Y-95215000D02*
X169385000Y-95215000D01*
X170085000Y-95915000D02*
X170085000Y-95215000D01*
X170085000Y-98735000D02*
X170085000Y-99435000D01*
%TO.C,C46*%
X150727836Y-81940000D02*
X150512164Y-81940000D01*
X150727836Y-82660000D02*
X150512164Y-82660000D01*
%TO.C,U5*%
X165965000Y-102152500D02*
X166665000Y-102152500D01*
X165965000Y-102852500D02*
X165965000Y-102152500D01*
X165965000Y-105672500D02*
X165965000Y-106372500D01*
X165965000Y-106372500D02*
X166665000Y-106372500D01*
X169485000Y-106372500D02*
X170185000Y-106372500D01*
X170185000Y-102152500D02*
X169485000Y-102152500D01*
X170185000Y-102852500D02*
X170185000Y-102152500D01*
X170185000Y-105672500D02*
X170185000Y-106372500D01*
%TO.C,C12*%
X150907836Y-89790000D02*
X150692164Y-89790000D01*
X150907836Y-90510000D02*
X150692164Y-90510000D01*
%TO.C,R60*%
X153377500Y-106712742D02*
X153377500Y-107187258D01*
X154422500Y-106712742D02*
X154422500Y-107187258D01*
%TO.C,C36*%
X157557836Y-107540000D02*
X157342164Y-107540000D01*
X157557836Y-108260000D02*
X157342164Y-108260000D01*
%TO.C,C43*%
X159224664Y-75892500D02*
X159440336Y-75892500D01*
X159224664Y-76612500D02*
X159440336Y-76612500D01*
%TO.C,R28*%
X166096359Y-93820000D02*
X166403641Y-93820000D01*
X166096359Y-94580000D02*
X166403641Y-94580000D01*
%TO.C,C26*%
X155707836Y-106540000D02*
X155492164Y-106540000D01*
X155707836Y-107260000D02*
X155492164Y-107260000D01*
%TO.C,J2*%
X142695000Y-90586938D02*
X142695000Y-90886938D01*
X142695000Y-92506938D02*
X142695000Y-92886938D01*
X142695000Y-94506938D02*
X142695000Y-94886938D01*
X142695000Y-96506938D02*
X142695000Y-96886938D01*
X142695000Y-98506938D02*
X142695000Y-98886938D01*
X142695000Y-100506938D02*
X142695000Y-100886938D01*
X142695000Y-102506938D02*
X142695000Y-102886938D01*
X142695000Y-104506938D02*
X142695000Y-104886938D01*
X142695000Y-106506938D02*
X142695000Y-106886938D01*
X142695000Y-108506938D02*
X142695000Y-108886938D01*
X142695000Y-110506938D02*
X142695000Y-110806938D01*
X146915000Y-90586938D02*
X142695000Y-90586938D01*
X146915000Y-90586938D02*
X146915000Y-90886938D01*
X146915000Y-92506938D02*
X146915000Y-92886938D01*
X146915000Y-94506938D02*
X146915000Y-94886938D01*
X146915000Y-96506938D02*
X146915000Y-96886938D01*
X146915000Y-98506938D02*
X146915000Y-98886938D01*
X146915000Y-100506938D02*
X146915000Y-100886938D01*
X146915000Y-102506938D02*
X146915000Y-102886938D01*
X146915000Y-104506938D02*
X146915000Y-104886938D01*
X146915000Y-106506938D02*
X146915000Y-106886938D01*
X146915000Y-108506938D02*
X146915000Y-108886938D01*
X146915000Y-110506938D02*
X146915000Y-110806938D01*
X146915000Y-110806938D02*
X142695000Y-110806938D01*
%TO.C,C2*%
X145457836Y-118590000D02*
X145242164Y-118590000D01*
X145457836Y-119310000D02*
X145242164Y-119310000D01*
D11*
%TO.C,J1*%
X167628000Y-119276500D02*
X167628000Y-121664500D01*
X167628000Y-123626500D02*
X167628000Y-125477500D01*
X167628000Y-125477500D02*
X176772000Y-125477500D01*
X168469000Y-117984500D02*
X168106000Y-117984500D01*
X176294000Y-117984500D02*
X175931000Y-117984500D01*
X176772000Y-121664500D02*
X176772000Y-119276500D01*
X176772000Y-125477500D02*
X176772000Y-123626500D01*
D12*
%TO.C,R37*%
X169877064Y-107390000D02*
X168422936Y-107390000D01*
X169877064Y-109210000D02*
X168422936Y-109210000D01*
%TO.C,C44*%
X157890336Y-79942500D02*
X157674664Y-79942500D01*
X157890336Y-80662500D02*
X157674664Y-80662500D01*
%TO.C,C17*%
X174912164Y-106540000D02*
X175127836Y-106540000D01*
X174912164Y-107260000D02*
X175127836Y-107260000D01*
%TO.C,C45*%
X178680000Y-92662164D02*
X178680000Y-92877836D01*
X179400000Y-92662164D02*
X179400000Y-92877836D01*
%TO.C,C11*%
X150840000Y-87792164D02*
X150840000Y-88007836D01*
X151560000Y-87792164D02*
X151560000Y-88007836D01*
%TO.C,R36*%
X173072936Y-107790000D02*
X174527064Y-107790000D01*
X173072936Y-109610000D02*
X174527064Y-109610000D01*
%TO.C,J5*%
X150515000Y-109415000D02*
X150515000Y-111225000D01*
X150515000Y-113125000D02*
X150515000Y-119425000D01*
X150625000Y-109415000D02*
X150515000Y-109415000D01*
X163385000Y-109415000D02*
X152125000Y-109415000D01*
X163385000Y-110575000D02*
X163385000Y-109415000D01*
X163385000Y-113825000D02*
X163385000Y-119425000D01*
%TO.C,C16*%
X174942164Y-103090000D02*
X175157836Y-103090000D01*
X174942164Y-103810000D02*
X175157836Y-103810000D01*
%TO.C,U14*%
X176465000Y-112740000D02*
X176465000Y-112890000D01*
X179525000Y-112690000D02*
X176525000Y-112690000D01*
X179525000Y-115910000D02*
X176525000Y-115910000D01*
%TO.C,R48*%
X177812742Y-116327500D02*
X178287258Y-116327500D01*
X177812742Y-117372500D02*
X178287258Y-117372500D01*
%TO.C,C48*%
X162402164Y-107410000D02*
X162617836Y-107410000D01*
X162402164Y-108130000D02*
X162617836Y-108130000D01*
%TO.C,C40*%
X148942164Y-119740000D02*
X149157836Y-119740000D01*
X148942164Y-120460000D02*
X149157836Y-120460000D01*
%TO.C,C3*%
X168740000Y-115657836D02*
X168740000Y-115442164D01*
X169460000Y-115657836D02*
X169460000Y-115442164D01*
%TO.C,C1*%
X141890000Y-115107836D02*
X141890000Y-114892164D01*
X142610000Y-115107836D02*
X142610000Y-114892164D01*
%TO.C,Q3*%
X164052500Y-110400000D02*
X164052500Y-109750000D01*
X164052500Y-110400000D02*
X164052500Y-111050000D01*
X167172500Y-110400000D02*
X167172500Y-109750000D01*
X167172500Y-110400000D02*
X167172500Y-111050000D01*
D14*
%TO.C,U3*%
X152000000Y-86250000D02*
X152000000Y-86550000D01*
X152000000Y-92950000D02*
X152000000Y-93250000D01*
X152000000Y-93250000D02*
X152300000Y-93250000D01*
X152300000Y-86250000D02*
X152000000Y-86250000D01*
X158700000Y-86250000D02*
X159000000Y-86250000D01*
X159000000Y-86250000D02*
X159000000Y-86550000D01*
X159000000Y-92950000D02*
X159000000Y-93250000D01*
X159000000Y-93250000D02*
X158700000Y-93250000D01*
D12*
%TO.C,C9*%
X155742164Y-82990000D02*
X155957836Y-82990000D01*
X155742164Y-83710000D02*
X155957836Y-83710000D01*
%TO.C,R35*%
X173072936Y-104340000D02*
X174527064Y-104340000D01*
X173072936Y-106160000D02*
X174527064Y-106160000D01*
%TO.C,C6*%
X155742164Y-83990000D02*
X155957836Y-83990000D01*
X155742164Y-84710000D02*
X155957836Y-84710000D01*
%TO.C,C14*%
X174942164Y-96240000D02*
X175157836Y-96240000D01*
X174942164Y-96960000D02*
X175157836Y-96960000D01*
%TO.C,U6*%
X178225000Y-93827500D02*
X177425000Y-93827500D01*
X178225000Y-93827500D02*
X179025000Y-93827500D01*
X178225000Y-96947500D02*
X177425000Y-96947500D01*
X178225000Y-96947500D02*
X179025000Y-96947500D01*
%TO.C,R27*%
X164570000Y-102396359D02*
X164570000Y-102703641D01*
X165330000Y-102396359D02*
X165330000Y-102703641D01*
%TO.C,R31*%
X165863641Y-106620000D02*
X165556359Y-106620000D01*
X165863641Y-107380000D02*
X165556359Y-107380000D01*
%TO.C,R51*%
X187152500Y-113987742D02*
X187152500Y-114462258D01*
X188197500Y-113987742D02*
X188197500Y-114462258D01*
%TO.C,C18*%
X174942164Y-109990000D02*
X175157836Y-109990000D01*
X174942164Y-110710000D02*
X175157836Y-110710000D01*
%TO.C,R16*%
X155620000Y-94996359D02*
X155620000Y-95303641D01*
X156380000Y-94996359D02*
X156380000Y-95303641D01*
%TO.C,R55*%
X176112742Y-111127500D02*
X176587258Y-111127500D01*
X176112742Y-112172500D02*
X176587258Y-112172500D01*
%TO.C,C24*%
X168392164Y-109590000D02*
X168607836Y-109590000D01*
X168392164Y-110310000D02*
X168607836Y-110310000D01*
%TO.C,U16*%
X161175000Y-77275000D02*
X177375000Y-77275000D01*
X161175000Y-77675000D02*
X161175000Y-77275000D01*
X161175000Y-93475000D02*
X161175000Y-93075000D01*
X161175000Y-93475000D02*
X177375000Y-93475000D01*
X177375000Y-77275000D02*
X177375000Y-77675000D01*
X177375000Y-93475000D02*
X177375000Y-93075000D01*
%TO.C,R33*%
X173110436Y-97540000D02*
X174564564Y-97540000D01*
X173110436Y-99360000D02*
X174564564Y-99360000D01*
%TO.C,U1*%
X143240000Y-111702500D02*
X143990000Y-111702500D01*
X143240000Y-112452500D02*
X143240000Y-111702500D01*
X143240000Y-117172500D02*
X143240000Y-117922500D01*
X143240000Y-117922500D02*
X143990000Y-117922500D01*
X148710000Y-117922500D02*
X149460066Y-117922500D01*
X149460000Y-111702500D02*
X148710000Y-111702500D01*
X149460000Y-112452500D02*
X149460000Y-111702500D01*
X149460000Y-117172500D02*
X149460000Y-117912500D01*
%TO.C,R2*%
X141646359Y-111320000D02*
X141953641Y-111320000D01*
X141646359Y-112080000D02*
X141953641Y-112080000D01*
%TO.C,R54*%
X172787258Y-110127500D02*
X172312742Y-110127500D01*
X172787258Y-111172500D02*
X172312742Y-111172500D01*
%TO.C,C32*%
X178765000Y-120462164D02*
X178765000Y-120677836D01*
X179485000Y-120462164D02*
X179485000Y-120677836D01*
%TO.C,R3*%
X141646359Y-113220000D02*
X141953641Y-113220000D01*
X141646359Y-113980000D02*
X141953641Y-113980000D01*
%TO.C,C13*%
X150907836Y-90790000D02*
X150692164Y-90790000D01*
X150907836Y-91510000D02*
X150692164Y-91510000D01*
%TO.C,C34*%
X164240000Y-118392164D02*
X164240000Y-118607836D01*
X164960000Y-118392164D02*
X164960000Y-118607836D01*
%TO.C,U8*%
X178200000Y-100677500D02*
X177400000Y-100677500D01*
X178200000Y-100677500D02*
X179000000Y-100677500D01*
X178200000Y-103797500D02*
X177400000Y-103797500D01*
X178200000Y-103797500D02*
X179000000Y-103797500D01*
%TO.C,U7*%
X178225000Y-97277500D02*
X177425000Y-97277500D01*
X178225000Y-97277500D02*
X179025000Y-97277500D01*
X178225000Y-100397500D02*
X177425000Y-100397500D01*
X178225000Y-100397500D02*
X179025000Y-100397500D01*
%TO.C,C42*%
X148942164Y-120690000D02*
X149157836Y-120690000D01*
X148942164Y-121410000D02*
X149157836Y-121410000D01*
%TO.C,R15*%
X154620000Y-94996359D02*
X154620000Y-95303641D01*
X155380000Y-94996359D02*
X155380000Y-95303641D01*
%TO.C,U2*%
X170732500Y-114925000D02*
X170732500Y-116225000D01*
X172712500Y-114925000D02*
X172712500Y-116225000D01*
%TO.C,C10*%
X149840000Y-87592164D02*
X149840000Y-87807836D01*
X150560000Y-87592164D02*
X150560000Y-87807836D01*
%TO.C,R25*%
X170420000Y-101756359D02*
X170420000Y-102063641D01*
X171180000Y-101756359D02*
X171180000Y-102063641D01*
%TO.C,R30*%
X165763641Y-99670000D02*
X165456359Y-99670000D01*
X165763641Y-100430000D02*
X165456359Y-100430000D01*
%TO.C,C15*%
X174962164Y-99690000D02*
X175177836Y-99690000D01*
X174962164Y-100410000D02*
X175177836Y-100410000D01*
%TO.C,R1*%
X141646359Y-112270000D02*
X141953641Y-112270000D01*
X141646359Y-113030000D02*
X141953641Y-113030000D01*
%TO.C,J3*%
X183085000Y-90586938D02*
X183085000Y-90886938D01*
X183085000Y-92506938D02*
X183085000Y-92886938D01*
X183085000Y-94506938D02*
X183085000Y-94886938D01*
X183085000Y-96506938D02*
X183085000Y-96886938D01*
X183085000Y-98506938D02*
X183085000Y-98886938D01*
X183085000Y-100506938D02*
X183085000Y-100886938D01*
X183085000Y-102506938D02*
X183085000Y-102886938D01*
X183085000Y-104506938D02*
X183085000Y-104886938D01*
X183085000Y-106506938D02*
X183085000Y-106886938D01*
X183085000Y-108506938D02*
X183085000Y-108886938D01*
X183085000Y-110506938D02*
X183085000Y-110806938D01*
X187305000Y-90586938D02*
X183085000Y-90586938D01*
X187305000Y-90586938D02*
X187305000Y-90886938D01*
X187305000Y-92506938D02*
X187305000Y-92886938D01*
X187305000Y-94506938D02*
X187305000Y-94886938D01*
X187305000Y-96506938D02*
X187305000Y-96886938D01*
X187305000Y-98506938D02*
X187305000Y-98886938D01*
X187305000Y-100506938D02*
X187305000Y-100886938D01*
X187305000Y-102506938D02*
X187305000Y-102886938D01*
X187305000Y-104506938D02*
X187305000Y-104886938D01*
X187305000Y-106506938D02*
X187305000Y-106886938D01*
X187305000Y-108506938D02*
X187305000Y-108886938D01*
X187305000Y-110506938D02*
X187305000Y-110806938D01*
X187305000Y-110806938D02*
X183085000Y-110806938D01*
%TO.C,C8*%
X155742164Y-81990000D02*
X155957836Y-81990000D01*
X155742164Y-82710000D02*
X155957836Y-82710000D01*
%TO.C,C35*%
X182040580Y-115915000D02*
X181759420Y-115915000D01*
X182040580Y-116935000D02*
X181759420Y-116935000D01*
%TD*%
M02*
