M48
; DRILL file {KiCad 9.0.6} date 2025-11-09T21:52:46+0100
; FORMAT={-:-/ absolute / metric / decimal}
; #@! TF.CreationDate,2025-11-09T21:52:46+01:00
; #@! TF.GenerationSoftware,Kicad,Pcbnew,9.0.6
; #@! TF.FileFunction,Plated,1,8,PTH
FMAT,2
METRIC
; #@! TA.AperFunction,Plated,PTH,ViaDrill
T1C0.300
; #@! TA.AperFunction,Plated,PTH,ViaDrill
T2C0.400
%
G90
G05
T1
X140.87Y-95.48
X140.88Y-91.33
X140.95Y-105.9
X140.951Y-110.082
X140.96Y-101.71
X140.96Y-103.78
X140.97Y-114.79
X140.98Y-97.569
X141.05Y-102.775
X141.29Y-113.6
X141.682Y-110.987
X141.71Y-87.1
X142.25Y-114.52
X142.25Y-115.48
X142.31Y-116.25
X143.41Y-90.5
X143.572Y-100.548
X143.63Y-117.48
X143.7Y-82.56
X144.24Y-87.41
X144.3Y-92.45
X144.55Y-96.5
X144.787Y-116.375
X144.812Y-114.825
X144.812Y-115.6
X144.838Y-113.275
X144.838Y-114.05
X144.87Y-118.95
X145.008Y-109.111
X145.05Y-90.45
X145.06Y-94.47
X145.556Y-116.375
X145.581Y-114.825
X145.581Y-115.6
X145.606Y-113.275
X145.606Y-114.05
X145.65Y-98.747
X145.65Y-110.9
X145.83Y-118.95
X145.91Y-106.68
X146.01Y-119.84
X146.29Y-89.25
X146.325Y-116.375
X146.35Y-114.825
X146.35Y-115.6
X146.375Y-113.275
X146.375Y-114.05
X146.392Y-110.788
X146.89Y-91.697
X146.89Y-94.7
X147.016Y-119.886
X147.05Y-89.69
X147.094Y-116.375
X147.119Y-114.825
X147.119Y-115.6
X147.144Y-113.275
X147.144Y-114.05
X147.16Y-84.83
X147.18Y-110.88
X147.39Y-78.81
X147.81Y-106.71
X147.862Y-116.375
X147.887Y-114.825
X147.887Y-115.6
X147.912Y-113.275
X147.912Y-114.05
X148.05Y-88.14
X148.119Y-110.862
X148.17Y-104.74
X148.212Y-92.748
X148.57Y-120.1
X148.57Y-121.05
X148.597Y-93.697
X148.926Y-110.976
X149.0Y-88.14
X149.1Y-105.8
X149.3Y-87.3
X149.4Y-82.3
X149.53Y-120.1
X149.53Y-121.05
X149.7Y-103.7
X149.998Y-114.154
X150.018Y-85.9
X150.85Y-116.8
X151.2Y-88.38
X151.32Y-123.62
X151.325Y-120.425
X151.55Y-113.9
X152.0Y-94.64
X152.0Y-98.4
X152.24Y-99.59
X152.264Y-112.88
X152.863Y-111.438
X152.95Y-92.2
X153.0Y-94.64
X153.0Y-95.66
X153.1Y-87.29
X153.12Y-80.25
X153.565Y-118.25
X153.694Y-112.305
X153.79Y-113.02
X153.9Y-106.125
X153.918Y-97.119
X154.0Y-94.64
X154.1Y-88.25
X154.1Y-88.85
X154.1Y-89.45
X154.1Y-90.05
X154.1Y-90.65
X154.1Y-91.25
X154.2Y-78.64
X154.308Y-85.233
X154.45Y-83.39
X154.45Y-84.41
X154.77Y-123.49
X154.8Y-88.25
X154.8Y-88.85
X154.8Y-89.45
X154.8Y-90.05
X154.8Y-90.65
X154.8Y-91.25
X154.82Y-92.29
X154.88Y-120.61
X154.963Y-97.113
X155.0Y-94.64
X155.25Y-85.2
X155.375Y-116.8
X155.41Y-104.53
X155.45Y-110.59
X155.5Y-88.25
X155.5Y-88.85
X155.5Y-89.45
X155.5Y-90.05
X155.5Y-90.65
X155.5Y-91.25
X155.747Y-85.777
X155.835Y-87.3
X155.9Y-109.65
X156.0Y-94.64
X156.2Y-88.25
X156.2Y-88.85
X156.2Y-89.45
X156.2Y-90.05
X156.2Y-90.65
X156.2Y-91.25
X156.497Y-85.756
X156.56Y-77.14
X156.56Y-78.1
X156.8Y-100.5
X156.9Y-87.15
X156.9Y-88.25
X156.9Y-88.85
X156.9Y-89.45
X156.9Y-90.05
X156.9Y-90.65
X156.9Y-91.25
X156.97Y-106.9
X157.0Y-94.64
X157.028Y-120.597
X157.124Y-83.35
X157.125Y-84.188
X157.15Y-118.6
X157.302Y-80.302
X157.399Y-81.301
X157.55Y-76.5
X157.625Y-117.025
X157.93Y-106.89
X157.94Y-104.68
X158.0Y-94.64
X158.07Y-89.63
X158.07Y-90.37
X158.075Y-91.064
X158.078Y-91.776
X158.102Y-88.672
X158.132Y-87.948
X158.22Y-112.55
X158.262Y-80.302
X158.27Y-118.44
X158.43Y-103.83
X158.675Y-84.949
X158.75Y-93.05
X158.826Y-80.927
X158.852Y-76.252
X158.95Y-94.655
X158.989Y-82.971
X158.999Y-93.715
X159.275Y-120.55
X159.28Y-124.26
X159.555Y-89.325
X159.6Y-86.7
X159.6Y-87.55
X159.81Y-91.187
X159.812Y-76.252
X160.24Y-81.375
X160.3Y-98.632
X160.375Y-120.55
X160.45Y-107.2
X160.9Y-100.85
X161.05Y-98.632
X161.2Y-105.05
X161.2Y-112.72
X161.28Y-101.585
X161.8Y-109.98
X161.94Y-93.46
X162.125Y-95.128
X162.95Y-112.85
X163.0Y-106.91
X163.07Y-124.52
X163.12Y-115.84
X163.125Y-117.025
X163.15Y-95.128
X163.375Y-89.36
X163.73Y-118.37
X163.865Y-78.515
X163.95Y-90.6
X164.475Y-96.99
X164.475Y-97.74
X164.49Y-123.95
X164.53Y-80.68
X164.6Y-83.06
X164.661Y-110.976
X164.849Y-95.089
X164.955Y-102.037
X165.1Y-100.05
X165.162Y-103.938
X165.181Y-104.687
X165.2Y-107.0
X165.6Y-78.52
X165.63Y-109.54
X165.654Y-116.293
X165.74Y-94.2
X165.839Y-101.151
X166.01Y-106.05
X166.12Y-100.05
X166.22Y-107.0
X166.55Y-118.45
X166.875Y-109.525
X167.25Y-118.45
X167.35Y-96.7
X167.35Y-97.35
X167.35Y-98.0
X167.449Y-100.25
X167.45Y-103.6
X167.45Y-104.25
X167.45Y-104.9
X167.559Y-112.657
X167.65Y-94.25
X167.75Y-101.526
X167.76Y-93.16
X168.0Y-96.7
X168.0Y-97.35
X168.0Y-98.0
X168.088Y-113.637
X168.1Y-103.6
X168.1Y-104.25
X168.1Y-104.9
X168.12Y-120.54
X168.4Y-100.65
X168.55Y-94.2
X168.65Y-96.7
X168.65Y-97.35
X168.65Y-98.0
X168.75Y-103.6
X168.75Y-104.25
X168.75Y-104.9
X168.98Y-109.957
X169.0Y-117.895
X169.037Y-111.362
X169.1Y-101.3
X169.46Y-89.02
X169.61Y-82.03
X169.92Y-79.92
X169.95Y-106.05
X169.96Y-121.76
X169.98Y-91.25
X170.047Y-115.065
X170.61Y-119.35
X170.71Y-94.41
X170.8Y-98.3
X170.8Y-101.4
X170.812Y-78.647
X170.995Y-115.691
X171.02Y-81.43
X171.08Y-112.11
X171.15Y-113.0
X171.2Y-113.8
X171.4Y-103.6
X171.53Y-83.82
X171.7Y-110.65
X171.722Y-115.872
X171.92Y-91.69
X172.17Y-86.95
X172.32Y-122.96
X172.35Y-96.624
X172.47Y-88.77
X172.62Y-111.35
X172.94Y-115.92
X173.13Y-86.95
X173.4Y-110.65
X173.77Y-105.32
X173.79Y-101.79
X173.81Y-98.29
X173.853Y-115.53
X173.91Y-94.96
X174.3Y-91.65
X174.53Y-83.67
X174.541Y-106.9
X174.57Y-96.6
X174.571Y-110.35
X174.571Y-103.452
X174.59Y-100.044
X174.87Y-113.83
X175.225Y-114.535
X175.34Y-121.06
X175.35Y-112.87
X175.39Y-115.82
X175.4Y-118.125
X175.525Y-111.65
X175.677Y-115.102
X175.8Y-81.315
X176.225Y-119.975
X177.062Y-101.287
X177.062Y-104.7
X177.062Y-108.1
X177.088Y-94.438
X177.088Y-97.887
X177.096Y-95.387
X177.096Y-96.337
X177.096Y-98.837
X177.096Y-99.787
X177.096Y-102.237
X177.096Y-103.188
X177.096Y-105.65
X177.096Y-106.6
X177.096Y-109.05
X177.096Y-110.0
X177.2Y-122.642
X177.25Y-116.85
X177.625Y-114.35
X177.65Y-113.575
X177.65Y-115.075
X177.75Y-119.975
X177.9Y-122.65
X178.375Y-113.575
X178.375Y-114.375
X178.375Y-115.125
X178.96Y-77.43
X178.96Y-79.34
X179.11Y-86.401
X179.124Y-121.049
X179.338Y-101.287
X179.338Y-102.237
X179.338Y-103.188
X179.338Y-104.7
X179.338Y-105.65
X179.338Y-106.6
X179.338Y-108.1
X179.338Y-109.05
X179.338Y-110.0
X179.362Y-94.438
X179.362Y-95.387
X179.362Y-96.337
X179.362Y-97.887
X179.362Y-98.837
X179.362Y-99.787
X179.46Y-111.93
X179.7Y-77.44
X179.7Y-79.34
X179.743Y-91.596
X180.25Y-79.88
X180.5Y-77.56
X180.6Y-119.095
X180.8Y-80.47
X181.0Y-122.93
X181.078Y-78.03
X181.35Y-81.11
X181.35Y-81.82
X181.35Y-82.56
X181.656Y-78.53
X182.234Y-79.12
X182.66Y-114.2
X182.675Y-116.425
X182.812Y-79.68
X183.0Y-92.7
X183.08Y-100.67
X183.09Y-96.7
X183.13Y-110.85
X183.2Y-104.747
X183.39Y-80.3
X183.39Y-81.053
X183.39Y-81.807
X183.39Y-82.56
X183.45Y-108.747
X183.79Y-106.72
X183.9Y-102.8
X184.01Y-112.06
X184.016Y-119.597
X184.08Y-94.73
X184.1Y-100.69
X184.13Y-96.71
X184.15Y-98.65
X184.2Y-113.662
X184.8Y-103.7
X184.8Y-105.7
X185.35Y-110.497
X185.6Y-103.7
X185.6Y-105.7
X186.05Y-119.6
X189.18Y-93.15
X189.18Y-108.59
X189.2Y-101.01
T2
X144.58Y-106.86
X146.89Y-97.697
X146.89Y-99.697
X150.95Y-77.75
X151.85Y-77.75
X161.096Y-78.378
X161.75Y-82.4
X161.75Y-86.35
X161.75Y-90.45
X161.75Y-92.375
X162.446Y-78.378
X166.9Y-79.25
X166.95Y-89.75
X167.9Y-79.25
X167.9Y-89.75
X170.65Y-108.35
X172.4Y-95.0
X172.4Y-98.5
X172.4Y-101.85
X172.4Y-105.2
X172.4Y-108.7
X173.175Y-112.75
X175.8Y-77.041
X183.11Y-91.697
X184.0Y-93.65
X187.28Y-107.697
M30
